<svg width="800" height="314" viewBox="0 0 800 314" fill="none" xmlns="http://www.w3.org/2000/svg">
<g clip-path="url(#clip0)">
<rect width="400" height="60" fill="#FFF4BC" transform="translate(62 10)"/>
<path d="M6.48153 13H7.81108L5.7706 9.07138C6.8647 8.62358 7.47869 7.74183 7.47869 6.4446C7.47869 4.875 6.5554 3.54545 4.30256 3.54545H1.14489V13H2.28977V9.32528H4.60263L6.48153 13ZM2.28977 4.56108H4.30256C5.98295 4.56108 6.35227 5.55824 6.35227 6.4446C6.35227 7.49716 5.83523 8.27273 4.1733 8.27273H2.28977V4.56108ZM12.3171 13.1477C13.7574 13.1477 14.81 12.4276 15.1424 11.3565L14.0898 11.0611C13.8128 11.7997 13.185 12.169 12.3171 12.169C11.0337 12.169 10.2258 11.3565 10.115 9.82386H15.2532V9.36222C15.2532 6.72159 13.6836 5.81676 12.2063 5.81676C10.2858 5.81676 9.01169 7.33097 9.01169 9.50994C9.01169 11.6889 10.2674 13.1477 12.3171 13.1477ZM12.2063 6.79545C13.3881 6.79545 14.1452 7.68182 14.1452 8.8821H10.1381C10.3135 7.55256 11.1168 6.79545 12.2063 6.79545ZM20.1689 5.90909H18.6547V4.39489H17.5652V5.90909H16.4942V6.92472H17.5652V11.2642C17.5652 12.5014 18.5623 13.0923 19.4856 13.0923C19.8919 13.0923 20.1504 13.0185 20.2981 12.9631L20.0766 11.9844C19.9842 12.0028 19.8365 12.0398 19.5964 12.0398C19.1163 12.0398 18.6547 11.892 18.6547 10.9688V6.92472H20.1689V5.90909ZM26.5457 10.1932C26.5457 11.5227 25.5301 12.0398 24.7176 12.0398C23.8128 12.0398 23.1665 11.4489 23.1665 10.4148V5.90909H22.077V10.4148C22.077 12.2798 23.3326 13.0923 24.3667 13.0923C25.4378 13.0923 26.121 12.5384 26.4719 12.0028H26.5457V13H27.6352V5.90909H26.5457V10.1932ZM33.8054 6.05682C33.5839 5.92756 33.233 5.79829 32.8637 5.79829C32.0327 5.79829 31.2572 6.4446 31.054 7.12784H30.9802V5.90909H29.8907V13H30.9802V8.9929C30.9986 8.03267 31.6634 6.92472 32.8268 6.92472C33.1407 6.92472 33.3253 7.01705 33.4361 7.07244L33.8054 6.05682ZM36.3945 8.80824C36.3945 7.47869 37.4101 6.86932 38.2226 6.86932C39.1274 6.86932 39.7737 7.53409 39.7737 8.56818V13H40.8632V8.49432C40.8632 6.68466 39.903 5.81676 38.5734 5.81676C37.5024 5.81676 36.8007 6.3892 36.4683 7.10938H36.3945V5.90909H35.305V13H36.3945V8.80824ZM51.2821 13H52.3716V8.32812C52.3716 6.07528 50.6543 5.81676 49.7494 5.81676C48.6784 5.81676 47.4596 6.18608 46.9057 7.47869L47.9398 7.84801C48.1798 7.33097 48.7523 6.77699 49.8048 6.77699C50.6543 6.77699 51.2821 7.14631 51.2821 8.32812V8.34659C51.2821 8.80824 50.4327 8.77131 49.454 8.90057C48.1244 9.06676 46.7025 9.38068 46.7025 10.9872C46.7025 12.3722 47.7736 13.1662 49.1216 13.1662C50.3588 13.1662 51.0051 12.5014 51.2267 12.0398H51.2821V13ZM51.2821 10.4332C51.2821 11.3196 50.5804 12.1875 49.2878 12.1875C48.4199 12.1875 47.792 11.7997 47.792 11.0426C47.792 10.2116 48.5491 9.95312 49.3986 9.84233C49.8602 9.78693 51.0974 9.65767 51.2821 9.43608V10.4332ZM60.5096 13V3.54545H59.4201V7.03551H59.3462C59.1062 6.66619 58.663 5.81676 57.2781 5.81676C55.4869 5.81676 54.2497 7.23864 54.2497 9.47301C54.2497 11.7259 55.4869 13.1477 57.2596 13.1477C58.6261 13.1477 59.1062 12.2983 59.3462 11.9105H59.457V13H60.5096ZM55.3391 9.45455C55.3391 7.95881 56.0224 6.79545 57.4073 6.79545C58.7369 6.79545 59.4386 7.86648 59.4386 9.45455C59.4386 11.0611 58.7184 12.169 57.4073 12.169C56.0409 12.169 55.3391 10.9688 55.3391 9.45455ZM68.6915 13V3.54545H67.602V7.03551H67.5281C67.2881 6.66619 66.8449 5.81676 65.4599 5.81676C63.6687 5.81676 62.4315 7.23864 62.4315 9.47301C62.4315 11.7259 63.6687 13.1477 65.4415 13.1477C66.808 13.1477 67.2881 12.2983 67.5281 11.9105H67.6389V13H68.6915ZM63.521 9.45455C63.521 7.95881 64.2043 6.79545 65.5892 6.79545C66.9187 6.79545 67.6205 7.86648 67.6205 9.45455C67.6205 11.0611 66.9003 12.169 65.5892 12.169C64.2227 12.169 63.521 10.9688 63.521 9.45455ZM74.8606 6.05682C74.639 5.92756 74.2881 5.79829 73.9188 5.79829C73.0878 5.79829 72.3123 6.4446 72.1091 7.12784H72.0353V5.90909H70.9458V13H72.0353V8.9929C72.0537 8.03267 72.7185 6.92472 73.8819 6.92472C74.1958 6.92472 74.3804 7.01705 74.4912 7.07244L74.8606 6.05682ZM78.9142 13.1477C80.3545 13.1477 81.4071 12.4276 81.7394 11.3565L80.6869 11.0611C80.4099 11.7997 79.7821 12.169 78.9142 12.169C77.6308 12.169 76.8229 11.3565 76.7121 9.82386H81.8502V9.36222C81.8502 6.72159 80.2806 5.81676 78.8034 5.81676C76.8829 5.81676 75.6088 7.33097 75.6088 9.50994C75.6088 11.6889 76.8644 13.1477 78.9142 13.1477ZM78.8034 6.79545C79.9852 6.79545 80.7423 7.68182 80.7423 8.8821H76.7352C76.9106 7.55256 77.7139 6.79545 78.8034 6.79545ZM88.6864 7.49716C88.3171 6.46307 87.5231 5.81676 86.212 5.81676C84.7162 5.81676 83.6083 6.66619 83.6083 7.86648C83.6083 8.73438 84.1807 9.50994 85.4733 9.84233L86.6552 10.1378C87.3569 10.304 87.6708 10.6179 87.6708 11.0795C87.6708 11.6705 87.0799 12.206 86.0643 12.206C85.0117 12.206 84.5131 11.6335 84.2546 10.9872L83.2574 11.3565C83.6083 12.2429 84.3839 13.1477 86.0827 13.1477C87.837 13.1477 88.7787 12.1321 88.7787 11.0426C88.7787 10.2301 88.2432 9.49148 86.9506 9.17756L85.8981 8.91903C85.0856 8.71591 84.6978 8.29119 84.6978 7.81108C84.6978 7.2017 85.3441 6.74006 86.212 6.74006C87.3015 6.74006 87.5785 7.46023 87.7077 7.77415L88.6864 7.49716ZM95.5607 7.49716C95.1914 6.46307 94.3973 5.81676 93.0862 5.81676C91.5905 5.81676 90.4825 6.66619 90.4825 7.86648C90.4825 8.73438 91.055 9.50994 92.3476 9.84233L93.5294 10.1378C94.2311 10.304 94.545 10.6179 94.545 11.0795C94.545 11.6705 93.9541 12.206 92.9385 12.206C91.886 12.206 91.3874 11.6335 91.1289 10.9872L90.1317 11.3565C90.4825 12.2429 91.2581 13.1477 92.957 13.1477C94.7112 13.1477 95.653 12.1321 95.653 11.0426C95.653 10.2301 95.1175 9.49148 93.8249 9.17756L92.7723 8.91903C91.9598 8.71591 91.572 8.29119 91.572 7.81108C91.572 7.2017 92.2183 6.74006 93.0862 6.74006C94.1757 6.74006 94.4527 7.46023 94.582 7.77415L95.5607 7.49716ZM102.065 13H103.154V6.92472H104.742V5.90909H103.154V5.50284C103.154 4.80114 103.45 4.43182 104.17 4.43182C104.484 4.43182 104.668 4.50568 104.779 4.54261L105.093 3.60085C104.927 3.52699 104.595 3.41619 104.059 3.41619C103.043 3.41619 102.065 4.02557 102.065 5.24432V5.90909H100.92V6.92472H102.065V13ZM109.093 13.1477C111.013 13.1477 112.306 11.6889 112.306 9.49148C112.306 7.27557 111.013 5.81676 109.093 5.81676C107.172 5.81676 105.879 7.27557 105.879 9.49148C105.879 11.6889 107.172 13.1477 109.093 13.1477ZM109.093 12.169C107.634 12.169 106.969 10.9134 106.969 9.49148C106.969 8.0696 107.634 6.79545 109.093 6.79545C110.551 6.79545 111.216 8.0696 111.216 9.49148C111.216 10.9134 110.551 12.169 109.093 12.169ZM118.143 6.05682C117.922 5.92756 117.571 5.79829 117.202 5.79829C116.371 5.79829 115.595 6.4446 115.392 7.12784H115.318V5.90909H114.229V13H115.318V8.9929C115.337 8.03267 116.001 6.92472 117.165 6.92472C117.479 6.92472 117.663 7.01705 117.774 7.07244L118.143 6.05682ZM128.547 8.54972C128.547 7.55256 129.101 6.86932 130.062 6.86932C130.652 6.86932 131.446 7.22017 131.446 8.32812V13H132.536V8.36506C132.536 6.62926 131.576 5.81676 130.394 5.81676C129.36 5.81676 128.547 6.5 128.344 7.09091H128.27C127.956 6.3892 127.329 5.81676 126.442 5.81676C125.537 5.81676 124.799 6.5 124.596 7.10938H124.522V5.90909H123.432V13H124.522V8.77131C124.522 7.60795 125.316 6.86932 126.147 6.86932C126.941 6.86932 127.439 7.29403 127.439 8.36506V13H128.547V8.54972ZM139.035 13H140.125V8.32812C140.125 6.07528 138.407 5.81676 137.502 5.81676C136.431 5.81676 135.213 6.18608 134.659 7.47869L135.693 7.84801C135.933 7.33097 136.505 6.77699 137.558 6.77699C138.407 6.77699 139.035 7.14631 139.035 8.32812V8.34659C139.035 8.80824 138.186 8.77131 137.207 8.90057C135.877 9.06676 134.456 9.38068 134.456 10.9872C134.456 12.3722 135.527 13.1662 136.875 13.1662C138.112 13.1662 138.758 12.5014 138.98 12.0398H139.035V13ZM139.035 10.4332C139.035 11.3196 138.333 12.1875 137.041 12.1875C136.173 12.1875 135.545 11.7997 135.545 11.0426C135.545 10.2116 136.302 9.95312 137.152 9.84233C137.613 9.78693 138.85 9.65767 139.035 9.43608V10.4332ZM142.909 4.89347C143.389 4.89347 143.684 4.56108 143.684 4.15483C143.684 3.78551 143.389 3.41619 142.909 3.41619C142.429 3.41619 142.133 3.78551 142.133 4.15483C142.133 4.56108 142.429 4.89347 142.909 4.89347ZM143.463 5.90909H142.373V13H143.463V5.90909ZM146.808 8.80824C146.808 7.47869 147.823 6.86932 148.636 6.86932C149.541 6.86932 150.187 7.53409 150.187 8.56818V13H151.276V8.49432C151.276 6.68466 150.316 5.81676 148.987 5.81676C147.916 5.81676 147.214 6.3892 146.881 7.10938H146.808V5.90909H145.718V13H146.808V8.80824Z" transform="translate(111 17)" fill="black" fill-opacity="0.9"/>
<path d="M11.0422 10.1932C11.0422 11.5227 10.0266 12.0398 9.21409 12.0398C8.30926 12.0398 7.66296 11.4489 7.66296 10.4148V5.90909H6.57347V10.4148C6.57347 12.2798 7.82915 13.0923 8.86324 13.0923C9.93426 13.0923 10.6175 12.5384 10.9684 12.0028H11.0422V13H12.1317V5.90909H11.0422V10.1932ZM18.9852 5.90909H20.0747C19.7423 4.28409 18.819 3.39773 17.3233 3.39773C15.1627 3.39773 14.1471 5.24432 14.1471 8.16193V8.47585C14.1471 11.5043 15.1627 13.1293 17.2309 13.1293C19.1883 13.1293 20.2224 11.6705 20.2224 10.0824C20.2224 8.51278 19.1883 7.05398 17.3787 7.05398C16.64 7.05398 15.8368 7.29865 15.2782 7.91264C15.3428 5.06889 16.3584 4.43182 17.3417 4.43182C18.4497 4.43182 18.7636 5.24432 18.9852 5.90909ZM17.3602 8.0696C18.6528 8.0696 19.1329 9.02983 19.1329 10.0824C19.1329 11.3565 18.4127 12.1321 17.3233 12.1321C16.2984 12.1321 15.3843 11.4442 15.3659 10.0316C15.3843 8.84979 16.1922 8.0696 17.3602 8.0696ZM28.6455 10.2116H27.3529V3.54545H26.1526L21.887 10.5071V11.2273H26.3373V13H27.3529V11.2273H28.6455V10.2116ZM23.3088 10.2116L26.1526 5.44744L26.3373 4.83345V10.2116H23.3088Z" transform="translate(70 17)" fill="#517AAA"/>
<path opacity="0.4" d="M6.27841 5.98295H7.38636C7.29403 4.48722 6.01989 3.41619 4.19176 3.41619C2.3821 3.41619 0.960227 4.46875 0.960227 6.05682C0.960227 7.33097 1.88352 8.08807 3.3608 8.51278L4.52415 8.84517C5.7983 9.21449 6.40767 9.56534 6.40767 10.4148C6.40767 11.4489 5.41051 12.1321 4.09943 12.1321C2.97301 12.1321 1.97585 11.6335 1.88352 10.5625H0.701705C0.8125 12.1136 2.06818 13.1662 4.09943 13.1662C6.27841 13.1662 7.51562 11.9659 7.51562 10.4148C7.51562 9.10369 6.64773 8.30966 4.85653 7.82955L3.89631 7.57102C2.64062 7.23864 2.06818 6.77699 2.06818 6.01989C2.06818 5.09659 2.89915 4.43182 4.15483 4.43182C5.29972 4.43182 6.11222 4.96733 6.27841 5.98295ZM12.833 9.58381C15.0304 9.58381 15.9906 8.2358 15.9906 6.53693C15.9906 4.83807 15.0304 3.54545 12.8145 3.54545H9.65684V13H10.8017V9.58381H12.833ZM10.8017 4.56108H12.8145C14.3472 4.56108 14.8642 5.37358 14.8642 6.53693C14.8642 7.70028 14.3472 8.56818 12.833 8.56818H10.8017V4.56108ZM28.0553 7.75568H25.6178V5.31818H24.5837V7.75568H22.1462V8.78977H24.5837V11.2273H25.6178V8.78977H28.0553V7.75568ZM32.6675 8.73438H33.203C34.3479 8.73438 35.1789 9.30682 35.1789 10.4332C35.1789 11.5781 34.3294 12.1506 33.2769 12.1506C32.2243 12.1506 31.6334 11.5781 31.6334 10.6364H30.4516C30.4516 12.2614 31.6334 13.1293 33.2953 13.1293C34.9757 13.1293 36.3791 12.1321 36.3791 10.4332C36.3791 9.59766 36.0329 8.58665 34.7818 8.16193C35.779 7.6772 36.176 6.70774 36.176 6.03835C36.176 4.32102 34.9757 3.41619 33.3323 3.41619C31.5226 3.41619 30.5439 4.52415 30.5439 5.90909H31.6334C31.6334 4.98579 32.2982 4.32102 33.3138 4.32102C34.3294 4.32102 35.0496 4.96733 35.0496 6.01989C35.0496 6.92472 34.3848 7.68182 33.203 7.68182H32.6675V8.73438ZM44.5437 11.9844H39.9088V11.929L42.457 9.32528C43.4357 8.32812 44.3036 7.18324 44.3036 6.09375C44.3036 4.54261 43.1218 3.41619 41.386 3.41619C39.3548 3.41619 38.5423 4.96733 38.5423 6.5H39.6687C39.6687 5.41051 40.0749 4.35795 41.3491 4.35795C42.494 4.35795 43.1957 5.18892 43.1957 6.13068C43.1957 6.94318 42.6602 7.57102 41.5153 8.75284L38.1914 12.169V13H44.5437V11.9844Z" transform="translate(475 2)" fill="black"/>
<path opacity="0.1" d="M0 0H6" transform="translate(466 10.5)" stroke="black"/>
<path opacity="0.4" d="M7.03551 7.73722C7.03551 4.96733 5.94602 3.41619 3.89631 3.41619C1.82812 3.41619 0.72017 4.96733 0.72017 7.73722V8.64205C0.72017 11.4304 1.84659 13.1293 3.91477 13.1293C5.96449 13.1293 7.03551 11.4304 7.03551 8.64205V7.73722ZM5.89062 8.84517C5.89062 10.6179 5.26278 12.1136 3.91477 12.1136C2.5483 12.1136 1.86506 10.6179 1.86506 8.84517V7.53409C1.86506 5.7429 2.52983 4.43182 3.89631 4.43182C5.24432 4.43182 5.89062 5.7429 5.89062 7.53409V8.84517ZM10.0895 5.90909H8.83386L11.0867 9.45455L8.83386 13H10.0895L11.7884 10.2486L13.4873 13H14.743L12.4532 9.45455L14.743 5.90909H13.4873L11.7884 8.80824L10.0895 5.90909ZM22.1549 7.75568H18.2402V4.56108H22.7643V3.54545H17.0953V13H18.2402V8.77131H22.1549V7.75568ZM30.4348 7.75568H26.52V4.56108H31.0442V3.54545H25.3752V13H26.52V8.77131H30.4348V7.75568ZM38.7147 7.75568H34.7999V4.56108H39.3241V3.54545H33.655V13H34.7999V8.77131H38.7147V7.75568ZM46.9946 7.75568H43.0798V4.56108H47.604V3.54545H41.9349V13H43.0798V8.77131H46.9946V7.75568Z" transform="translate(0 2)" fill="black"/>
<path opacity="0.1" d="M0 0H6" transform="translate(52 10.5)" stroke="black"/>
<path opacity="0.07" d="M0 0H400" transform="translate(62 10.5)" stroke="black"/>
<path opacity="0.4" d="M4.34659 4.14205H5.11364C5.04972 3.10653 4.16761 2.36506 2.90199 2.36506C1.64915 2.36506 0.664773 3.09375 0.664773 4.19318C0.664773 5.07528 1.30398 5.59943 2.3267 5.89347L3.1321 6.12358C4.0142 6.37926 4.43608 6.62216 4.43608 7.21023C4.43608 7.92614 3.74574 8.39915 2.83807 8.39915C2.05824 8.39915 1.3679 8.05398 1.30398 7.3125H0.485795C0.5625 8.38636 1.43182 9.11506 2.83807 9.11506C4.34659 9.11506 5.20312 8.28409 5.20312 7.21023C5.20312 6.30256 4.60227 5.75284 3.36222 5.42045L2.69744 5.24148C1.82812 5.01136 1.43182 4.69176 1.43182 4.16761C1.43182 3.52841 2.0071 3.06818 2.87642 3.06818C3.66903 3.06818 4.23153 3.43892 4.34659 4.14205ZM8.64147 4.09091H7.59317V3.04261H6.83891V4.09091H6.09744V4.79403H6.83891V7.7983C6.83891 8.65483 7.52925 9.06392 8.16846 9.06392C8.44971 9.06392 8.62869 9.01278 8.73096 8.97443L8.57755 8.29688C8.51363 8.30966 8.41136 8.33523 8.24516 8.33523C7.91278 8.33523 7.59317 8.23295 7.59317 7.59375V4.79403H8.64147V4.09091ZM12.9028 9H13.6571V5.76562C13.6571 4.20597 12.4681 4.02699 11.8417 4.02699C11.1002 4.02699 10.2565 4.28267 9.87296 5.17756L10.5889 5.43324C10.7551 5.07528 11.1514 4.69176 11.8801 4.69176C12.4681 4.69176 12.9028 4.94744 12.9028 5.76562V5.77841C12.9028 6.09801 12.3147 6.07244 11.6372 6.16193C10.7167 6.27699 9.73234 6.49432 9.73234 7.60653C9.73234 8.56534 10.4738 9.11506 11.4071 9.11506C12.2636 9.11506 12.711 8.65483 12.8644 8.33523H12.9028V9ZM12.9028 7.22301C12.9028 7.83665 12.417 8.4375 11.5221 8.4375C10.9213 8.4375 10.4866 8.16903 10.4866 7.64489C10.4866 7.0696 11.0107 6.89062 11.5988 6.81392C11.9184 6.77557 12.775 6.68608 12.9028 6.53267V7.22301ZM19.1121 5.56108C18.9842 4.64062 18.2044 4.02699 17.1689 4.02699C15.8394 4.02699 14.9573 5.07528 14.9573 6.54545C14.9573 8.05398 15.8138 9.10227 17.1817 9.10227C18.2683 9.10227 18.9842 8.4375 19.1121 7.56818H18.3578C18.2172 8.10511 17.7698 8.42472 17.1817 8.42472C16.2868 8.42472 15.7115 7.68324 15.7115 6.54545C15.7115 5.43324 16.2996 4.70455 17.1817 4.70455C17.8465 4.70455 18.2428 5.11364 18.3578 5.56108H19.1121ZM23.2951 9H24.1772L22.0423 6.18111L23.9727 4.09091H23.0394L21.0451 6.30256H20.9556V2.45455H20.2014V9H20.9556V7.28374L21.5341 6.66051L23.2951 9ZM28.6369 6.03409C28.6369 5.11364 29.3017 4.75568 29.9025 4.75568C30.5545 4.75568 30.9764 5.16477 30.9764 5.88068V9H31.7307V5.88068C31.7307 4.66619 31.0659 4.02699 30.1454 4.02699C29.404 4.02699 28.9309 4.41051 28.688 4.78125H28.6369V2.45455H27.8826V9H28.6369V6.03409ZM36.2325 9H36.9867V5.76562C36.9867 4.20597 35.7978 4.02699 35.1714 4.02699C34.4299 4.02699 33.5862 4.28267 33.2026 5.17756L33.9186 5.43324C34.0847 5.07528 34.4811 4.69176 35.2097 4.69176C35.7978 4.69176 36.2325 4.94744 36.2325 5.76562V5.77841C36.2325 6.09801 35.6444 6.07244 34.9669 6.16193C34.0464 6.27699 33.062 6.49432 33.062 7.60653C33.062 8.56534 33.8035 9.11506 34.7367 9.11506C35.5933 9.11506 36.0407 8.65483 36.1941 8.33523H36.2325V9ZM36.2325 7.22301C36.2325 7.83665 35.7467 8.4375 34.8518 8.4375C34.2509 8.4375 33.8163 8.16903 33.8163 7.64489C33.8163 7.0696 34.3404 6.89062 34.9285 6.81392C35.2481 6.77557 36.1046 6.68608 36.2325 6.53267V7.22301ZM41.9312 5.19034C41.6755 4.47443 41.1258 4.02699 40.2181 4.02699C39.1826 4.02699 38.4156 4.61506 38.4156 5.44602C38.4156 6.04688 38.8119 6.58381 39.7068 6.81392L40.525 7.01847C41.0108 7.13352 41.2281 7.35085 41.2281 7.67045C41.2281 8.07955 40.819 8.45028 40.1159 8.45028C39.3872 8.45028 39.042 8.05398 38.863 7.60653L38.1727 7.86222C38.4156 8.47585 38.9525 9.10227 40.1287 9.10227C41.3431 9.10227 41.9951 8.39915 41.9951 7.64489C41.9951 7.08239 41.6244 6.57102 40.7295 6.35369L40.0008 6.17472C39.4383 6.03409 39.1698 5.74006 39.1698 5.40767C39.1698 4.9858 39.6173 4.66619 40.2181 4.66619C40.9724 4.66619 41.1642 5.16477 41.2537 5.3821L41.9312 5.19034ZM49.4767 4.09091V4.87074H49.4C49.2338 4.61506 48.927 4.02699 47.9681 4.02699C46.7281 4.02699 45.8716 5.01136 45.8716 6.51989C45.8716 8.05398 46.7664 8.9233 47.9554 8.9233C48.9142 8.9233 49.221 8.3608 49.3872 8.09233H49.4511V8.96165C49.4639 9.77983 48.8119 10.1634 48.0576 10.1634C47.2139 10.1634 46.8687 9.67756 46.677 9.43466L46.0761 9.85653C46.3829 10.3807 47.0093 10.8409 48.0576 10.8409C49.1954 10.8409 50.2054 10.304 50.2054 9.03835V4.09091H49.4767ZM46.6258 6.5071C46.6258 5.50994 47.0988 4.70455 48.0576 4.70455C48.9781 4.70455 49.4639 5.44602 49.4639 6.5071C49.4639 7.59375 48.9653 8.24574 48.0576 8.24574C47.1116 8.24574 46.6258 7.52983 46.6258 6.5071ZM54.4763 4.19318C54.3229 4.10369 54.08 4.0142 53.8243 4.0142C53.249 4.0142 52.7121 4.46165 52.5714 4.93466H52.5203V4.09091H51.766V9H52.5203V6.22585C52.5331 5.56108 52.9933 4.79403 53.7987 4.79403C54.016 4.79403 54.1439 4.85795 54.2206 4.89631L54.4763 4.19318ZM57.2187 9.10227C58.5482 9.10227 59.4431 8.09233 59.4431 6.57102C59.4431 5.03693 58.5482 4.02699 57.2187 4.02699C55.8891 4.02699 54.9943 5.03693 54.9943 6.57102C54.9943 8.09233 55.8891 9.10227 57.2187 9.10227ZM57.2187 8.42472C56.2087 8.42472 55.7485 7.5554 55.7485 6.57102C55.7485 5.58665 56.2087 4.70455 57.2187 4.70455C58.2286 4.70455 58.6889 5.58665 58.6889 6.57102C58.6889 7.5554 58.2286 8.42472 57.2187 8.42472ZM66.914 4.09091H66.1214L65.0603 7.83665H65.0092L63.9737 4.09091H63.1683L62.12 7.84943H62.0689L61.0078 4.09091H60.2152L61.7109 9H62.4524L63.5263 5.22869H63.603L64.6768 9H65.4183L66.914 4.09091ZM68.8455 6.09801C68.8455 5.17756 69.5486 4.75568 70.1111 4.75568C70.7375 4.75568 71.1849 5.21591 71.1849 5.93182V9H71.9392V5.88068C71.9392 4.62784 71.2744 4.02699 70.354 4.02699C69.6125 4.02699 69.1267 4.4233 68.8966 4.92188H68.8455V4.09091H68.0912V9H68.8455V6.09801ZM78.2702 4.09091H77.2219V3.04261H76.4676V4.09091H75.7261V4.79403H76.4676V7.7983C76.4676 8.65483 77.158 9.06392 77.7972 9.06392C78.0784 9.06392 78.2574 9.01278 78.3597 8.97443L78.2063 8.29688C78.1423 8.30966 78.0401 8.33523 77.8739 8.33523C77.5415 8.33523 77.2219 8.23295 77.2219 7.59375V4.79403H78.2702V4.09091ZM81.524 9.10227C82.8535 9.10227 83.7484 8.09233 83.7484 6.57102C83.7484 5.03693 82.8535 4.02699 81.524 4.02699C80.1944 4.02699 79.2995 5.03693 79.2995 6.57102C79.2995 8.09233 80.1944 9.10227 81.524 9.10227ZM81.524 8.42472C80.514 8.42472 80.0538 7.5554 80.0538 6.57102C80.0538 5.58665 80.514 4.70455 81.524 4.70455C82.5339 4.70455 82.9941 5.58665 82.9941 6.57102C82.9941 7.5554 82.5339 8.42472 81.524 8.42472ZM90.7313 9H91.4856V5.76562C91.4856 4.20597 90.2967 4.02699 89.6703 4.02699C88.9288 4.02699 88.085 4.28267 87.7015 5.17756L88.4174 5.43324C88.5836 5.07528 88.9799 4.69176 89.7086 4.69176C90.2967 4.69176 90.7313 4.94744 90.7313 5.76562V5.77841C90.7313 6.09801 90.1433 6.07244 89.4657 6.16193C88.5453 6.27699 87.5609 6.49432 87.5609 7.60653C87.5609 8.56534 88.3024 9.11506 89.2356 9.11506C90.0921 9.11506 90.5396 8.65483 90.693 8.33523H90.7313V9ZM90.7313 7.22301C90.7313 7.83665 90.2455 8.4375 89.3507 8.4375C88.7498 8.4375 88.3152 8.16903 88.3152 7.64489C88.3152 7.0696 88.8393 6.89062 89.4274 6.81392C89.747 6.77557 90.6035 6.68608 90.7313 6.53267V7.22301ZM96.9406 5.56108C96.8128 4.64062 96.033 4.02699 94.9975 4.02699C93.6679 4.02699 92.7858 5.07528 92.7858 6.54545C92.7858 8.05398 93.6423 9.10227 95.0102 9.10227C96.0969 9.10227 96.8128 8.4375 96.9406 7.56818H96.1864C96.0458 8.10511 95.5983 8.42472 95.0102 8.42472C94.1154 8.42472 93.5401 7.68324 93.5401 6.54545C93.5401 5.43324 94.1281 4.70455 95.0102 4.70455C95.675 4.70455 96.0713 5.11364 96.1864 5.56108H96.9406ZM102.157 5.56108C102.029 4.64062 101.249 4.02699 100.214 4.02699C98.884 4.02699 98.0019 5.07528 98.0019 6.54545C98.0019 8.05398 98.8585 9.10227 100.226 9.10227C101.313 9.10227 102.029 8.4375 102.157 7.56818H101.403C101.262 8.10511 100.814 8.42472 100.226 8.42472C99.3315 8.42472 98.7562 7.68324 98.7562 6.54545C98.7562 5.43324 99.3443 4.70455 100.226 4.70455C100.891 4.70455 101.287 5.11364 101.403 5.56108H102.157ZM105.443 9.10227C106.772 9.10227 107.667 8.09233 107.667 6.57102C107.667 5.03693 106.772 4.02699 105.443 4.02699C104.113 4.02699 103.218 5.03693 103.218 6.57102C103.218 8.09233 104.113 9.10227 105.443 9.10227ZM105.443 8.42472C104.433 8.42472 103.972 7.5554 103.972 6.57102C103.972 5.58665 104.433 4.70455 105.443 4.70455C106.452 4.70455 106.913 5.58665 106.913 6.57102C106.913 7.5554 106.452 8.42472 105.443 8.42472ZM112.54 5.91903C112.54 5.22869 112.923 4.75568 113.588 4.75568C113.997 4.75568 114.547 4.99858 114.547 5.76562V9H115.301V5.79119C115.301 4.58949 114.636 4.02699 113.818 4.02699C113.102 4.02699 112.54 4.5 112.399 4.90909H112.348C112.13 4.4233 111.696 4.02699 111.082 4.02699C110.456 4.02699 109.944 4.5 109.804 4.92188H109.753V4.09091H108.998V9H109.753V6.07244C109.753 5.26705 110.302 4.75568 110.878 4.75568C111.427 4.75568 111.772 5.04972 111.772 5.79119V9H112.54V5.91903ZM118.828 9.10227C120.157 9.10227 121.052 8.09233 121.052 6.57102C121.052 5.03693 120.157 4.02699 118.828 4.02699C117.498 4.02699 116.603 5.03693 116.603 6.57102C116.603 8.09233 117.498 9.10227 118.828 9.10227ZM118.828 8.42472C117.818 8.42472 117.358 7.5554 117.358 6.57102C117.358 5.58665 117.818 4.70455 118.828 4.70455C119.838 4.70455 120.298 5.58665 120.298 6.57102C120.298 7.5554 119.838 8.42472 118.828 8.42472ZM126.487 9V2.45455H125.733V4.87074H125.682C125.516 4.61506 125.209 4.02699 124.25 4.02699C123.01 4.02699 122.154 5.01136 122.154 6.55824C122.154 8.1179 123.01 9.10227 124.237 9.10227C125.183 9.10227 125.516 8.5142 125.682 8.24574H125.759V9H126.487ZM122.908 6.54545C122.908 5.50994 123.381 4.70455 124.34 4.70455C125.26 4.70455 125.746 5.44602 125.746 6.54545C125.746 7.65767 125.247 8.42472 124.34 8.42472C123.394 8.42472 122.908 7.59375 122.908 6.54545ZM130.988 9H131.743V5.76562C131.743 4.20597 130.554 4.02699 129.927 4.02699C129.186 4.02699 128.342 4.28267 127.959 5.17756L128.674 5.43324C128.841 5.07528 129.237 4.69176 129.966 4.69176C130.554 4.69176 130.988 4.94744 130.988 5.76562V5.77841C130.988 6.09801 130.4 6.07244 129.723 6.16193C128.802 6.27699 127.818 6.49432 127.818 7.60653C127.818 8.56534 128.559 9.11506 129.493 9.11506C130.349 9.11506 130.797 8.65483 130.95 8.33523H130.988V9ZM130.988 7.22301C130.988 7.83665 130.503 8.4375 129.608 8.4375C129.007 8.4375 128.572 8.16903 128.572 7.64489C128.572 7.0696 129.096 6.89062 129.684 6.81392C130.004 6.77557 130.861 6.68608 130.988 6.53267V7.22301ZM135.305 4.09091H134.257V3.04261H133.502V4.09091H132.761V4.79403H133.502V7.7983C133.502 8.65483 134.193 9.06392 134.832 9.06392C135.113 9.06392 135.292 9.01278 135.394 8.97443L135.241 8.29688C135.177 8.30966 135.075 8.33523 134.909 8.33523C134.576 8.33523 134.257 8.23295 134.257 7.59375V4.79403H135.305V4.09091ZM138.623 9.10227C139.62 9.10227 140.348 8.60369 140.579 7.86222L139.85 7.65767C139.658 8.16903 139.223 8.42472 138.623 8.42472C137.734 8.42472 137.175 7.86222 137.098 6.80114H140.655V6.48153C140.655 4.65341 139.569 4.02699 138.546 4.02699C137.216 4.02699 136.334 5.07528 136.334 6.58381C136.334 8.09233 137.204 9.10227 138.623 9.10227ZM138.546 4.70455C139.364 4.70455 139.888 5.31818 139.888 6.14915H137.114C137.235 5.22869 137.792 4.70455 138.546 4.70455ZM146.77 4.09091H145.721V3.04261H144.967V4.09091H144.226V4.79403H144.967V7.7983C144.967 8.65483 145.657 9.06392 146.297 9.06392C146.578 9.06392 146.757 9.01278 146.859 8.97443L146.706 8.29688C146.642 8.30966 146.54 8.33523 146.373 8.33523C146.041 8.33523 145.721 8.23295 145.721 7.59375V4.79403H146.77V4.09091ZM148.845 6.03409C148.845 5.11364 149.51 4.75568 150.111 4.75568C150.763 4.75568 151.184 5.16477 151.184 5.88068V9H151.939V5.88068C151.939 4.66619 151.274 4.02699 150.353 4.02699C149.612 4.02699 149.139 4.41051 148.896 4.78125H148.845V2.45455H148.091V9H148.845V6.03409ZM155.532 9.10227C156.529 9.10227 157.258 8.60369 157.488 7.86222L156.759 7.65767C156.568 8.16903 156.133 8.42472 155.532 8.42472C154.644 8.42472 154.084 7.86222 154.008 6.80114H157.565V6.48153C157.565 4.65341 156.478 4.02699 155.455 4.02699C154.126 4.02699 153.244 5.07528 153.244 6.58381C153.244 8.09233 154.113 9.10227 155.532 9.10227ZM155.455 4.70455C156.273 4.70455 156.798 5.31818 156.798 6.14915H154.023C154.145 5.22869 154.701 4.70455 155.455 4.70455ZM165.546 5.56108C165.418 4.64062 164.638 4.02699 163.602 4.02699C162.273 4.02699 161.391 5.07528 161.391 6.54545C161.391 8.05398 162.247 9.10227 163.615 9.10227C164.702 9.10227 165.418 8.4375 165.546 7.56818H164.791C164.651 8.10511 164.203 8.42472 163.615 8.42472C162.72 8.42472 162.145 7.68324 162.145 6.54545C162.145 5.43324 162.733 4.70455 163.615 4.70455C164.28 4.70455 164.676 5.11364 164.791 5.56108H165.546ZM169.769 9H170.523V5.76562C170.523 4.20597 169.334 4.02699 168.707 4.02699C167.966 4.02699 167.122 4.28267 166.739 5.17756L167.455 5.43324C167.621 5.07528 168.017 4.69176 168.746 4.69176C169.334 4.69176 169.769 4.94744 169.769 5.76562V5.77841C169.769 6.09801 169.181 6.07244 168.503 6.16193C167.582 6.27699 166.598 6.49432 166.598 7.60653C166.598 8.56534 167.34 9.11506 168.273 9.11506C169.129 9.11506 169.577 8.65483 169.73 8.33523H169.769V9ZM169.769 7.22301C169.769 7.83665 169.283 8.4375 168.388 8.4375C167.787 8.4375 167.352 8.16903 167.352 7.64489C167.352 7.0696 167.877 6.89062 168.465 6.81392C168.784 6.77557 169.641 6.68608 169.769 6.53267V7.22301ZM172.834 2.45455H172.08V9H172.834V2.45455ZM175.044 2.45455H174.29V9H175.044V2.45455ZM179.649 9H180.403V4.79403H181.503V4.09091H180.403V3.80966C180.403 3.32386 180.608 3.06818 181.107 3.06818C181.324 3.06818 181.452 3.11932 181.528 3.14489L181.746 2.4929C181.631 2.44176 181.401 2.36506 181.03 2.36506C180.327 2.36506 179.649 2.78693 179.649 3.63068V4.09091H178.857V4.79403H179.649V9ZM185.433 4.19318C185.279 4.10369 185.036 4.0142 184.781 4.0142C184.205 4.0142 183.668 4.46165 183.528 4.93466H183.477V4.09091H182.722V9H183.477V6.22585C183.489 5.56108 183.95 4.79403 184.755 4.79403C184.972 4.79403 185.1 4.85795 185.177 4.89631L185.433 4.19318ZM189.323 9H190.077V5.76562C190.077 4.20597 188.889 4.02699 188.262 4.02699C187.521 4.02699 186.677 4.28267 186.293 5.17756L187.009 5.43324C187.175 5.07528 187.572 4.69176 188.3 4.69176C188.889 4.69176 189.323 4.94744 189.323 5.76562V5.77841C189.323 6.09801 188.735 6.07244 188.058 6.16193C187.137 6.27699 186.153 6.49432 186.153 7.60653C186.153 8.56534 186.894 9.11506 187.827 9.11506C188.684 9.11506 189.131 8.65483 189.285 8.33523H189.323V9ZM189.323 7.22301C189.323 7.83665 188.837 8.4375 187.942 8.4375C187.342 8.4375 186.907 8.16903 186.907 7.64489C186.907 7.0696 187.431 6.89062 188.019 6.81392C188.339 6.77557 189.195 6.68608 189.323 6.53267V7.22301ZM195.175 5.91903C195.175 5.22869 195.559 4.75568 196.224 4.75568C196.633 4.75568 197.182 4.99858 197.182 5.76562V9H197.937V5.79119C197.937 4.58949 197.272 4.02699 196.454 4.02699C195.738 4.02699 195.175 4.5 195.035 4.90909H194.984C194.766 4.4233 194.332 4.02699 193.718 4.02699C193.092 4.02699 192.58 4.5 192.44 4.92188H192.388V4.09091H191.634V9H192.388V6.07244C192.388 5.26705 192.938 4.75568 193.513 4.75568C194.063 4.75568 194.408 5.04972 194.408 5.79119V9H195.175V5.91903ZM201.528 9.10227C202.525 9.10227 203.253 8.60369 203.484 7.86222L202.755 7.65767C202.563 8.16903 202.128 8.42472 201.528 8.42472C200.639 8.42472 200.08 7.86222 200.003 6.80114H203.56V6.48153C203.56 4.65341 202.474 4.02699 201.451 4.02699C200.121 4.02699 199.239 5.07528 199.239 6.58381C199.239 8.09233 200.109 9.10227 201.528 9.10227ZM201.451 4.70455C202.269 4.70455 202.793 5.31818 202.793 6.14915H200.019C200.141 5.22869 200.697 4.70455 201.451 4.70455ZM207.949 9H208.703V4.79403H209.803V4.09091H208.703V3.80966C208.703 3.32386 208.908 3.06818 209.406 3.06818C209.624 3.06818 209.751 3.11932 209.828 3.14489L210.045 2.4929C209.93 2.44176 209.7 2.36506 209.33 2.36506C208.626 2.36506 207.949 2.78693 207.949 3.63068V4.09091H207.156V4.79403H207.949V9ZM212.814 9.10227C214.144 9.10227 215.039 8.09233 215.039 6.57102C215.039 5.03693 214.144 4.02699 212.814 4.02699C211.485 4.02699 210.59 5.03693 210.59 6.57102C210.59 8.09233 211.485 9.10227 212.814 9.10227ZM212.814 8.42472C211.804 8.42472 211.344 7.5554 211.344 6.57102C211.344 5.58665 211.804 4.70455 212.814 4.70455C213.824 4.70455 214.284 5.58665 214.284 6.57102C214.284 7.5554 213.824 8.42472 212.814 8.42472ZM219.08 4.19318C218.927 4.10369 218.684 4.0142 218.428 4.0142C217.853 4.0142 217.316 4.46165 217.175 4.93466H217.124V4.09091H216.37V9H217.124V6.22585C217.137 5.56108 217.597 4.79403 218.403 4.79403C218.62 4.79403 218.748 4.85795 218.825 4.89631L219.08 4.19318ZM224.8 4.09091H223.752V3.04261H222.997V4.09091H222.256V4.79403H222.997V7.7983C222.997 8.65483 223.688 9.06392 224.327 9.06392C224.608 9.06392 224.787 9.01278 224.89 8.97443L224.736 8.29688C224.672 8.30966 224.57 8.33523 224.404 8.33523C224.071 8.33523 223.752 8.23295 223.752 7.59375V4.79403H224.8V4.09091ZM226.875 6.03409C226.875 5.11364 227.54 4.75568 228.141 4.75568C228.793 4.75568 229.215 5.16477 229.215 5.88068V9H229.969V5.88068C229.969 4.66619 229.304 4.02699 228.384 4.02699C227.642 4.02699 227.169 4.41051 226.926 4.78125H226.875V2.45455H226.121V9H226.875V6.03409ZM233.562 9.10227C234.56 9.10227 235.288 8.60369 235.518 7.86222L234.79 7.65767C234.598 8.16903 234.163 8.42472 233.562 8.42472C232.674 8.42472 232.115 7.86222 232.038 6.80114H235.595V6.48153C235.595 4.65341 234.508 4.02699 233.486 4.02699C232.156 4.02699 231.274 5.07528 231.274 6.58381C231.274 8.09233 232.143 9.10227 233.562 9.10227ZM233.486 4.70455C234.304 4.70455 234.828 5.31818 234.828 6.14915H232.054C232.175 5.22869 232.731 4.70455 233.486 4.70455ZM243.192 5.91903C243.192 5.22869 243.576 4.75568 244.241 4.75568C244.65 4.75568 245.2 4.99858 245.2 5.76562V9H245.954V5.79119C245.954 4.58949 245.289 4.02699 244.471 4.02699C243.755 4.02699 243.192 4.5 243.052 4.90909H243.001C242.783 4.4233 242.349 4.02699 241.735 4.02699C241.109 4.02699 240.597 4.5 240.457 4.92188H240.405V4.09091H239.651V9H240.405V6.07244C240.405 5.26705 240.955 4.75568 241.53 4.75568C242.08 4.75568 242.425 5.04972 242.425 5.79119V9H243.192V5.91903ZM250.453 9H251.207V5.76562C251.207 4.20597 250.019 4.02699 249.392 4.02699C248.651 4.02699 247.807 4.28267 247.423 5.17756L248.139 5.43324C248.305 5.07528 248.702 4.69176 249.43 4.69176C250.019 4.69176 250.453 4.94744 250.453 5.76562V5.77841C250.453 6.09801 249.865 6.07244 249.188 6.16193C248.267 6.27699 247.283 6.49432 247.283 7.60653C247.283 8.56534 248.024 9.11506 248.957 9.11506C249.814 9.11506 250.261 8.65483 250.415 8.33523H250.453V9ZM250.453 7.22301C250.453 7.83665 249.967 8.4375 249.073 8.4375C248.472 8.4375 248.037 8.16903 248.037 7.64489C248.037 7.0696 248.561 6.89062 249.149 6.81392C249.469 6.77557 250.325 6.68608 250.453 6.53267V7.22301ZM253.135 3.38778C253.467 3.38778 253.672 3.15767 253.672 2.87642C253.672 2.62074 253.467 2.36506 253.135 2.36506C252.803 2.36506 252.598 2.62074 252.598 2.87642C252.598 3.15767 252.803 3.38778 253.135 3.38778ZM253.518 4.09091H252.764V9H253.518V4.09091ZM255.834 6.09801C255.834 5.17756 256.537 4.75568 257.1 4.75568C257.726 4.75568 258.174 5.21591 258.174 5.93182V9H258.928V5.88068C258.928 4.62784 258.263 4.02699 257.343 4.02699C256.601 4.02699 256.115 4.4233 255.885 4.92188H255.834V4.09091H255.08V9H255.834V6.09801ZM263.533 9H264.287V4.79403H265.387V4.09091H264.287V3.80966C264.287 3.32386 264.492 3.06818 264.99 3.06818C265.208 3.06818 265.336 3.11932 265.412 3.14489L265.63 2.4929C265.515 2.44176 265.284 2.36506 264.914 2.36506C264.211 2.36506 263.533 2.78693 263.533 3.63068V4.09091H262.74V4.79403H263.533V9ZM269.7 7.05682C269.7 7.97727 268.997 8.33523 268.434 8.33523C267.808 8.33523 267.36 7.92614 267.36 7.21023V4.09091H266.606V7.21023C266.606 8.50142 267.476 9.06392 268.191 9.06392C268.933 9.06392 269.406 8.6804 269.649 8.30966H269.7V9H270.454V4.09091H269.7V7.05682ZM272.77 6.09801C272.77 5.17756 273.473 4.75568 274.036 4.75568C274.662 4.75568 275.109 5.21591 275.109 5.93182V9H275.864V5.88068C275.864 4.62784 275.199 4.02699 274.279 4.02699C273.537 4.02699 273.051 4.4233 272.821 4.92188H272.77V4.09091H272.016V9H272.77V6.09801ZM281.324 5.56108C281.196 4.64062 280.416 4.02699 279.38 4.02699C278.051 4.02699 277.169 5.07528 277.169 6.54545C277.169 8.05398 278.025 9.10227 279.393 9.10227C280.48 9.10227 281.196 8.4375 281.324 7.56818H280.569C280.429 8.10511 279.981 8.42472 279.393 8.42472C278.498 8.42472 277.923 7.68324 277.923 6.54545C277.923 5.43324 278.511 4.70455 279.393 4.70455C280.058 4.70455 280.454 5.11364 280.569 5.56108H281.324ZM284.735 4.09091H283.686V3.04261H282.932V4.09091H282.191V4.79403H282.932V7.7983C282.932 8.65483 283.623 9.06392 284.262 9.06392C284.543 9.06392 284.722 9.01278 284.824 8.97443L284.671 8.29688C284.607 8.30966 284.505 8.33523 284.338 8.33523C284.006 8.33523 283.686 8.23295 283.686 7.59375V4.79403H284.735V4.09091ZM286.426 3.38778C286.759 3.38778 286.963 3.15767 286.963 2.87642C286.963 2.62074 286.759 2.36506 286.426 2.36506C286.094 2.36506 285.89 2.62074 285.89 2.87642C285.89 3.15767 286.094 3.38778 286.426 3.38778ZM286.81 4.09091H286.056V9H286.81V4.09091ZM290.366 9.10227C291.695 9.10227 292.59 8.09233 292.59 6.57102C292.59 5.03693 291.695 4.02699 290.366 4.02699C289.036 4.02699 288.141 5.03693 288.141 6.57102C288.141 8.09233 289.036 9.10227 290.366 9.10227ZM290.366 8.42472C289.356 8.42472 288.896 7.5554 288.896 6.57102C288.896 5.58665 289.356 4.70455 290.366 4.70455C291.376 4.70455 291.836 5.58665 291.836 6.57102C291.836 7.5554 291.376 8.42472 290.366 8.42472ZM294.676 6.09801C294.676 5.17756 295.379 4.75568 295.941 4.75568C296.568 4.75568 297.015 5.21591 297.015 5.93182V9H297.77V5.88068C297.77 4.62784 297.105 4.02699 296.184 4.02699C295.443 4.02699 294.957 4.4233 294.727 4.92188H294.676V4.09091H293.922V9H294.676V6.09801Z" transform="translate(62 290)" fill="black"/>
<rect width="400" height="60" fill="#FFF4BC" transform="translate(62 70)"/>
<path d="M6.11222 8.54972C6.11222 7.55256 6.66619 6.86932 7.62642 6.86932C8.21733 6.86932 9.01136 7.22017 9.01136 8.32812V13H10.1009V8.36506C10.1009 6.62926 9.14062 5.81676 7.95881 5.81676C6.92472 5.81676 6.11222 6.5 5.90909 7.09091H5.83523C5.52131 6.3892 4.89347 5.81676 4.0071 5.81676C3.10227 5.81676 2.36364 6.5 2.16051 7.10938H2.08665V5.90909H0.997159V13H2.08665V8.77131C2.08665 7.60795 2.88068 6.86932 3.71165 6.86932C4.50568 6.86932 5.00426 7.29403 5.00426 8.36506V13H6.11222V8.54972ZM16.6 13H17.6895V8.32812C17.6895 6.07528 15.9722 5.81676 15.0674 5.81676C13.9963 5.81676 12.7776 6.18608 12.2236 7.47869L13.2577 7.84801C13.4977 7.33097 14.0702 6.77699 15.1227 6.77699C15.9722 6.77699 16.6 7.14631 16.6 8.32812V8.34659C16.6 8.80824 15.7506 8.77131 14.7719 8.90057C13.4424 9.06676 12.0205 9.38068 12.0205 10.9872C12.0205 12.3722 13.0915 13.1662 14.4395 13.1662C15.6767 13.1662 16.323 12.5014 16.5446 12.0398H16.6V13ZM16.6 10.4332C16.6 11.3196 15.8983 12.1875 14.6057 12.1875C13.7378 12.1875 13.11 11.7997 13.11 11.0426C13.11 10.2116 13.8671 9.95312 14.7165 9.84233C15.1781 9.78693 16.4154 9.65767 16.6 9.43608V10.4332ZM20.4736 4.89347C20.9537 4.89347 21.2491 4.56108 21.2491 4.15483C21.2491 3.78551 20.9537 3.41619 20.4736 3.41619C19.9935 3.41619 19.698 3.78551 19.698 4.15483C19.698 4.56108 19.9935 4.89347 20.4736 4.89347ZM21.0275 5.90909H19.9381V13H21.0275V5.90909ZM24.3725 8.80824C24.3725 7.47869 25.3881 6.86932 26.2006 6.86932C27.1055 6.86932 27.7518 7.53409 27.7518 8.56818V13H28.8413V8.49432C28.8413 6.68466 27.881 5.81676 26.5515 5.81676C25.4805 5.81676 24.7788 6.3892 24.4464 7.10938H24.3725V5.90909H23.283V13H24.3725V8.80824ZM32.3524 3.54545H31.3183V4.39489C31.3183 5.07812 30.9859 5.66903 30.5982 6.22301L31.1891 6.70312C31.9277 6.11222 32.3524 5.13352 32.3524 4.37642V3.54545ZM38.3068 7.49716C37.9375 6.46307 37.1435 5.81676 35.8324 5.81676C34.3367 5.81676 33.2287 6.66619 33.2287 7.86648C33.2287 8.73438 33.8012 9.50994 35.0938 9.84233L36.2756 10.1378C36.9773 10.304 37.2912 10.6179 37.2912 11.0795C37.2912 11.6705 36.7003 12.206 35.6847 12.206C34.6321 12.206 34.1335 11.6335 33.875 10.9872L32.8779 11.3565C33.2287 12.2429 34.0043 13.1477 35.7031 13.1477C37.4574 13.1477 38.3992 12.1321 38.3992 11.0426C38.3992 10.2301 37.8637 9.49148 36.571 9.17756L35.5185 8.91903C34.706 8.71591 34.3182 8.29119 34.3182 7.81108C34.3182 7.2017 34.9645 6.74006 35.8324 6.74006C36.9219 6.74006 37.1989 7.46023 37.3281 7.77415L38.3068 7.49716ZM47.2115 13.1477C49.132 13.1477 50.4246 11.6889 50.4246 9.49148C50.4246 7.27557 49.132 5.81676 47.2115 5.81676C45.2911 5.81676 43.9984 7.27557 43.9984 9.49148C43.9984 11.6889 45.2911 13.1477 47.2115 13.1477ZM47.2115 12.169C45.7527 12.169 45.0879 10.9134 45.0879 9.49148C45.0879 8.0696 45.7527 6.79545 47.2115 6.79545C48.6703 6.79545 49.3351 8.0696 49.3351 9.49148C49.3351 10.9134 48.6703 12.169 47.2115 12.169ZM56.2624 6.05682C56.0409 5.92756 55.69 5.79829 55.3207 5.79829C54.4897 5.79829 53.7141 6.4446 53.511 7.12784H53.4372V5.90909H52.3477V13H53.4372V8.9929C53.4556 8.03267 54.1204 6.92472 55.2837 6.92472C55.5977 6.92472 55.7823 7.01705 55.8931 7.07244L56.2624 6.05682ZM58.2975 4.89347C58.7776 4.89347 59.073 4.56108 59.073 4.15483C59.073 3.78551 58.7776 3.41619 58.2975 3.41619C57.8174 3.41619 57.5219 3.78551 57.5219 4.15483C57.5219 4.56108 57.8174 4.89347 58.2975 4.89347ZM58.8515 5.90909H57.762V13H58.8515V5.90909ZM65.9819 5.90909V7.03551H65.8711C65.6311 6.66619 65.1879 5.81676 63.8029 5.81676C62.0118 5.81676 60.7745 7.23864 60.7745 9.41761C60.7745 11.6335 62.0672 12.8892 63.7845 12.8892C65.1694 12.8892 65.6126 12.0767 65.8527 11.6889H65.945V12.9446C65.9635 14.1264 65.0217 14.6804 63.9322 14.6804C62.7135 14.6804 62.2149 13.9787 61.9379 13.6278L61.07 14.2372C61.5132 14.9943 62.418 15.6591 63.9322 15.6591C65.5757 15.6591 67.0345 14.8835 67.0345 13.0554V5.90909H65.9819ZM61.864 9.39915C61.864 7.95881 62.5473 6.79545 63.9322 6.79545C65.2618 6.79545 65.9635 7.86648 65.9635 9.39915C65.9635 10.9688 65.2433 11.9105 63.9322 11.9105C62.5657 11.9105 61.864 10.8764 61.864 9.39915ZM69.8243 4.89347C70.3044 4.89347 70.5999 4.56108 70.5999 4.15483C70.5999 3.78551 70.3044 3.41619 69.8243 3.41619C69.3442 3.41619 69.0487 3.78551 69.0487 4.15483C69.0487 4.56108 69.3442 4.89347 69.8243 4.89347ZM70.3783 5.90909H69.2888V13H70.3783V5.90909ZM73.7233 8.80824C73.7233 7.47869 74.7389 6.86932 75.5514 6.86932C76.4562 6.86932 77.1025 7.53409 77.1025 8.56818V13H78.192V8.49432C78.192 6.68466 77.2318 5.81676 75.9022 5.81676C74.8312 5.81676 74.1295 6.3892 73.7971 7.10938H73.7233V5.90909H72.6338V13H73.7233V8.80824ZM84.6946 13H85.7841V8.32812C85.7841 6.07528 84.0668 5.81676 83.162 5.81676C82.0909 5.81676 80.8722 6.18608 80.3182 7.47869L81.3523 7.84801C81.5924 7.33097 82.1648 6.77699 83.2174 6.77699C84.0668 6.77699 84.6946 7.14631 84.6946 8.32812V8.34659C84.6946 8.80824 83.8452 8.77131 82.8665 8.90057C81.537 9.06676 80.1151 9.38068 80.1151 10.9872C80.1151 12.3722 81.1861 13.1662 82.5341 13.1662C83.7713 13.1662 84.4176 12.5014 84.6392 12.0398H84.6946V13ZM84.6946 10.4332C84.6946 11.3196 83.9929 12.1875 82.7003 12.1875C81.8324 12.1875 81.2046 11.7997 81.2046 11.0426C81.2046 10.2116 81.9617 9.95312 82.8111 9.84233C83.2728 9.78693 84.51 9.65767 84.6946 9.43608V10.4332ZM89.1222 3.54545H88.0327V13H89.1222V3.54545ZM95.774 13H96.8635V6.92472H98.4516V5.90909H96.8635V5.50284C96.8635 4.80114 97.1589 4.43182 97.8791 4.43182C98.193 4.43182 98.3777 4.50568 98.4885 4.54261L98.8024 3.60085C98.6362 3.52699 98.3038 3.41619 97.7683 3.41619C96.7527 3.41619 95.774 4.02557 95.774 5.24432V5.90909H94.6291V6.92472H95.774V13ZM104.128 6.05682C103.906 5.92756 103.555 5.79829 103.186 5.79829C102.355 5.79829 101.58 6.4446 101.376 7.12784H101.303V5.90909H100.213V13H101.303V8.9929C101.321 8.03267 101.986 6.92472 103.149 6.92472C103.463 6.92472 103.648 7.01705 103.759 7.07244L104.128 6.05682ZM109.748 13H110.837V8.32812C110.837 6.07528 109.12 5.81676 108.215 5.81676C107.144 5.81676 105.925 6.18608 105.371 7.47869L106.405 7.84801C106.645 7.33097 107.218 6.77699 108.27 6.77699C109.12 6.77699 109.748 7.14631 109.748 8.32812V8.34659C109.748 8.80824 108.898 8.77131 107.919 8.90057C106.59 9.06676 105.168 9.38068 105.168 10.9872C105.168 12.3722 106.239 13.1662 107.587 13.1662C108.824 13.1662 109.471 12.5014 109.692 12.0398H109.748V13ZM109.748 10.4332C109.748 11.3196 109.046 12.1875 107.753 12.1875C106.885 12.1875 106.258 11.7997 106.258 11.0426C106.258 10.2116 107.015 9.95312 107.864 9.84233C108.326 9.78693 109.563 9.65767 109.748 9.43608V10.4332ZM118.201 8.54972C118.201 7.55256 118.755 6.86932 119.715 6.86932C120.306 6.86932 121.1 7.22017 121.1 8.32812V13H122.189V8.36506C122.189 6.62926 121.229 5.81676 120.047 5.81676C119.013 5.81676 118.201 6.5 117.998 7.09091H117.924C117.61 6.3892 116.982 5.81676 116.096 5.81676C115.191 5.81676 114.452 6.5 114.249 7.10938H114.175V5.90909H113.086V13H114.175V8.77131C114.175 7.60795 114.969 6.86932 115.8 6.86932C116.594 6.86932 117.093 7.29403 117.093 8.36506V13H118.201V8.54972ZM127.376 13.1477C128.817 13.1477 129.869 12.4276 130.202 11.3565L129.149 11.0611C128.872 11.7997 128.244 12.169 127.376 12.169C126.093 12.169 125.285 11.3565 125.174 9.82386H130.312V9.36222C130.312 6.72159 128.743 5.81676 127.265 5.81676C125.345 5.81676 124.071 7.33097 124.071 9.50994C124.071 11.6889 125.327 13.1477 127.376 13.1477ZM127.265 6.79545C128.447 6.79545 129.204 7.68182 129.204 8.8821H125.197C125.373 7.55256 126.176 6.79545 127.265 6.79545ZM136.171 15.6591H137.261V11.9105H137.353C137.593 12.2983 138.055 13.1477 139.421 13.1477C141.194 13.1477 142.431 11.7259 142.431 9.47301C142.431 7.23864 141.194 5.81676 139.403 5.81676C138.018 5.81676 137.593 6.66619 137.353 7.03551H137.224V5.90909H136.171V15.6591ZM141.342 9.45455C141.342 10.9688 140.64 12.169 139.274 12.169C137.962 12.169 137.242 11.0611 137.242 9.45455C137.242 7.86648 137.944 6.79545 139.274 6.79545C140.658 6.79545 141.342 7.95881 141.342 9.45455ZM147.234 13.1477C149.154 13.1477 150.447 11.6889 150.447 9.49148C150.447 7.27557 149.154 5.81676 147.234 5.81676C145.313 5.81676 144.021 7.27557 144.021 9.49148C144.021 11.6889 145.313 13.1477 147.234 13.1477ZM147.234 12.169C145.775 12.169 145.11 10.9134 145.11 9.49148C145.11 8.0696 145.775 6.79545 147.234 6.79545C148.693 6.79545 149.357 8.0696 149.357 9.49148C149.357 10.9134 148.693 12.169 147.234 12.169ZM152.905 4.89347C153.386 4.89347 153.681 4.56108 153.681 4.15483C153.681 3.78551 153.386 3.41619 152.905 3.41619C152.425 3.41619 152.13 3.78551 152.13 4.15483C152.13 4.56108 152.425 4.89347 152.905 4.89347ZM153.459 5.90909H152.37V13H153.459V5.90909ZM156.804 8.80824C156.804 7.47869 157.82 6.86932 158.633 6.86932C159.537 6.86932 160.184 7.53409 160.184 8.56818V13H161.273V8.49432C161.273 6.68466 160.313 5.81676 158.983 5.81676C157.912 5.81676 157.211 6.3892 156.878 7.10938H156.804V5.90909H155.715V13H156.804V8.80824ZM166.425 5.90909H164.911V4.39489H163.822V5.90909H162.751V6.92472H163.822V11.2642C163.822 12.5014 164.819 13.0923 165.742 13.0923C166.149 13.0923 166.407 13.0185 166.555 12.9631L166.333 11.9844C166.241 12.0028 166.093 12.0398 165.853 12.0398C165.373 12.0398 164.911 11.892 164.911 10.9688V6.92472H166.425V5.90909ZM171.218 13.1477C172.658 13.1477 173.711 12.4276 174.043 11.3565L172.99 11.0611C172.713 11.7997 172.086 12.169 171.218 12.169C169.934 12.169 169.126 11.3565 169.016 9.82386H174.154V9.36222C174.154 6.72159 172.584 5.81676 171.107 5.81676C169.186 5.81676 167.912 7.33097 167.912 9.50994C167.912 11.6889 169.168 13.1477 171.218 13.1477ZM171.107 6.79545C172.289 6.79545 173.046 7.68182 173.046 8.8821H169.039C169.214 7.55256 170.017 6.79545 171.107 6.79545ZM180.011 6.05682C179.79 5.92756 179.439 5.79829 179.07 5.79829C178.239 5.79829 177.463 6.4446 177.26 7.12784H177.186V5.90909H176.096V13H177.186V8.9929C177.204 8.03267 177.869 6.92472 179.033 6.92472C179.346 6.92472 179.531 7.01705 179.642 7.07244L180.011 6.05682ZM189.547 13H190.637V8.32812C190.637 6.07528 188.919 5.81676 188.015 5.81676C186.944 5.81676 185.725 6.18608 185.171 7.47869L186.205 7.84801C186.445 7.33097 187.017 6.77699 188.07 6.77699C188.919 6.77699 189.547 7.14631 189.547 8.32812V8.34659C189.547 8.80824 188.698 8.77131 187.719 8.90057C186.39 9.06676 184.968 9.38068 184.968 10.9872C184.968 12.3722 186.039 13.1662 187.387 13.1662C188.624 13.1662 189.27 12.5014 189.492 12.0398H189.547V13ZM189.547 10.4332C189.547 11.3196 188.846 12.1875 187.553 12.1875C186.685 12.1875 186.057 11.7997 186.057 11.0426C186.057 10.2116 186.814 9.95312 187.664 9.84233C188.125 9.78693 189.363 9.65767 189.547 9.43608V10.4332ZM198.775 13V3.54545H197.685V7.03551H197.611C197.371 6.66619 196.928 5.81676 195.543 5.81676C193.752 5.81676 192.515 7.23864 192.515 9.47301C192.515 11.7259 193.752 13.1477 195.525 13.1477C196.891 13.1477 197.371 12.2983 197.611 11.9105H197.722V13H198.775ZM193.604 9.45455C193.604 7.95881 194.288 6.79545 195.672 6.79545C197.002 6.79545 197.704 7.86648 197.704 9.45455C197.704 11.0611 196.984 12.169 195.672 12.169C194.306 12.169 193.604 10.9688 193.604 9.45455ZM206.957 13V3.54545H205.867V7.03551H205.793C205.553 6.66619 205.11 5.81676 203.725 5.81676C201.934 5.81676 200.697 7.23864 200.697 9.47301C200.697 11.7259 201.934 13.1477 203.707 13.1477C205.073 13.1477 205.553 12.2983 205.793 11.9105H205.904V13H206.957ZM201.786 9.45455C201.786 7.95881 202.469 6.79545 203.854 6.79545C205.184 6.79545 205.886 7.86648 205.886 9.45455C205.886 11.0611 205.165 12.169 203.854 12.169C202.488 12.169 201.786 10.9688 201.786 9.45455ZM213.126 6.05682C212.904 5.92756 212.553 5.79829 212.184 5.79829C211.353 5.79829 210.577 6.4446 210.374 7.12784H210.3V5.90909H209.211V13H210.3V8.9929C210.319 8.03267 210.984 6.92472 212.147 6.92472C212.461 6.92472 212.646 7.01705 212.756 7.07244L213.126 6.05682ZM217.179 13.1477C218.62 13.1477 219.672 12.4276 220.005 11.3565L218.952 11.0611C218.675 11.7997 218.047 12.169 217.179 12.169C215.896 12.169 215.088 11.3565 214.977 9.82386H220.115V9.36222C220.115 6.72159 218.546 5.81676 217.069 5.81676C215.148 5.81676 213.874 7.33097 213.874 9.50994C213.874 11.6889 215.13 13.1477 217.179 13.1477ZM217.069 6.79545C218.25 6.79545 219.007 7.68182 219.007 8.8821H215C215.176 7.55256 215.979 6.79545 217.069 6.79545ZM226.952 7.49716C226.582 6.46307 225.788 5.81676 224.477 5.81676C222.981 5.81676 221.873 6.66619 221.873 7.86648C221.873 8.73438 222.446 9.50994 223.739 9.84233L224.92 10.1378C225.622 10.304 225.936 10.6179 225.936 11.0795C225.936 11.6705 225.345 12.206 224.329 12.206C223.277 12.206 222.778 11.6335 222.52 10.9872L221.523 11.3565C221.873 12.2429 222.649 13.1477 224.348 13.1477C226.102 13.1477 227.044 12.1321 227.044 11.0426C227.044 10.2301 226.508 9.49148 225.216 9.17756L224.163 8.91903C223.351 8.71591 222.963 8.29119 222.963 7.81108C222.963 7.2017 223.609 6.74006 224.477 6.74006C225.567 6.74006 225.844 7.46023 225.973 7.77415L226.952 7.49716ZM233.826 7.49716C233.457 6.46307 232.662 5.81676 231.351 5.81676C229.856 5.81676 228.748 6.66619 228.748 7.86648C228.748 8.73438 229.32 9.50994 230.613 9.84233L231.795 10.1378C232.496 10.304 232.81 10.6179 232.81 11.0795C232.81 11.6705 232.219 12.206 231.204 12.206C230.151 12.206 229.653 11.6335 229.394 10.9872L228.397 11.3565C228.748 12.2429 229.523 13.1477 231.222 13.1477C232.976 13.1477 233.918 12.1321 233.918 11.0426C233.918 10.2301 233.383 9.49148 232.09 9.17756L231.037 8.91903C230.225 8.71591 229.837 8.29119 229.837 7.81108C229.837 7.2017 230.483 6.74006 231.351 6.74006C232.441 6.74006 232.718 7.46023 232.847 7.77415L233.826 7.49716Z" transform="translate(111 77)" fill="black" fill-opacity="0.9"/>
<path d="M11.0422 10.1932C11.0422 11.5227 10.0266 12.0398 9.21409 12.0398C8.30926 12.0398 7.66296 11.4489 7.66296 10.4148V5.90909H6.57347V10.4148C6.57347 12.2798 7.82915 13.0923 8.86324 13.0923C9.93426 13.0923 10.6175 12.5384 10.9684 12.0028H11.0422V13H12.1317V5.90909H11.0422V10.1932ZM18.9852 5.90909H20.0747C19.7423 4.28409 18.819 3.39773 17.3233 3.39773C15.1627 3.39773 14.1471 5.24432 14.1471 8.16193V8.47585C14.1471 11.5043 15.1627 13.1293 17.2309 13.1293C19.1883 13.1293 20.2224 11.6705 20.2224 10.0824C20.2224 8.51278 19.1883 7.05398 17.3787 7.05398C16.64 7.05398 15.8368 7.29865 15.2782 7.91264C15.3428 5.06889 16.3584 4.43182 17.3417 4.43182C18.4497 4.43182 18.7636 5.24432 18.9852 5.90909ZM17.3602 8.0696C18.6528 8.0696 19.1329 9.02983 19.1329 10.0824C19.1329 11.3565 18.4127 12.1321 17.3233 12.1321C16.2984 12.1321 15.3843 11.4442 15.3659 10.0316C15.3843 8.84979 16.1922 8.0696 17.3602 8.0696ZM28.6455 10.2116H27.3529V3.54545H26.1526L21.887 10.5071V11.2273H26.3373V13H27.3529V11.2273H28.6455V10.2116ZM23.3088 10.2116L26.1526 5.44744L26.3373 4.83345V10.2116H23.3088Z" transform="translate(70 77)" fill="#517AAA"/>
<path opacity="0.4" d="M6.27841 5.98295H7.38636C7.29403 4.48722 6.01989 3.41619 4.19176 3.41619C2.3821 3.41619 0.960227 4.46875 0.960227 6.05682C0.960227 7.33097 1.88352 8.08807 3.3608 8.51278L4.52415 8.84517C5.7983 9.21449 6.40767 9.56534 6.40767 10.4148C6.40767 11.4489 5.41051 12.1321 4.09943 12.1321C2.97301 12.1321 1.97585 11.6335 1.88352 10.5625H0.701705C0.8125 12.1136 2.06818 13.1662 4.09943 13.1662C6.27841 13.1662 7.51562 11.9659 7.51562 10.4148C7.51562 9.10369 6.64773 8.30966 4.85653 7.82955L3.89631 7.57102C2.64062 7.23864 2.06818 6.77699 2.06818 6.01989C2.06818 5.09659 2.89915 4.43182 4.15483 4.43182C5.29972 4.43182 6.11222 4.96733 6.27841 5.98295ZM12.833 9.58381C15.0304 9.58381 15.9906 8.2358 15.9906 6.53693C15.9906 4.83807 15.0304 3.54545 12.8145 3.54545H9.65684V13H10.8017V9.58381H12.833ZM10.8017 4.56108H12.8145C14.3472 4.56108 14.8642 5.37358 14.8642 6.53693C14.8642 7.70028 14.3472 8.56818 12.833 8.56818H10.8017V4.56108ZM28.0553 7.75568H25.6178V5.31818H24.5837V7.75568H22.1462V8.78977H24.5837V11.2273H25.6178V8.78977H28.0553V7.75568ZM36.5269 11.9844H31.8919V11.929L34.4402 9.32528C35.4189 8.32812 36.2868 7.18324 36.2868 6.09375C36.2868 4.54261 35.105 3.41619 33.3692 3.41619C31.3379 3.41619 30.5254 4.96733 30.5254 6.5H31.6519C31.6519 5.41051 32.0581 4.35795 33.3323 4.35795C34.4771 4.35795 35.1789 5.18892 35.1789 6.13068C35.1789 6.94318 34.6433 7.57102 33.4985 8.75284L30.1746 12.169V13H36.5269V11.9844ZM44.5933 10.2116H43.3007V3.54545H42.1004L37.8348 10.5071V11.2273H42.2851V13H43.3007V11.2273H44.5933V10.2116ZM39.2567 10.2116L42.1004 5.44744L42.2851 4.83345V10.2116H39.2567Z" transform="translate(475 62)" fill="black"/>
<path opacity="0.1" d="M0 0H6" transform="translate(466 70.5)" stroke="black"/>
<path opacity="0.4" d="M7.03551 7.73722C7.03551 4.96733 5.94602 3.41619 3.89631 3.41619C1.82812 3.41619 0.72017 4.96733 0.72017 7.73722V8.64205C0.72017 11.4304 1.84659 13.1293 3.91477 13.1293C5.96449 13.1293 7.03551 11.4304 7.03551 8.64205V7.73722ZM5.89062 8.84517C5.89062 10.6179 5.26278 12.1136 3.91477 12.1136C2.5483 12.1136 1.86506 10.6179 1.86506 8.84517V7.53409C1.86506 5.7429 2.52983 4.43182 3.89631 4.43182C5.24432 4.43182 5.89062 5.7429 5.89062 7.53409V8.84517ZM10.0895 5.90909H8.83386L11.0867 9.45455L8.83386 13H10.0895L11.7884 10.2486L13.4873 13H14.743L12.4532 9.45455L14.743 5.90909H13.4873L11.7884 8.80824L10.0895 5.90909ZM22.1549 7.75568H18.2402V4.56108H22.7643V3.54545H17.0953V13H18.2402V8.77131H22.1549V7.75568ZM30.4348 7.75568H26.52V4.56108H31.0442V3.54545H25.3752V13H26.52V8.77131H30.4348V7.75568ZM38.7147 7.75568H34.7999V4.56108H39.3241V3.54545H33.655V13H34.7999V8.77131H38.7147V7.75568ZM47.327 3.54545H41.4179V4.61648H46.219L42.3042 13H43.5599L47.327 4.72727V3.54545Z" transform="translate(0 62)" fill="black"/>
<path opacity="0.1" d="M0 0H6" transform="translate(52 70.5)" stroke="black"/>
<path opacity="0.07" d="M0 0H400" transform="translate(62 70.5)" stroke="black"/>
<path d="M6.0522 6.10298H7.45561C7.3956 4.5103 6.0799 3.41619 4.18715 3.41619C2.30362 3.41619 0.867898 4.47337 0.867898 6.06143C0.867898 7.37713 1.86506 8.1804 3.37464 8.62358L4.22408 8.86825C5.55824 9.26989 6.13068 9.63459 6.13068 10.3963C6.13068 11.2596 5.31818 11.8828 4.10405 11.8828C3.01918 11.8828 2.14205 11.3842 2.06818 10.3594H0.600142C0.678622 12.1321 2.12358 13.1523 4.10405 13.1523C6.24148 13.1523 7.54332 12.0213 7.54332 10.3917C7.54332 9.01136 6.62003 8.22195 4.83345 7.69567L4.09943 7.48331C2.91761 7.13707 2.28516 6.74929 2.28516 6.04297C2.28516 5.24432 3.04226 4.68111 4.15945 4.68111C5.23509 4.68111 5.92756 5.1843 6.0522 6.10298ZM12.8203 9.6392C15.0731 9.6392 16.0472 8.34197 16.0472 6.57848C16.0472 4.82422 15.087 3.54545 12.8064 3.54545H9.4918V13H10.9552V9.6392H12.8203ZM10.9552 4.80114H12.8064C14.1452 4.80114 14.6022 5.54901 14.6022 6.57848C14.6022 7.60795 14.1452 8.38352 12.8203 8.38352H10.9552V4.80114ZM6.24609 28.6357H2.45597V25.8011H6.86932V24.5455H0.992543V34H2.45597V29.896H6.24609V28.6357ZM12.2109 30.6392C14.4637 30.6392 15.4378 29.342 15.4378 27.5785C15.4378 25.8242 14.4776 24.5455 12.1971 24.5455H8.88243V34H10.3458V30.6392H12.2109ZM10.3458 25.8011H12.1971C13.5358 25.8011 13.9929 26.549 13.9929 27.5785C13.9929 28.608 13.5358 29.3835 12.2109 29.3835H10.3458V25.8011ZM6.24609 56H7.89879L5.89524 52.0945C6.92472 51.6374 7.54794 50.7695 7.54794 49.4631C7.54794 47.8058 6.55078 46.5455 4.30256 46.5455H0.992543V56H2.45597V52.3899H4.4272L6.24609 56ZM2.45597 47.8011H4.30256C5.69212 47.8011 6.10298 48.6183 6.10298 49.4815C6.10298 50.4602 5.58594 51.1112 4.21484 51.1112H2.45597V47.8011ZM12.7083 46.5455H11.4388C11.3649 46.6424 10.8941 48.0089 9.32445 48.0089V49.2045C10.3862 49.2045 11.1156 48.8306 11.2726 48.5398H11.3465V56H12.7083V46.5455ZM6.24609 78H7.89879L5.89524 74.0945C6.92472 73.6374 7.54794 72.7695 7.54794 71.4631C7.54794 69.8058 6.55078 68.5455 4.30256 68.5455H0.992543V78H2.45597V74.3899H4.4272L6.24609 78ZM2.45597 69.8011H4.30256C5.69212 69.8011 6.10298 70.6183 6.10298 71.4815C6.10298 72.4602 5.58594 73.1112 4.21484 73.1112H2.45597V69.8011ZM15.5659 76.7443H11.2726V76.6889L13.387 74.5192C14.4718 73.4066 15.3166 72.294 15.3166 71.1353C15.3166 69.5472 14.1025 68.4162 12.3482 68.4162C10.3216 68.4162 9.366 69.9304 9.366 71.5277H10.7879C10.7879 70.5167 11.208 69.5934 12.3113 69.5934C13.3085 69.5934 13.9132 70.3366 13.9132 71.1861C13.9132 71.9062 13.4608 72.5479 12.4036 73.6328L9.16288 76.9382V78H15.5659V76.7443Z" transform="translate(702 27)" fill="black"/>
<path d="M7.03551 7.73722C7.03551 4.96733 5.94602 3.41619 3.89631 3.41619C1.82812 3.41619 0.72017 4.96733 0.72017 7.73722V8.64205C0.72017 11.4304 1.84659 13.1293 3.91477 13.1293C5.96449 13.1293 7.03551 11.4304 7.03551 8.64205V7.73722ZM5.89062 8.84517C5.89062 10.6179 5.26278 12.1136 3.91477 12.1136C2.5483 12.1136 1.86506 10.6179 1.86506 8.84517V7.53409C1.86506 5.7429 2.52983 4.43182 3.89631 4.43182C5.24432 4.43182 5.89062 5.7429 5.89062 7.53409V8.84517ZM10.0895 5.90909H8.83386L11.0867 9.45455L8.83386 13H10.0895L11.7884 10.2486L13.4873 13H14.743L12.4532 9.45455L14.743 5.90909H13.4873L11.7884 8.80824L10.0895 5.90909ZM22.1549 7.75568H18.2402V4.56108H22.7643V3.54545H17.0953V13H18.2402V8.77131H22.1549V7.75568ZM30.4348 7.75568H26.52V4.56108H31.0442V3.54545H25.3752V13H26.52V8.77131H30.4348V7.75568ZM36.5727 13C39.4533 13 41.0783 11.2088 41.0783 8.25426C41.0783 5.31818 39.4533 3.54545 36.7019 3.54545H33.655V13H36.5727ZM36.6281 4.56108C38.844 4.56108 39.9704 5.96449 39.9704 8.25426C39.9704 10.5625 38.844 11.9844 36.4988 11.9844H34.7999V4.56108H36.6281ZM48.7085 7.75568H44.7937V4.56108H49.3178V3.54545H43.6488V13H44.7937V8.77131H48.7085V7.75568ZM7.03551 28.7372C7.03551 25.9673 5.94602 24.4162 3.89631 24.4162C1.82812 24.4162 0.72017 25.9673 0.72017 28.7372V29.642C0.72017 32.4304 1.84659 34.1293 3.91477 34.1293C5.96449 34.1293 7.03551 32.4304 7.03551 29.642V28.7372ZM5.89062 29.8452C5.89062 31.6179 5.26278 33.1136 3.91477 33.1136C2.5483 33.1136 1.86506 31.6179 1.86506 29.8452V28.5341C1.86506 26.7429 2.52983 25.4318 3.89631 25.4318C5.24432 25.4318 5.89062 26.7429 5.89062 28.5341V29.8452ZM10.0895 26.9091H8.83386L11.0867 30.4545L8.83386 34H10.0895L11.7884 31.2486L13.4873 34H14.743L12.4532 30.4545L14.743 26.9091H13.4873L11.7884 29.8082L10.0895 26.9091ZM22.1549 28.7557H18.2402V25.5611H22.7643V24.5455H17.0953V34H18.2402V29.7713H22.1549V28.7557ZM30.4348 28.7557H26.52V25.5611H31.0442V24.5455H25.3752V34H26.52V29.7713H30.4348V28.7557ZM38.7147 28.7557H34.7999V25.5611H39.3241V24.5455H33.655V34H34.7999V29.7713H38.7147V28.7557ZM47.6224 24.5455H41.7133V25.6165H46.5145L42.5997 34H43.8554L47.6224 25.7273V24.5455Z" transform="translate(735 27)" fill="black"/>
<path d="M4.0625 53.3409C4.0625 50.8665 6.37074 51.2173 6.37074 48.9091C6.37074 47.4688 5.42898 46.4162 3.80398 46.4162C2.30824 46.4162 1.14489 47.3395 1.14489 48.9091H2.30824C2.30824 47.8196 3.04688 47.3764 3.80398 47.3764C4.67188 47.3764 5.26278 47.9489 5.26278 48.8537C5.26278 50.6818 2.95455 50.331 2.95455 53.3409H4.0625ZM3.50852 56.1477C3.98864 56.1477 4.39489 55.7599 4.39489 55.2614C4.39489 54.7628 3.98864 54.3565 3.50852 54.3565C3.00994 54.3565 2.62216 54.7628 2.62216 55.2614C2.62216 55.7599 3.00994 56.1477 3.50852 56.1477ZM4.0625 75.3409C4.0625 72.8665 6.37074 73.2173 6.37074 70.9091C6.37074 69.4688 5.42898 68.4162 3.80398 68.4162C2.30824 68.4162 1.14489 69.3395 1.14489 70.9091H2.30824C2.30824 69.8196 3.04688 69.3764 3.80398 69.3764C4.67188 69.3764 5.26278 69.9489 5.26278 70.8537C5.26278 72.6818 2.95455 72.331 2.95455 75.3409H4.0625ZM3.50852 78.1477C3.98864 78.1477 4.39489 77.7599 4.39489 77.2614C4.39489 76.7628 3.98864 76.3565 3.50852 76.3565C3.00994 76.3565 2.62216 76.7628 2.62216 77.2614C2.62216 77.7599 3.00994 78.1477 3.50852 78.1477Z" transform="translate(735 27)" fill="black" fill-opacity="0.3"/>
<path opacity="0.4" d="M6.48153 13H7.81108L5.7706 9.07138C6.8647 8.62358 7.47869 7.74183 7.47869 6.4446C7.47869 4.875 6.5554 3.54545 4.30256 3.54545H1.14489V13H2.28977V9.32528H4.60263L6.48153 13ZM2.28977 4.56108H4.30256C5.98295 4.56108 6.35227 5.55824 6.35227 6.4446C6.35227 7.49716 5.83523 8.27273 4.1733 8.27273H2.28977V4.56108ZM12.3171 13.1477C13.7574 13.1477 14.81 12.4276 15.1424 11.3565L14.0898 11.0611C13.8128 11.7997 13.185 12.169 12.3171 12.169C11.0337 12.169 10.2258 11.3565 10.115 9.82386H15.2532V9.36222C15.2532 6.72159 13.6836 5.81676 12.2063 5.81676C10.2858 5.81676 9.01169 7.33097 9.01169 9.50994C9.01169 11.6889 10.2674 13.1477 12.3171 13.1477ZM12.2063 6.79545C13.3881 6.79545 14.1452 7.68182 14.1452 8.8821H10.1381C10.3135 7.55256 11.1168 6.79545 12.2063 6.79545ZM22.0709 5.90909V7.03551H21.9601C21.72 6.66619 21.2768 5.81676 19.8919 5.81676C18.1007 5.81676 16.8635 7.23864 16.8635 9.41761C16.8635 11.6335 18.1561 12.8892 19.8734 12.8892C21.2584 12.8892 21.7016 12.0767 21.9416 11.6889H22.0339V12.9446C22.0524 14.1264 21.1106 14.6804 20.0212 14.6804C18.8024 14.6804 18.3038 13.9787 18.0268 13.6278L17.1589 14.2372C17.6021 14.9943 18.507 15.6591 20.0212 15.6591C21.6646 15.6591 23.1234 14.8835 23.1234 13.0554V5.90909H22.0709ZM17.953 9.39915C17.953 7.95881 18.6362 6.79545 20.0212 6.79545C21.3507 6.79545 22.0524 7.86648 22.0524 9.39915C22.0524 10.9688 21.3322 11.9105 20.0212 11.9105C18.6547 11.9105 17.953 10.8764 17.953 9.39915ZM25.9133 4.89347C26.3934 4.89347 26.6888 4.56108 26.6888 4.15483C26.6888 3.78551 26.3934 3.41619 25.9133 3.41619C25.4331 3.41619 25.1377 3.78551 25.1377 4.15483C25.1377 4.56108 25.4331 4.89347 25.9133 4.89347ZM26.4672 5.90909H25.3777V13H26.4672V5.90909ZM33.6162 7.49716C33.2469 6.46307 32.4528 5.81676 31.1417 5.81676C29.646 5.81676 28.538 6.66619 28.538 7.86648C28.538 8.73438 29.1105 9.50994 30.4031 9.84233L31.5849 10.1378C32.2866 10.304 32.6005 10.6179 32.6005 11.0795C32.6005 11.6705 32.0096 12.206 30.994 12.206C29.9415 12.206 29.4429 11.6335 29.1844 10.9872L28.1872 11.3565C28.538 12.2429 29.3136 13.1477 31.0125 13.1477C32.7667 13.1477 33.7085 12.1321 33.7085 11.0426C33.7085 10.2301 33.173 9.49148 31.8804 9.17756L30.8278 8.91903C30.0153 8.71591 29.6275 8.29119 29.6275 7.81108C29.6275 7.2017 30.2738 6.74006 31.1417 6.74006C32.2312 6.74006 32.5082 7.46023 32.6375 7.77415L33.6162 7.49716ZM38.6335 5.90909H37.1192V4.39489H36.0298V5.90909H34.9587V6.92472H36.0298V11.2642C36.0298 12.5014 37.0269 13.0923 37.9502 13.0923C38.3565 13.0923 38.615 13.0185 38.7627 12.9631L38.5411 11.9844C38.4488 12.0028 38.3011 12.0398 38.061 12.0398C37.5809 12.0398 37.1192 11.892 37.1192 10.9688V6.92472H38.6335V5.90909ZM43.4257 13.1477C44.866 13.1477 45.9186 12.4276 46.251 11.3565L45.1984 11.0611C44.9214 11.7997 44.2936 12.169 43.4257 12.169C42.1423 12.169 41.3344 11.3565 41.2236 9.82386H46.3618V9.36222C46.3618 6.72159 44.7922 5.81676 43.3149 5.81676C41.3944 5.81676 40.1203 7.33097 40.1203 9.50994C40.1203 11.6889 41.376 13.1477 43.4257 13.1477ZM43.3149 6.79545C44.4967 6.79545 45.2538 7.68182 45.2538 8.8821H41.2467C41.4221 7.55256 42.2254 6.79545 43.3149 6.79545ZM52.2192 6.05682C51.9976 5.92756 51.6468 5.79829 51.2775 5.79829C50.4465 5.79829 49.6709 6.4446 49.4678 7.12784H49.394V5.90909H48.3045V13H49.394V8.9929C49.4124 8.03267 50.0772 6.92472 51.2405 6.92472C51.5545 6.92472 51.7391 7.01705 51.8499 7.07244L52.2192 6.05682ZM63.3064 5.90909H62.1245L60.1671 11.5597H60.0933L58.1359 5.90909H56.9541L59.5762 13H60.6842L63.3064 5.90909ZM68.9976 13H70.0871V8.32812C70.0871 6.07528 68.3698 5.81676 67.465 5.81676C66.3939 5.81676 65.1752 6.18608 64.6212 7.47869L65.6553 7.84801C65.8954 7.33097 66.4678 6.77699 67.5204 6.77699C68.3698 6.77699 68.9976 7.14631 68.9976 8.32812V8.34659C68.9976 8.80824 68.1482 8.77131 67.1695 8.90057C65.84 9.06676 64.4181 9.38068 64.4181 10.9872C64.4181 12.3722 65.4891 13.1662 66.8371 13.1662C68.0743 13.1662 68.7207 12.5014 68.9422 12.0398H68.9976V13ZM68.9976 10.4332C68.9976 11.3196 68.2959 12.1875 67.0033 12.1875C66.1354 12.1875 65.5076 11.7997 65.5076 11.0426C65.5076 10.2116 66.2647 9.95312 67.1141 9.84233C67.5758 9.78693 68.813 9.65767 68.9976 9.43608V10.4332ZM73.4252 3.54545H72.3357V13H73.4252V3.54545ZM80.1494 10.1932C80.1494 11.5227 79.1338 12.0398 78.3213 12.0398C77.4164 12.0398 76.7701 11.4489 76.7701 10.4148V5.90909H75.6806V10.4148C75.6806 12.2798 76.9363 13.0923 77.9704 13.0923C79.0414 13.0923 79.7247 12.5384 80.0755 12.0028H80.1494V13H81.2389V5.90909H80.1494V10.1932ZM86.4674 13.1477C87.9077 13.1477 88.9603 12.4276 89.2926 11.3565L88.2401 11.0611C87.9631 11.7997 87.3353 12.169 86.4674 12.169C85.184 12.169 84.3761 11.3565 84.2653 9.82386H89.4034V9.36222C89.4034 6.72159 87.8338 5.81676 86.3566 5.81676C84.4361 5.81676 83.162 7.33097 83.162 9.50994C83.162 11.6889 84.4176 13.1477 86.4674 13.1477ZM86.3566 6.79545C87.5384 6.79545 88.2955 7.68182 88.2955 8.8821H84.2884C84.4638 7.55256 85.2671 6.79545 86.3566 6.79545ZM96.2396 7.49716C95.8703 6.46307 95.0763 5.81676 93.7652 5.81676C92.2694 5.81676 91.1615 6.66619 91.1615 7.86648C91.1615 8.73438 91.7339 9.50994 93.0265 9.84233L94.2084 10.1378C94.9101 10.304 95.224 10.6179 95.224 11.0795C95.224 11.6705 94.6331 12.206 93.6174 12.206C92.5649 12.206 92.0663 11.6335 91.8078 10.9872L90.8106 11.3565C91.1615 12.2429 91.9371 13.1477 93.6359 13.1477C95.3902 13.1477 96.3319 12.1321 96.3319 11.0426C96.3319 10.2301 95.7964 9.49148 94.5038 9.17756L93.4513 8.91903C92.6388 8.71591 92.251 8.29119 92.251 7.81108C92.251 7.2017 92.8973 6.74006 93.7652 6.74006C94.8547 6.74006 95.1317 7.46023 95.2609 7.77415L96.2396 7.49716Z" transform="translate(702 2)" fill="black"/>
<path opacity="0.4" d="M8.75284 6.5C8.40199 4.56108 6.85085 3.41619 4.94886 3.41619C2.52983 3.41619 0.775568 5.28125 0.775568 8.27273C0.775568 11.2642 2.52983 13.1293 4.94886 13.1293C6.85085 13.1293 8.40199 11.9844 8.75284 10.0455H7.60796C7.33097 11.3565 6.20455 12.0582 4.94886 12.0582C3.23153 12.0582 1.88352 10.7287 1.88352 8.27273C1.88352 5.81676 3.23153 4.48722 4.94886 4.48722C6.20455 4.48722 7.33097 5.18892 7.60796 6.5H8.75284ZM14.9623 13H16.0518V8.32812C16.0518 6.07528 14.3345 5.81676 13.4297 5.81676C12.3586 5.81676 11.1399 6.18608 10.5859 7.47869L11.62 7.84801C11.8601 7.33097 12.4325 6.77699 13.4851 6.77699C14.3345 6.77699 14.9623 7.14631 14.9623 8.32812V8.34659C14.9623 8.80824 14.1129 8.77131 13.1342 8.90057C11.8047 9.06676 10.3828 9.38068 10.3828 10.9872C10.3828 12.3722 11.4538 13.1662 12.8018 13.1662C14.039 13.1662 14.6853 12.5014 14.9069 12.0398H14.9623V13ZM14.9623 10.4332C14.9623 11.3196 14.2606 12.1875 12.968 12.1875C12.1001 12.1875 11.4723 11.7997 11.4723 11.0426C11.4723 10.2116 12.2294 9.95312 13.0788 9.84233C13.5405 9.78693 14.7777 9.65767 14.9623 9.43608V10.4332ZM19.3899 3.54545H18.3004V13H19.3899V3.54545ZM22.5825 3.54545H21.493V13H22.5825V3.54545ZM33.6477 7.49716C33.2783 6.46307 32.4843 5.81676 31.1732 5.81676C29.6775 5.81676 28.5695 6.66619 28.5695 7.86648C28.5695 8.73438 29.142 9.50994 30.4346 9.84233L31.6164 10.1378C32.3181 10.304 32.632 10.6179 32.632 11.0795C32.632 11.6705 32.0411 12.206 31.0255 12.206C29.9729 12.206 29.4744 11.6335 29.2158 10.9872L28.2187 11.3565C28.5695 12.2429 29.3451 13.1477 31.044 13.1477C32.7982 13.1477 33.74 12.1321 33.74 11.0426C33.74 10.2301 33.2045 9.49148 31.9119 9.17756L30.8593 8.91903C30.0468 8.71591 29.659 8.29119 29.659 7.81108C29.659 7.2017 30.3053 6.74006 31.1732 6.74006C32.2627 6.74006 32.5397 7.46023 32.669 7.77415L33.6477 7.49716ZM38.6649 5.90909H37.1507V4.39489H36.0612V5.90909H34.9902V6.92472H36.0612V11.2642C36.0612 12.5014 37.0584 13.0923 37.9817 13.0923C38.3879 13.0923 38.6465 13.0185 38.7942 12.9631L38.5726 11.9844C38.4803 12.0028 38.3326 12.0398 38.0925 12.0398C37.6124 12.0398 37.1507 11.892 37.1507 10.9688V6.92472H38.6649V5.90909ZM44.8202 13H45.9097V8.32812C45.9097 6.07528 44.1923 5.81676 43.2875 5.81676C42.2165 5.81676 40.9977 6.18608 40.4438 7.47869L41.4778 7.84801C41.7179 7.33097 42.2903 6.77699 43.3429 6.77699C44.1923 6.77699 44.8202 7.14631 44.8202 8.32812V8.34659C44.8202 8.80824 43.9707 8.77131 42.9921 8.90057C41.6625 9.06676 40.2406 9.38068 40.2406 10.9872C40.2406 12.3722 41.3117 13.1662 42.6597 13.1662C43.8969 13.1662 44.5432 12.5014 44.7648 12.0398H44.8202V13ZM44.8202 10.4332C44.8202 11.3196 44.1185 12.1875 42.8259 12.1875C41.958 12.1875 41.3301 11.7997 41.3301 11.0426C41.3301 10.2116 42.0872 9.95312 42.9367 9.84233C43.3983 9.78693 44.6355 9.65767 44.8202 9.43608V10.4332ZM53.7892 8.03267C53.6045 6.70312 52.4781 5.81676 50.9823 5.81676C49.0619 5.81676 47.7877 7.33097 47.7877 9.45455C47.7877 11.6335 49.025 13.1477 51.0008 13.1477C52.5704 13.1477 53.6045 12.1875 53.7892 10.9318H52.6997C52.4966 11.7074 51.8502 12.169 51.0008 12.169C49.7082 12.169 48.8772 11.098 48.8772 9.45455C48.8772 7.84801 49.7267 6.79545 51.0008 6.79545C51.961 6.79545 52.5335 7.38636 52.6997 8.03267H53.7892ZM59.8313 13H61.1054L58.0216 8.92827L60.81 5.90909H59.462L56.5813 9.10369H56.452V3.54545H55.3625V13H56.452V10.521L57.2876 9.62074L59.8313 13Z" transform="translate(574 2)" fill="black"/>
<rect width="70" height="21" fill="#FFF4BC" transform="translate(575 26)"/>
<path d="M6.11222 10.5497C6.11222 9.55256 6.66619 8.86932 7.62642 8.86932C8.21733 8.86932 9.01136 9.22017 9.01136 10.3281V15H10.1009V10.3651C10.1009 8.62926 9.14062 7.81676 7.95881 7.81676C6.92472 7.81676 6.11222 8.5 5.90909 9.09091H5.83523C5.52131 8.3892 4.89347 7.81676 4.0071 7.81676C3.10227 7.81676 2.36364 8.5 2.16051 9.10938H2.08665V7.90909H0.997159V15H2.08665V10.7713C2.08665 9.60795 2.88068 8.86932 3.71165 8.86932C4.50568 8.86932 5.00426 9.29403 5.00426 10.3651V15H6.11222V10.5497ZM16.6 15H17.6895V10.3281C17.6895 8.07528 15.9722 7.81676 15.0674 7.81676C13.9963 7.81676 12.7776 8.18608 12.2236 9.47869L13.2577 9.84801C13.4977 9.33097 14.0702 8.77699 15.1227 8.77699C15.9722 8.77699 16.6 9.14631 16.6 10.3281V10.3466C16.6 10.8082 15.7506 10.7713 14.7719 10.9006C13.4424 11.0668 12.0205 11.3807 12.0205 12.9872C12.0205 14.3722 13.0915 15.1662 14.4395 15.1662C15.6767 15.1662 16.323 14.5014 16.5446 14.0398H16.6V15ZM16.6 12.4332C16.6 13.3196 15.8983 14.1875 14.6057 14.1875C13.7378 14.1875 13.11 13.7997 13.11 13.0426C13.11 12.2116 13.8671 11.9531 14.7165 11.8423C15.1781 11.7869 16.4154 11.6577 16.6 11.4361V12.4332ZM20.4736 6.89347C20.9537 6.89347 21.2491 6.56108 21.2491 6.15483C21.2491 5.78551 20.9537 5.41619 20.4736 5.41619C19.9935 5.41619 19.698 5.78551 19.698 6.15483C19.698 6.56108 19.9935 6.89347 20.4736 6.89347ZM21.0275 7.90909H19.9381V15H21.0275V7.90909ZM24.3725 10.8082C24.3725 9.47869 25.3881 8.86932 26.2006 8.86932C27.1055 8.86932 27.7518 9.53409 27.7518 10.5682V15H28.8413V10.4943C28.8413 8.68466 27.881 7.81676 26.5515 7.81676C25.4805 7.81676 24.7788 8.3892 24.4464 9.10938H24.3725V7.90909H23.283V15H24.3725V10.8082Z" transform="translate(579 26)" fill="black"/>
<rect width="400" height="120" fill="#FFF4BC" transform="translate(62 130)"/>
<path opacity="0.4" d="M6.48153 13H7.81108L5.7706 9.07138C6.8647 8.62358 7.47869 7.74183 7.47869 6.4446C7.47869 4.875 6.5554 3.54545 4.30256 3.54545H1.14489V13H2.28977V9.32528H4.60263L6.48153 13ZM2.28977 4.56108H4.30256C5.98295 4.56108 6.35227 5.55824 6.35227 6.4446C6.35227 7.49716 5.83523 8.27273 4.1733 8.27273H2.28977V4.56108ZM12.3171 13.1477C13.7574 13.1477 14.81 12.4276 15.1424 11.3565L14.0898 11.0611C13.8128 11.7997 13.185 12.169 12.3171 12.169C11.0337 12.169 10.2258 11.3565 10.115 9.82386H15.2532V9.36222C15.2532 6.72159 13.6836 5.81676 12.2063 5.81676C10.2858 5.81676 9.01169 7.33097 9.01169 9.50994C9.01169 11.6889 10.2674 13.1477 12.3171 13.1477ZM12.2063 6.79545C13.3881 6.79545 14.1452 7.68182 14.1452 8.8821H10.1381C10.3135 7.55256 11.1168 6.79545 12.2063 6.79545ZM22.0893 7.49716C21.72 6.46307 20.926 5.81676 19.6149 5.81676C18.1192 5.81676 17.0112 6.66619 17.0112 7.86648C17.0112 8.73438 17.5837 9.50994 18.8763 9.84233L20.0581 10.1378C20.7598 10.304 21.0737 10.6179 21.0737 11.0795C21.0737 11.6705 20.4828 12.206 19.4672 12.206C18.4146 12.206 17.916 11.6335 17.6575 10.9872L16.6604 11.3565C17.0112 12.2429 17.7868 13.1477 19.4856 13.1477C21.2399 13.1477 22.1817 12.1321 22.1817 11.0426C22.1817 10.2301 21.6462 9.49148 20.3535 9.17756L19.301 8.91903C18.4885 8.71591 18.1007 8.29119 18.1007 7.81108C18.1007 7.2017 18.747 6.74006 19.6149 6.74006C20.7044 6.74006 20.9814 7.46023 21.1106 7.77415L22.0893 7.49716ZM27.1701 13.1477C28.6104 13.1477 29.663 12.4276 29.9954 11.3565L28.9428 11.0611C28.6658 11.7997 28.038 12.169 27.1701 12.169C25.8867 12.169 25.0788 11.3565 24.968 9.82386H30.1062V9.36222C30.1062 6.72159 28.5366 5.81676 27.0593 5.81676C25.1388 5.81676 23.8647 7.33097 23.8647 9.50994C23.8647 11.6889 25.1204 13.1477 27.1701 13.1477ZM27.0593 6.79545C28.2411 6.79545 28.9982 7.68182 28.9982 8.8821H24.9911C25.1665 7.55256 25.9698 6.79545 27.0593 6.79545ZM35.9637 6.05682C35.7421 5.92756 35.3912 5.79829 35.0219 5.79829C34.1909 5.79829 33.4154 6.4446 33.2122 7.12784H33.1384V5.90909H32.0489V13H33.1384V8.9929C33.1568 8.03267 33.8216 6.92472 34.985 6.92472C35.2989 6.92472 35.4835 7.01705 35.5943 7.07244L35.9637 6.05682ZM43.2869 5.90909H42.105L40.1477 11.5597H40.0738L38.1164 5.90909H36.9346L39.5568 13H40.6647L43.2869 5.90909ZM47.7167 13.1477C49.157 13.1477 50.2096 12.4276 50.542 11.3565L49.4894 11.0611C49.2124 11.7997 48.5846 12.169 47.7167 12.169C46.4333 12.169 45.6254 11.3565 45.5146 9.82386H50.6528V9.36222C50.6528 6.72159 49.0832 5.81676 47.6059 5.81676C45.6854 5.81676 44.4113 7.33097 44.4113 9.50994C44.4113 11.6889 45.667 13.1477 47.7167 13.1477ZM47.6059 6.79545C48.7877 6.79545 49.5448 7.68182 49.5448 8.8821H45.5377C45.7131 7.55256 46.5164 6.79545 47.6059 6.79545ZM58.523 13V3.54545H57.4335V7.03551H57.3597C57.1196 6.66619 56.6764 5.81676 55.2915 5.81676C53.5003 5.81676 52.2631 7.23864 52.2631 9.47301C52.2631 11.7259 53.5003 13.1477 55.273 13.1477C56.6395 13.1477 57.1196 12.2983 57.3597 11.9105H57.4705V13H58.523ZM53.3526 9.45455C53.3526 7.95881 54.0358 6.79545 55.4208 6.79545C56.7503 6.79545 57.452 7.86648 57.452 9.45455C57.452 11.0611 56.7318 12.169 55.4208 12.169C54.0543 12.169 53.3526 10.9688 53.3526 9.45455ZM65.1737 13H66.2632V6.92472H67.8513V5.90909H66.2632V5.50284C66.2632 4.80114 66.5587 4.43182 67.2788 4.43182C67.5928 4.43182 67.7774 4.50568 67.8882 4.54261L68.2021 3.60085C68.0359 3.52699 67.7035 3.41619 67.168 3.41619C66.1524 3.41619 65.1737 4.02557 65.1737 5.24432V5.90909H64.0288V6.92472H65.1737V13ZM72.2015 13.1477C74.1219 13.1477 75.4145 11.6889 75.4145 9.49148C75.4145 7.27557 74.1219 5.81676 72.2015 5.81676C70.281 5.81676 68.9884 7.27557 68.9884 9.49148C68.9884 11.6889 70.281 13.1477 72.2015 13.1477ZM72.2015 12.169C70.7427 12.169 70.0779 10.9134 70.0779 9.49148C70.0779 8.0696 70.7427 6.79545 72.2015 6.79545C73.6603 6.79545 74.3251 8.0696 74.3251 9.49148C74.3251 10.9134 73.6603 12.169 72.2015 12.169ZM81.2524 6.05682C81.0308 5.92756 80.68 5.79829 80.3106 5.79829C79.4797 5.79829 78.7041 6.4446 78.501 7.12784H78.4271V5.90909H77.3376V13H78.4271V8.9929C78.4456 8.03267 79.1104 6.92472 80.2737 6.92472C80.5876 6.92472 80.7723 7.01705 80.8831 7.07244L81.2524 6.05682ZM90.7884 13H91.8779V8.32812C91.8779 6.07528 90.1605 5.81676 89.2557 5.81676C88.1847 5.81676 86.9659 6.18608 86.412 7.47869L87.4461 7.84801C87.6861 7.33097 88.2586 6.77699 89.3111 6.77699C90.1605 6.77699 90.7884 7.14631 90.7884 8.32812V8.34659C90.7884 8.80824 89.939 8.77131 88.9603 8.90057C87.6307 9.06676 86.2088 9.38068 86.2088 10.9872C86.2088 12.3722 87.2799 13.1662 88.6279 13.1662C89.8651 13.1662 90.5114 12.5014 90.733 12.0398H90.7884V13ZM90.7884 10.4332C90.7884 11.3196 90.0867 12.1875 88.7941 12.1875C87.9262 12.1875 87.2983 11.7997 87.2983 11.0426C87.2983 10.2116 88.0554 9.95312 88.9049 9.84233C89.3665 9.78693 90.6037 9.65767 90.7884 9.43608V10.4332ZM98.0412 6.05682C97.8196 5.92756 97.4687 5.79829 97.0994 5.79829C96.2685 5.79829 95.4929 6.4446 95.2898 7.12784H95.2159V5.90909H94.1264V13H95.2159V8.9929C95.2344 8.03267 95.8991 6.92472 97.0625 6.92472C97.3764 6.92472 97.5611 7.01705 97.6719 7.07244L98.0412 6.05682ZM103.997 5.90909V7.03551H103.886C103.646 6.66619 103.203 5.81676 101.818 5.81676C100.027 5.81676 98.7894 7.23864 98.7894 9.41761C98.7894 11.6335 100.082 12.8892 101.799 12.8892C103.184 12.8892 103.627 12.0767 103.868 11.6889H103.96V12.9446C103.978 14.1264 103.037 14.6804 101.947 14.6804C100.728 14.6804 100.23 13.9787 99.9527 13.6278L99.0848 14.2372C99.528 14.9943 100.433 15.6591 101.947 15.6591C103.591 15.6591 105.049 14.8835 105.049 13.0554V5.90909H103.997ZM99.8789 9.39915C99.8789 7.95881 100.562 6.79545 101.947 6.79545C103.277 6.79545 103.978 7.86648 103.978 9.39915C103.978 10.9688 103.258 11.9105 101.947 11.9105C100.581 11.9105 99.8789 10.8764 99.8789 9.39915ZM112.197 7.49716C111.828 6.46307 111.034 5.81676 109.723 5.81676C108.227 5.81676 107.119 6.66619 107.119 7.86648C107.119 8.73438 107.691 9.50994 108.984 9.84233L110.166 10.1378C110.868 10.304 111.181 10.6179 111.181 11.0795C111.181 11.6705 110.591 12.206 109.575 12.206C108.522 12.206 108.024 11.6335 107.765 10.9872L106.768 11.3565C107.119 12.2429 107.895 13.1477 109.593 13.1477C111.348 13.1477 112.289 12.1321 112.289 11.0426C112.289 10.2301 111.754 9.49148 110.461 9.17756L109.409 8.91903C108.596 8.71591 108.208 8.29119 108.208 7.81108C108.208 7.2017 108.855 6.74006 109.723 6.74006C110.812 6.74006 111.089 7.46023 111.218 7.77415L112.197 7.49716ZM122.468 13H123.558V8.32812C123.558 6.07528 121.84 5.81676 120.936 5.81676C119.865 5.81676 118.646 6.18608 118.092 7.47869L119.126 7.84801C119.366 7.33097 119.938 6.77699 120.991 6.77699C121.84 6.77699 122.468 7.14631 122.468 8.32812V8.34659C122.468 8.80824 121.619 8.77131 120.64 8.90057C119.311 9.06676 117.889 9.38068 117.889 10.9872C117.889 12.3722 118.96 13.1662 120.308 13.1662C121.545 13.1662 122.191 12.5014 122.413 12.0398H122.468V13ZM122.468 10.4332C122.468 11.3196 121.767 12.1875 120.474 12.1875C119.606 12.1875 118.978 11.7997 118.978 11.0426C118.978 10.2116 119.735 9.95312 120.585 9.84233C121.046 9.78693 122.284 9.65767 122.468 9.43608V10.4332ZM126.896 8.80824C126.896 7.47869 127.911 6.86932 128.724 6.86932C129.629 6.86932 130.275 7.53409 130.275 8.56818V13H131.365V8.49432C131.365 6.68466 130.404 5.81676 129.075 5.81676C128.004 5.81676 127.302 6.3892 126.97 7.10938H126.896V5.90909H125.806V13H126.896V8.80824ZM139.509 13V3.54545H138.42V7.03551H138.346C138.106 6.66619 137.663 5.81676 136.278 5.81676C134.487 5.81676 133.25 7.23864 133.25 9.47301C133.25 11.7259 134.487 13.1477 136.259 13.1477C137.626 13.1477 138.106 12.2983 138.346 11.9105H138.457V13H139.509ZM134.339 9.45455C134.339 7.95881 135.022 6.79545 136.407 6.79545C137.737 6.79545 138.438 7.86648 138.438 9.45455C138.438 11.0611 137.718 12.169 136.407 12.169C135.041 12.169 134.339 10.9688 134.339 9.45455ZM149.595 6.05682C149.373 5.92756 149.022 5.79829 148.653 5.79829C147.822 5.79829 147.047 6.4446 146.843 7.12784H146.77V5.90909H145.68V13H146.77V8.9929C146.788 8.03267 147.453 6.92472 148.616 6.92472C148.93 6.92472 149.115 7.01705 149.226 7.07244L149.595 6.05682ZM153.648 13.1477C155.089 13.1477 156.141 12.4276 156.474 11.3565L155.421 11.0611C155.144 11.7997 154.516 12.169 153.648 12.169C152.365 12.169 151.557 11.3565 151.446 9.82386H156.585V9.36222C156.585 6.72159 155.015 5.81676 153.538 5.81676C151.617 5.81676 150.343 7.33097 150.343 9.50994C150.343 11.6889 151.599 13.1477 153.648 13.1477ZM153.538 6.79545C154.719 6.79545 155.477 7.68182 155.477 8.8821H151.469C151.645 7.55256 152.448 6.79545 153.538 6.79545ZM161.5 5.90909H159.986V4.39489H158.897V5.90909H157.825V6.92472H158.897V11.2642C158.897 12.5014 159.894 13.0923 160.817 13.0923C161.223 13.0923 161.482 13.0185 161.629 12.9631L161.408 11.9844C161.316 12.0028 161.168 12.0398 160.928 12.0398C160.448 12.0398 159.986 11.892 159.986 10.9688V6.92472H161.5V5.90909ZM167.877 10.1932C167.877 11.5227 166.861 12.0398 166.049 12.0398C165.144 12.0398 164.498 11.4489 164.498 10.4148V5.90909H163.408V10.4148C163.408 12.2798 164.664 13.0923 165.698 13.0923C166.769 13.0923 167.452 12.5384 167.803 12.0028H167.877V13H168.967V5.90909H167.877V10.1932ZM175.137 6.05682C174.915 5.92756 174.564 5.79829 174.195 5.79829C173.364 5.79829 172.588 6.4446 172.385 7.12784H172.312V5.90909H171.222V13H172.312V8.9929C172.33 8.03267 172.995 6.92472 174.158 6.92472C174.472 6.92472 174.657 7.01705 174.767 7.07244L175.137 6.05682ZM177.726 8.80824C177.726 7.47869 178.741 6.86932 179.554 6.86932C180.459 6.86932 181.105 7.53409 181.105 8.56818V13H182.195V8.49432C182.195 6.68466 181.234 5.81676 179.905 5.81676C178.834 5.81676 178.132 6.3892 177.8 7.10938H177.726V5.90909H176.636V13H177.726V8.80824ZM194.165 5.90909H192.983L191.025 11.5597H190.951L188.994 5.90909H187.812L190.434 13H191.542L194.165 5.90909ZM199.856 13H200.945V8.32812C200.945 6.07528 199.228 5.81676 198.323 5.81676C197.252 5.81676 196.033 6.18608 195.479 7.47869L196.514 7.84801C196.754 7.33097 197.326 6.77699 198.379 6.77699C199.228 6.77699 199.856 7.14631 199.856 8.32812V8.34659C199.856 8.80824 199.006 8.77131 198.028 8.90057C196.698 9.06676 195.276 9.38068 195.276 10.9872C195.276 12.3722 196.347 13.1662 197.695 13.1662C198.933 13.1662 199.579 12.5014 199.8 12.0398H199.856V13ZM199.856 10.4332C199.856 11.3196 199.154 12.1875 197.862 12.1875C196.994 12.1875 196.366 11.7997 196.366 11.0426C196.366 10.2116 197.123 9.95312 197.972 9.84233C198.434 9.78693 199.671 9.65767 199.856 9.43608V10.4332ZM204.283 3.54545H203.194V13H204.283V3.54545ZM211.008 10.1932C211.008 11.5227 209.992 12.0398 209.179 12.0398C208.275 12.0398 207.628 11.4489 207.628 10.4148V5.90909H206.539V10.4148C206.539 12.2798 207.795 13.0923 208.829 13.0923C209.9 13.0923 210.583 12.5384 210.934 12.0028H211.008V13H212.097V5.90909H211.008V10.1932ZM217.326 13.1477C218.766 13.1477 219.818 12.4276 220.151 11.3565L219.098 11.0611C218.821 11.7997 218.193 12.169 217.326 12.169C216.042 12.169 215.234 11.3565 215.124 9.82386H220.262V9.36222C220.262 6.72159 218.692 5.81676 217.215 5.81676C215.294 5.81676 214.02 7.33097 214.02 9.50994C214.02 11.6889 215.276 13.1477 217.326 13.1477ZM217.215 6.79545C218.397 6.79545 219.154 7.68182 219.154 8.8821H215.147C215.322 7.55256 216.125 6.79545 217.215 6.79545ZM227.098 7.49716C226.729 6.46307 225.934 5.81676 224.623 5.81676C223.128 5.81676 222.02 6.66619 222.02 7.86648C222.02 8.73438 222.592 9.50994 223.885 9.84233L225.067 10.1378C225.768 10.304 226.082 10.6179 226.082 11.0795C226.082 11.6705 225.491 12.206 224.476 12.206C223.423 12.206 222.925 11.6335 222.666 10.9872L221.669 11.3565C222.02 12.2429 222.795 13.1477 224.494 13.1477C226.248 13.1477 227.19 12.1321 227.19 11.0426C227.19 10.2301 226.655 9.49148 225.362 9.17756L224.309 8.91903C223.497 8.71591 223.109 8.29119 223.109 7.81108C223.109 7.2017 223.755 6.74006 224.623 6.74006C225.713 6.74006 225.99 7.46023 226.119 7.77415L227.098 7.49716Z" transform="translate(111 137)" fill="black" fill-opacity="0.9"/>
<path opacity="0.07" d="M0 0H400" transform="translate(62 130.5)" stroke="black"/>
<rect width="400" height="30" fill="#FFF4BC" transform="translate(62 250)"/>
<path d="M6.0522 6.10298H7.45561C7.3956 4.5103 6.0799 3.41619 4.18715 3.41619C2.30362 3.41619 0.867898 4.47337 0.867898 6.06143C0.867898 7.37713 1.86506 8.1804 3.37464 8.62358L4.22408 8.86825C5.55824 9.26989 6.13068 9.63459 6.13068 10.3963C6.13068 11.2596 5.31818 11.8828 4.10405 11.8828C3.01918 11.8828 2.14205 11.3842 2.06818 10.3594H0.600142C0.678622 12.1321 2.12358 13.1523 4.10405 13.1523C6.24148 13.1523 7.54332 12.0213 7.54332 10.3917C7.54332 9.01136 6.62003 8.22195 4.83345 7.69567L4.09943 7.48331C2.91761 7.13707 2.28516 6.74929 2.28516 6.04297C2.28516 5.24432 3.04226 4.68111 4.15945 4.68111C5.23509 4.68111 5.92756 5.1843 6.0522 6.10298ZM12.8203 9.6392C15.0731 9.6392 16.0472 8.34197 16.0472 6.57848C16.0472 4.82422 15.087 3.54545 12.8064 3.54545H9.4918V13H10.9552V9.6392H12.8203ZM10.9552 4.80114H12.8064C14.1452 4.80114 14.6022 5.54901 14.6022 6.57848C14.6022 7.60795 14.1452 8.38352 12.8203 8.38352H10.9552V4.80114ZM28.0126 7.64489C28.0126 4.91193 26.8123 3.41619 24.8041 3.41619C22.7821 3.41619 21.568 4.91193 21.568 7.64489V8.76207C21.568 11.5504 22.7914 13.1293 24.818 13.1293C26.8262 13.1293 28.0126 11.5504 28.0126 8.76207V7.64489ZM26.5676 8.98828C26.5676 10.6964 25.9629 11.8782 24.818 11.8782C23.65 11.8782 23.013 10.6964 23.013 8.98828V7.41406C23.013 5.7429 23.6362 4.66264 24.8041 4.66264C25.9583 4.66264 26.5676 5.7429 26.5676 7.41406V8.98828Z" transform="translate(475 242)" fill="black"/>
<path opacity="0.1" d="M0 0H6" transform="translate(466 250.5)" stroke="black"/>
<path opacity="0.4" d="M7.03551 7.73722C7.03551 4.96733 5.94602 3.41619 3.89631 3.41619C1.82812 3.41619 0.72017 4.96733 0.72017 7.73722V8.64205C0.72017 11.4304 1.84659 13.1293 3.91477 13.1293C5.96449 13.1293 7.03551 11.4304 7.03551 8.64205V7.73722ZM5.89062 8.84517C5.89062 10.6179 5.26278 12.1136 3.91477 12.1136C2.5483 12.1136 1.86506 10.6179 1.86506 8.84517V7.53409C1.86506 5.7429 2.52983 4.43182 3.89631 4.43182C5.24432 4.43182 5.89062 5.7429 5.89062 7.53409V8.84517ZM10.0895 5.90909H8.83386L11.0867 9.45455L8.83386 13H10.0895L11.7884 10.2486L13.4873 13H14.743L12.4532 9.45455L14.743 5.90909H13.4873L11.7884 8.80824L10.0895 5.90909ZM22.1549 7.75568H18.2402V4.56108H22.7643V3.54545H17.0953V13H18.2402V8.77131H22.1549V7.75568ZM30.4348 7.75568H26.52V4.56108H31.0442V3.54545H25.3752V13H26.52V8.77131H30.4348V7.75568ZM36.5727 13C39.4533 13 41.0783 11.2088 41.0783 8.25426C41.0783 5.31818 39.4533 3.54545 36.7019 3.54545H33.655V13H36.5727ZM36.6281 4.56108C38.844 4.56108 39.9704 5.96449 39.9704 8.25426C39.9704 10.5625 38.844 11.9844 36.4988 11.9844H34.7999V4.56108H36.6281ZM48.7085 7.75568H44.7937V4.56108H49.3178V3.54545H43.6488V13H44.7937V8.77131H48.7085V7.75568Z" transform="translate(0 242)" fill="black"/>
<path opacity="0.1" d="M0 0H6" transform="translate(52 250.5)" stroke="black"/>
<path opacity="0.07" d="M0 0H400" transform="translate(62 250.5)" stroke="black"/>
</g>
<defs>
<clipPath id="clip0">
<rect width="800" height="314" fill="white"/>
</clipPath>
</defs>
</svg>
