<svg width="800" height="84" viewBox="0 0 800 84" fill="none" xmlns="http://www.w3.org/2000/svg">
<g clip-path="url(#clip0)">
<path opacity="0.4" d="M1.06108 9L1.67791 7.24858H4.40732L5.02415 9H5.85511L3.4517 2.45455H2.63352L0.230114 9H1.06108ZM3.00426 3.49006H3.08097L4.15803 6.54545H1.9272L3.00426 3.49006ZM9.6626 4.19318C9.50919 4.10369 9.26629 4.0142 9.01061 4.0142C8.43533 4.0142 7.89839 4.46165 7.75777 4.93466H7.70663V4.09091H6.95237V9H7.70663V6.22585C7.71942 5.56108 8.17964 4.79403 8.98504 4.79403C9.20237 4.79403 9.33021 4.85795 9.40692 4.89631L9.6626 4.19318ZM13.7857 4.09091V4.87074H13.709C13.5428 4.61506 13.236 4.02699 12.2772 4.02699C11.0371 4.02699 10.1806 5.01136 10.1806 6.51989C10.1806 8.05398 11.0755 8.9233 12.2644 8.9233C13.2232 8.9233 13.53 8.3608 13.6962 8.09233H13.7601V8.96165C13.7729 9.77983 13.1209 10.1634 12.3667 10.1634C11.5229 10.1634 11.1777 9.67756 10.986 9.43466L10.3851 9.85653C10.6919 10.3807 11.3184 10.8409 12.3667 10.8409C13.5044 10.8409 14.5144 10.304 14.5144 9.03835V4.09091H13.7857ZM10.9348 6.5071C10.9348 5.50994 11.4079 4.70455 12.3667 4.70455C13.2871 4.70455 13.7729 5.44602 13.7729 6.5071C13.7729 7.59375 13.2743 8.24574 12.3667 8.24574C11.4206 8.24574 10.9348 7.52983 10.9348 6.5071ZM19.1688 7.05682C19.1688 7.97727 18.4657 8.33523 17.9032 8.33523C17.2768 8.33523 16.8293 7.92614 16.8293 7.21023V4.09091H16.0751V7.21023C16.0751 8.50142 16.9444 9.06392 17.6603 9.06392C18.4018 9.06392 18.8748 8.6804 19.1177 8.30966H19.1688V9H19.9231V4.09091H19.1688V7.05682ZM25.0258 5.91903C25.0258 5.22869 25.4093 4.75568 26.074 4.75568C26.4831 4.75568 27.0329 4.99858 27.0329 5.76562V9H27.7871V5.79119C27.7871 4.58949 27.1223 4.02699 26.3042 4.02699C25.5883 4.02699 25.0258 4.5 24.8851 4.90909H24.834C24.6167 4.4233 24.182 4.02699 23.5684 4.02699C22.9419 4.02699 22.4306 4.5 22.29 4.92188H22.2388V4.09091H21.4846V9H22.2388V6.07244C22.2388 5.26705 22.7885 4.75568 23.3638 4.75568C23.9135 4.75568 24.2587 5.04972 24.2587 5.79119V9H25.0258V5.91903ZM31.3781 9.10227C32.3752 9.10227 33.1039 8.60369 33.334 7.86222L32.6053 7.65767C32.4136 8.16903 31.9789 8.42472 31.3781 8.42472C30.4896 8.42472 29.9303 7.86222 29.8536 6.80114H33.4107V6.48153C33.4107 4.65341 32.3241 4.02699 31.3014 4.02699C29.9718 4.02699 29.0897 5.07528 29.0897 6.58381C29.0897 8.09233 29.959 9.10227 31.3781 9.10227ZM31.3014 4.70455C32.1195 4.70455 32.6437 5.31818 32.6437 6.14915H29.8695C29.991 5.22869 30.5471 4.70455 31.3014 4.70455ZM35.51 6.09801C35.51 5.17756 36.2131 4.75568 36.7756 4.75568C37.402 4.75568 37.8494 5.21591 37.8494 5.93182V9H38.6037V5.88068C38.6037 4.62784 37.9389 4.02699 37.0185 4.02699C36.277 4.02699 35.7912 4.4233 35.5611 4.92188H35.51V4.09091H34.7557V9H35.51V6.09801ZM42.1707 4.09091H41.1224V3.04261H40.3681V4.09091H39.6267V4.79403H40.3681V7.7983C40.3681 8.65483 41.0585 9.06392 41.6977 9.06392C41.9789 9.06392 42.1579 9.01278 42.2602 8.97443L42.1068 8.29688C42.0428 8.30966 41.9406 8.33523 41.7744 8.33523C41.442 8.33523 41.1224 8.23295 41.1224 7.59375V4.79403H42.1707V4.09091ZM48.2867 2.45455H47.622C47.5452 2.53125 47.1234 3.42614 46.1006 3.42614V4.09091C46.8549 4.09091 47.3918 3.78409 47.4813 3.60511H47.5325V9H48.2867V2.45455ZM53.4519 9H54.2062V4.79403H55.3056V4.09091H54.2062V3.80966C54.2062 3.32386 54.4108 3.06818 54.9093 3.06818C55.1267 3.06818 55.2545 3.11932 55.3312 3.14489L55.5485 2.4929C55.4335 2.44176 55.2034 2.36506 54.8326 2.36506C54.1295 2.36506 53.4519 2.78693 53.4519 3.63068V4.09091H52.6593V4.79403H53.4519V9ZM58.3173 9.10227C59.6469 9.10227 60.5417 8.09233 60.5417 6.57102C60.5417 5.03693 59.6469 4.02699 58.3173 4.02699C56.9878 4.02699 56.0929 5.03693 56.0929 6.57102C56.0929 8.09233 56.9878 9.10227 58.3173 9.10227ZM58.3173 8.42472C57.3074 8.42472 56.8471 7.5554 56.8471 6.57102C56.8471 5.58665 57.3074 4.70455 58.3173 4.70455C59.3273 4.70455 59.7875 5.58665 59.7875 6.57102C59.7875 7.5554 59.3273 8.42472 58.3173 8.42472ZM64.5833 4.19318C64.4299 4.10369 64.187 4.0142 63.9314 4.0142C63.3561 4.0142 62.8191 4.46165 62.6785 4.93466H62.6274V4.09091H61.8731V9H62.6274V6.22585C62.6402 5.56108 63.1004 4.79403 63.9058 4.79403C64.1231 4.79403 64.251 4.85795 64.3277 4.89631L64.5833 4.19318ZM70.3031 4.09091H69.2548V3.04261H68.5005V4.09091H67.759V4.79403H68.5005V7.7983C68.5005 8.65483 69.1909 9.06392 69.8301 9.06392C70.1113 9.06392 70.2903 9.01278 70.3926 8.97443L70.2391 8.29688C70.1752 8.30966 70.073 8.33523 69.9068 8.33523C69.5744 8.33523 69.2548 8.23295 69.2548 7.59375V4.79403H70.3031V4.09091ZM72.3783 6.03409C72.3783 5.11364 73.0431 4.75568 73.6439 4.75568C74.2959 4.75568 74.7178 5.16477 74.7178 5.88068V9H75.4721V5.88068C75.4721 4.66619 74.8073 4.02699 73.8868 4.02699C73.1454 4.02699 72.6723 4.41051 72.4294 4.78125H72.3783V2.45455H71.624V9H72.3783V6.03409ZM79.0654 9.10227C80.0626 9.10227 80.7913 8.60369 81.0214 7.86222L80.2927 7.65767C80.1009 8.16903 79.6663 8.42472 79.0654 8.42472C78.1769 8.42472 77.6176 7.86222 77.5409 6.80114H81.0981V6.48153C81.0981 4.65341 80.0114 4.02699 78.9887 4.02699C77.6592 4.02699 76.7771 5.07528 76.7771 6.58381C76.7771 8.09233 77.6464 9.10227 79.0654 9.10227ZM78.9887 4.70455C79.8069 4.70455 80.331 5.31818 80.331 6.14915H77.5569C77.6783 5.22869 78.2344 4.70455 78.9887 4.70455ZM89.079 5.56108C88.9512 4.64062 88.1713 4.02699 87.1358 4.02699C85.8063 4.02699 84.9242 5.07528 84.9242 6.54545C84.9242 8.05398 85.7807 9.10227 87.1486 9.10227C88.2353 9.10227 88.9512 8.4375 89.079 7.56818H88.3247C88.1841 8.10511 87.7367 8.42472 87.1486 8.42472C86.2537 8.42472 85.6784 7.68324 85.6784 6.54545C85.6784 5.43324 86.2665 4.70455 87.1486 4.70455C87.8134 4.70455 88.2097 5.11364 88.3247 5.56108H89.079ZM93.302 9H94.0562V5.76562C94.0562 4.20597 92.8673 4.02699 92.2409 4.02699C91.4994 4.02699 90.6557 4.28267 90.2721 5.17756L90.988 5.43324C91.1542 5.07528 91.5505 4.69176 92.2792 4.69176C92.8673 4.69176 93.302 4.94744 93.302 5.76562V5.77841C93.302 6.09801 92.7139 6.07244 92.0363 6.16193C91.1159 6.27699 90.1315 6.49432 90.1315 7.60653C90.1315 8.56534 90.873 9.11506 91.8062 9.11506C92.6628 9.11506 93.1102 8.65483 93.2636 8.33523H93.302V9ZM93.302 7.22301C93.302 7.83665 92.8162 8.4375 91.9213 8.4375C91.3204 8.4375 90.8858 8.16903 90.8858 7.64489C90.8858 7.0696 91.4099 6.89062 91.998 6.81392C92.3176 6.77557 93.1741 6.68608 93.302 6.53267V7.22301ZM96.3672 2.45455H95.6129V9H96.3672V2.45455ZM98.5775 2.45455H97.8232V9H98.5775V2.45455ZM104.908 4.09091H103.86V3.04261H103.106V4.09091H102.364V4.79403H103.106V7.7983C103.106 8.65483 103.796 9.06392 104.435 9.06392C104.717 9.06392 104.896 9.01278 104.998 8.97443L104.845 8.29688C104.781 8.30966 104.678 8.33523 104.512 8.33523C104.18 8.33523 103.86 8.23295 103.86 7.59375V4.79403H104.908V4.09091ZM108.162 9.10227C109.492 9.10227 110.387 8.09233 110.387 6.57102C110.387 5.03693 109.492 4.02699 108.162 4.02699C106.833 4.02699 105.938 5.03693 105.938 6.57102C105.938 8.09233 106.833 9.10227 108.162 9.10227ZM108.162 8.42472C107.152 8.42472 106.692 7.5554 106.692 6.57102C106.692 5.58665 107.152 4.70455 108.162 4.70455C109.172 4.70455 109.632 5.58665 109.632 6.57102C109.632 7.5554 109.172 8.42472 108.162 8.42472ZM114.174 4.5H114.889V3.91193C114.889 3.43892 115.12 3.02983 115.388 2.64631L114.979 2.31392C114.468 2.72301 114.174 3.40057 114.174 3.92472V4.5ZM115.81 4.5H116.526V3.91193C116.526 3.43892 116.756 3.02983 117.024 2.64631L116.615 2.31392C116.104 2.72301 115.81 3.40057 115.81 3.92472V4.5ZM120.095 4.09091H119.047V3.04261H118.293V4.09091H117.551V4.79403H118.293V7.7983C118.293 8.65483 118.983 9.06392 119.622 9.06392C119.903 9.06392 120.082 9.01278 120.185 8.97443L120.031 8.29688C119.967 8.30966 119.865 8.33523 119.699 8.33523C119.367 8.33523 119.047 8.23295 119.047 7.59375V4.79403H120.095V4.09091ZM127.732 4.09091H126.939L125.878 7.83665H125.827L124.791 4.09091H123.986L122.938 7.84943H122.886L121.825 4.09091H121.033L122.528 9H123.27L124.344 5.22869H124.42L125.494 9H126.236L127.732 4.09091ZM129.279 3.38778C129.612 3.38778 129.816 3.15767 129.816 2.87642C129.816 2.62074 129.612 2.36506 129.279 2.36506C128.947 2.36506 128.743 2.62074 128.743 2.87642C128.743 3.15767 128.947 3.38778 129.279 3.38778ZM129.663 4.09091H128.909V9H129.663V4.09091ZM135.149 5.56108C135.021 4.64062 134.241 4.02699 133.206 4.02699C131.876 4.02699 130.994 5.07528 130.994 6.54545C130.994 8.05398 131.851 9.10227 133.219 9.10227C134.305 9.10227 135.021 8.4375 135.149 7.56818H134.395C134.254 8.10511 133.807 8.42472 133.219 8.42472C132.324 8.42472 131.749 7.68324 131.749 6.54545C131.749 5.43324 132.337 4.70455 133.219 4.70455C133.884 4.70455 134.28 5.11364 134.395 5.56108H135.149ZM138.499 9.10227C139.496 9.10227 140.225 8.60369 140.455 7.86222L139.726 7.65767C139.534 8.16903 139.1 8.42472 138.499 8.42472C137.61 8.42472 137.051 7.86222 136.974 6.80114H140.531V6.48153C140.531 4.65341 139.445 4.02699 138.422 4.02699C137.093 4.02699 136.21 5.07528 136.21 6.58381C136.21 8.09233 137.08 9.10227 138.499 9.10227ZM138.422 4.70455C139.24 4.70455 139.764 5.31818 139.764 6.14915H136.99C137.112 5.22869 137.668 4.70455 138.422 4.70455ZM142.746 2.45455H142.03V3.04261C142.03 3.51562 141.8 3.92472 141.531 4.30824L141.94 4.64062C142.452 4.23153 142.746 3.55398 142.746 3.02983V2.45455ZM144.382 2.45455H143.666V3.04261C143.666 3.51562 143.436 3.92472 143.168 4.30824L143.577 4.64062C144.088 4.23153 144.382 3.55398 144.382 3.02983V2.45455ZM149.152 6.03409C149.152 5.11364 149.817 4.75568 150.417 4.75568C151.069 4.75568 151.491 5.16477 151.491 5.88068V9H152.246V5.88068C152.246 4.66619 151.581 4.02699 150.66 4.02699C149.919 4.02699 149.446 4.41051 149.203 4.78125H149.152V2.45455H148.398V9H149.152V6.03409ZM156.747 9H157.502V5.76562C157.502 4.20597 156.313 4.02699 155.686 4.02699C154.945 4.02699 154.101 4.28267 153.718 5.17756L154.433 5.43324C154.6 5.07528 154.996 4.69176 155.725 4.69176C156.313 4.69176 156.747 4.94744 156.747 5.76562V5.77841C156.747 6.09801 156.159 6.07244 155.482 6.16193C154.561 6.27699 153.577 6.49432 153.577 7.60653C153.577 8.56534 154.318 9.11506 155.252 9.11506C156.108 9.11506 156.556 8.65483 156.709 8.33523H156.747V9ZM156.747 7.22301C156.747 7.83665 156.262 8.4375 155.367 8.4375C154.766 8.4375 154.331 8.16903 154.331 7.64489C154.331 7.0696 154.855 6.89062 155.443 6.81392C155.763 6.77557 156.62 6.68608 156.747 6.53267V7.22301ZM162.446 5.19034C162.19 4.47443 161.641 4.02699 160.733 4.02699C159.698 4.02699 158.931 4.61506 158.931 5.44602C158.931 6.04688 159.327 6.58381 160.222 6.81392L161.04 7.01847C161.526 7.13352 161.743 7.35085 161.743 7.67045C161.743 8.07955 161.334 8.45028 160.631 8.45028C159.902 8.45028 159.557 8.05398 159.378 7.60653L158.688 7.86222C158.931 8.47585 159.467 9.10227 160.644 9.10227C161.858 9.10227 162.51 8.39915 162.51 7.64489C162.51 7.08239 162.139 6.57102 161.244 6.35369L160.516 6.17472C159.953 6.03409 159.685 5.74006 159.685 5.40767C159.685 4.9858 160.132 4.66619 160.733 4.66619C161.487 4.66619 161.679 5.16477 161.769 5.3821L162.446 5.19034ZM166.617 2.45455V9H167.345V8.24574H167.435C167.601 8.5142 167.921 9.10227 168.867 9.10227C170.094 9.10227 170.95 8.1179 170.95 6.55824C170.95 5.01136 170.094 4.02699 168.854 4.02699C167.895 4.02699 167.601 4.61506 167.435 4.87074H167.371V2.45455H166.617ZM170.196 6.54545C170.196 7.59375 169.71 8.42472 168.764 8.42472C167.857 8.42472 167.358 7.65767 167.358 6.54545C167.358 5.44602 167.844 4.70455 168.764 4.70455C169.723 4.70455 170.196 5.50994 170.196 6.54545ZM174.339 9.10227C175.336 9.10227 176.065 8.60369 176.295 7.86222L175.566 7.65767C175.375 8.16903 174.94 8.42472 174.339 8.42472C173.451 8.42472 172.891 7.86222 172.815 6.80114H176.372V6.48153C176.372 4.65341 175.285 4.02699 174.262 4.02699C172.933 4.02699 172.051 5.07528 172.051 6.58381C172.051 8.09233 172.92 9.10227 174.339 9.10227ZM174.262 4.70455C175.081 4.70455 175.605 5.31818 175.605 6.14915H172.831C172.952 5.22869 173.508 4.70455 174.262 4.70455ZM179.775 9.10227C180.772 9.10227 181.501 8.60369 181.731 7.86222L181.002 7.65767C180.811 8.16903 180.376 8.42472 179.775 8.42472C178.887 8.42472 178.327 7.86222 178.251 6.80114H181.808V6.48153C181.808 4.65341 180.721 4.02699 179.698 4.02699C178.369 4.02699 177.487 5.07528 177.487 6.58381C177.487 8.09233 178.356 9.10227 179.775 9.10227ZM179.698 4.70455C180.517 4.70455 181.041 5.31818 181.041 6.14915H178.267C178.388 5.22869 178.944 4.70455 179.698 4.70455ZM183.907 6.09801C183.907 5.17756 184.61 4.75568 185.173 4.75568C185.799 4.75568 186.246 5.21591 186.246 5.93182V9H187.001V5.88068C187.001 4.62784 186.336 4.02699 185.415 4.02699C184.674 4.02699 184.188 4.4233 183.958 4.92188H183.907V4.09091H183.153V9H183.907V6.09801ZM194.661 5.19034C194.406 4.47443 193.856 4.02699 192.948 4.02699C191.913 4.02699 191.146 4.61506 191.146 5.44602C191.146 6.04688 191.542 6.58381 192.437 6.81392L193.255 7.01847C193.741 7.13352 193.958 7.35085 193.958 7.67045C193.958 8.07955 193.549 8.45028 192.846 8.45028C192.117 8.45028 191.772 8.05398 191.593 7.60653L190.903 7.86222C191.146 8.47585 191.683 9.10227 192.859 9.10227C194.073 9.10227 194.725 8.39915 194.725 7.64489C194.725 7.08239 194.354 6.57102 193.46 6.35369L192.731 6.17472C192.168 6.03409 191.9 5.74006 191.9 5.40767C191.9 4.9858 192.347 4.66619 192.948 4.66619C193.702 4.66619 193.894 5.16477 193.984 5.3821L194.661 5.19034ZM198.135 4.09091H197.086V3.04261H196.332V4.09091H195.591V4.79403H196.332V7.7983C196.332 8.65483 197.022 9.06392 197.662 9.06392C197.943 9.06392 198.122 9.01278 198.224 8.97443L198.071 8.29688C198.007 8.30966 197.905 8.33523 197.738 8.33523C197.406 8.33523 197.086 8.23295 197.086 7.59375V4.79403H198.135V4.09091ZM201.388 9.10227C202.718 9.10227 203.613 8.09233 203.613 6.57102C203.613 5.03693 202.718 4.02699 201.388 4.02699C200.059 4.02699 199.164 5.03693 199.164 6.57102C199.164 8.09233 200.059 9.10227 201.388 9.10227ZM201.388 8.42472C200.379 8.42472 199.918 7.5554 199.918 6.57102C199.918 5.58665 200.379 4.70455 201.388 4.70455C202.398 4.70455 202.859 5.58665 202.859 6.57102C202.859 7.5554 202.398 8.42472 201.388 8.42472ZM207.655 4.19318C207.501 4.10369 207.258 4.0142 207.003 4.0142C206.427 4.0142 205.89 4.46165 205.75 4.93466H205.699V4.09091H204.944V9H205.699V6.22585C205.711 5.56108 206.172 4.79403 206.977 4.79403C207.194 4.79403 207.322 4.85795 207.399 4.89631L207.655 4.19318ZM210.461 9.10227C211.458 9.10227 212.187 8.60369 212.417 7.86222L211.688 7.65767C211.496 8.16903 211.062 8.42472 210.461 8.42472C209.572 8.42472 209.013 7.86222 208.936 6.80114H212.494V6.48153C212.494 4.65341 211.407 4.02699 210.384 4.02699C209.055 4.02699 208.172 5.07528 208.172 6.58381C208.172 8.09233 209.042 9.10227 210.461 9.10227ZM210.384 4.70455C211.202 4.70455 211.726 5.31818 211.726 6.14915H208.952C209.074 5.22869 209.63 4.70455 210.384 4.70455ZM217.942 9V2.45455H217.188V4.87074H217.137C216.971 4.61506 216.664 4.02699 215.705 4.02699C214.465 4.02699 213.608 5.01136 213.608 6.55824C213.608 8.1179 214.465 9.10227 215.692 9.10227C216.638 9.10227 216.971 8.5142 217.137 8.24574H217.213V9H217.942ZM214.363 6.54545C214.363 5.50994 214.836 4.70455 215.794 4.70455C216.715 4.70455 217.201 5.44602 217.201 6.54545C217.201 7.65767 216.702 8.42472 215.794 8.42472C214.848 8.42472 214.363 7.59375 214.363 6.54545ZM224.208 9.10227C225.538 9.10227 226.433 8.09233 226.433 6.57102C226.433 5.03693 225.538 4.02699 224.208 4.02699C222.879 4.02699 221.984 5.03693 221.984 6.57102C221.984 8.09233 222.879 9.10227 224.208 9.10227ZM224.208 8.42472C223.198 8.42472 222.738 7.5554 222.738 6.57102C222.738 5.58665 223.198 4.70455 224.208 4.70455C225.218 4.70455 225.679 5.58665 225.679 6.57102C225.679 7.5554 225.218 8.42472 224.208 8.42472ZM228.518 6.09801C228.518 5.17756 229.222 4.75568 229.784 4.75568C230.411 4.75568 230.858 5.21591 230.858 5.93182V9H231.612V5.88068C231.612 4.62784 230.947 4.02699 230.027 4.02699C229.286 4.02699 228.8 4.4233 228.57 4.92188H228.518V4.09091H227.764V9H228.518V6.09801ZM235.179 4.09091H234.131V3.04261H233.377V4.09091H232.635V4.79403H233.377V7.7983C233.377 8.65483 234.067 9.06392 234.706 9.06392C234.987 9.06392 235.166 9.01278 235.269 8.97443L235.115 8.29688C235.051 8.30966 234.949 8.33523 234.783 8.33523C234.451 8.33523 234.131 8.23295 234.131 7.59375V4.79403H235.179V4.09091ZM238.433 9.10227C239.763 9.10227 240.657 8.09233 240.657 6.57102C240.657 5.03693 239.763 4.02699 238.433 4.02699C237.103 4.02699 236.209 5.03693 236.209 6.57102C236.209 8.09233 237.103 9.10227 238.433 9.10227ZM238.433 8.42472C237.423 8.42472 236.963 7.5554 236.963 6.57102C236.963 5.58665 237.423 4.70455 238.433 4.70455C239.443 4.70455 239.903 5.58665 239.903 6.57102C239.903 7.5554 239.443 8.42472 238.433 8.42472ZM246.758 4.09091H245.71V3.04261H244.956V4.09091H244.214V4.79403H244.956V7.7983C244.956 8.65483 245.646 9.06392 246.285 9.06392C246.567 9.06392 246.745 9.01278 246.848 8.97443L246.694 8.29688C246.63 8.30966 246.528 8.33523 246.362 8.33523C246.03 8.33523 245.71 8.23295 245.71 7.59375V4.79403H246.758V4.09091ZM248.834 6.03409C248.834 5.11364 249.498 4.75568 250.099 4.75568C250.751 4.75568 251.173 5.16477 251.173 5.88068V9H251.927V5.88068C251.927 4.66619 251.262 4.02699 250.342 4.02699C249.601 4.02699 249.128 4.41051 248.885 4.78125H248.834V2.45455H248.079V9H248.834V6.03409ZM255.521 9.10227C256.518 9.10227 257.246 8.60369 257.477 7.86222L256.748 7.65767C256.556 8.16903 256.121 8.42472 255.521 8.42472C254.632 8.42472 254.073 7.86222 253.996 6.80114H257.553V6.48153C257.553 4.65341 256.467 4.02699 255.444 4.02699C254.114 4.02699 253.232 5.07528 253.232 6.58381C253.232 8.09233 254.102 9.10227 255.521 9.10227ZM255.444 4.70455C256.262 4.70455 256.786 5.31818 256.786 6.14915H254.012C254.134 5.22869 254.69 4.70455 255.444 4.70455ZM264.997 5.19034C264.742 4.47443 264.192 4.02699 263.284 4.02699C262.249 4.02699 261.482 4.61506 261.482 5.44602C261.482 6.04688 261.878 6.58381 262.773 6.81392L263.591 7.01847C264.077 7.13352 264.294 7.35085 264.294 7.67045C264.294 8.07955 263.885 8.45028 263.182 8.45028C262.453 8.45028 262.108 8.05398 261.929 7.60653L261.239 7.86222C261.482 8.47585 262.019 9.10227 263.195 9.10227C264.409 9.10227 265.061 8.39915 265.061 7.64489C265.061 7.08239 264.69 6.57102 263.796 6.35369L263.067 6.17472C262.504 6.03409 262.236 5.74006 262.236 5.40767C262.236 4.9858 262.683 4.66619 263.284 4.66619C264.038 4.66619 264.23 5.16477 264.32 5.3821L264.997 5.19034ZM268.471 4.09091H267.422V3.04261H266.668V4.09091H265.927V4.79403H266.668V7.7983C266.668 8.65483 267.359 9.06392 267.998 9.06392C268.279 9.06392 268.458 9.01278 268.56 8.97443L268.407 8.29688C268.343 8.30966 268.241 8.33523 268.074 8.33523C267.742 8.33523 267.422 8.23295 267.422 7.59375V4.79403H268.471V4.09091ZM272.732 9H273.486V5.76562C273.486 4.20597 272.297 4.02699 271.671 4.02699C270.93 4.02699 270.086 4.28267 269.702 5.17756L270.418 5.43324C270.584 5.07528 270.981 4.69176 271.709 4.69176C272.297 4.69176 272.732 4.94744 272.732 5.76562V5.77841C272.732 6.09801 272.144 6.07244 271.466 6.16193C270.546 6.27699 269.562 6.49432 269.562 7.60653C269.562 8.56534 270.303 9.11506 271.236 9.11506C272.093 9.11506 272.54 8.65483 272.694 8.33523H272.732V9ZM272.732 7.22301C272.732 7.83665 272.246 8.4375 271.351 8.4375C270.751 8.4375 270.316 8.16903 270.316 7.64489C270.316 7.0696 270.84 6.89062 271.428 6.81392C271.748 6.77557 272.604 6.68608 272.732 6.53267V7.22301ZM278.941 5.56108C278.814 4.64062 278.034 4.02699 276.998 4.02699C275.669 4.02699 274.787 5.07528 274.787 6.54545C274.787 8.05398 275.643 9.10227 277.011 9.10227C278.098 9.10227 278.814 8.4375 278.941 7.56818H278.187C278.046 8.10511 277.599 8.42472 277.011 8.42472C276.116 8.42472 275.541 7.68324 275.541 6.54545C275.541 5.43324 276.129 4.70455 277.011 4.70455C277.676 4.70455 278.072 5.11364 278.187 5.56108H278.941ZM283.124 9H284.006L281.872 6.18111L283.802 4.09091H282.869L280.874 6.30256H280.785V2.45455H280.031V9H280.785V7.28374L281.363 6.66051L283.124 9Z" transform="translate(62 60)" fill="black"/>
<rect width="400" height="20" transform="translate(62)" fill="url(#paint0_linear)"/>
<rect width="400" height="30" fill="#DEF6E9" transform="translate(62 20)"/>
<path d="M35.9649 11.9844H31.33V11.929L33.8783 9.32528C34.857 8.32812 35.7249 7.18324 35.7249 6.09375C35.7249 4.54261 34.543 3.41619 32.8072 3.41619C30.776 3.41619 29.9635 4.96733 29.9635 6.5H31.0899C31.0899 5.41051 31.4962 4.35795 32.7703 4.35795C33.9152 4.35795 34.6169 5.18892 34.6169 6.13068C34.6169 6.94318 34.0814 7.57102 32.9365 8.75284L29.6126 12.169V13H35.9649V11.9844ZM44.0187 7.73722C44.0187 4.96733 42.9292 3.41619 40.8795 3.41619C38.8113 3.41619 37.7033 4.96733 37.7033 7.73722V8.64205C37.7033 11.4304 38.8298 13.1293 40.8979 13.1293C42.9477 13.1293 44.0187 11.4304 44.0187 8.64205V7.73722ZM42.8738 8.84517C42.8738 10.6179 42.2459 12.1136 40.8979 12.1136C39.5315 12.1136 38.8482 10.6179 38.8482 8.84517V7.53409C38.8482 5.7429 39.513 4.43182 40.8795 4.43182C42.2275 4.43182 42.8738 5.7429 42.8738 7.53409V8.84517Z" transform="translate(407 27)" fill="#517AAA"/>
<path d="M1.53267 13L2.42365 10.4702H6.36612L7.2571 13H8.45739L4.9858 3.54545H3.80398L0.332386 13H1.53267ZM4.33949 5.04119H4.45028L6.00604 9.45455H2.78374L4.33949 5.04119ZM13.9571 6.05682C13.7355 5.92756 13.3846 5.79829 13.0153 5.79829C12.1844 5.79829 11.4088 6.4446 11.2057 7.12784H11.1318V5.90909H10.0423V13H11.1318V8.9929C11.1503 8.03267 11.815 6.92472 12.9784 6.92472C13.2923 6.92472 13.477 7.01705 13.5878 7.07244L13.9571 6.05682ZM19.9127 5.90909V7.03551H19.8019C19.5618 6.66619 19.1186 5.81676 17.7337 5.81676C15.9425 5.81676 14.7053 7.23864 14.7053 9.41761C14.7053 11.6335 15.9979 12.8892 17.7152 12.8892C19.1002 12.8892 19.5433 12.0767 19.7834 11.6889H19.8757V12.9446C19.8942 14.1264 18.9524 14.6804 17.863 14.6804C16.6442 14.6804 16.1456 13.9787 15.8686 13.6278L15.0007 14.2372C15.4439 14.9943 16.3487 15.6591 17.863 15.6591C19.5064 15.6591 20.9652 14.8835 20.9652 13.0554V5.90909H19.9127ZM15.7948 9.39915C15.7948 7.95881 16.478 6.79545 17.863 6.79545C19.1925 6.79545 19.8942 7.86648 19.8942 9.39915C19.8942 10.9688 19.174 11.9105 17.863 11.9105C16.4965 11.9105 15.7948 10.8764 15.7948 9.39915ZM30.1457 3.54545H29.1855C29.0747 3.65625 28.4653 4.94886 26.9881 4.94886V5.90909C28.0776 5.90909 28.8531 5.46591 28.9824 5.20739H29.0562V13H30.1457V3.54545ZM36.7572 6.5H37.7913V5.65057C37.7913 4.96733 38.1237 4.37642 38.5114 3.82244L37.9205 3.34233C37.1819 3.93324 36.7572 4.91193 36.7572 5.66903V6.5ZM39.1208 6.5H40.1549V5.65057C40.1549 4.96733 40.4873 4.37642 40.8751 3.82244L40.2842 3.34233C39.5455 3.93324 39.1208 4.91193 39.1208 5.66903V6.5ZM43.1502 5.90909H41.8945L44.1473 9.45455L41.8945 13H43.1502L44.849 10.2486L46.5479 13H47.8036L45.5138 9.45455L47.8036 5.90909H46.5479L44.849 8.80824L43.1502 5.90909ZM50.8739 3.54545H49.8398V4.39489C49.8398 5.07812 49.5074 5.66903 49.1196 6.22301L49.7105 6.70312C50.4491 6.11222 50.8739 5.13352 50.8739 4.37642V3.54545ZM53.2375 3.54545H52.2034V4.39489C52.2034 5.07812 51.871 5.66903 51.4832 6.22301L52.0741 6.70312C52.8128 6.11222 53.2375 5.13352 53.2375 4.37642V3.54545ZM59.5177 13H60.6072V6.92472H62.1953V5.90909H60.6072V5.50284C60.6072 4.80114 60.9026 4.43182 61.6228 4.43182C61.9367 4.43182 62.1214 4.50568 62.2322 4.54261L62.5461 3.60085C62.3799 3.52699 62.0475 3.41619 61.512 3.41619C60.4964 3.41619 59.5177 4.02557 59.5177 5.24432V5.90909H58.3728V6.92472H59.5177V13ZM66.5455 13.1477C68.4659 13.1477 69.7585 11.6889 69.7585 9.49148C69.7585 7.27557 68.4659 5.81676 66.5455 5.81676C64.625 5.81676 63.3324 7.27557 63.3324 9.49148C63.3324 11.6889 64.625 13.1477 66.5455 13.1477ZM66.5455 12.169C65.0867 12.169 64.4219 10.9134 64.4219 9.49148C64.4219 8.0696 65.0867 6.79545 66.5455 6.79545C68.0043 6.79545 68.669 8.0696 68.669 9.49148C68.669 10.9134 68.0043 12.169 66.5455 12.169ZM75.5964 6.05682C75.3748 5.92756 75.0239 5.79829 74.6546 5.79829C73.8237 5.79829 73.0481 6.4446 72.845 7.12784H72.7711V5.90909H71.6816V13H72.7711V8.9929C72.7896 8.03267 73.4543 6.92472 74.6177 6.92472C74.9316 6.92472 75.1163 7.01705 75.2271 7.07244L75.5964 6.05682ZM83.8582 5.90909H82.344V4.39489H81.2545V5.90909H80.1835V6.92472H81.2545V11.2642C81.2545 12.5014 82.2517 13.0923 83.175 13.0923C83.5812 13.0923 83.8398 13.0185 83.9875 12.9631L83.7659 11.9844C83.6736 12.0028 83.5258 12.0398 83.2858 12.0398C82.8057 12.0398 82.344 11.892 82.344 10.9688V6.92472H83.8582V5.90909ZM94.8885 5.90909H93.7436L92.2109 11.3196H92.137L90.6413 5.90909H89.4779L87.9637 11.3381H87.8899L86.3572 5.90909H85.2123L87.3728 13H88.4439L89.995 7.55256H90.1058L91.6569 13H92.7279L94.8885 5.90909ZM97.1243 4.89347C97.6044 4.89347 97.8999 4.56108 97.8999 4.15483C97.8999 3.78551 97.6044 3.41619 97.1243 3.41619C96.6442 3.41619 96.3487 3.78551 96.3487 4.15483C96.3487 4.56108 96.6442 4.89347 97.1243 4.89347ZM97.6783 5.90909H96.5888V13H97.6783V5.90909ZM105.603 8.03267C105.418 6.70312 104.292 5.81676 102.796 5.81676C100.876 5.81676 99.6014 7.33097 99.6014 9.45455C99.6014 11.6335 100.839 13.1477 102.814 13.1477C104.384 13.1477 105.418 12.1875 105.603 10.9318H104.513C104.31 11.7074 103.664 12.169 102.814 12.169C101.522 12.169 100.691 11.098 100.691 9.45455C100.691 7.84801 101.54 6.79545 102.814 6.79545C103.775 6.79545 104.347 7.38636 104.513 8.03267H105.603ZM110.441 13.1477C111.882 13.1477 112.934 12.4276 113.266 11.3565L112.214 11.0611C111.937 11.7997 111.309 12.169 110.441 12.169C109.158 12.169 108.35 11.3565 108.239 9.82386H113.377V9.36222C113.377 6.72159 111.808 5.81676 110.33 5.81676C108.41 5.81676 107.136 7.33097 107.136 9.50994C107.136 11.6889 108.391 13.1477 110.441 13.1477ZM110.33 6.79545C111.512 6.79545 112.269 7.68182 112.269 8.8821H108.262C108.438 7.55256 109.241 6.79545 110.33 6.79545Z" transform="translate(111 27)" fill="black" fill-opacity="0.9"/>
<path d="M6.0522 6.10298H7.45561C7.3956 4.5103 6.0799 3.41619 4.18715 3.41619C2.30362 3.41619 0.867898 4.47337 0.867898 6.06143C0.867898 7.37713 1.86506 8.1804 3.37464 8.62358L4.22408 8.86825C5.55824 9.26989 6.13068 9.63459 6.13068 10.3963C6.13068 11.2596 5.31818 11.8828 4.10405 11.8828C3.01918 11.8828 2.14205 11.3842 2.06818 10.3594H0.600142C0.678622 12.1321 2.12358 13.1523 4.10405 13.1523C6.24148 13.1523 7.54332 12.0213 7.54332 10.3917C7.54332 9.01136 6.62003 8.22195 4.83345 7.69567L4.09943 7.48331C2.91761 7.13707 2.28516 6.74929 2.28516 6.04297C2.28516 5.24432 3.04226 4.68111 4.15945 4.68111C5.23509 4.68111 5.92756 5.1843 6.0522 6.10298ZM12.8203 9.6392C15.0731 9.6392 16.0472 8.34197 16.0472 6.57848C16.0472 4.82422 15.087 3.54545 12.8064 3.54545H9.4918V13H10.9552V9.6392H12.8203ZM10.9552 4.80114H12.8064C14.1452 4.80114 14.6022 5.54901 14.6022 6.57848C14.6022 7.60795 14.1452 8.38352 12.8203 8.38352H10.9552V4.80114ZM28.0126 7.64489C28.0126 4.91193 26.8123 3.41619 24.8041 3.41619C22.7821 3.41619 21.568 4.91193 21.568 7.64489V8.76207C21.568 11.5504 22.7914 13.1293 24.818 13.1293C26.8262 13.1293 28.0126 11.5504 28.0126 8.76207V7.64489ZM26.5676 8.98828C26.5676 10.6964 25.9629 11.8782 24.818 11.8782C23.65 11.8782 23.013 10.6964 23.013 8.98828V7.41406C23.013 5.7429 23.6362 4.66264 24.8041 4.66264C25.9583 4.66264 26.5676 5.7429 26.5676 7.41406V8.98828Z" transform="translate(475 12)" fill="black"/>
<path opacity="0.1" d="M0 0H6" transform="translate(466 20.5)" stroke="black"/>
<path opacity="0.4" d="M7.03551 7.73722C7.03551 4.96733 5.94602 3.41619 3.89631 3.41619C1.82812 3.41619 0.72017 4.96733 0.72017 7.73722V8.64205C0.72017 11.4304 1.84659 13.1293 3.91477 13.1293C5.96449 13.1293 7.03551 11.4304 7.03551 8.64205V7.73722ZM5.89062 8.84517C5.89062 10.6179 5.26278 12.1136 3.91477 12.1136C2.5483 12.1136 1.86506 10.6179 1.86506 8.84517V7.53409C1.86506 5.7429 2.52983 4.43182 3.89631 4.43182C5.24432 4.43182 5.89062 5.7429 5.89062 7.53409V8.84517ZM10.0895 5.90909H8.83386L11.0867 9.45455L8.83386 13H10.0895L11.7884 10.2486L13.4873 13H14.743L12.4532 9.45455L14.743 5.90909H13.4873L11.7884 8.80824L10.0895 5.90909ZM22.1549 7.75568H18.2402V4.56108H22.7643V3.54545H17.0953V13H18.2402V8.77131H22.1549V7.75568ZM30.4348 7.75568H26.52V4.56108H31.0442V3.54545H25.3752V13H26.52V8.77131H30.4348V7.75568ZM37.0712 13C39.3056 13 40.2289 11.9105 40.2289 10.4886C40.2289 8.9929 39.1948 8.1804 38.3269 8.125V8.03729C39.1348 7.82031 39.8596 7.2848 39.8596 6.05682C39.8596 4.67188 38.9363 3.54545 36.9604 3.54545H33.655V13H37.0712ZM34.7999 4.56108H36.9604C38.2161 4.56108 38.7701 5.22585 38.7701 6.05682C38.7701 7.05398 37.9576 7.70028 36.9235 7.70028H34.7999V4.56108ZM39.1394 10.4886C39.1394 11.3196 38.567 11.9844 37.0712 11.9844H34.7999V8.69744H37.1266C38.3638 8.69744 39.1394 9.52841 39.1394 10.4886ZM47.8198 7.75568H43.905V4.56108H48.4292V3.54545H42.7601V13H43.905V8.77131H47.8198V7.75568Z" transform="translate(0 12)" fill="black"/>
<path opacity="0.1" d="M0 0H6" transform="translate(52 20.5)" stroke="black"/>
<path opacity="0.07" d="M0 0H400" transform="translate(62 20.5)" stroke="black"/>
<path d="M6.0522 6.10298H7.45561C7.3956 4.5103 6.0799 3.41619 4.18715 3.41619C2.30362 3.41619 0.867898 4.47337 0.867898 6.06143C0.867898 7.37713 1.86506 8.1804 3.37464 8.62358L4.22408 8.86825C5.55824 9.26989 6.13068 9.63459 6.13068 10.3963C6.13068 11.2596 5.31818 11.8828 4.10405 11.8828C3.01918 11.8828 2.14205 11.3842 2.06818 10.3594H0.600142C0.678622 12.1321 2.12358 13.1523 4.10405 13.1523C6.24148 13.1523 7.54332 12.0213 7.54332 10.3917C7.54332 9.01136 6.62003 8.22195 4.83345 7.69567L4.09943 7.48331C2.91761 7.13707 2.28516 6.74929 2.28516 6.04297C2.28516 5.24432 3.04226 4.68111 4.15945 4.68111C5.23509 4.68111 5.92756 5.1843 6.0522 6.10298ZM12.8203 9.6392C15.0731 9.6392 16.0472 8.34197 16.0472 6.57848C16.0472 4.82422 15.087 3.54545 12.8064 3.54545H9.4918V13H10.9552V9.6392H12.8203ZM10.9552 4.80114H12.8064C14.1452 4.80114 14.6022 5.54901 14.6022 6.57848C14.6022 7.60795 14.1452 8.38352 12.8203 8.38352H10.9552V4.80114ZM4.55646 34C6.74929 34 7.74183 32.929 7.74183 31.4702C7.74183 30.0621 6.8093 29.2266 5.85831 29.1435V29.0558C6.74006 28.8295 7.43253 28.2663 7.43253 27.0799C7.43253 25.6534 6.44922 24.5455 4.3718 24.5455H0.992543V34H4.55646ZM2.45597 25.8011H4.35795C5.54439 25.8011 6.01065 26.429 6.01065 27.1768C6.01065 28.0817 5.3228 28.631 4.28871 28.631H2.45597V25.8011ZM6.32919 31.3778C6.32919 32.158 5.81676 32.7443 4.50107 32.7443H2.45597V29.7805H4.56108C5.6875 29.7805 6.32919 30.5146 6.32919 31.3778ZM12.9726 30.6392C15.2255 30.6392 16.1995 29.342 16.1995 27.5785C16.1995 25.8242 15.2393 24.5455 12.9588 24.5455H9.64414V34H11.1076V30.6392H12.9726ZM11.1076 25.8011H12.9588C14.2976 25.8011 14.7546 26.549 14.7546 27.5785C14.7546 28.608 14.2976 29.3835 12.9726 29.3835H11.1076V25.8011Z" transform="translate(702 27)" fill="black"/>
<path d="M7.03551 7.73722C7.03551 4.96733 5.94602 3.41619 3.89631 3.41619C1.82812 3.41619 0.72017 4.96733 0.72017 7.73722V8.64205C0.72017 11.4304 1.84659 13.1293 3.91477 13.1293C5.96449 13.1293 7.03551 11.4304 7.03551 8.64205V7.73722ZM5.89062 8.84517C5.89062 10.6179 5.26278 12.1136 3.91477 12.1136C2.5483 12.1136 1.86506 10.6179 1.86506 8.84517V7.53409C1.86506 5.7429 2.52983 4.43182 3.89631 4.43182C5.24432 4.43182 5.89062 5.7429 5.89062 7.53409V8.84517ZM10.0895 5.90909H8.83386L11.0867 9.45455L8.83386 13H10.0895L11.7884 10.2486L13.4873 13H14.743L12.4532 9.45455L14.743 5.90909H13.4873L11.7884 8.80824L10.0895 5.90909ZM22.1549 7.75568H18.2402V4.56108H22.7643V3.54545H17.0953V13H18.2402V8.77131H22.1549V7.75568ZM30.4348 7.75568H26.52V4.56108H31.0442V3.54545H25.3752V13H26.52V8.77131H30.4348V7.75568ZM37.0712 13C39.3056 13 40.2289 11.9105 40.2289 10.4886C40.2289 8.9929 39.1948 8.1804 38.3269 8.125V8.03729C39.1348 7.82031 39.8596 7.2848 39.8596 6.05682C39.8596 4.67188 38.9363 3.54545 36.9604 3.54545H33.655V13H37.0712ZM34.7999 4.56108H36.9604C38.2161 4.56108 38.7701 5.22585 38.7701 6.05682C38.7701 7.05398 37.9576 7.70028 36.9235 7.70028H34.7999V4.56108ZM39.1394 10.4886C39.1394 11.3196 38.567 11.9844 37.0712 11.9844H34.7999V8.69744H37.1266C38.3638 8.69744 39.1394 9.52841 39.1394 10.4886ZM47.8198 7.75568H43.905V4.56108H48.4292V3.54545H42.7601V13H43.905V8.77131H47.8198V7.75568ZM7.03551 28.7372C7.03551 25.9673 5.94602 24.4162 3.89631 24.4162C1.82812 24.4162 0.72017 25.9673 0.72017 28.7372V29.642C0.72017 32.4304 1.84659 34.1293 3.91477 34.1293C5.96449 34.1293 7.03551 32.4304 7.03551 29.642V28.7372ZM5.89062 29.8452C5.89062 31.6179 5.26278 33.1136 3.91477 33.1136C2.5483 33.1136 1.86506 31.6179 1.86506 29.8452V28.5341C1.86506 26.7429 2.52983 25.4318 3.89631 25.4318C5.24432 25.4318 5.89062 26.7429 5.89062 28.5341V29.8452ZM10.0895 26.9091H8.83386L11.0867 30.4545L8.83386 34H10.0895L11.7884 31.2486L13.4873 34H14.743L12.4532 30.4545L14.743 26.9091H13.4873L11.7884 29.8082L10.0895 26.9091ZM22.1549 28.7557H18.2402V25.5611H22.7643V24.5455H17.0953V34H18.2402V29.7713H22.1549V28.7557ZM30.4348 28.7557H26.52V25.5611H31.0442V24.5455H25.3752V34H26.52V29.7713H30.4348V28.7557ZM41.0472 27.5C40.6963 25.5611 39.1452 24.4162 37.2432 24.4162C34.8242 24.4162 33.0699 26.2812 33.0699 29.2727C33.0699 32.2642 34.8242 34.1293 37.2432 34.1293C39.1452 34.1293 40.6963 32.9844 41.0472 31.0455H39.9023C39.6253 32.3565 38.4989 33.0582 37.2432 33.0582C35.5259 33.0582 34.1779 31.7287 34.1779 29.2727C34.1779 26.8168 35.5259 25.4872 37.2432 25.4872C38.4989 25.4872 39.6253 26.1889 39.9023 27.5H41.0472ZM48.6069 28.7557H44.6921V25.5611H49.2163V24.5455H43.5472V34H44.6921V29.7713H48.6069V28.7557Z" transform="translate(735 27)" fill="black"/>
<path opacity="0.4" d="M6.48153 13H7.81108L5.7706 9.07138C6.8647 8.62358 7.47869 7.74183 7.47869 6.4446C7.47869 4.875 6.5554 3.54545 4.30256 3.54545H1.14489V13H2.28977V9.32528H4.60263L6.48153 13ZM2.28977 4.56108H4.30256C5.98295 4.56108 6.35227 5.55824 6.35227 6.4446C6.35227 7.49716 5.83523 8.27273 4.1733 8.27273H2.28977V4.56108ZM12.3171 13.1477C13.7574 13.1477 14.81 12.4276 15.1424 11.3565L14.0898 11.0611C13.8128 11.7997 13.185 12.169 12.3171 12.169C11.0337 12.169 10.2258 11.3565 10.115 9.82386H15.2532V9.36222C15.2532 6.72159 13.6836 5.81676 12.2063 5.81676C10.2858 5.81676 9.01169 7.33097 9.01169 9.50994C9.01169 11.6889 10.2674 13.1477 12.3171 13.1477ZM12.2063 6.79545C13.3881 6.79545 14.1452 7.68182 14.1452 8.8821H10.1381C10.3135 7.55256 11.1168 6.79545 12.2063 6.79545ZM22.0709 5.90909V7.03551H21.9601C21.72 6.66619 21.2768 5.81676 19.8919 5.81676C18.1007 5.81676 16.8635 7.23864 16.8635 9.41761C16.8635 11.6335 18.1561 12.8892 19.8734 12.8892C21.2584 12.8892 21.7016 12.0767 21.9416 11.6889H22.0339V12.9446C22.0524 14.1264 21.1106 14.6804 20.0212 14.6804C18.8024 14.6804 18.3038 13.9787 18.0268 13.6278L17.1589 14.2372C17.6021 14.9943 18.507 15.6591 20.0212 15.6591C21.6646 15.6591 23.1234 14.8835 23.1234 13.0554V5.90909H22.0709ZM17.953 9.39915C17.953 7.95881 18.6362 6.79545 20.0212 6.79545C21.3507 6.79545 22.0524 7.86648 22.0524 9.39915C22.0524 10.9688 21.3322 11.9105 20.0212 11.9105C18.6547 11.9105 17.953 10.8764 17.953 9.39915ZM25.9133 4.89347C26.3934 4.89347 26.6888 4.56108 26.6888 4.15483C26.6888 3.78551 26.3934 3.41619 25.9133 3.41619C25.4331 3.41619 25.1377 3.78551 25.1377 4.15483C25.1377 4.56108 25.4331 4.89347 25.9133 4.89347ZM26.4672 5.90909H25.3777V13H26.4672V5.90909ZM33.6162 7.49716C33.2469 6.46307 32.4528 5.81676 31.1417 5.81676C29.646 5.81676 28.538 6.66619 28.538 7.86648C28.538 8.73438 29.1105 9.50994 30.4031 9.84233L31.5849 10.1378C32.2866 10.304 32.6005 10.6179 32.6005 11.0795C32.6005 11.6705 32.0096 12.206 30.994 12.206C29.9415 12.206 29.4429 11.6335 29.1844 10.9872L28.1872 11.3565C28.538 12.2429 29.3136 13.1477 31.0125 13.1477C32.7667 13.1477 33.7085 12.1321 33.7085 11.0426C33.7085 10.2301 33.173 9.49148 31.8804 9.17756L30.8278 8.91903C30.0153 8.71591 29.6275 8.29119 29.6275 7.81108C29.6275 7.2017 30.2738 6.74006 31.1417 6.74006C32.2312 6.74006 32.5082 7.46023 32.6375 7.77415L33.6162 7.49716ZM38.6335 5.90909H37.1192V4.39489H36.0298V5.90909H34.9587V6.92472H36.0298V11.2642C36.0298 12.5014 37.0269 13.0923 37.9502 13.0923C38.3565 13.0923 38.615 13.0185 38.7627 12.9631L38.5411 11.9844C38.4488 12.0028 38.3011 12.0398 38.061 12.0398C37.5809 12.0398 37.1192 11.892 37.1192 10.9688V6.92472H38.6335V5.90909ZM43.4257 13.1477C44.866 13.1477 45.9186 12.4276 46.251 11.3565L45.1984 11.0611C44.9214 11.7997 44.2936 12.169 43.4257 12.169C42.1423 12.169 41.3344 11.3565 41.2236 9.82386H46.3618V9.36222C46.3618 6.72159 44.7922 5.81676 43.3149 5.81676C41.3944 5.81676 40.1203 7.33097 40.1203 9.50994C40.1203 11.6889 41.376 13.1477 43.4257 13.1477ZM43.3149 6.79545C44.4967 6.79545 45.2538 7.68182 45.2538 8.8821H41.2467C41.4221 7.55256 42.2254 6.79545 43.3149 6.79545ZM52.2192 6.05682C51.9976 5.92756 51.6468 5.79829 51.2775 5.79829C50.4465 5.79829 49.6709 6.4446 49.4678 7.12784H49.394V5.90909H48.3045V13H49.394V8.9929C49.4124 8.03267 50.0772 6.92472 51.2405 6.92472C51.5545 6.92472 51.7391 7.01705 51.8499 7.07244L52.2192 6.05682ZM63.3064 5.90909H62.1245L60.1671 11.5597H60.0933L58.1359 5.90909H56.9541L59.5762 13H60.6842L63.3064 5.90909ZM68.9976 13H70.0871V8.32812C70.0871 6.07528 68.3698 5.81676 67.465 5.81676C66.3939 5.81676 65.1752 6.18608 64.6212 7.47869L65.6553 7.84801C65.8954 7.33097 66.4678 6.77699 67.5204 6.77699C68.3698 6.77699 68.9976 7.14631 68.9976 8.32812V8.34659C68.9976 8.80824 68.1482 8.77131 67.1695 8.90057C65.84 9.06676 64.4181 9.38068 64.4181 10.9872C64.4181 12.3722 65.4891 13.1662 66.8371 13.1662C68.0743 13.1662 68.7207 12.5014 68.9422 12.0398H68.9976V13ZM68.9976 10.4332C68.9976 11.3196 68.2959 12.1875 67.0033 12.1875C66.1354 12.1875 65.5076 11.7997 65.5076 11.0426C65.5076 10.2116 66.2647 9.95312 67.1141 9.84233C67.5758 9.78693 68.813 9.65767 68.9976 9.43608V10.4332ZM73.4252 3.54545H72.3357V13H73.4252V3.54545ZM80.1494 10.1932C80.1494 11.5227 79.1338 12.0398 78.3213 12.0398C77.4164 12.0398 76.7701 11.4489 76.7701 10.4148V5.90909H75.6806V10.4148C75.6806 12.2798 76.9363 13.0923 77.9704 13.0923C79.0414 13.0923 79.7247 12.5384 80.0755 12.0028H80.1494V13H81.2389V5.90909H80.1494V10.1932ZM86.4674 13.1477C87.9077 13.1477 88.9603 12.4276 89.2926 11.3565L88.2401 11.0611C87.9631 11.7997 87.3353 12.169 86.4674 12.169C85.184 12.169 84.3761 11.3565 84.2653 9.82386H89.4034V9.36222C89.4034 6.72159 87.8338 5.81676 86.3566 5.81676C84.4361 5.81676 83.162 7.33097 83.162 9.50994C83.162 11.6889 84.4176 13.1477 86.4674 13.1477ZM86.3566 6.79545C87.5384 6.79545 88.2955 7.68182 88.2955 8.8821H84.2884C84.4638 7.55256 85.2671 6.79545 86.3566 6.79545ZM96.2396 7.49716C95.8703 6.46307 95.0763 5.81676 93.7652 5.81676C92.2694 5.81676 91.1615 6.66619 91.1615 7.86648C91.1615 8.73438 91.7339 9.50994 93.0265 9.84233L94.2084 10.1378C94.9101 10.304 95.224 10.6179 95.224 11.0795C95.224 11.6705 94.6331 12.206 93.6174 12.206C92.5649 12.206 92.0663 11.6335 91.8078 10.9872L90.8106 11.3565C91.1615 12.2429 91.9371 13.1477 93.6359 13.1477C95.3902 13.1477 96.3319 12.1321 96.3319 11.0426C96.3319 10.2301 95.7964 9.49148 94.5038 9.17756L93.4513 8.91903C92.6388 8.71591 92.251 8.29119 92.251 7.81108C92.251 7.2017 92.8973 6.74006 93.7652 6.74006C94.8547 6.74006 95.1317 7.46023 95.2609 7.77415L96.2396 7.49716Z" transform="translate(702 2)" fill="black"/>
<path opacity="0.4" d="M8.75284 6.5C8.40199 4.56108 6.85085 3.41619 4.94886 3.41619C2.52983 3.41619 0.775568 5.28125 0.775568 8.27273C0.775568 11.2642 2.52983 13.1293 4.94886 13.1293C6.85085 13.1293 8.40199 11.9844 8.75284 10.0455H7.60796C7.33097 11.3565 6.20455 12.0582 4.94886 12.0582C3.23153 12.0582 1.88352 10.7287 1.88352 8.27273C1.88352 5.81676 3.23153 4.48722 4.94886 4.48722C6.20455 4.48722 7.33097 5.18892 7.60796 6.5H8.75284ZM14.9623 13H16.0518V8.32812C16.0518 6.07528 14.3345 5.81676 13.4297 5.81676C12.3586 5.81676 11.1399 6.18608 10.5859 7.47869L11.62 7.84801C11.8601 7.33097 12.4325 6.77699 13.4851 6.77699C14.3345 6.77699 14.9623 7.14631 14.9623 8.32812V8.34659C14.9623 8.80824 14.1129 8.77131 13.1342 8.90057C11.8047 9.06676 10.3828 9.38068 10.3828 10.9872C10.3828 12.3722 11.4538 13.1662 12.8018 13.1662C14.039 13.1662 14.6853 12.5014 14.9069 12.0398H14.9623V13ZM14.9623 10.4332C14.9623 11.3196 14.2606 12.1875 12.968 12.1875C12.1001 12.1875 11.4723 11.7997 11.4723 11.0426C11.4723 10.2116 12.2294 9.95312 13.0788 9.84233C13.5405 9.78693 14.7777 9.65767 14.9623 9.43608V10.4332ZM19.3899 3.54545H18.3004V13H19.3899V3.54545ZM22.5825 3.54545H21.493V13H22.5825V3.54545ZM33.6477 7.49716C33.2783 6.46307 32.4843 5.81676 31.1732 5.81676C29.6775 5.81676 28.5695 6.66619 28.5695 7.86648C28.5695 8.73438 29.142 9.50994 30.4346 9.84233L31.6164 10.1378C32.3181 10.304 32.632 10.6179 32.632 11.0795C32.632 11.6705 32.0411 12.206 31.0255 12.206C29.9729 12.206 29.4744 11.6335 29.2158 10.9872L28.2187 11.3565C28.5695 12.2429 29.3451 13.1477 31.044 13.1477C32.7982 13.1477 33.74 12.1321 33.74 11.0426C33.74 10.2301 33.2045 9.49148 31.9119 9.17756L30.8593 8.91903C30.0468 8.71591 29.659 8.29119 29.659 7.81108C29.659 7.2017 30.3053 6.74006 31.1732 6.74006C32.2627 6.74006 32.5397 7.46023 32.669 7.77415L33.6477 7.49716ZM38.6649 5.90909H37.1507V4.39489H36.0612V5.90909H34.9902V6.92472H36.0612V11.2642C36.0612 12.5014 37.0584 13.0923 37.9817 13.0923C38.3879 13.0923 38.6465 13.0185 38.7942 12.9631L38.5726 11.9844C38.4803 12.0028 38.3326 12.0398 38.0925 12.0398C37.6124 12.0398 37.1507 11.892 37.1507 10.9688V6.92472H38.6649V5.90909ZM44.8202 13H45.9097V8.32812C45.9097 6.07528 44.1923 5.81676 43.2875 5.81676C42.2165 5.81676 40.9977 6.18608 40.4438 7.47869L41.4778 7.84801C41.7179 7.33097 42.2903 6.77699 43.3429 6.77699C44.1923 6.77699 44.8202 7.14631 44.8202 8.32812V8.34659C44.8202 8.80824 43.9707 8.77131 42.9921 8.90057C41.6625 9.06676 40.2406 9.38068 40.2406 10.9872C40.2406 12.3722 41.3117 13.1662 42.6597 13.1662C43.8969 13.1662 44.5432 12.5014 44.7648 12.0398H44.8202V13ZM44.8202 10.4332C44.8202 11.3196 44.1185 12.1875 42.8259 12.1875C41.958 12.1875 41.3301 11.7997 41.3301 11.0426C41.3301 10.2116 42.0872 9.95312 42.9367 9.84233C43.3983 9.78693 44.6355 9.65767 44.8202 9.43608V10.4332ZM53.7892 8.03267C53.6045 6.70312 52.4781 5.81676 50.9823 5.81676C49.0619 5.81676 47.7877 7.33097 47.7877 9.45455C47.7877 11.6335 49.025 13.1477 51.0008 13.1477C52.5704 13.1477 53.6045 12.1875 53.7892 10.9318H52.6997C52.4966 11.7074 51.8502 12.169 51.0008 12.169C49.7082 12.169 48.8772 11.098 48.8772 9.45455C48.8772 7.84801 49.7267 6.79545 51.0008 6.79545C51.961 6.79545 52.5335 7.38636 52.6997 8.03267H53.7892ZM59.8313 13H61.1054L58.0216 8.92827L60.81 5.90909H59.462L56.5813 9.10369H56.452V3.54545H55.3625V13H56.452V10.521L57.2876 9.62074L59.8313 13Z" transform="translate(574 2)" fill="black"/>
<rect width="70" height="21" fill="#FFF4BC" transform="translate(575 26)"/>
<path d="M6.11222 10.5497C6.11222 9.55256 6.66619 8.86932 7.62642 8.86932C8.21733 8.86932 9.01136 9.22017 9.01136 10.3281V15H10.1009V10.3651C10.1009 8.62926 9.14062 7.81676 7.95881 7.81676C6.92472 7.81676 6.11222 8.5 5.90909 9.09091H5.83523C5.52131 8.3892 4.89347 7.81676 4.0071 7.81676C3.10227 7.81676 2.36364 8.5 2.16051 9.10938H2.08665V7.90909H0.997159V15H2.08665V10.7713C2.08665 9.60795 2.88068 8.86932 3.71165 8.86932C4.50568 8.86932 5.00426 9.29403 5.00426 10.3651V15H6.11222V10.5497ZM16.6 15H17.6895V10.3281C17.6895 8.07528 15.9722 7.81676 15.0674 7.81676C13.9963 7.81676 12.7776 8.18608 12.2236 9.47869L13.2577 9.84801C13.4977 9.33097 14.0702 8.77699 15.1227 8.77699C15.9722 8.77699 16.6 9.14631 16.6 10.3281V10.3466C16.6 10.8082 15.7506 10.7713 14.7719 10.9006C13.4424 11.0668 12.0205 11.3807 12.0205 12.9872C12.0205 14.3722 13.0915 15.1662 14.4395 15.1662C15.6767 15.1662 16.323 14.5014 16.5446 14.0398H16.6V15ZM16.6 12.4332C16.6 13.3196 15.8983 14.1875 14.6057 14.1875C13.7378 14.1875 13.11 13.7997 13.11 13.0426C13.11 12.2116 13.8671 11.9531 14.7165 11.8423C15.1781 11.7869 16.4154 11.6577 16.6 11.4361V12.4332ZM20.4736 6.89347C20.9537 6.89347 21.2491 6.56108 21.2491 6.15483C21.2491 5.78551 20.9537 5.41619 20.4736 5.41619C19.9935 5.41619 19.698 5.78551 19.698 6.15483C19.698 6.56108 19.9935 6.89347 20.4736 6.89347ZM21.0275 7.90909H19.9381V15H21.0275V7.90909ZM24.3725 10.8082C24.3725 9.47869 25.3881 8.86932 26.2006 8.86932C27.1055 8.86932 27.7518 9.53409 27.7518 10.5682V15H28.8413V10.4943C28.8413 8.68466 27.881 7.81676 26.5515 7.81676C25.4805 7.81676 24.7788 8.3892 24.4464 9.10938H24.3725V7.90909H23.283V15H24.3725V10.8082Z" transform="translate(579 26)" fill="black"/>
<rect width="70" height="21" fill="#DEF6E9" transform="translate(575 49)"/>
<path d="M5.24432 15H6.33381V10.3281C6.33381 8.07528 4.61648 7.81676 3.71165 7.81676C2.64062 7.81676 1.42188 8.18608 0.867898 9.47869L1.90199 9.84801C2.14205 9.33097 2.71449 8.77699 3.76705 8.77699C4.61648 8.77699 5.24432 9.14631 5.24432 10.3281V10.3466C5.24432 10.8082 4.39489 10.7713 3.41619 10.9006C2.08665 11.0668 0.664773 11.3807 0.664773 12.9872C0.664773 14.3722 1.7358 15.1662 3.08381 15.1662C4.32102 15.1662 4.96733 14.5014 5.18892 14.0398H5.24432V15ZM5.24432 12.4332C5.24432 13.3196 4.54261 14.1875 3.25 14.1875C2.3821 14.1875 1.75426 13.7997 1.75426 13.0426C1.75426 12.2116 2.51136 11.9531 3.3608 11.8423C3.82244 11.7869 5.05966 11.6577 5.24432 11.4361V12.4332ZM14.4718 15V5.54545H13.3823V9.03551H13.3085C13.0684 8.66619 12.6252 7.81676 11.2403 7.81676C9.4491 7.81676 8.21188 9.23864 8.21188 11.473C8.21188 13.7259 9.4491 15.1477 11.2218 15.1477C12.5883 15.1477 13.0684 14.2983 13.3085 13.9105H13.4193V15H14.4718ZM9.30137 11.4545C9.30137 9.95881 9.98461 8.79545 11.3696 8.79545C12.6991 8.79545 13.4008 9.86648 13.4008 11.4545C13.4008 13.0611 12.6806 14.169 11.3696 14.169C10.0031 14.169 9.30137 12.9688 9.30137 11.4545ZM22.6537 15V5.54545H21.5642V9.03551H21.4903C21.2503 8.66619 20.8071 7.81676 19.4222 7.81676C17.631 7.81676 16.3938 9.23864 16.3938 11.473C16.3938 13.7259 17.631 15.1477 19.4037 15.1477C20.7702 15.1477 21.2503 14.2983 21.4903 13.9105H21.6011V15H22.6537ZM17.4832 11.4545C17.4832 9.95881 18.1665 8.79545 19.5514 8.79545C20.881 8.79545 21.5827 9.86648 21.5827 11.4545C21.5827 13.0611 20.8625 14.169 19.5514 14.169C18.185 14.169 17.4832 12.9688 17.4832 11.4545Z" transform="translate(579 49)" fill="black"/>
</g>
<defs>
<linearGradient id="paint0_linear" x2="1" gradientUnits="userSpaceOnUse" gradientTransform="translate(400) scale(400 20) rotate(90)">
<stop stop-color="#DEF6E9" stop-opacity="0"/>
<stop offset="1" stop-color="#DEF6E9"/>
</linearGradient>
<clipPath id="clip0">
<rect width="800" height="84" fill="white"/>
</clipPath>
</defs>
</svg>
