<svg width="800" height="234" viewBox="0 0 800 234" fill="none" xmlns="http://www.w3.org/2000/svg">
<g clip-path="url(#clip0)">
<rect width="400" height="20" transform="translate(62)" fill="url(#paint0_linear)"/>
<rect width="400" height="30" fill="#DEF6E9" transform="translate(62 20)"/>
<path d="M36.205 10.2116H34.9124V3.54545H33.7121L29.4464 10.5071V11.2273H33.8967V13H34.9124V11.2273H36.205V10.2116ZM30.8683 10.2116L33.7121 5.44744L33.8967 4.83345V10.2116H30.8683ZM44.0187 7.73722C44.0187 4.96733 42.9292 3.41619 40.8795 3.41619C38.8113 3.41619 37.7033 4.96733 37.7033 7.73722V8.64205C37.7033 11.4304 38.8298 13.1293 40.8979 13.1293C42.9477 13.1293 44.0187 11.4304 44.0187 8.64205V7.73722ZM42.8738 8.84517C42.8738 10.6179 42.2459 12.1136 40.8979 12.1136C39.5315 12.1136 38.8482 10.6179 38.8482 8.84517V7.53409C38.8482 5.7429 39.513 4.43182 40.8795 4.43182C42.2275 4.43182 42.8738 5.7429 42.8738 7.53409V8.84517Z" transform="translate(407 27)" fill="#517AAA"/>
<path d="M6.48153 13H7.81108L5.7706 9.07138C6.8647 8.62358 7.47869 7.74183 7.47869 6.4446C7.47869 4.875 6.5554 3.54545 4.30256 3.54545H1.14489V13H2.28977V9.32528H4.60263L6.48153 13ZM2.28977 4.56108H4.30256C5.98295 4.56108 6.35227 5.55824 6.35227 6.4446C6.35227 7.49716 5.83523 8.27273 4.1733 8.27273H2.28977V4.56108ZM12.3171 13.1477C13.7574 13.1477 14.81 12.4276 15.1424 11.3565L14.0898 11.0611C13.8128 11.7997 13.185 12.169 12.3171 12.169C11.0337 12.169 10.2258 11.3565 10.115 9.82386H15.2532V9.36222C15.2532 6.72159 13.6836 5.81676 12.2063 5.81676C10.2858 5.81676 9.01169 7.33097 9.01169 9.50994C9.01169 11.6889 10.2674 13.1477 12.3171 13.1477ZM12.2063 6.79545C13.3881 6.79545 14.1452 7.68182 14.1452 8.8821H10.1381C10.3135 7.55256 11.1168 6.79545 12.2063 6.79545ZM20.1689 5.90909H18.6547V4.39489H17.5652V5.90909H16.4942V6.92472H17.5652V11.2642C17.5652 12.5014 18.5623 13.0923 19.4856 13.0923C19.8919 13.0923 20.1504 13.0185 20.2981 12.9631L20.0766 11.9844C19.9842 12.0028 19.8365 12.0398 19.5964 12.0398C19.1163 12.0398 18.6547 11.892 18.6547 10.9688V6.92472H20.1689V5.90909ZM26.5457 10.1932C26.5457 11.5227 25.5301 12.0398 24.7176 12.0398C23.8128 12.0398 23.1665 11.4489 23.1665 10.4148V5.90909H22.077V10.4148C22.077 12.2798 23.3326 13.0923 24.3667 13.0923C25.4378 13.0923 26.121 12.5384 26.4719 12.0028H26.5457V13H27.6352V5.90909H26.5457V10.1932ZM33.8054 6.05682C33.5839 5.92756 33.233 5.79829 32.8637 5.79829C32.0327 5.79829 31.2572 6.4446 31.054 7.12784H30.9802V5.90909H29.8907V13H30.9802V8.9929C30.9986 8.03267 31.6634 6.92472 32.8268 6.92472C33.1407 6.92472 33.3253 7.01705 33.4361 7.07244L33.8054 6.05682ZM36.3945 8.80824C36.3945 7.47869 37.4101 6.86932 38.2226 6.86932C39.1274 6.86932 39.7737 7.53409 39.7737 8.56818V13H40.8632V8.49432C40.8632 6.68466 39.903 5.81676 38.5734 5.81676C37.5024 5.81676 36.8007 6.3892 36.4683 7.10938H36.3945V5.90909H35.305V13H36.3945V8.80824ZM52.8332 5.90909H51.6514L49.694 11.5597H49.6202L47.6628 5.90909H46.481L49.1031 13H50.2111L52.8332 5.90909ZM58.5245 13H59.614V8.32812C59.614 6.07528 57.8967 5.81676 56.9918 5.81676C55.9208 5.81676 54.7021 6.18608 54.1481 7.47869L55.1822 7.84801C55.4222 7.33097 55.9947 6.77699 57.0472 6.77699C57.8967 6.77699 58.5245 7.14631 58.5245 8.32812V8.34659C58.5245 8.80824 57.6751 8.77131 56.6964 8.90057C55.3668 9.06676 53.945 9.38068 53.945 10.9872C53.945 12.3722 55.016 13.1662 56.364 13.1662C57.6012 13.1662 58.2475 12.5014 58.4691 12.0398H58.5245V13ZM58.5245 10.4332C58.5245 11.3196 57.8228 12.1875 56.5302 12.1875C55.6623 12.1875 55.0345 11.7997 55.0345 11.0426C55.0345 10.2116 55.7916 9.95312 56.641 9.84233C57.1026 9.78693 58.3399 9.65767 58.5245 9.43608V10.4332ZM62.952 3.54545H61.8625V13H62.952V3.54545ZM69.6763 10.1932C69.6763 11.5227 68.6606 12.0398 67.8481 12.0398C66.9433 12.0398 66.297 11.4489 66.297 10.4148V5.90909H65.2075V10.4148C65.2075 12.2798 66.4632 13.0923 67.4973 13.0923C68.5683 13.0923 69.2515 12.5384 69.6024 12.0028H69.6763V13H70.7657V5.90909H69.6763V10.1932ZM75.9942 13.1477C77.4346 13.1477 78.4871 12.4276 78.8195 11.3565L77.767 11.0611C77.49 11.7997 76.8621 12.169 75.9942 12.169C74.7109 12.169 73.903 11.3565 73.7922 9.82386H78.9303V9.36222C78.9303 6.72159 77.3607 5.81676 75.8834 5.81676C73.963 5.81676 72.6888 7.33097 72.6888 9.50994C72.6888 11.6889 73.9445 13.1477 75.9942 13.1477ZM75.8834 6.79545C77.0653 6.79545 77.8224 7.68182 77.8224 8.8821H73.8153C73.9907 7.55256 74.7939 6.79545 75.8834 6.79545ZM87.7992 3.54545H86.839C86.7282 3.65625 86.1188 4.94886 84.6415 4.94886V5.90909C85.731 5.90909 86.5066 5.46591 86.6359 5.20739H86.7097V13H87.7992V3.54545Z" transform="translate(111 27)" fill="black" fill-opacity="0.9"/>
<path opacity="0.4" d="M6.27841 5.98295H7.38636C7.29403 4.48722 6.01989 3.41619 4.19176 3.41619C2.3821 3.41619 0.960227 4.46875 0.960227 6.05682C0.960227 7.33097 1.88352 8.08807 3.3608 8.51278L4.52415 8.84517C5.7983 9.21449 6.40767 9.56534 6.40767 10.4148C6.40767 11.4489 5.41051 12.1321 4.09943 12.1321C2.97301 12.1321 1.97585 11.6335 1.88352 10.5625H0.701705C0.8125 12.1136 2.06818 13.1662 4.09943 13.1662C6.27841 13.1662 7.51562 11.9659 7.51562 10.4148C7.51562 9.10369 6.64773 8.30966 4.85653 7.82955L3.89631 7.57102C2.64062 7.23864 2.06818 6.77699 2.06818 6.01989C2.06818 5.09659 2.89915 4.43182 4.15483 4.43182C5.29972 4.43182 6.11222 4.96733 6.27841 5.98295ZM12.833 9.58381C15.0304 9.58381 15.9906 8.2358 15.9906 6.53693C15.9906 4.83807 15.0304 3.54545 12.8145 3.54545H9.65684V13H10.8017V9.58381H12.833ZM10.8017 4.56108H12.8145C14.3472 4.56108 14.8642 5.37358 14.8642 6.53693C14.8642 7.70028 14.3472 8.56818 12.833 8.56818H10.8017V4.56108ZM28.0553 7.75568H25.6178V5.31818H24.5837V7.75568H22.1462V8.78977H24.5837V11.2273H25.6178V8.78977H28.0553V7.75568ZM33.5354 3.54545H32.5752C32.4644 3.65625 31.855 4.94886 30.3777 4.94886V5.90909C31.4672 5.90909 32.2428 5.46591 32.372 5.20739H32.4459V13H33.5354V3.54545ZM41.1979 5.90909H42.2874C41.955 4.28409 41.0317 3.39773 39.536 3.39773C37.3755 3.39773 36.3598 5.24432 36.3598 8.16193V8.47585C36.3598 11.5043 37.3755 13.1293 39.4436 13.1293C41.401 13.1293 42.4351 11.6705 42.4351 10.0824C42.4351 8.51278 41.401 7.05398 39.5914 7.05398C38.8527 7.05398 38.0495 7.29865 37.4909 7.91264C37.5555 5.06889 38.5711 4.43182 39.5544 4.43182C40.6624 4.43182 40.9763 5.24432 41.1979 5.90909ZM39.5729 8.0696C40.8655 8.0696 41.3456 9.02983 41.3456 10.0824C41.3456 11.3565 40.6255 12.1321 39.536 12.1321C38.5111 12.1321 37.5971 11.4442 37.5786 10.0316C37.5971 8.84979 38.4049 8.0696 39.5729 8.0696Z" transform="translate(475 12)" fill="black"/>
<path opacity="0.1" d="M0 0H6" transform="translate(466 20.5)" stroke="black"/>
<path opacity="0.4" d="M7.03551 7.73722C7.03551 4.96733 5.94602 3.41619 3.89631 3.41619C1.82812 3.41619 0.72017 4.96733 0.72017 7.73722V8.64205C0.72017 11.4304 1.84659 13.1293 3.91477 13.1293C5.96449 13.1293 7.03551 11.4304 7.03551 8.64205V7.73722ZM5.89062 8.84517C5.89062 10.6179 5.26278 12.1136 3.91477 12.1136C2.5483 12.1136 1.86506 10.6179 1.86506 8.84517V7.53409C1.86506 5.7429 2.52983 4.43182 3.89631 4.43182C5.24432 4.43182 5.89062 5.7429 5.89062 7.53409V8.84517ZM10.0895 5.90909H8.83386L11.0867 9.45455L8.83386 13H10.0895L11.7884 10.2486L13.4873 13H14.743L12.4532 9.45455L14.743 5.90909H13.4873L11.7884 8.80824L10.0895 5.90909ZM22.1549 7.75568H18.2402V4.56108H22.7643V3.54545H17.0953V13H18.2402V8.77131H22.1549V7.75568ZM30.4348 7.75568H26.52V4.56108H31.0442V3.54545H25.3752V13H26.52V8.77131H30.4348V7.75568ZM41.0472 6.5C40.6963 4.56108 39.1452 3.41619 37.2432 3.41619C34.8242 3.41619 33.0699 5.28125 33.0699 8.27273C33.0699 11.2642 34.8242 13.1293 37.2432 13.1293C39.1452 13.1293 40.6963 11.9844 41.0472 10.0455H39.9023C39.6253 11.3565 38.4989 12.0582 37.2432 12.0582C35.5259 12.0582 34.1779 10.7287 34.1779 8.27273C34.1779 5.81676 35.5259 4.48722 37.2432 4.48722C38.4989 4.48722 39.6253 5.18892 39.9023 6.5H41.0472ZM48.9393 3.54545H43.0302V4.61648H47.8313L43.9165 13H45.1722L48.9393 4.72727V3.54545Z" transform="translate(0 12)" fill="black"/>
<path opacity="0.1" d="M0 0H6" transform="translate(52 20.5)" stroke="black"/>
<path opacity="0.07" d="M0 0H400" transform="translate(62 20.5)" stroke="black"/>
<rect width="400" height="30" fill="#DEF6E9" transform="translate(62 50)"/>
<path opacity="0.4" d="M6.48153 13H7.81108L5.7706 9.07138C6.8647 8.62358 7.47869 7.74183 7.47869 6.4446C7.47869 4.875 6.5554 3.54545 4.30256 3.54545H1.14489V13H2.28977V9.32528H4.60263L6.48153 13ZM2.28977 4.56108H4.30256C5.98295 4.56108 6.35227 5.55824 6.35227 6.4446C6.35227 7.49716 5.83523 8.27273 4.1733 8.27273H2.28977V4.56108ZM12.3171 13.1477C13.7574 13.1477 14.81 12.4276 15.1424 11.3565L14.0898 11.0611C13.8128 11.7997 13.185 12.169 12.3171 12.169C11.0337 12.169 10.2258 11.3565 10.115 9.82386H15.2532V9.36222C15.2532 6.72159 13.6836 5.81676 12.2063 5.81676C10.2858 5.81676 9.01169 7.33097 9.01169 9.50994C9.01169 11.6889 10.2674 13.1477 12.3171 13.1477ZM12.2063 6.79545C13.3881 6.79545 14.1452 7.68182 14.1452 8.8821H10.1381C10.3135 7.55256 11.1168 6.79545 12.2063 6.79545ZM22.0893 7.49716C21.72 6.46307 20.926 5.81676 19.6149 5.81676C18.1192 5.81676 17.0112 6.66619 17.0112 7.86648C17.0112 8.73438 17.5837 9.50994 18.8763 9.84233L20.0581 10.1378C20.7598 10.304 21.0737 10.6179 21.0737 11.0795C21.0737 11.6705 20.4828 12.206 19.4672 12.206C18.4146 12.206 17.916 11.6335 17.6575 10.9872L16.6604 11.3565C17.0112 12.2429 17.7868 13.1477 19.4856 13.1477C21.2399 13.1477 22.1817 12.1321 22.1817 11.0426C22.1817 10.2301 21.6462 9.49148 20.3535 9.17756L19.301 8.91903C18.4885 8.71591 18.1007 8.29119 18.1007 7.81108C18.1007 7.2017 18.747 6.74006 19.6149 6.74006C20.7044 6.74006 20.9814 7.46023 21.1106 7.77415L22.0893 7.49716ZM27.1701 13.1477C28.6104 13.1477 29.663 12.4276 29.9954 11.3565L28.9428 11.0611C28.6658 11.7997 28.038 12.169 27.1701 12.169C25.8867 12.169 25.0788 11.3565 24.968 9.82386H30.1062V9.36222C30.1062 6.72159 28.5366 5.81676 27.0593 5.81676C25.1388 5.81676 23.8647 7.33097 23.8647 9.50994C23.8647 11.6889 25.1204 13.1477 27.1701 13.1477ZM27.0593 6.79545C28.2411 6.79545 28.9982 7.68182 28.9982 8.8821H24.9911C25.1665 7.55256 25.9698 6.79545 27.0593 6.79545ZM35.9637 6.05682C35.7421 5.92756 35.3912 5.79829 35.0219 5.79829C34.1909 5.79829 33.4154 6.4446 33.2122 7.12784H33.1384V5.90909H32.0489V13H33.1384V8.9929C33.1568 8.03267 33.8216 6.92472 34.985 6.92472C35.2989 6.92472 35.4835 7.01705 35.5943 7.07244L35.9637 6.05682ZM43.2869 5.90909H42.105L40.1477 11.5597H40.0738L38.1164 5.90909H36.9346L39.5568 13H40.6647L43.2869 5.90909ZM47.7167 13.1477C49.157 13.1477 50.2096 12.4276 50.542 11.3565L49.4894 11.0611C49.2124 11.7997 48.5846 12.169 47.7167 12.169C46.4333 12.169 45.6254 11.3565 45.5146 9.82386H50.6528V9.36222C50.6528 6.72159 49.0832 5.81676 47.6059 5.81676C45.6854 5.81676 44.4113 7.33097 44.4113 9.50994C44.4113 11.6889 45.667 13.1477 47.7167 13.1477ZM47.6059 6.79545C48.7877 6.79545 49.5448 7.68182 49.5448 8.8821H45.5377C45.7131 7.55256 46.5164 6.79545 47.6059 6.79545ZM58.523 13V3.54545H57.4335V7.03551H57.3597C57.1196 6.66619 56.6764 5.81676 55.2915 5.81676C53.5003 5.81676 52.2631 7.23864 52.2631 9.47301C52.2631 11.7259 53.5003 13.1477 55.273 13.1477C56.6395 13.1477 57.1196 12.2983 57.3597 11.9105H57.4705V13H58.523ZM53.3526 9.45455C53.3526 7.95881 54.0358 6.79545 55.4208 6.79545C56.7503 6.79545 57.452 7.86648 57.452 9.45455C57.452 11.0611 56.7318 12.169 55.4208 12.169C54.0543 12.169 53.3526 10.9688 53.3526 9.45455Z" transform="translate(111 57)" fill="black" fill-opacity="0.9"/>
<path opacity="0.4" d="M6.27841 5.98295H7.38636C7.29403 4.48722 6.01989 3.41619 4.19176 3.41619C2.3821 3.41619 0.960227 4.46875 0.960227 6.05682C0.960227 7.33097 1.88352 8.08807 3.3608 8.51278L4.52415 8.84517C5.7983 9.21449 6.40767 9.56534 6.40767 10.4148C6.40767 11.4489 5.41051 12.1321 4.09943 12.1321C2.97301 12.1321 1.97585 11.6335 1.88352 10.5625H0.701705C0.8125 12.1136 2.06818 13.1662 4.09943 13.1662C6.27841 13.1662 7.51562 11.9659 7.51562 10.4148C7.51562 9.10369 6.64773 8.30966 4.85653 7.82955L3.89631 7.57102C2.64062 7.23864 2.06818 6.77699 2.06818 6.01989C2.06818 5.09659 2.89915 4.43182 4.15483 4.43182C5.29972 4.43182 6.11222 4.96733 6.27841 5.98295ZM12.833 9.58381C15.0304 9.58381 15.9906 8.2358 15.9906 6.53693C15.9906 4.83807 15.0304 3.54545 12.8145 3.54545H9.65684V13H10.8017V9.58381H12.833ZM10.8017 4.56108H12.8145C14.3472 4.56108 14.8642 5.37358 14.8642 6.53693C14.8642 7.70028 14.3472 8.56818 12.833 8.56818H10.8017V4.56108ZM28.0553 7.75568H25.6178V5.31818H24.5837V7.75568H22.1462V8.78977H24.5837V11.2273H25.6178V8.78977H28.0553V7.75568ZM33.5354 3.54545H32.5752C32.4644 3.65625 31.855 4.94886 30.3777 4.94886V5.90909C31.4672 5.90909 32.2428 5.46591 32.372 5.20739H32.4459V13H33.5354V3.54545ZM42.6013 11.9844H37.9664V11.929L40.5147 9.32528C41.4934 8.32812 42.3613 7.18324 42.3613 6.09375C42.3613 4.54261 41.1794 3.41619 39.4436 3.41619C37.4124 3.41619 36.5999 4.96733 36.5999 6.5H37.7263C37.7263 5.41051 38.1326 4.35795 39.4067 4.35795C40.5516 4.35795 41.2533 5.18892 41.2533 6.13068C41.2533 6.94318 40.7178 7.57102 39.5729 8.75284L36.249 12.169V13H42.6013V11.9844Z" transform="translate(475 42)" fill="black"/>
<path opacity="0.1" d="M0 0H6" transform="translate(466 50.5)" stroke="black"/>
<path opacity="0.4" d="M7.03551 7.73722C7.03551 4.96733 5.94602 3.41619 3.89631 3.41619C1.82812 3.41619 0.72017 4.96733 0.72017 7.73722V8.64205C0.72017 11.4304 1.84659 13.1293 3.91477 13.1293C5.96449 13.1293 7.03551 11.4304 7.03551 8.64205V7.73722ZM5.89062 8.84517C5.89062 10.6179 5.26278 12.1136 3.91477 12.1136C2.5483 12.1136 1.86506 10.6179 1.86506 8.84517V7.53409C1.86506 5.7429 2.52983 4.43182 3.89631 4.43182C5.24432 4.43182 5.89062 5.7429 5.89062 7.53409V8.84517ZM10.0895 5.90909H8.83386L11.0867 9.45455L8.83386 13H10.0895L11.7884 10.2486L13.4873 13H14.743L12.4532 9.45455L14.743 5.90909H13.4873L11.7884 8.80824L10.0895 5.90909ZM22.1549 7.75568H18.2402V4.56108H22.7643V3.54545H17.0953V13H18.2402V8.77131H22.1549V7.75568ZM30.4348 7.75568H26.52V4.56108H31.0442V3.54545H25.3752V13H26.52V8.77131H30.4348V7.75568ZM41.0472 6.5C40.6963 4.56108 39.1452 3.41619 37.2432 3.41619C34.8242 3.41619 33.0699 5.28125 33.0699 8.27273C33.0699 11.2642 34.8242 13.1293 37.2432 13.1293C39.1452 13.1293 40.6963 11.9844 41.0472 10.0455H39.9023C39.6253 11.3565 38.4989 12.0582 37.2432 12.0582C35.5259 12.0582 34.1779 10.7287 34.1779 8.27273C34.1779 5.81676 35.5259 4.48722 37.2432 4.48722C38.4989 4.48722 39.6253 5.18892 39.9023 6.5H41.0472ZM45.5415 8.73438H46.0771C47.2219 8.73438 48.0529 9.30682 48.0529 10.4332C48.0529 11.5781 47.2035 12.1506 46.1509 12.1506C45.0984 12.1506 44.5075 11.5781 44.5075 10.6364H43.3256C43.3256 12.2614 44.5075 13.1293 46.1694 13.1293C47.8498 13.1293 49.2532 12.1321 49.2532 10.4332C49.2532 9.59766 48.907 8.58665 47.6559 8.16193C48.6531 7.6772 49.0501 6.70774 49.0501 6.03835C49.0501 4.32102 47.8498 3.41619 46.2063 3.41619C44.3967 3.41619 43.418 4.52415 43.418 5.90909H44.5075C44.5075 4.98579 45.1722 4.32102 46.1879 4.32102C47.2035 4.32102 47.9237 4.96733 47.9237 6.01989C47.9237 6.92472 47.2589 7.68182 46.0771 7.68182H45.5415V8.73438Z" transform="translate(0 42)" fill="black"/>
<path opacity="0.1" d="M0 0H6" transform="translate(52 50.5)" stroke="black"/>
<path opacity="0.07" d="M0 0H400" transform="translate(62 50.5)" stroke="black"/>
<rect width="400" height="30" fill="#DEF6E9" transform="translate(62 80)"/>
<path d="M35.9649 11.9844H31.33V11.929L33.8783 9.32528C34.857 8.32812 35.7249 7.18324 35.7249 6.09375C35.7249 4.54261 34.543 3.41619 32.8072 3.41619C30.776 3.41619 29.9635 4.96733 29.9635 6.5H31.0899C31.0899 5.41051 31.4962 4.35795 32.7703 4.35795C33.9152 4.35795 34.6169 5.18892 34.6169 6.13068C34.6169 6.94318 34.0814 7.57102 32.9365 8.75284L29.6126 12.169V13H35.9649V11.9844ZM44.0187 7.73722C44.0187 4.96733 42.9292 3.41619 40.8795 3.41619C38.8113 3.41619 37.7033 4.96733 37.7033 7.73722V8.64205C37.7033 11.4304 38.8298 13.1293 40.8979 13.1293C42.9477 13.1293 44.0187 11.4304 44.0187 8.64205V7.73722ZM42.8738 8.84517C42.8738 10.6179 42.2459 12.1136 40.8979 12.1136C39.5315 12.1136 38.8482 10.6179 38.8482 8.84517V7.53409C38.8482 5.7429 39.513 4.43182 40.8795 4.43182C42.2275 4.43182 42.8738 5.7429 42.8738 7.53409V8.84517Z" transform="translate(407 87)" fill="#517AAA"/>
<path d="M1.53267 13L2.42365 10.4702H6.36612L7.2571 13H8.45739L4.9858 3.54545H3.80398L0.332386 13H1.53267ZM4.33949 5.04119H4.45028L6.00604 9.45455H2.78374L4.33949 5.04119ZM13.9571 6.05682C13.7355 5.92756 13.3846 5.79829 13.0153 5.79829C12.1844 5.79829 11.4088 6.4446 11.2057 7.12784H11.1318V5.90909H10.0423V13H11.1318V8.9929C11.1503 8.03267 11.815 6.92472 12.9784 6.92472C13.2923 6.92472 13.477 7.01705 13.5878 7.07244L13.9571 6.05682ZM19.9127 5.90909V7.03551H19.8019C19.5618 6.66619 19.1186 5.81676 17.7337 5.81676C15.9425 5.81676 14.7053 7.23864 14.7053 9.41761C14.7053 11.6335 15.9979 12.8892 17.7152 12.8892C19.1002 12.8892 19.5433 12.0767 19.7834 11.6889H19.8757V12.9446C19.8942 14.1264 18.9524 14.6804 17.863 14.6804C16.6442 14.6804 16.1456 13.9787 15.8686 13.6278L15.0007 14.2372C15.4439 14.9943 16.3487 15.6591 17.863 15.6591C19.5064 15.6591 20.9652 14.8835 20.9652 13.0554V5.90909H19.9127ZM15.7948 9.39915C15.7948 7.95881 16.478 6.79545 17.863 6.79545C19.1925 6.79545 19.8942 7.86648 19.8942 9.39915C19.8942 10.9688 19.174 11.9105 17.863 11.9105C16.4965 11.9105 15.7948 10.8764 15.7948 9.39915ZM30.1457 3.54545H29.1855C29.0747 3.65625 28.4653 4.94886 26.9881 4.94886V5.90909C28.0776 5.90909 28.8531 5.46591 28.9824 5.20739H29.0562V13H30.1457V3.54545ZM36.7572 6.5H37.7913V5.65057C37.7913 4.96733 38.1237 4.37642 38.5114 3.82244L37.9205 3.34233C37.1819 3.93324 36.7572 4.91193 36.7572 5.66903V6.5ZM39.1208 6.5H40.1549V5.65057C40.1549 4.96733 40.4873 4.37642 40.8751 3.82244L40.2842 3.34233C39.5455 3.93324 39.1208 4.91193 39.1208 5.66903V6.5ZM43.1502 5.90909H41.8945L44.1473 9.45455L41.8945 13H43.1502L44.849 10.2486L46.5479 13H47.8036L45.5138 9.45455L47.8036 5.90909H46.5479L44.849 8.80824L43.1502 5.90909ZM50.8739 3.54545H49.8398V4.39489C49.8398 5.07812 49.5074 5.66903 49.1196 6.22301L49.7105 6.70312C50.4491 6.11222 50.8739 5.13352 50.8739 4.37642V3.54545ZM53.2375 3.54545H52.2034V4.39489C52.2034 5.07812 51.871 5.66903 51.4832 6.22301L52.0741 6.70312C52.8128 6.11222 53.2375 5.13352 53.2375 4.37642V3.54545ZM59.5177 13H60.6072V6.92472H62.1953V5.90909H60.6072V5.50284C60.6072 4.80114 60.9026 4.43182 61.6228 4.43182C61.9367 4.43182 62.1214 4.50568 62.2322 4.54261L62.5461 3.60085C62.3799 3.52699 62.0475 3.41619 61.512 3.41619C60.4964 3.41619 59.5177 4.02557 59.5177 5.24432V5.90909H58.3728V6.92472H59.5177V13ZM66.5455 13.1477C68.4659 13.1477 69.7585 11.6889 69.7585 9.49148C69.7585 7.27557 68.4659 5.81676 66.5455 5.81676C64.625 5.81676 63.3324 7.27557 63.3324 9.49148C63.3324 11.6889 64.625 13.1477 66.5455 13.1477ZM66.5455 12.169C65.0867 12.169 64.4219 10.9134 64.4219 9.49148C64.4219 8.0696 65.0867 6.79545 66.5455 6.79545C68.0043 6.79545 68.669 8.0696 68.669 9.49148C68.669 10.9134 68.0043 12.169 66.5455 12.169ZM75.5964 6.05682C75.3748 5.92756 75.0239 5.79829 74.6546 5.79829C73.8237 5.79829 73.0481 6.4446 72.845 7.12784H72.7711V5.90909H71.6816V13H72.7711V8.9929C72.7896 8.03267 73.4543 6.92472 74.6177 6.92472C74.9316 6.92472 75.1163 7.01705 75.2271 7.07244L75.5964 6.05682ZM83.8582 5.90909H82.344V4.39489H81.2545V5.90909H80.1835V6.92472H81.2545V11.2642C81.2545 12.5014 82.2517 13.0923 83.175 13.0923C83.5812 13.0923 83.8398 13.0185 83.9875 12.9631L83.7659 11.9844C83.6736 12.0028 83.5258 12.0398 83.2858 12.0398C82.8057 12.0398 82.344 11.892 82.344 10.9688V6.92472H83.8582V5.90909ZM94.8885 5.90909H93.7436L92.2109 11.3196H92.137L90.6413 5.90909H89.4779L87.9637 11.3381H87.8899L86.3572 5.90909H85.2123L87.3728 13H88.4439L89.995 7.55256H90.1058L91.6569 13H92.7279L94.8885 5.90909ZM97.1243 4.89347C97.6044 4.89347 97.8999 4.56108 97.8999 4.15483C97.8999 3.78551 97.6044 3.41619 97.1243 3.41619C96.6442 3.41619 96.3487 3.78551 96.3487 4.15483C96.3487 4.56108 96.6442 4.89347 97.1243 4.89347ZM97.6783 5.90909H96.5888V13H97.6783V5.90909ZM105.603 8.03267C105.418 6.70312 104.292 5.81676 102.796 5.81676C100.876 5.81676 99.6014 7.33097 99.6014 9.45455C99.6014 11.6335 100.839 13.1477 102.814 13.1477C104.384 13.1477 105.418 12.1875 105.603 10.9318H104.513C104.31 11.7074 103.664 12.169 102.814 12.169C101.522 12.169 100.691 11.098 100.691 9.45455C100.691 7.84801 101.54 6.79545 102.814 6.79545C103.775 6.79545 104.347 7.38636 104.513 8.03267H105.603ZM110.441 13.1477C111.882 13.1477 112.934 12.4276 113.266 11.3565L112.214 11.0611C111.937 11.7997 111.309 12.169 110.441 12.169C109.158 12.169 108.35 11.3565 108.239 9.82386H113.377V9.36222C113.377 6.72159 111.808 5.81676 110.33 5.81676C108.41 5.81676 107.136 7.33097 107.136 9.50994C107.136 11.6889 108.391 13.1477 110.441 13.1477ZM110.33 6.79545C111.512 6.79545 112.269 7.68182 112.269 8.8821H108.262C108.438 7.55256 109.241 6.79545 110.33 6.79545Z" transform="translate(111 87)" fill="black" fill-opacity="0.9"/>
<path opacity="0.4" d="M6.27841 5.98295H7.38636C7.29403 4.48722 6.01989 3.41619 4.19176 3.41619C2.3821 3.41619 0.960227 4.46875 0.960227 6.05682C0.960227 7.33097 1.88352 8.08807 3.3608 8.51278L4.52415 8.84517C5.7983 9.21449 6.40767 9.56534 6.40767 10.4148C6.40767 11.4489 5.41051 12.1321 4.09943 12.1321C2.97301 12.1321 1.97585 11.6335 1.88352 10.5625H0.701705C0.8125 12.1136 2.06818 13.1662 4.09943 13.1662C6.27841 13.1662 7.51562 11.9659 7.51562 10.4148C7.51562 9.10369 6.64773 8.30966 4.85653 7.82955L3.89631 7.57102C2.64062 7.23864 2.06818 6.77699 2.06818 6.01989C2.06818 5.09659 2.89915 4.43182 4.15483 4.43182C5.29972 4.43182 6.11222 4.96733 6.27841 5.98295ZM12.833 9.58381C15.0304 9.58381 15.9906 8.2358 15.9906 6.53693C15.9906 4.83807 15.0304 3.54545 12.8145 3.54545H9.65684V13H10.8017V9.58381H12.833ZM10.8017 4.56108H12.8145C14.3472 4.56108 14.8642 5.37358 14.8642 6.53693C14.8642 7.70028 14.3472 8.56818 12.833 8.56818H10.8017V4.56108ZM28.0553 7.75568H25.6178V5.31818H24.5837V7.75568H22.1462V8.78977H24.5837V11.2273H25.6178V8.78977H28.0553V7.75568ZM36.3976 10.3224C36.3976 9.21911 35.839 8.40199 34.9711 7.97266C35.7051 7.5941 36.176 6.90163 36.176 5.87216C36.176 4.26562 34.9942 3.41619 33.4246 3.41619C31.8365 3.41619 30.6362 4.26562 30.6362 5.87216C30.6362 6.89702 31.0933 7.58949 31.8227 7.96804C30.9594 8.39737 30.4146 9.21449 30.4146 10.3224C30.4146 12.0398 31.7442 13.1293 33.4246 13.1293C35.0865 13.1293 36.3976 12.0213 36.3976 10.3224ZM35.105 5.90909C35.105 6.83239 34.2925 7.49716 33.4246 7.49716C32.5382 7.49716 31.7073 6.83239 31.7073 5.89062C31.7073 4.94886 32.5382 4.39489 33.3877 4.39489C34.2925 4.39489 35.105 5.00426 35.105 5.90909ZM35.2712 10.3224C35.2712 11.3196 34.4771 12.169 33.4246 12.169C32.372 12.169 31.5226 11.3196 31.5226 10.304C31.5226 9.28835 32.372 8.42045 33.3877 8.42045C34.4033 8.42045 35.2712 9.28835 35.2712 10.3224Z" transform="translate(475 72)" fill="black"/>
<path opacity="0.1" d="M0 0H6" transform="translate(466 80.5)" stroke="black"/>
<path opacity="0.4" d="M7.03551 7.73722C7.03551 4.96733 5.94602 3.41619 3.89631 3.41619C1.82812 3.41619 0.72017 4.96733 0.72017 7.73722V8.64205C0.72017 11.4304 1.84659 13.1293 3.91477 13.1293C5.96449 13.1293 7.03551 11.4304 7.03551 8.64205V7.73722ZM5.89062 8.84517C5.89062 10.6179 5.26278 12.1136 3.91477 12.1136C2.5483 12.1136 1.86506 10.6179 1.86506 8.84517V7.53409C1.86506 5.7429 2.52983 4.43182 3.89631 4.43182C5.24432 4.43182 5.89062 5.7429 5.89062 7.53409V8.84517ZM10.0895 5.90909H8.83386L11.0867 9.45455L8.83386 13H10.0895L11.7884 10.2486L13.4873 13H14.743L12.4532 9.45455L14.743 5.90909H13.4873L11.7884 8.80824L10.0895 5.90909ZM22.1549 7.75568H18.2402V4.56108H22.7643V3.54545H17.0953V13H18.2402V8.77131H22.1549V7.75568ZM30.4348 7.75568H26.52V4.56108H31.0442V3.54545H25.3752V13H26.52V8.77131H30.4348V7.75568ZM37.0712 13C39.3056 13 40.2289 11.9105 40.2289 10.4886C40.2289 8.9929 39.1948 8.1804 38.3269 8.125V8.03729C39.1348 7.82031 39.8596 7.2848 39.8596 6.05682C39.8596 4.67188 38.9363 3.54545 36.9604 3.54545H33.655V13H37.0712ZM34.7999 4.56108H36.9604C38.2161 4.56108 38.7701 5.22585 38.7701 6.05682C38.7701 7.05398 37.9576 7.70028 36.9235 7.70028H34.7999V4.56108ZM39.1394 10.4886C39.1394 11.3196 38.567 11.9844 37.0712 11.9844H34.7999V8.69744H37.1266C38.3638 8.69744 39.1394 9.52841 39.1394 10.4886ZM47.8198 7.75568H43.905V4.56108H48.4292V3.54545H42.7601V13H43.905V8.77131H47.8198V7.75568Z" transform="translate(0 72)" fill="black"/>
<path opacity="0.1" d="M0 0H6" transform="translate(52 80.5)" stroke="black"/>
<path opacity="0.07" d="M0 0H400" transform="translate(62 80.5)" stroke="black"/>
<rect width="400" height="60" fill="#F5E7ED" transform="translate(62 140)"/>
<path d="M6.48153 13H7.81108L5.7706 9.07138C6.8647 8.62358 7.47869 7.74183 7.47869 6.4446C7.47869 4.875 6.5554 3.54545 4.30256 3.54545H1.14489V13H2.28977V9.32528H4.60263L6.48153 13ZM2.28977 4.56108H4.30256C5.98295 4.56108 6.35227 5.55824 6.35227 6.4446C6.35227 7.49716 5.83523 8.27273 4.1733 8.27273H2.28977V4.56108ZM12.3171 13.1477C13.7574 13.1477 14.81 12.4276 15.1424 11.3565L14.0898 11.0611C13.8128 11.7997 13.185 12.169 12.3171 12.169C11.0337 12.169 10.2258 11.3565 10.115 9.82386H15.2532V9.36222C15.2532 6.72159 13.6836 5.81676 12.2063 5.81676C10.2858 5.81676 9.01169 7.33097 9.01169 9.50994C9.01169 11.6889 10.2674 13.1477 12.3171 13.1477ZM12.2063 6.79545C13.3881 6.79545 14.1452 7.68182 14.1452 8.8821H10.1381C10.3135 7.55256 11.1168 6.79545 12.2063 6.79545ZM20.1689 5.90909H18.6547V4.39489H17.5652V5.90909H16.4942V6.92472H17.5652V11.2642C17.5652 12.5014 18.5623 13.0923 19.4856 13.0923C19.8919 13.0923 20.1504 13.0185 20.2981 12.9631L20.0766 11.9844C19.9842 12.0028 19.8365 12.0398 19.5964 12.0398C19.1163 12.0398 18.6547 11.892 18.6547 10.9688V6.92472H20.1689V5.90909ZM26.5457 10.1932C26.5457 11.5227 25.5301 12.0398 24.7176 12.0398C23.8128 12.0398 23.1665 11.4489 23.1665 10.4148V5.90909H22.077V10.4148C22.077 12.2798 23.3326 13.0923 24.3667 13.0923C25.4378 13.0923 26.121 12.5384 26.4719 12.0028H26.5457V13H27.6352V5.90909H26.5457V10.1932ZM33.8054 6.05682C33.5839 5.92756 33.233 5.79829 32.8637 5.79829C32.0327 5.79829 31.2572 6.4446 31.054 7.12784H30.9802V5.90909H29.8907V13H30.9802V8.9929C30.9986 8.03267 31.6634 6.92472 32.8268 6.92472C33.1407 6.92472 33.3253 7.01705 33.4361 7.07244L33.8054 6.05682ZM36.3945 8.80824C36.3945 7.47869 37.4101 6.86932 38.2226 6.86932C39.1274 6.86932 39.7737 7.53409 39.7737 8.56818V13H40.8632V8.49432C40.8632 6.68466 39.903 5.81676 38.5734 5.81676C37.5024 5.81676 36.8007 6.3892 36.4683 7.10938H36.3945V5.90909H35.305V13H36.3945V8.80824ZM51.2821 13H52.3716V8.32812C52.3716 6.07528 50.6543 5.81676 49.7494 5.81676C48.6784 5.81676 47.4596 6.18608 46.9057 7.47869L47.9398 7.84801C48.1798 7.33097 48.7523 6.77699 49.8048 6.77699C50.6543 6.77699 51.2821 7.14631 51.2821 8.32812V8.34659C51.2821 8.80824 50.4327 8.77131 49.454 8.90057C48.1244 9.06676 46.7025 9.38068 46.7025 10.9872C46.7025 12.3722 47.7736 13.1662 49.1216 13.1662C50.3588 13.1662 51.0051 12.5014 51.2267 12.0398H51.2821V13ZM51.2821 10.4332C51.2821 11.3196 50.5804 12.1875 49.2878 12.1875C48.4199 12.1875 47.792 11.7997 47.792 11.0426C47.792 10.2116 48.5491 9.95312 49.3986 9.84233C49.8602 9.78693 51.0974 9.65767 51.2821 9.43608V10.4332ZM60.5096 13V3.54545H59.4201V7.03551H59.3462C59.1062 6.66619 58.663 5.81676 57.2781 5.81676C55.4869 5.81676 54.2497 7.23864 54.2497 9.47301C54.2497 11.7259 55.4869 13.1477 57.2596 13.1477C58.6261 13.1477 59.1062 12.2983 59.3462 11.9105H59.457V13H60.5096ZM55.3391 9.45455C55.3391 7.95881 56.0224 6.79545 57.4073 6.79545C58.7369 6.79545 59.4386 7.86648 59.4386 9.45455C59.4386 11.0611 58.7184 12.169 57.4073 12.169C56.0409 12.169 55.3391 10.9688 55.3391 9.45455ZM68.6915 13V3.54545H67.602V7.03551H67.5281C67.2881 6.66619 66.8449 5.81676 65.4599 5.81676C63.6687 5.81676 62.4315 7.23864 62.4315 9.47301C62.4315 11.7259 63.6687 13.1477 65.4415 13.1477C66.808 13.1477 67.2881 12.2983 67.5281 11.9105H67.6389V13H68.6915ZM63.521 9.45455C63.521 7.95881 64.2043 6.79545 65.5892 6.79545C66.9187 6.79545 67.6205 7.86648 67.6205 9.45455C67.6205 11.0611 66.9003 12.169 65.5892 12.169C64.2227 12.169 63.521 10.9688 63.521 9.45455ZM74.8606 6.05682C74.639 5.92756 74.2881 5.79829 73.9188 5.79829C73.0878 5.79829 72.3123 6.4446 72.1091 7.12784H72.0353V5.90909H70.9458V13H72.0353V8.9929C72.0537 8.03267 72.7185 6.92472 73.8819 6.92472C74.1958 6.92472 74.3804 7.01705 74.4912 7.07244L74.8606 6.05682ZM78.9142 13.1477C80.3545 13.1477 81.4071 12.4276 81.7394 11.3565L80.6869 11.0611C80.4099 11.7997 79.7821 12.169 78.9142 12.169C77.6308 12.169 76.8229 11.3565 76.7121 9.82386H81.8502V9.36222C81.8502 6.72159 80.2806 5.81676 78.8034 5.81676C76.8829 5.81676 75.6088 7.33097 75.6088 9.50994C75.6088 11.6889 76.8644 13.1477 78.9142 13.1477ZM78.8034 6.79545C79.9852 6.79545 80.7423 7.68182 80.7423 8.8821H76.7352C76.9106 7.55256 77.7139 6.79545 78.8034 6.79545ZM88.6864 7.49716C88.3171 6.46307 87.5231 5.81676 86.212 5.81676C84.7162 5.81676 83.6083 6.66619 83.6083 7.86648C83.6083 8.73438 84.1807 9.50994 85.4733 9.84233L86.6552 10.1378C87.3569 10.304 87.6708 10.6179 87.6708 11.0795C87.6708 11.6705 87.0799 12.206 86.0643 12.206C85.0117 12.206 84.5131 11.6335 84.2546 10.9872L83.2574 11.3565C83.6083 12.2429 84.3839 13.1477 86.0827 13.1477C87.837 13.1477 88.7787 12.1321 88.7787 11.0426C88.7787 10.2301 88.2432 9.49148 86.9506 9.17756L85.8981 8.91903C85.0856 8.71591 84.6978 8.29119 84.6978 7.81108C84.6978 7.2017 85.3441 6.74006 86.212 6.74006C87.3015 6.74006 87.5785 7.46023 87.7077 7.77415L88.6864 7.49716ZM95.5607 7.49716C95.1914 6.46307 94.3973 5.81676 93.0862 5.81676C91.5905 5.81676 90.4825 6.66619 90.4825 7.86648C90.4825 8.73438 91.055 9.50994 92.3476 9.84233L93.5294 10.1378C94.2311 10.304 94.545 10.6179 94.545 11.0795C94.545 11.6705 93.9541 12.206 92.9385 12.206C91.886 12.206 91.3874 11.6335 91.1289 10.9872L90.1317 11.3565C90.4825 12.2429 91.2581 13.1477 92.957 13.1477C94.7112 13.1477 95.653 12.1321 95.653 11.0426C95.653 10.2301 95.1175 9.49148 93.8249 9.17756L92.7723 8.91903C91.9598 8.71591 91.572 8.29119 91.572 7.81108C91.572 7.2017 92.2183 6.74006 93.0862 6.74006C94.1757 6.74006 94.4527 7.46023 94.582 7.77415L95.5607 7.49716ZM102.065 13H103.154V6.92472H104.742V5.90909H103.154V5.50284C103.154 4.80114 103.45 4.43182 104.17 4.43182C104.484 4.43182 104.668 4.50568 104.779 4.54261L105.093 3.60085C104.927 3.52699 104.595 3.41619 104.059 3.41619C103.043 3.41619 102.065 4.02557 102.065 5.24432V5.90909H100.92V6.92472H102.065V13ZM109.093 13.1477C111.013 13.1477 112.306 11.6889 112.306 9.49148C112.306 7.27557 111.013 5.81676 109.093 5.81676C107.172 5.81676 105.879 7.27557 105.879 9.49148C105.879 11.6889 107.172 13.1477 109.093 13.1477ZM109.093 12.169C107.634 12.169 106.969 10.9134 106.969 9.49148C106.969 8.0696 107.634 6.79545 109.093 6.79545C110.551 6.79545 111.216 8.0696 111.216 9.49148C111.216 10.9134 110.551 12.169 109.093 12.169ZM118.143 6.05682C117.922 5.92756 117.571 5.79829 117.202 5.79829C116.371 5.79829 115.595 6.4446 115.392 7.12784H115.318V5.90909H114.229V13H115.318V8.9929C115.337 8.03267 116.001 6.92472 117.165 6.92472C117.479 6.92472 117.663 7.01705 117.774 7.07244L118.143 6.05682ZM126.405 5.90909H124.891V4.39489H123.802V5.90909H122.731V6.92472H123.802V11.2642C123.802 12.5014 124.799 13.0923 125.722 13.0923C126.128 13.0923 126.387 13.0185 126.535 12.9631L126.313 11.9844C126.221 12.0028 126.073 12.0398 125.833 12.0398C125.353 12.0398 124.891 11.892 124.891 10.9688V6.92472H126.405V5.90909ZM137.436 5.90909H136.291L134.758 11.3196H134.684L133.188 5.90909H132.025L130.511 11.3381H130.437L128.904 5.90909H127.759L129.92 13H130.991L132.542 7.55256H132.653L134.204 13H135.275L137.436 5.90909ZM139.671 4.89347C140.152 4.89347 140.447 4.56108 140.447 4.15483C140.447 3.78551 140.152 3.41619 139.671 3.41619C139.191 3.41619 138.896 3.78551 138.896 4.15483C138.896 4.56108 139.191 4.89347 139.671 4.89347ZM140.225 5.90909H139.136V13H140.225V5.90909ZM148.15 8.03267C147.965 6.70312 146.839 5.81676 145.343 5.81676C143.423 5.81676 142.148 7.33097 142.148 9.45455C142.148 11.6335 143.386 13.1477 145.362 13.1477C146.931 13.1477 147.965 12.1875 148.15 10.9318H147.06C146.857 11.7074 146.211 12.169 145.362 12.169C144.069 12.169 143.238 11.098 143.238 9.45455C143.238 7.84801 144.087 6.79545 145.362 6.79545C146.322 6.79545 146.894 7.38636 147.06 8.03267H148.15ZM152.988 13.1477C154.429 13.1477 155.481 12.4276 155.814 11.3565L154.761 11.0611C154.484 11.7997 153.856 12.169 152.988 12.169C151.705 12.169 150.897 11.3565 150.786 9.82386H155.924V9.36222C155.924 6.72159 154.355 5.81676 152.877 5.81676C150.957 5.81676 149.683 7.33097 149.683 9.50994C149.683 11.6889 150.939 13.1477 152.988 13.1477ZM152.877 6.79545C154.059 6.79545 154.816 7.68182 154.816 8.8821H150.809C150.985 7.55256 151.788 6.79545 152.877 6.79545ZM162.522 8.34659V9.38068H170.074V9.45455L167.231 12.2983L167.932 13L172.069 8.86364L167.932 4.72727L167.231 5.42898L170.074 8.27273V8.34659H162.522ZM182.009 5.90909H180.495V4.39489H179.405V5.90909H178.334V6.92472H179.405V11.2642C179.405 12.5014 180.402 13.0923 181.325 13.0923C181.732 13.0923 181.99 13.0185 182.138 12.9631L181.916 11.9844C181.824 12.0028 181.676 12.0398 181.436 12.0398C180.956 12.0398 180.495 11.892 180.495 10.9688V6.92472H182.009V5.90909ZM186.709 13.1477C188.629 13.1477 189.922 11.6889 189.922 9.49148C189.922 7.27557 188.629 5.81676 186.709 5.81676C184.788 5.81676 183.496 7.27557 183.496 9.49148C183.496 11.6889 184.788 13.1477 186.709 13.1477ZM186.709 12.169C185.25 12.169 184.585 10.9134 184.585 9.49148C184.585 8.0696 185.25 6.79545 186.709 6.79545C188.167 6.79545 188.832 8.0696 188.832 9.49148C188.832 10.9134 188.167 12.169 186.709 12.169ZM200.008 13H201.098V8.32812C201.098 6.07528 199.38 5.81676 198.476 5.81676C197.404 5.81676 196.186 6.18608 195.632 7.47869L196.666 7.84801C196.906 7.33097 197.478 6.77699 198.531 6.77699C199.38 6.77699 200.008 7.14631 200.008 8.32812V8.34659C200.008 8.80824 199.159 8.77131 198.18 8.90057C196.851 9.06676 195.429 9.38068 195.429 10.9872C195.429 12.3722 196.5 13.1662 197.848 13.1662C199.085 13.1662 199.731 12.5014 199.953 12.0398H200.008V13ZM200.008 10.4332C200.008 11.3196 199.306 12.1875 198.014 12.1875C197.146 12.1875 196.518 11.7997 196.518 11.0426C196.518 10.2116 197.275 9.95312 198.125 9.84233C198.586 9.78693 199.824 9.65767 200.008 9.43608V10.4332ZM209.236 13V3.54545H208.146V7.03551H208.072C207.832 6.66619 207.389 5.81676 206.004 5.81676C204.213 5.81676 202.976 7.23864 202.976 9.47301C202.976 11.7259 204.213 13.1477 205.986 13.1477C207.352 13.1477 207.832 12.2983 208.072 11.9105H208.183V13H209.236ZM204.065 9.45455C204.065 7.95881 204.748 6.79545 206.133 6.79545C207.463 6.79545 208.165 7.86648 208.165 9.45455C208.165 11.0611 207.445 12.169 206.133 12.169C204.767 12.169 204.065 10.9688 204.065 9.45455ZM217.418 13V3.54545H216.328V7.03551H216.254C216.014 6.66619 215.571 5.81676 214.186 5.81676C212.395 5.81676 211.158 7.23864 211.158 9.47301C211.158 11.7259 212.395 13.1477 214.168 13.1477C215.534 13.1477 216.014 12.2983 216.254 11.9105H216.365V13H217.418ZM212.247 9.45455C212.247 7.95881 212.93 6.79545 214.315 6.79545C215.645 6.79545 216.347 7.86648 216.347 9.45455C216.347 11.0611 215.626 12.169 214.315 12.169C212.949 12.169 212.247 10.9688 212.247 9.45455Z" transform="translate(111 147)" fill="black" fill-opacity="0.9"/>
<path d="M11.0422 10.1932C11.0422 11.5227 10.0266 12.0398 9.21409 12.0398C8.30926 12.0398 7.66296 11.4489 7.66296 10.4148V5.90909H6.57347V10.4148C6.57347 12.2798 7.82915 13.0923 8.86324 13.0923C9.93426 13.0923 10.6175 12.5384 10.9684 12.0028H11.0422V13H12.1317V5.90909H11.0422V10.1932ZM18.9852 5.90909H20.0747C19.7423 4.28409 18.819 3.39773 17.3233 3.39773C15.1627 3.39773 14.1471 5.24432 14.1471 8.16193V8.47585C14.1471 11.5043 15.1627 13.1293 17.2309 13.1293C19.1883 13.1293 20.2224 11.6705 20.2224 10.0824C20.2224 8.51278 19.1883 7.05398 17.3787 7.05398C16.64 7.05398 15.8368 7.29865 15.2782 7.91264C15.3428 5.06889 16.3584 4.43182 17.3417 4.43182C18.4497 4.43182 18.7636 5.24432 18.9852 5.90909ZM17.3602 8.0696C18.6528 8.0696 19.1329 9.02983 19.1329 10.0824C19.1329 11.3565 18.4127 12.1321 17.3233 12.1321C16.2984 12.1321 15.3843 11.4442 15.3659 10.0316C15.3843 8.84979 16.1922 8.0696 17.3602 8.0696ZM28.6455 10.2116H27.3529V3.54545H26.1526L21.887 10.5071V11.2273H26.3373V13H27.3529V11.2273H28.6455V10.2116ZM23.3088 10.2116L26.1526 5.44744L26.3373 4.83345V10.2116H23.3088Z" transform="translate(70 147)" fill="#517AAA"/>
<path d="M6.0522 6.10298H7.45561C7.3956 4.5103 6.0799 3.41619 4.18715 3.41619C2.30362 3.41619 0.867898 4.47337 0.867898 6.06143C0.867898 7.37713 1.86506 8.1804 3.37464 8.62358L4.22408 8.86825C5.55824 9.26989 6.13068 9.63459 6.13068 10.3963C6.13068 11.2596 5.31818 11.8828 4.10405 11.8828C3.01918 11.8828 2.14205 11.3842 2.06818 10.3594H0.600142C0.678622 12.1321 2.12358 13.1523 4.10405 13.1523C6.24148 13.1523 7.54332 12.0213 7.54332 10.3917C7.54332 9.01136 6.62003 8.22195 4.83345 7.69567L4.09943 7.48331C2.91761 7.13707 2.28516 6.74929 2.28516 6.04297C2.28516 5.24432 3.04226 4.68111 4.15945 4.68111C5.23509 4.68111 5.92756 5.1843 6.0522 6.10298ZM12.8203 9.6392C15.0731 9.6392 16.0472 8.34197 16.0472 6.57848C16.0472 4.82422 15.087 3.54545 12.8064 3.54545H9.4918V13H10.9552V9.6392H12.8203ZM10.9552 4.80114H12.8064C14.1452 4.80114 14.6022 5.54901 14.6022 6.57848C14.6022 7.60795 14.1452 8.38352 12.8203 8.38352H10.9552V4.80114ZM28.0126 7.64489C28.0126 4.91193 26.8123 3.41619 24.8041 3.41619C22.7821 3.41619 21.568 4.91193 21.568 7.64489V8.76207C21.568 11.5504 22.7914 13.1293 24.818 13.1293C26.8262 13.1293 28.0126 11.5504 28.0126 8.76207V7.64489ZM26.5676 8.98828C26.5676 10.6964 25.9629 11.8782 24.818 11.8782C23.65 11.8782 23.013 10.6964 23.013 8.98828V7.41406C23.013 5.7429 23.6362 4.66264 24.8041 4.66264C25.9583 4.66264 26.5676 5.7429 26.5676 7.41406V8.98828Z" transform="translate(475 132)" fill="black"/>
<path opacity="0.1" d="M0 0H6" transform="translate(466 140.5)" stroke="black"/>
<path opacity="0.4" d="M7.03551 7.73722C7.03551 4.96733 5.94602 3.41619 3.89631 3.41619C1.82812 3.41619 0.72017 4.96733 0.72017 7.73722V8.64205C0.72017 11.4304 1.84659 13.1293 3.91477 13.1293C5.96449 13.1293 7.03551 11.4304 7.03551 8.64205V7.73722ZM5.89062 8.84517C5.89062 10.6179 5.26278 12.1136 3.91477 12.1136C2.5483 12.1136 1.86506 10.6179 1.86506 8.84517V7.53409C1.86506 5.7429 2.52983 4.43182 3.89631 4.43182C5.24432 4.43182 5.89062 5.7429 5.89062 7.53409V8.84517ZM10.0895 5.90909H8.83386L11.0867 9.45455L8.83386 13H10.0895L11.7884 10.2486L13.4873 13H14.743L12.4532 9.45455L14.743 5.90909H13.4873L11.7884 8.80824L10.0895 5.90909ZM22.1549 7.75568H18.2402V4.56108H22.7643V3.54545H17.0953V13H18.2402V8.77131H22.1549V7.75568ZM30.4348 7.75568H26.52V4.56108H31.0442V3.54545H25.3752V13H26.52V8.77131H30.4348V7.75568ZM37.0712 13C39.3056 13 40.2289 11.9105 40.2289 10.4886C40.2289 8.9929 39.1948 8.1804 38.3269 8.125V8.03729C39.1348 7.82031 39.8596 7.2848 39.8596 6.05682C39.8596 4.67188 38.9363 3.54545 36.9604 3.54545H33.655V13H37.0712ZM34.7999 4.56108H36.9604C38.2161 4.56108 38.7701 5.22585 38.7701 6.05682C38.7701 7.05398 37.9576 7.70028 36.9235 7.70028H34.7999V4.56108ZM39.1394 10.4886C39.1394 11.3196 38.567 11.9844 37.0712 11.9844H34.7999V8.69744H37.1266C38.3638 8.69744 39.1394 9.52841 39.1394 10.4886ZM48.1522 3.54545H42.2431V4.61648H47.0442L43.1294 13H44.3851L48.1522 4.72727V3.54545Z" transform="translate(0 132)" fill="black"/>
<path opacity="0.1" d="M0 0H6" transform="translate(52 140.5)" stroke="black"/>
<path opacity="0.07" d="M0 0H400" transform="translate(62 140.5)" stroke="black"/>
<rect width="400" height="30" fill="#DEF6E9" transform="translate(62 110)"/>
<path opacity="0.4" d="M6.27841 5.98295H7.38636C7.29403 4.48722 6.01989 3.41619 4.19176 3.41619C2.3821 3.41619 0.960227 4.46875 0.960227 6.05682C0.960227 7.33097 1.88352 8.08807 3.3608 8.51278L4.52415 8.84517C5.7983 9.21449 6.40767 9.56534 6.40767 10.4148C6.40767 11.4489 5.41051 12.1321 4.09943 12.1321C2.97301 12.1321 1.97585 11.6335 1.88352 10.5625H0.701705C0.8125 12.1136 2.06818 13.1662 4.09943 13.1662C6.27841 13.1662 7.51562 11.9659 7.51562 10.4148C7.51562 9.10369 6.64773 8.30966 4.85653 7.82955L3.89631 7.57102C2.64062 7.23864 2.06818 6.77699 2.06818 6.01989C2.06818 5.09659 2.89915 4.43182 4.15483 4.43182C5.29972 4.43182 6.11222 4.96733 6.27841 5.98295ZM9.50911 15.6591H10.5986V11.9105H10.6909C10.931 12.2983 11.3926 13.1477 12.7591 13.1477C14.5318 13.1477 15.7691 11.7259 15.7691 9.47301C15.7691 7.23864 14.5318 5.81676 12.7406 5.81676C11.3557 5.81676 10.931 6.66619 10.6909 7.03551H10.5617V5.90909H9.50911V15.6591ZM14.6796 9.45455C14.6796 10.9688 13.9779 12.169 12.6114 12.169C11.3003 12.169 10.5801 11.0611 10.5801 9.45455C10.5801 7.86648 11.2818 6.79545 12.6114 6.79545C13.9963 6.79545 14.6796 7.95881 14.6796 9.45455ZM21.9381 13H23.0276V8.32812C23.0276 6.07528 21.3103 5.81676 20.4055 5.81676C19.3345 5.81676 18.1157 6.18608 17.5617 7.47869L18.5958 7.84801C18.8359 7.33097 19.4083 6.77699 20.4609 6.77699C21.3103 6.77699 21.9381 7.14631 21.9381 8.32812V8.34659C21.9381 8.80824 21.0887 8.77131 20.11 8.90057C18.7805 9.06676 17.3586 9.38068 17.3586 10.9872C17.3586 12.3722 18.4296 13.1662 19.7776 13.1662C21.0149 13.1662 21.6612 12.5014 21.8827 12.0398H21.9381V13ZM21.9381 10.4332C21.9381 11.3196 21.2364 12.1875 19.9438 12.1875C19.0759 12.1875 18.4481 11.7997 18.4481 11.0426C18.4481 10.2116 19.2052 9.95312 20.0546 9.84233C20.5163 9.78693 21.7535 9.65767 21.9381 9.43608V10.4332ZM30.9071 8.03267C30.7225 6.70312 29.5961 5.81676 28.1003 5.81676C26.1799 5.81676 24.9057 7.33097 24.9057 9.45455C24.9057 11.6335 26.1429 13.1477 28.1188 13.1477C29.6884 13.1477 30.7225 12.1875 30.9071 10.9318H29.8176C29.6145 11.7074 28.9682 12.169 28.1188 12.169C26.8262 12.169 25.9952 11.098 25.9952 9.45455C25.9952 7.84801 26.8446 6.79545 28.1188 6.79545C29.079 6.79545 29.6514 7.38636 29.8176 8.03267H30.9071ZM35.7455 13.1477C37.1859 13.1477 38.2384 12.4276 38.5708 11.3565L37.5183 11.0611C37.2413 11.7997 36.6134 12.169 35.7455 12.169C34.4621 12.169 33.6543 11.3565 33.5435 9.82386H38.6816V9.36222C38.6816 6.72159 37.112 5.81676 35.6347 5.81676C33.7143 5.81676 32.4401 7.33097 32.4401 9.50994C32.4401 11.6889 33.6958 13.1477 35.7455 13.1477ZM35.6347 6.79545C36.8165 6.79545 37.5736 7.68182 37.5736 8.8821H33.5665C33.742 7.55256 34.5452 6.79545 35.6347 6.79545ZM45.0207 13H46.1102V6.92472H47.6982V5.90909H46.1102V5.50284C46.1102 4.80114 46.4056 4.43182 47.1258 4.43182C47.4397 4.43182 47.6244 4.50568 47.7352 4.54261L48.0491 3.60085C47.8829 3.52699 47.5505 3.41619 47.015 3.41619C45.9994 3.41619 45.0207 4.02557 45.0207 5.24432V5.90909H43.8758V6.92472H45.0207V13ZM53.3745 6.05682C53.1529 5.92756 52.8021 5.79829 52.4327 5.79829C51.6018 5.79829 50.8262 6.4446 50.6231 7.12784H50.5492V5.90909H49.4597V13H50.5492V8.9929C50.5677 8.03267 51.2325 6.92472 52.3958 6.92472C52.7097 6.92472 52.8944 7.01705 53.0052 7.07244L53.3745 6.05682ZM57.3358 13.1477C59.2562 13.1477 60.5488 11.6889 60.5488 9.49148C60.5488 7.27557 59.2562 5.81676 57.3358 5.81676C55.4153 5.81676 54.1227 7.27557 54.1227 9.49148C54.1227 11.6889 55.4153 13.1477 57.3358 13.1477ZM57.3358 12.169C55.877 12.169 55.2122 10.9134 55.2122 9.49148C55.2122 8.0696 55.877 6.79545 57.3358 6.79545C58.7946 6.79545 59.4594 8.0696 59.4594 9.49148C59.4594 10.9134 58.7946 12.169 57.3358 12.169ZM67.587 8.54972C67.587 7.55256 68.141 6.86932 69.1012 6.86932C69.6921 6.86932 70.4861 7.22017 70.4861 8.32812V13H71.5756V8.36506C71.5756 6.62926 70.6154 5.81676 69.4336 5.81676C68.3995 5.81676 67.587 6.5 67.3839 7.09091H67.31C66.9961 6.3892 66.3682 5.81676 65.4819 5.81676C64.577 5.81676 63.8384 6.5 63.6353 7.10938H63.5614V5.90909H62.4719V13H63.5614V8.77131C63.5614 7.60795 64.3554 6.86932 65.1864 6.86932C65.9804 6.86932 66.479 7.29403 66.479 8.36506V13H67.587V8.54972ZM85.4996 6.5C85.1487 4.56108 83.5976 3.41619 81.6956 3.41619C79.2765 3.41619 77.5223 5.28125 77.5223 8.27273C77.5223 11.2642 79.2765 13.1293 81.6956 13.1293C83.5976 13.1293 85.1487 11.9844 85.4996 10.0455H84.3547C84.0777 11.3565 82.9513 12.0582 81.6956 12.0582C79.9783 12.0582 78.6302 10.7287 78.6302 8.27273C78.6302 5.81676 79.9783 4.48722 81.6956 4.48722C82.9513 4.48722 84.0777 5.18892 84.3547 6.5H85.4996ZM87.7435 13L88.6345 10.4702H92.5769L93.4679 13H94.6682L91.1966 3.54545H90.0148L86.5432 13H87.7435ZM90.5503 5.04119H90.6611L92.2169 9.45455H88.9946L90.5503 5.04119ZM101.941 11.9844H97.5458V3.54545H96.4009V13H101.941V11.9844ZM109.513 11.9844H105.118V3.54545H103.973V13H109.513V11.9844ZM121.242 13V3.54545H120.152V7.03551H120.079C119.839 6.66619 119.395 5.81676 118.01 5.81676C116.219 5.81676 114.982 7.23864 114.982 9.47301C114.982 11.7259 116.219 13.1477 117.992 13.1477C119.358 13.1477 119.839 12.2983 120.079 11.9105H120.189V13H121.242ZM116.071 9.45455C116.071 7.95881 116.755 6.79545 118.14 6.79545C119.469 6.79545 120.171 7.86648 120.171 9.45455C120.171 11.0611 119.451 12.169 118.14 12.169C116.773 12.169 116.071 10.9688 116.071 9.45455ZM126.469 13.1477C127.91 13.1477 128.962 12.4276 129.295 11.3565L128.242 11.0611C127.965 11.7997 127.337 12.169 126.469 12.169C125.186 12.169 124.378 11.3565 124.267 9.82386H129.405V9.36222C129.405 6.72159 127.836 5.81676 126.358 5.81676C124.438 5.81676 123.164 7.33097 123.164 9.50994C123.164 11.6889 124.42 13.1477 126.469 13.1477ZM126.358 6.79545C127.54 6.79545 128.297 7.68182 128.297 8.8821H124.29C124.466 7.55256 125.269 6.79545 126.358 6.79545ZM137.017 8.03267C136.832 6.70312 135.706 5.81676 134.21 5.81676C132.29 5.81676 131.016 7.33097 131.016 9.45455C131.016 11.6335 132.253 13.1477 134.229 13.1477C135.798 13.1477 136.832 12.1875 137.017 10.9318H135.928C135.724 11.7074 135.078 12.169 134.229 12.169C132.936 12.169 132.105 11.098 132.105 9.45455C132.105 7.84801 132.955 6.79545 134.229 6.79545C135.189 6.79545 135.761 7.38636 135.928 8.03267H137.017ZM142.785 6.05682C142.563 5.92756 142.212 5.79829 141.843 5.79829C141.012 5.79829 140.236 6.4446 140.033 7.12784H139.959V5.90909H138.87V13H139.959V8.9929C139.978 8.03267 140.643 6.92472 141.806 6.92472C142.12 6.92472 142.304 7.01705 142.415 7.07244L142.785 6.05682ZM146.838 13.1477C148.278 13.1477 149.331 12.4276 149.663 11.3565L148.611 11.0611C148.334 11.7997 147.706 12.169 146.838 12.169C145.555 12.169 144.747 11.3565 144.636 9.82386H149.774V9.36222C149.774 6.72159 148.205 5.81676 146.727 5.81676C144.807 5.81676 143.533 7.33097 143.533 9.50994C143.533 11.6889 144.788 13.1477 146.838 13.1477ZM146.727 6.79545C147.909 6.79545 148.666 7.68182 148.666 8.8821H144.659C144.835 7.55256 145.638 6.79545 146.727 6.79545ZM156.832 8.54972C156.832 7.55256 157.386 6.86932 158.346 6.86932C158.937 6.86932 159.731 7.22017 159.731 8.32812V13H160.821V8.36506C160.821 6.62926 159.86 5.81676 158.679 5.81676C157.644 5.81676 156.832 6.5 156.629 7.09091H156.555C156.241 6.3892 155.613 5.81676 154.727 5.81676C153.822 5.81676 153.083 6.5 152.88 7.10938H152.806V5.90909H151.717V13H152.806V8.77131C152.806 7.60795 153.6 6.86932 154.431 6.86932C155.225 6.86932 155.724 7.29403 155.724 8.36506V13H156.832V8.54972ZM166.008 13.1477C167.448 13.1477 168.5 12.4276 168.833 11.3565L167.78 11.0611C167.503 11.7997 166.875 12.169 166.008 12.169C164.724 12.169 163.916 11.3565 163.805 9.82386H168.944V9.36222C168.944 6.72159 167.374 5.81676 165.897 5.81676C163.976 5.81676 162.702 7.33097 162.702 9.50994C162.702 11.6889 163.958 13.1477 166.008 13.1477ZM165.897 6.79545C167.079 6.79545 167.836 7.68182 167.836 8.8821H163.829C164.004 7.55256 164.807 6.79545 165.897 6.79545ZM171.976 8.80824C171.976 7.47869 172.991 6.86932 173.804 6.86932C174.709 6.86932 175.355 7.53409 175.355 8.56818V13H176.445V8.49432C176.445 6.68466 175.484 5.81676 174.155 5.81676C173.084 5.81676 172.382 6.3892 172.05 7.10938H171.976V5.90909H170.886V13H171.976V8.80824ZM181.597 5.90909H180.083V4.39489H178.993V5.90909H177.922V6.92472H178.993V11.2642C178.993 12.5014 179.99 13.0923 180.914 13.0923C181.32 13.0923 181.578 13.0185 181.726 12.9631L181.505 11.9844C181.412 12.0028 181.265 12.0398 181.024 12.0398C180.544 12.0398 180.083 11.892 180.083 10.9688V6.92472H181.597V5.90909ZM184.04 4.89347C184.521 4.89347 184.816 4.56108 184.816 4.15483C184.816 3.78551 184.521 3.41619 184.04 3.41619C183.56 3.41619 183.265 3.78551 183.265 4.15483C183.265 4.56108 183.56 4.89347 184.04 4.89347ZM184.594 5.90909H183.505V13H184.594V5.90909ZM187.939 8.80824C187.939 7.47869 188.955 6.86932 189.768 6.86932C190.672 6.86932 191.319 7.53409 191.319 8.56818V13H192.408V8.49432C192.408 6.68466 191.448 5.81676 190.118 5.81676C189.047 5.81676 188.346 6.3892 188.013 7.10938H187.939V5.90909H186.85V13H187.939V8.80824ZM199.501 5.90909V7.03551H199.39C199.15 6.66619 198.707 5.81676 197.322 5.81676C195.53 5.81676 194.293 7.23864 194.293 9.41761C194.293 11.6335 195.586 12.8892 197.303 12.8892C198.688 12.8892 199.131 12.0767 199.371 11.6889H199.464V12.9446C199.482 14.1264 198.54 14.6804 197.451 14.6804C196.232 14.6804 195.734 13.9787 195.457 13.6278L194.589 14.2372C195.032 14.9943 195.937 15.6591 197.451 15.6591C199.094 15.6591 200.553 14.8835 200.553 13.0554V5.90909H199.501ZM195.383 9.39915C195.383 7.95881 196.066 6.79545 197.451 6.79545C198.78 6.79545 199.482 7.86648 199.482 9.39915C199.482 10.9688 198.762 11.9105 197.451 11.9105C196.084 11.9105 195.383 10.8764 195.383 9.39915ZM212.005 5.98295H213.113C213.021 4.48722 211.746 3.41619 209.918 3.41619C208.109 3.41619 206.687 4.46875 206.687 6.05682C206.687 7.33097 207.61 8.08807 209.087 8.51278L210.251 8.84517C211.525 9.21449 212.134 9.56534 212.134 10.4148C212.134 11.4489 211.137 12.1321 209.826 12.1321C208.7 12.1321 207.702 11.6335 207.61 10.5625H206.428C206.539 12.1136 207.795 13.1662 209.826 13.1662C212.005 13.1662 213.242 11.9659 213.242 10.4148C213.242 9.10369 212.374 8.30966 210.583 7.82955L209.623 7.57102C208.367 7.23864 207.795 6.77699 207.795 6.01989C207.795 5.09659 208.626 4.43182 209.881 4.43182C211.026 4.43182 211.839 4.96733 212.005 5.98295ZM218.56 9.58381C220.757 9.58381 221.717 8.2358 221.717 6.53693C221.717 4.83807 220.757 3.54545 218.541 3.54545H215.383V13H216.528V9.58381H218.56ZM216.528 4.56108H218.541C220.074 4.56108 220.591 5.37358 220.591 6.53693C220.591 7.70028 220.074 8.56818 218.56 8.56818H216.528V4.56108ZM227.651 3.54545V13H228.704V11.9105H228.833C229.073 12.2983 229.535 13.1477 230.901 13.1477C232.674 13.1477 233.911 11.7259 233.911 9.47301C233.911 7.23864 232.674 5.81676 230.883 5.81676C229.498 5.81676 229.073 6.66619 228.833 7.03551H228.741V3.54545H227.651ZM232.822 9.45455C232.822 10.9688 232.12 12.169 230.753 12.169C229.442 12.169 228.722 11.0611 228.722 9.45455C228.722 7.86648 229.424 6.79545 230.753 6.79545C232.138 6.79545 232.822 7.95881 232.822 9.45455ZM237.407 13.7017C237.001 14.7543 236.502 14.8466 235.727 14.6619L235.45 15.6222C235.561 15.6776 235.875 15.7514 236.244 15.7514C237.223 15.7514 237.924 15.2344 238.331 14.1449L241.377 5.90909H240.196L238.238 11.5597H238.16L236.207 5.90909H235.025L237.657 13.0462L237.407 13.7017ZM252.864 10.3224C252.864 9.21911 252.305 8.40199 251.437 7.97266C252.171 7.5941 252.642 6.90163 252.642 5.87216C252.642 4.26562 251.46 3.41619 249.891 3.41619C248.303 3.41619 247.102 4.26562 247.102 5.87216C247.102 6.89702 247.56 7.58949 248.289 7.96804C247.426 8.39737 246.881 9.21449 246.881 10.3224C246.881 12.0398 248.21 13.1293 249.891 13.1293C251.553 13.1293 252.864 12.0213 252.864 10.3224ZM251.571 5.90909C251.571 6.83239 250.759 7.49716 249.891 7.49716C249.004 7.49716 248.174 6.83239 248.174 5.89062C248.174 4.94886 249.004 4.39489 249.854 4.39489C250.759 4.39489 251.571 5.00426 251.571 5.90909ZM251.737 10.3224C251.737 11.3196 250.943 12.169 249.891 12.169C248.838 12.169 247.989 11.3196 247.989 10.304C247.989 9.28835 248.838 8.42045 249.854 8.42045C250.87 8.42045 251.737 9.28835 251.737 10.3224Z" transform="translate(111 117)" fill="black" fill-opacity="0.9"/>
<path opacity="0.07" d="M0 0H400" transform="translate(62 110.5)" stroke="black"/>
<path opacity="0.4" d="M5.34375 2.45455H0.434659V3.15767H2.4929V9H3.28551V3.15767H5.34375V2.45455ZM7.39902 6.03409C7.39902 5.11364 8.06379 4.75568 8.66464 4.75568C9.31663 4.75568 9.7385 5.16477 9.7385 5.88068V9H10.4928V5.88068C10.4928 4.66619 9.82799 4.02699 8.90754 4.02699C8.16606 4.02699 7.69305 4.41051 7.45015 4.78125H7.39902V2.45455H6.64475V9H7.39902V6.03409ZM14.0861 9.10227C15.0833 9.10227 15.812 8.60369 16.0421 7.86222L15.3134 7.65767C15.1216 8.16903 14.687 8.42472 14.0861 8.42472C13.1976 8.42472 12.6383 7.86222 12.5616 6.80114H16.1188V6.48153C16.1188 4.65341 15.0321 4.02699 14.0094 4.02699C12.6799 4.02699 11.7978 5.07528 11.7978 6.58381C11.7978 8.09233 12.6671 9.10227 14.0861 9.10227ZM14.0094 4.70455C14.8276 4.70455 15.3517 5.31818 15.3517 6.14915H12.5776C12.699 5.22869 13.2552 4.70455 14.0094 4.70455ZM22.8852 4.19318C22.7318 4.10369 22.4889 4.0142 22.2332 4.0142C21.6579 4.0142 21.121 4.46165 20.9804 4.93466H20.9293V4.09091H20.175V9H20.9293V6.22585C20.942 5.56108 21.4023 4.79403 22.2077 4.79403C22.425 4.79403 22.5528 4.85795 22.6295 4.89631L22.8852 4.19318ZM25.6915 9.10227C26.6887 9.10227 27.4174 8.60369 27.6475 7.86222L26.9188 7.65767C26.7271 8.16903 26.2924 8.42472 25.6915 8.42472C24.8031 8.42472 24.2437 7.86222 24.167 6.80114H27.7242V6.48153C27.7242 4.65341 26.6376 4.02699 25.6148 4.02699C24.2853 4.02699 23.4032 5.07528 23.4032 6.58381C23.4032 8.09233 24.2725 9.10227 25.6915 9.10227ZM25.6148 4.70455C26.433 4.70455 26.9572 5.31818 26.9572 6.14915H24.183C24.3045 5.22869 24.8606 4.70455 25.6148 4.70455ZM32.457 5.19034C32.2013 4.47443 31.6516 4.02699 30.7439 4.02699C29.7084 4.02699 28.9413 4.61506 28.9413 5.44602C28.9413 6.04688 29.3376 6.58381 30.2325 6.81392L31.0507 7.01847C31.5365 7.13352 31.7538 7.35085 31.7538 7.67045C31.7538 8.07955 31.3447 8.45028 30.6416 8.45028C29.9129 8.45028 29.5677 8.05398 29.3888 7.60653L28.6984 7.86222C28.9413 8.47585 29.4783 9.10227 30.6544 9.10227C31.8689 9.10227 32.5209 8.39915 32.5209 7.64489C32.5209 7.08239 32.1501 6.57102 31.2552 6.35369L30.5266 6.17472C29.9641 6.03409 29.6956 5.74006 29.6956 5.40767C29.6956 4.9858 30.143 4.66619 30.7439 4.66619C31.4981 4.66619 31.6899 5.16477 31.7794 5.3821L32.457 5.19034ZM37.0099 7.05682C37.0099 7.97727 36.3068 8.33523 35.7443 8.33523C35.1179 8.33523 34.6704 7.92614 34.6704 7.21023V4.09091H33.9162V7.21023C33.9162 8.50142 34.7855 9.06392 35.5014 9.06392C36.2429 9.06392 36.7159 8.6804 36.9588 8.30966H37.0099V9H37.7642V4.09091H37.0099V7.05682ZM40.0799 2.45455H39.3257V9H40.0799V2.45455ZM43.6996 4.09091H42.6513V3.04261H41.8971V4.09091H41.1556V4.79403H41.8971V7.7983C41.8971 8.65483 42.5874 9.06392 43.2266 9.06392C43.5079 9.06392 43.6868 9.01278 43.7891 8.97443L43.6357 8.29688C43.5718 8.30966 43.4695 8.33523 43.3033 8.33523C42.9709 8.33523 42.6513 8.23295 42.6513 7.59375V4.79403H43.6996V4.09091ZM49.7262 9.10227C51.0557 9.10227 51.9506 8.09233 51.9506 6.57102C51.9506 5.03693 51.0557 4.02699 49.7262 4.02699C48.3966 4.02699 47.5018 5.03693 47.5018 6.57102C47.5018 8.09233 48.3966 9.10227 49.7262 9.10227ZM49.7262 8.42472C48.7162 8.42472 48.256 7.5554 48.256 6.57102C48.256 5.58665 48.7162 4.70455 49.7262 4.70455C50.7361 4.70455 51.1964 5.58665 51.1964 6.57102C51.1964 7.5554 50.7361 8.42472 49.7262 8.42472ZM53.6144 9H54.3686V4.79403H55.4681V4.09091H54.3686V3.80966C54.3686 3.32386 54.5732 3.06818 55.0718 3.06818C55.2891 3.06818 55.4169 3.11932 55.4936 3.14489L55.711 2.4929C55.5959 2.44176 55.3658 2.36506 54.995 2.36506C54.2919 2.36506 53.6144 2.78693 53.6144 3.63068V4.09091H52.8218V4.79403H53.6144V9ZM61.4571 4.09091H60.4088V3.04261H59.6545V4.09091H58.913V4.79403H59.6545V7.7983C59.6545 8.65483 60.3448 9.06392 60.984 9.06392C61.2653 9.06392 61.4443 9.01278 61.5465 8.97443L61.3931 8.29688C61.3292 8.30966 61.2269 8.33523 61.0607 8.33523C60.7284 8.33523 60.4088 8.23295 60.4088 7.59375V4.79403H61.4571V4.09091ZM63.5323 6.03409C63.5323 5.11364 64.1971 4.75568 64.7979 4.75568C65.4499 4.75568 65.8718 5.16477 65.8718 5.88068V9H66.626V5.88068C66.626 4.66619 65.9613 4.02699 65.0408 4.02699C64.2993 4.02699 63.8263 4.41051 63.5834 4.78125H63.5323V2.45455H62.778V9H63.5323V6.03409ZM70.2194 9.10227C71.2166 9.10227 71.9452 8.60369 72.1754 7.86222L71.4467 7.65767C71.2549 8.16903 70.8202 8.42472 70.2194 8.42472C69.3309 8.42472 68.7716 7.86222 68.6949 6.80114H72.2521V6.48153C72.2521 4.65341 71.1654 4.02699 70.1427 4.02699C68.8131 4.02699 67.931 5.07528 67.931 6.58381C67.931 8.09233 68.8004 9.10227 70.2194 9.10227ZM70.1427 4.70455C70.9609 4.70455 71.485 5.31818 71.485 6.14915H68.7109C68.8323 5.22869 69.3884 4.70455 70.1427 4.70455ZM79.8495 5.91903C79.8495 5.22869 80.233 4.75568 80.8978 4.75568C81.3068 4.75568 81.8566 4.99858 81.8566 5.76562V9H82.6108V5.79119C82.6108 4.58949 81.9461 4.02699 81.1279 4.02699C80.412 4.02699 79.8495 4.5 79.7088 4.90909H79.6577C79.4404 4.4233 79.0057 4.02699 78.3921 4.02699C77.7657 4.02699 77.2543 4.5 77.1137 4.92188H77.0625V4.09091H76.3083V9H77.0625V6.07244C77.0625 5.26705 77.6122 4.75568 78.1875 4.75568C78.7372 4.75568 79.0824 5.04972 79.0824 5.79119V9H79.8495V5.91903ZM87.2637 7.05682C87.2637 7.97727 86.5605 8.33523 85.998 8.33523C85.3716 8.33523 84.9242 7.92614 84.9242 7.21023V4.09091H84.1699V7.21023C84.1699 8.50142 85.0392 9.06392 85.7551 9.06392C86.4966 9.06392 86.9696 8.6804 87.2125 8.30966H87.2637V9H88.0179V4.09091H87.2637V7.05682ZM90.3337 2.45455H89.5794V9H90.3337V2.45455ZM93.9534 4.09091H92.9051V3.04261H92.1508V4.09091H91.4093V4.79403H92.1508V7.7983C92.1508 8.65483 92.8412 9.06392 93.4804 9.06392C93.7616 9.06392 93.9406 9.01278 94.0429 8.97443L93.8895 8.29688C93.8255 8.30966 93.7233 8.33523 93.5571 8.33523C93.2247 8.33523 92.9051 8.23295 92.9051 7.59375V4.79403H93.9534V4.09091ZM95.6451 3.38778C95.9775 3.38778 96.182 3.15767 96.182 2.87642C96.182 2.62074 95.9775 2.36506 95.6451 2.36506C95.3127 2.36506 95.1082 2.62074 95.1082 2.87642C95.1082 3.15767 95.3127 3.38778 95.6451 3.38778ZM96.0286 4.09091H95.2744V9H96.0286V4.09091ZM97.5901 10.8409H98.3444V8.24574H98.4083C98.5745 8.5142 98.8941 9.10227 99.8401 9.10227C101.067 9.10227 101.924 8.1179 101.924 6.55824C101.924 5.01136 101.067 4.02699 99.8273 4.02699C98.8685 4.02699 98.5745 4.61506 98.4083 4.87074H98.3188V4.09091H97.5901V10.8409ZM101.17 6.54545C101.17 7.59375 100.684 8.42472 99.7378 8.42472C98.8302 8.42472 98.3316 7.65767 98.3316 6.54545C98.3316 5.44602 98.8174 4.70455 99.7378 4.70455C100.697 4.70455 101.17 5.50994 101.17 6.54545ZM104.009 2.45455H103.254V9H104.009V2.45455ZM105.941 3.38778C106.273 3.38778 106.478 3.15767 106.478 2.87642C106.478 2.62074 106.273 2.36506 105.941 2.36506C105.609 2.36506 105.404 2.62074 105.404 2.87642C105.404 3.15767 105.609 3.38778 105.941 3.38778ZM106.324 4.09091H105.57V9H106.324V4.09091ZM111.811 5.56108C111.683 4.64062 110.903 4.02699 109.868 4.02699C108.538 4.02699 107.656 5.07528 107.656 6.54545C107.656 8.05398 108.512 9.10227 109.88 9.10227C110.967 9.10227 111.683 8.4375 111.811 7.56818H111.056C110.916 8.10511 110.468 8.42472 109.88 8.42472C108.985 8.42472 108.41 7.68324 108.41 6.54545C108.41 5.43324 108.998 4.70455 109.88 4.70455C110.545 4.70455 110.941 5.11364 111.056 5.56108H111.811ZM116.034 9H116.788V5.76562C116.788 4.20597 115.599 4.02699 114.973 4.02699C114.231 4.02699 113.387 4.28267 113.004 5.17756L113.72 5.43324C113.886 5.07528 114.282 4.69176 115.011 4.69176C115.599 4.69176 116.034 4.94744 116.034 5.76562V5.77841C116.034 6.09801 115.446 6.07244 114.768 6.16193C113.848 6.27699 112.863 6.49432 112.863 7.60653C112.863 8.56534 113.605 9.11506 114.538 9.11506C115.394 9.11506 115.842 8.65483 115.995 8.33523H116.034V9ZM116.034 7.22301C116.034 7.83665 115.548 8.4375 114.653 8.4375C114.052 8.4375 113.617 8.16903 113.617 7.64489C113.617 7.0696 114.142 6.89062 114.73 6.81392C115.049 6.77557 115.906 6.68608 116.034 6.53267V7.22301ZM120.35 4.09091H119.302V3.04261H118.548V4.09091H117.806V4.79403H118.548V7.7983C118.548 8.65483 119.238 9.06392 119.877 9.06392C120.158 9.06392 120.337 9.01278 120.44 8.97443L120.286 8.29688C120.222 8.30966 120.12 8.33523 119.954 8.33523C119.621 8.33523 119.302 8.23295 119.302 7.59375V4.79403H120.35V4.09091ZM122.042 3.38778C122.374 3.38778 122.579 3.15767 122.579 2.87642C122.579 2.62074 122.374 2.36506 122.042 2.36506C121.709 2.36506 121.505 2.62074 121.505 2.87642C121.505 3.15767 121.709 3.38778 122.042 3.38778ZM122.425 4.09091H121.671V9H122.425V4.09091ZM125.981 9.10227C127.311 9.10227 128.206 8.09233 128.206 6.57102C128.206 5.03693 127.311 4.02699 125.981 4.02699C124.652 4.02699 123.757 5.03693 123.757 6.57102C123.757 8.09233 124.652 9.10227 125.981 9.10227ZM125.981 8.42472C124.971 8.42472 124.511 7.5554 124.511 6.57102C124.511 5.58665 124.971 4.70455 125.981 4.70455C126.991 4.70455 127.451 5.58665 127.451 6.57102C127.451 7.5554 126.991 8.42472 125.981 8.42472ZM130.291 6.09801C130.291 5.17756 130.994 4.75568 131.557 4.75568C132.183 4.75568 132.631 5.21591 132.631 5.93182V9H133.385V5.88068C133.385 4.62784 132.72 4.02699 131.8 4.02699C131.058 4.02699 130.572 4.4233 130.342 4.92188H130.291V4.09091H129.537V9H130.291V6.09801ZM138.412 6.03409C138.412 5.11364 139.077 4.75568 139.678 4.75568C140.33 4.75568 140.751 5.16477 140.751 5.88068V9H141.506V5.88068C141.506 4.66619 140.841 4.02699 139.92 4.02699C139.179 4.02699 138.706 4.41051 138.463 4.78125H138.412V2.45455H137.658V9H138.412V6.03409ZM146.008 9H146.762V5.76562C146.762 4.20597 145.573 4.02699 144.946 4.02699C144.205 4.02699 143.361 4.28267 142.978 5.17756L143.694 5.43324C143.86 5.07528 144.256 4.69176 144.985 4.69176C145.573 4.69176 146.008 4.94744 146.008 5.76562V5.77841C146.008 6.09801 145.419 6.07244 144.742 6.16193C143.821 6.27699 142.837 6.49432 142.837 7.60653C142.837 8.56534 143.579 9.11506 144.512 9.11506C145.368 9.11506 145.816 8.65483 145.969 8.33523H146.008V9ZM146.008 7.22301C146.008 7.83665 145.522 8.4375 144.627 8.4375C144.026 8.4375 143.591 8.16903 143.591 7.64489C143.591 7.0696 144.115 6.89062 144.704 6.81392C145.023 6.77557 145.88 6.68608 146.008 6.53267V7.22301ZM151.706 5.19034C151.451 4.47443 150.901 4.02699 149.993 4.02699C148.958 4.02699 148.191 4.61506 148.191 5.44602C148.191 6.04688 148.587 6.58381 149.482 6.81392L150.3 7.01847C150.786 7.13352 151.003 7.35085 151.003 7.67045C151.003 8.07955 150.594 8.45028 149.891 8.45028C149.162 8.45028 148.817 8.05398 148.638 7.60653L147.948 7.86222C148.191 8.47585 148.728 9.10227 149.904 9.10227C151.118 9.10227 151.77 8.39915 151.77 7.64489C151.77 7.08239 151.399 6.57102 150.505 6.35369L149.776 6.17472C149.213 6.03409 148.945 5.74006 148.945 5.40767C148.945 4.9858 149.392 4.66619 149.993 4.66619C150.747 4.66619 150.939 5.16477 151.029 5.3821L151.706 5.19034ZM155.877 2.45455V9H156.605V8.24574H156.695C156.861 8.5142 157.181 9.10227 158.127 9.10227C159.354 9.10227 160.211 8.1179 160.211 6.55824C160.211 5.01136 159.354 4.02699 158.114 4.02699C157.155 4.02699 156.861 4.61506 156.695 4.87074H156.631V2.45455H155.877ZM159.456 6.54545C159.456 7.59375 158.97 8.42472 158.024 8.42472C157.117 8.42472 156.618 7.65767 156.618 6.54545C156.618 5.44602 157.104 4.70455 158.024 4.70455C158.983 4.70455 159.456 5.50994 159.456 6.54545ZM163.599 9.10227C164.596 9.10227 165.325 8.60369 165.555 7.86222L164.827 7.65767C164.635 8.16903 164.2 8.42472 163.599 8.42472C162.711 8.42472 162.152 7.86222 162.075 6.80114H165.632V6.48153C165.632 4.65341 164.545 4.02699 163.523 4.02699C162.193 4.02699 161.311 5.07528 161.311 6.58381C161.311 8.09233 162.18 9.10227 163.599 9.10227ZM163.523 4.70455C164.341 4.70455 164.865 5.31818 164.865 6.14915H162.091C162.212 5.22869 162.768 4.70455 163.523 4.70455ZM169.035 9.10227C170.032 9.10227 170.761 8.60369 170.991 7.86222L170.262 7.65767C170.071 8.16903 169.636 8.42472 169.035 8.42472C168.147 8.42472 167.587 7.86222 167.511 6.80114H171.068V6.48153C171.068 4.65341 169.981 4.02699 168.958 4.02699C167.629 4.02699 166.747 5.07528 166.747 6.58381C166.747 8.09233 167.616 9.10227 169.035 9.10227ZM168.958 4.70455C169.777 4.70455 170.301 5.31818 170.301 6.14915H167.527C167.648 5.22869 168.204 4.70455 168.958 4.70455ZM173.167 6.09801C173.167 5.17756 173.87 4.75568 174.433 4.75568C175.059 4.75568 175.507 5.21591 175.507 5.93182V9H176.261V5.88068C176.261 4.62784 175.596 4.02699 174.676 4.02699C173.934 4.02699 173.448 4.4233 173.218 4.92188H173.167V4.09091H172.413V9H173.167V6.09801ZM183.921 5.19034C183.666 4.47443 183.116 4.02699 182.208 4.02699C181.173 4.02699 180.406 4.61506 180.406 5.44602C180.406 6.04688 180.802 6.58381 181.697 6.81392L182.515 7.01847C183.001 7.13352 183.218 7.35085 183.218 7.67045C183.218 8.07955 182.809 8.45028 182.106 8.45028C181.377 8.45028 181.032 8.05398 180.853 7.60653L180.163 7.86222C180.406 8.47585 180.943 9.10227 182.119 9.10227C183.333 9.10227 183.985 8.39915 183.985 7.64489C183.985 7.08239 183.615 6.57102 182.72 6.35369L181.991 6.17472C181.428 6.03409 181.16 5.74006 181.16 5.40767C181.16 4.9858 181.607 4.66619 182.208 4.66619C182.963 4.66619 183.154 5.16477 183.244 5.3821L183.921 5.19034ZM187.395 4.09091H186.347V3.04261H185.592V4.09091H184.851V4.79403H185.592V7.7983C185.592 8.65483 186.283 9.06392 186.922 9.06392C187.203 9.06392 187.382 9.01278 187.484 8.97443L187.331 8.29688C187.267 8.30966 187.165 8.33523 186.999 8.33523C186.666 8.33523 186.347 8.23295 186.347 7.59375V4.79403H187.395V4.09091ZM190.649 9.10227C191.978 9.10227 192.873 8.09233 192.873 6.57102C192.873 5.03693 191.978 4.02699 190.649 4.02699C189.319 4.02699 188.424 5.03693 188.424 6.57102C188.424 8.09233 189.319 9.10227 190.649 9.10227ZM190.649 8.42472C189.639 8.42472 189.178 7.5554 189.178 6.57102C189.178 5.58665 189.639 4.70455 190.649 4.70455C191.659 4.70455 192.119 5.58665 192.119 6.57102C192.119 7.5554 191.659 8.42472 190.649 8.42472ZM196.915 4.19318C196.761 4.10369 196.518 4.0142 196.263 4.0142C195.687 4.0142 195.15 4.46165 195.01 4.93466H194.959V4.09091H194.204V9H194.959V6.22585C194.971 5.56108 195.432 4.79403 196.237 4.79403C196.454 4.79403 196.582 4.85795 196.659 4.89631L196.915 4.19318ZM199.721 9.10227C200.718 9.10227 201.447 8.60369 201.677 7.86222L200.948 7.65767C200.756 8.16903 200.322 8.42472 199.721 8.42472C198.832 8.42472 198.273 7.86222 198.196 6.80114H201.754V6.48153C201.754 4.65341 200.667 4.02699 199.644 4.02699C198.315 4.02699 197.433 5.07528 197.433 6.58381C197.433 8.09233 198.302 9.10227 199.721 9.10227ZM199.644 4.70455C200.462 4.70455 200.987 5.31818 200.987 6.14915H198.212C198.334 5.22869 198.89 4.70455 199.644 4.70455ZM207.202 9V2.45455H206.448V4.87074H206.397C206.231 4.61506 205.924 4.02699 204.965 4.02699C203.725 4.02699 202.868 5.01136 202.868 6.55824C202.868 8.1179 203.725 9.10227 204.952 9.10227C205.898 9.10227 206.231 8.5142 206.397 8.24574H206.474V9H207.202ZM203.623 6.54545C203.623 5.50994 204.096 4.70455 205.055 4.70455C205.975 4.70455 206.461 5.44602 206.461 6.54545C206.461 7.65767 205.962 8.42472 205.055 8.42472C204.109 8.42472 203.623 7.59375 203.623 6.54545ZM214.415 9H215.169V5.76562C215.169 4.20597 213.98 4.02699 213.353 4.02699C212.612 4.02699 211.768 4.28267 211.385 5.17756L212.101 5.43324C212.267 5.07528 212.663 4.69176 213.392 4.69176C213.98 4.69176 214.415 4.94744 214.415 5.76562V5.77841C214.415 6.09801 213.826 6.07244 213.149 6.16193C212.228 6.27699 211.244 6.49432 211.244 7.60653C211.244 8.56534 211.986 9.11506 212.919 9.11506C213.775 9.11506 214.223 8.65483 214.376 8.33523H214.415V9ZM214.415 7.22301C214.415 7.83665 213.929 8.4375 213.034 8.4375C212.433 8.4375 211.998 8.16903 211.998 7.64489C211.998 7.0696 212.522 6.89062 213.111 6.81392C213.43 6.77557 214.287 6.68608 214.415 6.53267V7.22301ZM218.731 4.09091H217.683V3.04261H216.928V4.09091H216.187V4.79403H216.928V7.7983C216.928 8.65483 217.619 9.06392 218.258 9.06392C218.539 9.06392 218.718 9.01278 218.82 8.97443L218.667 8.29688C218.603 8.30966 218.501 8.33523 218.335 8.33523C218.002 8.33523 217.683 8.23295 217.683 7.59375V4.79403H218.731V4.09091ZM224.847 2.45455H224.182C224.106 2.53125 223.684 3.42614 222.661 3.42614V4.09091C223.415 4.09091 223.952 3.78409 224.042 3.60511H224.093V9H224.847V2.45455ZM230.152 4.09091H230.906C230.676 2.96591 230.037 2.35227 229.001 2.35227C227.506 2.35227 226.802 3.63068 226.802 5.65057V5.8679C226.802 7.96449 227.506 9.08949 228.937 9.08949C230.292 9.08949 231.008 8.07955 231.008 6.98011C231.008 5.89347 230.292 4.88352 229.04 4.88352C228.528 4.88352 227.972 5.05291 227.585 5.47798C227.63 3.50923 228.333 3.06818 229.014 3.06818C229.781 3.06818 229.998 3.63068 230.152 4.09091ZM229.027 5.58665C229.922 5.58665 230.254 6.25142 230.254 6.98011C230.254 7.86222 229.756 8.39915 229.001 8.39915C228.292 8.39915 227.659 7.92294 227.646 6.94496C227.659 6.12678 228.218 5.58665 229.027 5.58665ZM234.475 9.61364C233.72 8.30966 233.401 7.09517 233.401 5.72727C233.401 4.30824 233.72 3.14489 234.487 1.84091H233.784C233.081 2.78693 232.621 4.21875 232.621 5.72727C232.621 7.2358 233.081 8.66761 233.72 9.61364H234.475ZM239.317 4.14205H240.084C240.02 3.10653 239.138 2.36506 237.872 2.36506C236.619 2.36506 235.635 3.09375 235.635 4.19318C235.635 5.07528 236.274 5.59943 237.297 5.89347L238.102 6.12358C238.985 6.37926 239.406 6.62216 239.406 7.21023C239.406 7.92614 238.716 8.39915 237.808 8.39915C237.029 8.39915 236.338 8.05398 236.274 7.3125H235.456C235.533 8.38636 236.402 9.11506 237.808 9.11506C239.317 9.11506 240.173 8.28409 240.173 7.21023C240.173 6.30256 239.573 5.75284 238.333 5.42045L237.668 5.24148C236.798 5.01136 236.402 4.69176 236.402 4.16761C236.402 3.52841 236.977 3.06818 237.847 3.06818C238.639 3.06818 239.202 3.43892 239.317 4.14205ZM243.855 6.63494C245.376 6.63494 246.041 5.7017 246.041 4.52557C246.041 3.34943 245.376 2.45455 243.842 2.45455H241.656V9H242.448V6.63494H243.855ZM242.448 3.15767H243.842C244.903 3.15767 245.261 3.72017 245.261 4.52557C245.261 5.33097 244.903 5.93182 243.855 5.93182H242.448V3.15767ZM247.016 9.61364H247.77C248.409 8.66761 248.869 7.2358 248.869 5.72727C248.869 4.21875 248.409 2.78693 247.706 1.84091H247.003C247.77 3.14489 248.09 4.30824 248.09 5.72727C248.09 7.09517 247.77 8.30966 247.016 9.61364Z" transform="translate(62 210)" fill="black"/>
<rect width="70" height="21" fill="#DEF6E9" transform="translate(575 49)"/>
<path d="M5.24432 15H6.33381V10.3281C6.33381 8.07528 4.61648 7.81676 3.71165 7.81676C2.64062 7.81676 1.42188 8.18608 0.867898 9.47869L1.90199 9.84801C2.14205 9.33097 2.71449 8.77699 3.76705 8.77699C4.61648 8.77699 5.24432 9.14631 5.24432 10.3281V10.3466C5.24432 10.8082 4.39489 10.7713 3.41619 10.9006C2.08665 11.0668 0.664773 11.3807 0.664773 12.9872C0.664773 14.3722 1.7358 15.1662 3.08381 15.1662C4.32102 15.1662 4.96733 14.5014 5.18892 14.0398H5.24432V15ZM5.24432 12.4332C5.24432 13.3196 4.54261 14.1875 3.25 14.1875C2.3821 14.1875 1.75426 13.7997 1.75426 13.0426C1.75426 12.2116 2.51136 11.9531 3.3608 11.8423C3.82244 11.7869 5.05966 11.6577 5.24432 11.4361V12.4332ZM14.4718 15V5.54545H13.3823V9.03551H13.3085C13.0684 8.66619 12.6252 7.81676 11.2403 7.81676C9.4491 7.81676 8.21188 9.23864 8.21188 11.473C8.21188 13.7259 9.4491 15.1477 11.2218 15.1477C12.5883 15.1477 13.0684 14.2983 13.3085 13.9105H13.4193V15H14.4718ZM9.30137 11.4545C9.30137 9.95881 9.98461 8.79545 11.3696 8.79545C12.6991 8.79545 13.4008 9.86648 13.4008 11.4545C13.4008 13.0611 12.6806 14.169 11.3696 14.169C10.0031 14.169 9.30137 12.9688 9.30137 11.4545ZM22.6537 15V5.54545H21.5642V9.03551H21.4903C21.2503 8.66619 20.8071 7.81676 19.4222 7.81676C17.631 7.81676 16.3938 9.23864 16.3938 11.473C16.3938 13.7259 17.631 15.1477 19.4037 15.1477C20.7702 15.1477 21.2503 14.2983 21.4903 13.9105H21.6011V15H22.6537ZM17.4832 11.4545C17.4832 9.95881 18.1665 8.79545 19.5514 8.79545C20.881 8.79545 21.5827 9.86648 21.5827 11.4545C21.5827 13.0611 20.8625 14.169 19.5514 14.169C18.185 14.169 17.4832 12.9688 17.4832 11.4545Z" transform="translate(579 49)" fill="black"/>
<rect width="70" height="21" fill="#F5E7ED" transform="translate(575 72)"/>
<path d="M3.97017 7.90909H2.45597V6.39489H1.36648V7.90909H0.295455V8.92472H1.36648V13.2642C1.36648 14.5014 2.36364 15.0923 3.28693 15.0923C3.69318 15.0923 3.9517 15.0185 4.09943 14.9631L3.87784 13.9844C3.78551 14.0028 3.63778 14.0398 3.39773 14.0398C2.91761 14.0398 2.45597 13.892 2.45597 12.9688V8.92472H3.97017V7.90909ZM15.0004 7.90909H13.8555L12.3229 13.3196H12.249L10.7533 7.90909H9.5899L8.0757 13.3381H8.00183L6.46916 7.90909H5.32428L7.48479 15H8.55581L10.1069 9.55256H10.2177L11.7689 15H12.8399L15.0004 7.90909ZM17.2363 6.89347C17.7164 6.89347 18.0118 6.56108 18.0118 6.15483C18.0118 5.78551 17.7164 5.41619 17.2363 5.41619C16.7562 5.41619 16.4607 5.78551 16.4607 6.15483C16.4607 6.56108 16.7562 6.89347 17.2363 6.89347ZM17.7902 7.90909H16.7008V15H17.7902V7.90909ZM25.7147 10.0327C25.5301 8.70312 24.4037 7.81676 22.9079 7.81676C20.9875 7.81676 19.7133 9.33097 19.7133 11.4545C19.7133 13.6335 20.9505 15.1477 22.9264 15.1477C24.496 15.1477 25.5301 14.1875 25.7147 12.9318H24.6253C24.4221 13.7074 23.7758 14.169 22.9264 14.169C21.6338 14.169 20.8028 13.098 20.8028 11.4545C20.8028 9.84801 21.6522 8.79545 22.9264 8.79545C23.8866 8.79545 24.4591 9.38636 24.6253 10.0327H25.7147ZM30.5531 15.1477C31.9935 15.1477 33.046 14.4276 33.3784 13.3565L32.3259 13.0611C32.0489 13.7997 31.421 14.169 30.5531 14.169C29.2698 14.169 28.4619 13.3565 28.3511 11.8239H33.4892V11.3622C33.4892 8.72159 31.9196 7.81676 30.4423 7.81676C28.5219 7.81676 27.2477 9.33097 27.2477 11.5099C27.2477 13.6889 28.5034 15.1477 30.5531 15.1477ZM30.4423 8.79545C31.6242 8.79545 32.3813 9.68182 32.3813 10.8821H28.3742C28.5496 9.55256 29.3529 8.79545 30.4423 8.79545Z" transform="translate(579 72)" fill="black"/>
<path d="M6.0522 6.10298H7.45561C7.3956 4.5103 6.0799 3.41619 4.18715 3.41619C2.30362 3.41619 0.867898 4.47337 0.867898 6.06143C0.867898 7.37713 1.86506 8.1804 3.37464 8.62358L4.22408 8.86825C5.55824 9.26989 6.13068 9.63459 6.13068 10.3963C6.13068 11.2596 5.31818 11.8828 4.10405 11.8828C3.01918 11.8828 2.14205 11.3842 2.06818 10.3594H0.600142C0.678622 12.1321 2.12358 13.1523 4.10405 13.1523C6.24148 13.1523 7.54332 12.0213 7.54332 10.3917C7.54332 9.01136 6.62003 8.22195 4.83345 7.69567L4.09943 7.48331C2.91761 7.13707 2.28516 6.74929 2.28516 6.04297C2.28516 5.24432 3.04226 4.68111 4.15945 4.68111C5.23509 4.68111 5.92756 5.1843 6.0522 6.10298ZM12.8203 9.6392C15.0731 9.6392 16.0472 8.34197 16.0472 6.57848C16.0472 4.82422 15.087 3.54545 12.8064 3.54545H9.4918V13H10.9552V9.6392H12.8203ZM10.9552 4.80114H12.8064C14.1452 4.80114 14.6022 5.54901 14.6022 6.57848C14.6022 7.60795 14.1452 8.38352 12.8203 8.38352H10.9552V4.80114ZM6.24609 28.6357H2.45597V25.8011H6.86932V24.5455H0.992543V34H2.45597V29.896H6.24609V28.6357ZM12.2109 30.6392C14.4637 30.6392 15.4378 29.342 15.4378 27.5785C15.4378 25.8242 14.4776 24.5455 12.1971 24.5455H8.88243V34H10.3458V30.6392H12.2109ZM10.3458 25.8011H12.1971C13.5358 25.8011 13.9929 26.549 13.9929 27.5785C13.9929 28.608 13.5358 29.3835 12.2109 29.3835H10.3458V25.8011ZM6.24609 56H7.89879L5.89524 52.0945C6.92472 51.6374 7.54794 50.7695 7.54794 49.4631C7.54794 47.8058 6.55078 46.5455 4.30256 46.5455H0.992543V56H2.45597V52.3899H4.4272L6.24609 56ZM2.45597 47.8011H4.30256C5.69212 47.8011 6.10298 48.6183 6.10298 49.4815C6.10298 50.4602 5.58594 51.1112 4.21484 51.1112H2.45597V47.8011ZM12.7083 46.5455H11.4388C11.3649 46.6424 10.8941 48.0089 9.32445 48.0089V49.2045C10.3862 49.2045 11.1156 48.8306 11.2726 48.5398H11.3465V56H12.7083V46.5455ZM6.24609 78H7.89879L5.89524 74.0945C6.92472 73.6374 7.54794 72.7695 7.54794 71.4631C7.54794 69.8058 6.55078 68.5455 4.30256 68.5455H0.992543V78H2.45597V74.3899H4.4272L6.24609 78ZM2.45597 69.8011H4.30256C5.69212 69.8011 6.10298 70.6183 6.10298 71.4815C6.10298 72.4602 5.58594 73.1112 4.21484 73.1112H2.45597V69.8011ZM15.5659 76.7443H11.2726V76.6889L13.387 74.5192C14.4718 73.4066 15.3166 72.294 15.3166 71.1353C15.3166 69.5472 14.1025 68.4162 12.3482 68.4162C10.3216 68.4162 9.366 69.9304 9.366 71.5277H10.7879C10.7879 70.5167 11.208 69.5934 12.3113 69.5934C13.3085 69.5934 13.9132 70.3366 13.9132 71.1861C13.9132 71.9062 13.4608 72.5479 12.4036 73.6328L9.16288 76.9382V78H15.5659V76.7443Z" transform="translate(702 27)" fill="black"/>
<path d="M7.03551 7.73722C7.03551 4.96733 5.94602 3.41619 3.89631 3.41619C1.82812 3.41619 0.72017 4.96733 0.72017 7.73722V8.64205C0.72017 11.4304 1.84659 13.1293 3.91477 13.1293C5.96449 13.1293 7.03551 11.4304 7.03551 8.64205V7.73722ZM5.89062 8.84517C5.89062 10.6179 5.26278 12.1136 3.91477 12.1136C2.5483 12.1136 1.86506 10.6179 1.86506 8.84517V7.53409C1.86506 5.7429 2.52983 4.43182 3.89631 4.43182C5.24432 4.43182 5.89062 5.7429 5.89062 7.53409V8.84517ZM10.0895 5.90909H8.83386L11.0867 9.45455L8.83386 13H10.0895L11.7884 10.2486L13.4873 13H14.743L12.4532 9.45455L14.743 5.90909H13.4873L11.7884 8.80824L10.0895 5.90909ZM22.1549 7.75568H18.2402V4.56108H22.7643V3.54545H17.0953V13H18.2402V8.77131H22.1549V7.75568ZM30.4348 7.75568H26.52V4.56108H31.0442V3.54545H25.3752V13H26.52V8.77131H30.4348V7.75568ZM37.0712 13C39.3056 13 40.2289 11.9105 40.2289 10.4886C40.2289 8.9929 39.1948 8.1804 38.3269 8.125V8.03729C39.1348 7.82031 39.8596 7.2848 39.8596 6.05682C39.8596 4.67188 38.9363 3.54545 36.9604 3.54545H33.655V13H37.0712ZM34.7999 4.56108H36.9604C38.2161 4.56108 38.7701 5.22585 38.7701 6.05682C38.7701 7.05398 37.9576 7.70028 36.9235 7.70028H34.7999V4.56108ZM39.1394 10.4886C39.1394 11.3196 38.567 11.9844 37.0712 11.9844H34.7999V8.69744H37.1266C38.3638 8.69744 39.1394 9.52841 39.1394 10.4886ZM48.4476 3.54545H42.5385V4.61648H47.3397L43.4249 13H44.6806L48.4476 4.72727V3.54545ZM7.03551 28.7372C7.03551 25.9673 5.94602 24.4162 3.89631 24.4162C1.82812 24.4162 0.72017 25.9673 0.72017 28.7372V29.642C0.72017 32.4304 1.84659 34.1293 3.91477 34.1293C5.96449 34.1293 7.03551 32.4304 7.03551 29.642V28.7372ZM5.89062 29.8452C5.89062 31.6179 5.26278 33.1136 3.91477 33.1136C2.5483 33.1136 1.86506 31.6179 1.86506 29.8452V28.5341C1.86506 26.7429 2.52983 25.4318 3.89631 25.4318C5.24432 25.4318 5.89062 26.7429 5.89062 28.5341V29.8452ZM10.0895 26.9091H8.83386L11.0867 30.4545L8.83386 34H10.0895L11.7884 31.2486L13.4873 34H14.743L12.4532 30.4545L14.743 26.9091H13.4873L11.7884 29.8082L10.0895 26.9091ZM22.1549 28.7557H18.2402V25.5611H22.7643V24.5455H17.0953V34H18.2402V29.7713H22.1549V28.7557ZM30.4348 28.7557H26.52V25.5611H31.0442V24.5455H25.3752V34H26.52V29.7713H30.4348V28.7557ZM41.0472 27.5C40.6963 25.5611 39.1452 24.4162 37.2432 24.4162C34.8242 24.4162 33.0699 26.2812 33.0699 29.2727C33.0699 32.2642 34.8242 34.1293 37.2432 34.1293C39.1452 34.1293 40.6963 32.9844 41.0472 31.0455H39.9023C39.6253 32.3565 38.4989 33.0582 37.2432 33.0582C35.5259 33.0582 34.1779 31.7287 34.1779 29.2727C34.1779 26.8168 35.5259 25.4872 37.2432 25.4872C38.4989 25.4872 39.6253 26.1889 39.9023 27.5H41.0472ZM48.6069 28.7557H44.6921V25.5611H49.2163V24.5455H43.5472V34H44.6921V29.7713H48.6069V28.7557ZM7.23864 53.2116H5.94602V46.5455H4.74574L0.480114 53.5071V54.2273H4.9304V56H5.94602V54.2273H7.23864V53.2116ZM1.90199 53.2116L4.74574 48.4474L4.9304 47.8335V53.2116H1.90199ZM15.4423 50.7372C15.4423 47.9673 14.3529 46.4162 12.3031 46.4162C10.235 46.4162 9.12701 47.9673 9.12701 50.7372V51.642C9.12701 54.4304 10.2534 56.1293 12.3216 56.1293C14.3713 56.1293 15.4423 54.4304 15.4423 51.642V50.7372ZM14.2975 51.8452C14.2975 53.6179 13.6696 55.1136 12.3216 55.1136C10.9551 55.1136 10.2719 53.6179 10.2719 51.8452V50.5341C10.2719 48.7429 10.9367 47.4318 12.3031 47.4318C13.6512 47.4318 14.2975 48.7429 14.2975 50.5341V51.8452Z" transform="translate(735 27)" fill="black"/>
<path d="M4.0625 75.3409C4.0625 72.8665 6.37074 73.2173 6.37074 70.9091C6.37074 69.4688 5.42898 68.4162 3.80398 68.4162C2.30824 68.4162 1.14489 69.3395 1.14489 70.9091H2.30824C2.30824 69.8196 3.04688 69.3764 3.80398 69.3764C4.67188 69.3764 5.26278 69.9489 5.26278 70.8537C5.26278 72.6818 2.95455 72.331 2.95455 75.3409H4.0625ZM3.50852 78.1477C3.98864 78.1477 4.39489 77.7599 4.39489 77.2614C4.39489 76.7628 3.98864 76.3565 3.50852 76.3565C3.00994 76.3565 2.62216 76.7628 2.62216 77.2614C2.62216 77.7599 3.00994 78.1477 3.50852 78.1477Z" transform="translate(735 27)" fill="black" fill-opacity="0.3"/>
<path opacity="0.4" d="M6.48153 13H7.81108L5.7706 9.07138C6.8647 8.62358 7.47869 7.74183 7.47869 6.4446C7.47869 4.875 6.5554 3.54545 4.30256 3.54545H1.14489V13H2.28977V9.32528H4.60263L6.48153 13ZM2.28977 4.56108H4.30256C5.98295 4.56108 6.35227 5.55824 6.35227 6.4446C6.35227 7.49716 5.83523 8.27273 4.1733 8.27273H2.28977V4.56108ZM12.3171 13.1477C13.7574 13.1477 14.81 12.4276 15.1424 11.3565L14.0898 11.0611C13.8128 11.7997 13.185 12.169 12.3171 12.169C11.0337 12.169 10.2258 11.3565 10.115 9.82386H15.2532V9.36222C15.2532 6.72159 13.6836 5.81676 12.2063 5.81676C10.2858 5.81676 9.01169 7.33097 9.01169 9.50994C9.01169 11.6889 10.2674 13.1477 12.3171 13.1477ZM12.2063 6.79545C13.3881 6.79545 14.1452 7.68182 14.1452 8.8821H10.1381C10.3135 7.55256 11.1168 6.79545 12.2063 6.79545ZM22.0709 5.90909V7.03551H21.9601C21.72 6.66619 21.2768 5.81676 19.8919 5.81676C18.1007 5.81676 16.8635 7.23864 16.8635 9.41761C16.8635 11.6335 18.1561 12.8892 19.8734 12.8892C21.2584 12.8892 21.7016 12.0767 21.9416 11.6889H22.0339V12.9446C22.0524 14.1264 21.1106 14.6804 20.0212 14.6804C18.8024 14.6804 18.3038 13.9787 18.0268 13.6278L17.1589 14.2372C17.6021 14.9943 18.507 15.6591 20.0212 15.6591C21.6646 15.6591 23.1234 14.8835 23.1234 13.0554V5.90909H22.0709ZM17.953 9.39915C17.953 7.95881 18.6362 6.79545 20.0212 6.79545C21.3507 6.79545 22.0524 7.86648 22.0524 9.39915C22.0524 10.9688 21.3322 11.9105 20.0212 11.9105C18.6547 11.9105 17.953 10.8764 17.953 9.39915ZM25.9133 4.89347C26.3934 4.89347 26.6888 4.56108 26.6888 4.15483C26.6888 3.78551 26.3934 3.41619 25.9133 3.41619C25.4331 3.41619 25.1377 3.78551 25.1377 4.15483C25.1377 4.56108 25.4331 4.89347 25.9133 4.89347ZM26.4672 5.90909H25.3777V13H26.4672V5.90909ZM33.6162 7.49716C33.2469 6.46307 32.4528 5.81676 31.1417 5.81676C29.646 5.81676 28.538 6.66619 28.538 7.86648C28.538 8.73438 29.1105 9.50994 30.4031 9.84233L31.5849 10.1378C32.2866 10.304 32.6005 10.6179 32.6005 11.0795C32.6005 11.6705 32.0096 12.206 30.994 12.206C29.9415 12.206 29.4429 11.6335 29.1844 10.9872L28.1872 11.3565C28.538 12.2429 29.3136 13.1477 31.0125 13.1477C32.7667 13.1477 33.7085 12.1321 33.7085 11.0426C33.7085 10.2301 33.173 9.49148 31.8804 9.17756L30.8278 8.91903C30.0153 8.71591 29.6275 8.29119 29.6275 7.81108C29.6275 7.2017 30.2738 6.74006 31.1417 6.74006C32.2312 6.74006 32.5082 7.46023 32.6375 7.77415L33.6162 7.49716ZM38.6335 5.90909H37.1192V4.39489H36.0298V5.90909H34.9587V6.92472H36.0298V11.2642C36.0298 12.5014 37.0269 13.0923 37.9502 13.0923C38.3565 13.0923 38.615 13.0185 38.7627 12.9631L38.5411 11.9844C38.4488 12.0028 38.3011 12.0398 38.061 12.0398C37.5809 12.0398 37.1192 11.892 37.1192 10.9688V6.92472H38.6335V5.90909ZM43.4257 13.1477C44.866 13.1477 45.9186 12.4276 46.251 11.3565L45.1984 11.0611C44.9214 11.7997 44.2936 12.169 43.4257 12.169C42.1423 12.169 41.3344 11.3565 41.2236 9.82386H46.3618V9.36222C46.3618 6.72159 44.7922 5.81676 43.3149 5.81676C41.3944 5.81676 40.1203 7.33097 40.1203 9.50994C40.1203 11.6889 41.376 13.1477 43.4257 13.1477ZM43.3149 6.79545C44.4967 6.79545 45.2538 7.68182 45.2538 8.8821H41.2467C41.4221 7.55256 42.2254 6.79545 43.3149 6.79545ZM52.2192 6.05682C51.9976 5.92756 51.6468 5.79829 51.2775 5.79829C50.4465 5.79829 49.6709 6.4446 49.4678 7.12784H49.394V5.90909H48.3045V13H49.394V8.9929C49.4124 8.03267 50.0772 6.92472 51.2405 6.92472C51.5545 6.92472 51.7391 7.01705 51.8499 7.07244L52.2192 6.05682ZM63.3064 5.90909H62.1245L60.1671 11.5597H60.0933L58.1359 5.90909H56.9541L59.5762 13H60.6842L63.3064 5.90909ZM68.9976 13H70.0871V8.32812C70.0871 6.07528 68.3698 5.81676 67.465 5.81676C66.3939 5.81676 65.1752 6.18608 64.6212 7.47869L65.6553 7.84801C65.8954 7.33097 66.4678 6.77699 67.5204 6.77699C68.3698 6.77699 68.9976 7.14631 68.9976 8.32812V8.34659C68.9976 8.80824 68.1482 8.77131 67.1695 8.90057C65.84 9.06676 64.4181 9.38068 64.4181 10.9872C64.4181 12.3722 65.4891 13.1662 66.8371 13.1662C68.0743 13.1662 68.7207 12.5014 68.9422 12.0398H68.9976V13ZM68.9976 10.4332C68.9976 11.3196 68.2959 12.1875 67.0033 12.1875C66.1354 12.1875 65.5076 11.7997 65.5076 11.0426C65.5076 10.2116 66.2647 9.95312 67.1141 9.84233C67.5758 9.78693 68.813 9.65767 68.9976 9.43608V10.4332ZM73.4252 3.54545H72.3357V13H73.4252V3.54545ZM80.1494 10.1932C80.1494 11.5227 79.1338 12.0398 78.3213 12.0398C77.4164 12.0398 76.7701 11.4489 76.7701 10.4148V5.90909H75.6806V10.4148C75.6806 12.2798 76.9363 13.0923 77.9704 13.0923C79.0414 13.0923 79.7247 12.5384 80.0755 12.0028H80.1494V13H81.2389V5.90909H80.1494V10.1932ZM86.4674 13.1477C87.9077 13.1477 88.9603 12.4276 89.2926 11.3565L88.2401 11.0611C87.9631 11.7997 87.3353 12.169 86.4674 12.169C85.184 12.169 84.3761 11.3565 84.2653 9.82386H89.4034V9.36222C89.4034 6.72159 87.8338 5.81676 86.3566 5.81676C84.4361 5.81676 83.162 7.33097 83.162 9.50994C83.162 11.6889 84.4176 13.1477 86.4674 13.1477ZM86.3566 6.79545C87.5384 6.79545 88.2955 7.68182 88.2955 8.8821H84.2884C84.4638 7.55256 85.2671 6.79545 86.3566 6.79545ZM96.2396 7.49716C95.8703 6.46307 95.0763 5.81676 93.7652 5.81676C92.2694 5.81676 91.1615 6.66619 91.1615 7.86648C91.1615 8.73438 91.7339 9.50994 93.0265 9.84233L94.2084 10.1378C94.9101 10.304 95.224 10.6179 95.224 11.0795C95.224 11.6705 94.6331 12.206 93.6174 12.206C92.5649 12.206 92.0663 11.6335 91.8078 10.9872L90.8106 11.3565C91.1615 12.2429 91.9371 13.1477 93.6359 13.1477C95.3902 13.1477 96.3319 12.1321 96.3319 11.0426C96.3319 10.2301 95.7964 9.49148 94.5038 9.17756L93.4513 8.91903C92.6388 8.71591 92.251 8.29119 92.251 7.81108C92.251 7.2017 92.8973 6.74006 93.7652 6.74006C94.8547 6.74006 95.1317 7.46023 95.2609 7.77415L96.2396 7.49716Z" transform="translate(702 2)" fill="black"/>
<path opacity="0.4" d="M8.75284 6.5C8.40199 4.56108 6.85085 3.41619 4.94886 3.41619C2.52983 3.41619 0.775568 5.28125 0.775568 8.27273C0.775568 11.2642 2.52983 13.1293 4.94886 13.1293C6.85085 13.1293 8.40199 11.9844 8.75284 10.0455H7.60796C7.33097 11.3565 6.20455 12.0582 4.94886 12.0582C3.23153 12.0582 1.88352 10.7287 1.88352 8.27273C1.88352 5.81676 3.23153 4.48722 4.94886 4.48722C6.20455 4.48722 7.33097 5.18892 7.60796 6.5H8.75284ZM14.9623 13H16.0518V8.32812C16.0518 6.07528 14.3345 5.81676 13.4297 5.81676C12.3586 5.81676 11.1399 6.18608 10.5859 7.47869L11.62 7.84801C11.8601 7.33097 12.4325 6.77699 13.4851 6.77699C14.3345 6.77699 14.9623 7.14631 14.9623 8.32812V8.34659C14.9623 8.80824 14.1129 8.77131 13.1342 8.90057C11.8047 9.06676 10.3828 9.38068 10.3828 10.9872C10.3828 12.3722 11.4538 13.1662 12.8018 13.1662C14.039 13.1662 14.6853 12.5014 14.9069 12.0398H14.9623V13ZM14.9623 10.4332C14.9623 11.3196 14.2606 12.1875 12.968 12.1875C12.1001 12.1875 11.4723 11.7997 11.4723 11.0426C11.4723 10.2116 12.2294 9.95312 13.0788 9.84233C13.5405 9.78693 14.7777 9.65767 14.9623 9.43608V10.4332ZM19.3899 3.54545H18.3004V13H19.3899V3.54545ZM22.5825 3.54545H21.493V13H22.5825V3.54545ZM33.6477 7.49716C33.2783 6.46307 32.4843 5.81676 31.1732 5.81676C29.6775 5.81676 28.5695 6.66619 28.5695 7.86648C28.5695 8.73438 29.142 9.50994 30.4346 9.84233L31.6164 10.1378C32.3181 10.304 32.632 10.6179 32.632 11.0795C32.632 11.6705 32.0411 12.206 31.0255 12.206C29.9729 12.206 29.4744 11.6335 29.2158 10.9872L28.2187 11.3565C28.5695 12.2429 29.3451 13.1477 31.044 13.1477C32.7982 13.1477 33.74 12.1321 33.74 11.0426C33.74 10.2301 33.2045 9.49148 31.9119 9.17756L30.8593 8.91903C30.0468 8.71591 29.659 8.29119 29.659 7.81108C29.659 7.2017 30.3053 6.74006 31.1732 6.74006C32.2627 6.74006 32.5397 7.46023 32.669 7.77415L33.6477 7.49716ZM38.6649 5.90909H37.1507V4.39489H36.0612V5.90909H34.9902V6.92472H36.0612V11.2642C36.0612 12.5014 37.0584 13.0923 37.9817 13.0923C38.3879 13.0923 38.6465 13.0185 38.7942 12.9631L38.5726 11.9844C38.4803 12.0028 38.3326 12.0398 38.0925 12.0398C37.6124 12.0398 37.1507 11.892 37.1507 10.9688V6.92472H38.6649V5.90909ZM44.8202 13H45.9097V8.32812C45.9097 6.07528 44.1923 5.81676 43.2875 5.81676C42.2165 5.81676 40.9977 6.18608 40.4438 7.47869L41.4778 7.84801C41.7179 7.33097 42.2903 6.77699 43.3429 6.77699C44.1923 6.77699 44.8202 7.14631 44.8202 8.32812V8.34659C44.8202 8.80824 43.9707 8.77131 42.9921 8.90057C41.6625 9.06676 40.2406 9.38068 40.2406 10.9872C40.2406 12.3722 41.3117 13.1662 42.6597 13.1662C43.8969 13.1662 44.5432 12.5014 44.7648 12.0398H44.8202V13ZM44.8202 10.4332C44.8202 11.3196 44.1185 12.1875 42.8259 12.1875C41.958 12.1875 41.3301 11.7997 41.3301 11.0426C41.3301 10.2116 42.0872 9.95312 42.9367 9.84233C43.3983 9.78693 44.6355 9.65767 44.8202 9.43608V10.4332ZM53.7892 8.03267C53.6045 6.70312 52.4781 5.81676 50.9823 5.81676C49.0619 5.81676 47.7877 7.33097 47.7877 9.45455C47.7877 11.6335 49.025 13.1477 51.0008 13.1477C52.5704 13.1477 53.6045 12.1875 53.7892 10.9318H52.6997C52.4966 11.7074 51.8502 12.169 51.0008 12.169C49.7082 12.169 48.8772 11.098 48.8772 9.45455C48.8772 7.84801 49.7267 6.79545 51.0008 6.79545C51.961 6.79545 52.5335 7.38636 52.6997 8.03267H53.7892ZM59.8313 13H61.1054L58.0216 8.92827L60.81 5.90909H59.462L56.5813 9.10369H56.452V3.54545H55.3625V13H56.452V10.521L57.2876 9.62074L59.8313 13Z" transform="translate(574 2)" fill="black"/>
<rect width="70" height="21" fill="#FFF4BC" transform="translate(575 26)"/>
<path d="M6.11222 10.5497C6.11222 9.55256 6.66619 8.86932 7.62642 8.86932C8.21733 8.86932 9.01136 9.22017 9.01136 10.3281V15H10.1009V10.3651C10.1009 8.62926 9.14062 7.81676 7.95881 7.81676C6.92472 7.81676 6.11222 8.5 5.90909 9.09091H5.83523C5.52131 8.3892 4.89347 7.81676 4.0071 7.81676C3.10227 7.81676 2.36364 8.5 2.16051 9.10938H2.08665V7.90909H0.997159V15H2.08665V10.7713C2.08665 9.60795 2.88068 8.86932 3.71165 8.86932C4.50568 8.86932 5.00426 9.29403 5.00426 10.3651V15H6.11222V10.5497ZM16.6 15H17.6895V10.3281C17.6895 8.07528 15.9722 7.81676 15.0674 7.81676C13.9963 7.81676 12.7776 8.18608 12.2236 9.47869L13.2577 9.84801C13.4977 9.33097 14.0702 8.77699 15.1227 8.77699C15.9722 8.77699 16.6 9.14631 16.6 10.3281V10.3466C16.6 10.8082 15.7506 10.7713 14.7719 10.9006C13.4424 11.0668 12.0205 11.3807 12.0205 12.9872C12.0205 14.3722 13.0915 15.1662 14.4395 15.1662C15.6767 15.1662 16.323 14.5014 16.5446 14.0398H16.6V15ZM16.6 12.4332C16.6 13.3196 15.8983 14.1875 14.6057 14.1875C13.7378 14.1875 13.11 13.7997 13.11 13.0426C13.11 12.2116 13.8671 11.9531 14.7165 11.8423C15.1781 11.7869 16.4154 11.6577 16.6 11.4361V12.4332ZM20.4736 6.89347C20.9537 6.89347 21.2491 6.56108 21.2491 6.15483C21.2491 5.78551 20.9537 5.41619 20.4736 5.41619C19.9935 5.41619 19.698 5.78551 19.698 6.15483C19.698 6.56108 19.9935 6.89347 20.4736 6.89347ZM21.0275 7.90909H19.9381V15H21.0275V7.90909ZM24.3725 10.8082C24.3725 9.47869 25.3881 8.86932 26.2006 8.86932C27.1055 8.86932 27.7518 9.53409 27.7518 10.5682V15H28.8413V10.4943C28.8413 8.68466 27.881 7.81676 26.5515 7.81676C25.4805 7.81676 24.7788 8.3892 24.4464 9.10938H24.3725V7.90909H23.283V15H24.3725V10.8082Z" transform="translate(579 26)" fill="black"/>
</g>
<defs>
<linearGradient id="paint0_linear" x2="1" gradientUnits="userSpaceOnUse" gradientTransform="translate(400) scale(400 20) rotate(90)">
<stop stop-color="#DEF6E9" stop-opacity="0"/>
<stop offset="1" stop-color="#DEF6E9"/>
</linearGradient>
<clipPath id="clip0">
<rect width="800" height="234" fill="white"/>
</clipPath>
</defs>
</svg>
