<svg width="800" height="144" viewBox="0 0 800 144" fill="none" xmlns="http://www.w3.org/2000/svg">
<g clip-path="url(#clip0)">
<path opacity="0.4" d="M1.06108 9L1.67791 7.24858H4.40732L5.02415 9H5.85511L3.4517 2.45455H2.63352L0.230114 9H1.06108ZM3.00426 3.49006H3.08097L4.15803 6.54545H1.9272L3.00426 3.49006ZM7.15292 9H7.90718V4.79403H9.00662V4.09091H7.90718V3.80966C7.90718 3.32386 8.11173 3.06818 8.61031 3.06818C8.82764 3.06818 8.95548 3.11932 9.03218 3.14489L9.24951 2.4929C9.13446 2.44176 8.90434 2.36506 8.5336 2.36506C7.83048 2.36506 7.15292 2.78693 7.15292 3.63068V4.09091H6.36031V4.79403H7.15292V9ZM12.2844 4.09091H11.2361V3.04261H10.4818V4.09091H9.74033V4.79403H10.4818V7.7983C10.4818 8.65483 11.1721 9.06392 11.8113 9.06392C12.0926 9.06392 12.2716 9.01278 12.3738 8.97443L12.2204 8.29688C12.1565 8.30966 12.0542 8.33523 11.8881 8.33523C11.5557 8.33523 11.2361 8.23295 11.2361 7.59375V4.79403H12.2844V4.09091ZM15.6021 9.10227C16.5992 9.10227 17.3279 8.60369 17.558 7.86222L16.8293 7.65767C16.6376 8.16903 16.2029 8.42472 15.6021 8.42472C14.7136 8.42472 14.1543 7.86222 14.0776 6.80114H17.6347V6.48153C17.6347 4.65341 16.5481 4.02699 15.5254 4.02699C14.1958 4.02699 13.3137 5.07528 13.3137 6.58381C13.3137 8.09233 14.183 9.10227 15.6021 9.10227ZM15.5254 4.70455C16.3435 4.70455 16.8677 5.31818 16.8677 6.14915H14.0935C14.215 5.22869 14.7711 4.70455 15.5254 4.70455ZM21.6899 4.19318C21.5365 4.10369 21.2936 4.0142 21.0379 4.0142C20.4626 4.0142 19.9257 4.46165 19.7851 4.93466H19.7339V4.09091H18.9797V9H19.7339V6.22585C19.7467 5.56108 20.2069 4.79403 21.0123 4.79403C21.2297 4.79403 21.3575 4.85795 21.4342 4.89631L21.6899 4.19318ZM29.1483 9H30.0687L28.6561 6.28018C29.4135 5.97017 29.8386 5.35973 29.8386 4.46165C29.8386 3.375 29.1994 2.45455 27.6397 2.45455H25.4537V9H26.2463V6.45597H27.8475L29.1483 9ZM26.2463 3.15767H27.6397C28.8031 3.15767 29.0588 3.84801 29.0588 4.46165C29.0588 5.19034 28.7008 5.72727 27.5503 5.72727H26.2463V3.15767ZM35.3392 8.29688H32.1304V6.07244H34.9557V5.36932H32.1304V3.15767H35.2881V2.45455H31.3378V9H35.3392V8.29688ZM41.4478 2.45455H36.5387V3.15767H38.597V9H39.3896V3.15767H41.4478V2.45455ZM46.2143 6.03409C46.2143 5.11364 46.8791 4.75568 47.48 4.75568C48.1319 4.75568 48.5538 5.16477 48.5538 5.88068V9H49.3081V5.88068C49.3081 4.66619 48.6433 4.02699 47.7229 4.02699C46.9814 4.02699 46.5084 4.41051 46.2655 4.78125H46.2143V2.45455H45.4601V9H46.2143V6.03409ZM53.8099 9H54.5642V5.76562C54.5642 4.20597 53.3752 4.02699 52.7488 4.02699C52.0073 4.02699 51.1636 4.28267 50.7801 5.17756L51.496 5.43324C51.6622 5.07528 52.0585 4.69176 52.7872 4.69176C53.3752 4.69176 53.8099 4.94744 53.8099 5.76562V5.77841C53.8099 6.09801 53.2218 6.07244 52.5443 6.16193C51.6238 6.27699 50.6394 6.49432 50.6394 7.60653C50.6394 8.56534 51.3809 9.11506 52.3142 9.11506C53.1707 9.11506 53.6181 8.65483 53.7715 8.33523H53.8099V9ZM53.8099 7.22301C53.8099 7.83665 53.3241 8.4375 52.4292 8.4375C51.8284 8.4375 51.3937 8.16903 51.3937 7.64489C51.3937 7.0696 51.9179 6.89062 52.5059 6.81392C52.8255 6.77557 53.6821 6.68608 53.8099 6.53267V7.22301ZM59.5086 5.19034C59.253 4.47443 58.7032 4.02699 57.7956 4.02699C56.7601 4.02699 55.993 4.61506 55.993 5.44602C55.993 6.04688 56.3893 6.58381 57.2842 6.81392L58.1024 7.01847C58.5882 7.13352 58.8055 7.35085 58.8055 7.67045C58.8055 8.07955 58.3964 8.45028 57.6933 8.45028C56.9646 8.45028 56.6194 8.05398 56.4405 7.60653L55.7501 7.86222C55.993 8.47585 56.5299 9.10227 57.7061 9.10227C58.9206 9.10227 59.5726 8.39915 59.5726 7.64489C59.5726 7.08239 59.2018 6.57102 58.3069 6.35369L57.5782 6.17472C57.0157 6.03409 56.7473 5.74006 56.7473 5.40767C56.7473 4.9858 57.1947 4.66619 57.7956 4.66619C58.5498 4.66619 58.7416 5.16477 58.8311 5.3821L59.5086 5.19034ZM64.0498 3.38778C64.3822 3.38778 64.5868 3.15767 64.5868 2.87642C64.5868 2.62074 64.3822 2.36506 64.0498 2.36506C63.7174 2.36506 63.5129 2.62074 63.5129 2.87642C63.5129 3.15767 63.7174 3.38778 64.0498 3.38778ZM64.4334 4.09091H63.6791V9H64.4334V4.09091ZM66.7491 6.09801C66.7491 5.17756 67.4522 4.75568 68.0147 4.75568C68.6411 4.75568 69.0886 5.21591 69.0886 5.93182V9H69.8428V5.88068C69.8428 4.62784 69.1781 4.02699 68.2576 4.02699C67.5161 4.02699 67.0303 4.4233 66.8002 4.92188H66.7491V4.09091H65.9948V9H66.7491V6.09801ZM75.3027 5.56108C75.1748 4.64062 74.395 4.02699 73.3595 4.02699C72.0299 4.02699 71.1478 5.07528 71.1478 6.54545C71.1478 8.05398 72.0044 9.10227 73.3723 9.10227C74.4589 9.10227 75.1748 8.4375 75.3027 7.56818H74.5484C74.4078 8.10511 73.9603 8.42472 73.3723 8.42472C72.4774 8.42472 71.9021 7.68324 71.9021 6.54545C71.9021 5.43324 72.4902 4.70455 73.3723 4.70455C74.037 4.70455 74.4334 5.11364 74.5484 5.56108H75.3027ZM79.2955 4.19318C79.1421 4.10369 78.8992 4.0142 78.6435 4.0142C78.0683 4.0142 77.5313 4.46165 77.3907 4.93466H77.3396V4.09091H76.5853V9H77.3396V6.22585C77.3523 5.56108 77.8126 4.79403 78.618 4.79403C78.8353 4.79403 78.9631 4.85795 79.0398 4.89631L79.2955 4.19318ZM82.1019 9.10227C83.099 9.10227 83.8277 8.60369 84.0578 7.86222L83.3291 7.65767C83.1374 8.16903 82.7027 8.42472 82.1019 8.42472C81.2134 8.42472 80.6541 7.86222 80.5774 6.80114H84.1345V6.48153C84.1345 4.65341 83.0479 4.02699 82.0252 4.02699C80.6956 4.02699 79.8135 5.07528 79.8135 6.58381C79.8135 8.09233 80.6828 9.10227 82.1019 9.10227ZM82.0252 4.70455C82.8433 4.70455 83.3675 5.31818 83.3675 6.14915H80.5933C80.7148 5.22869 81.2709 4.70455 82.0252 4.70455ZM89.0207 5.91903C89.0207 5.22869 89.4042 4.75568 90.069 4.75568C90.4781 4.75568 91.0278 4.99858 91.0278 5.76562V9H91.782V5.79119C91.782 4.58949 91.1173 4.02699 90.2991 4.02699C89.5832 4.02699 89.0207 4.5 88.88 4.90909H88.8289C88.6116 4.4233 88.1769 4.02699 87.5633 4.02699C86.9369 4.02699 86.4255 4.5 86.2849 4.92188H86.2337V4.09091H85.4795V9H86.2337V6.07244C86.2337 5.26705 86.7835 4.75568 87.3587 4.75568C87.9085 4.75568 88.2536 5.04972 88.2536 5.79119V9H89.0207V5.91903ZM95.373 9.10227C96.3702 9.10227 97.0988 8.60369 97.329 7.86222L96.6003 7.65767C96.4085 8.16903 95.9738 8.42472 95.373 8.42472C94.4845 8.42472 93.9252 7.86222 93.8485 6.80114H97.4057V6.48153C97.4057 4.65341 96.319 4.02699 95.2963 4.02699C93.9667 4.02699 93.0846 5.07528 93.0846 6.58381C93.0846 8.09233 93.954 9.10227 95.373 9.10227ZM95.2963 4.70455C96.1145 4.70455 96.6386 5.31818 96.6386 6.14915H93.8645C93.9859 5.22869 94.542 4.70455 95.2963 4.70455ZM99.5049 6.09801C99.5049 5.17756 100.208 4.75568 100.77 4.75568C101.397 4.75568 101.844 5.21591 101.844 5.93182V9H102.599V5.88068C102.599 4.62784 101.934 4.02699 101.013 4.02699C100.272 4.02699 99.7861 4.4233 99.556 4.92188H99.5049V4.09091H98.7506V9H99.5049V6.09801ZM106.166 4.09091H105.117V3.04261H104.363V4.09091H103.622V4.79403H104.363V7.7983C104.363 8.65483 105.053 9.06392 105.693 9.06392C105.974 9.06392 106.153 9.01278 106.255 8.97443L106.102 8.29688C106.038 8.30966 105.935 8.33523 105.769 8.33523C105.437 8.33523 105.117 8.23295 105.117 7.59375V4.79403H106.166V4.09091ZM109.483 9.10227C110.48 9.10227 111.209 8.60369 111.439 7.86222L110.711 7.65767C110.519 8.16903 110.084 8.42472 109.483 8.42472C108.595 8.42472 108.036 7.86222 107.959 6.80114H111.516V6.48153C111.516 4.65341 110.429 4.02699 109.407 4.02699C108.077 4.02699 107.195 5.07528 107.195 6.58381C107.195 8.09233 108.064 9.10227 109.483 9.10227ZM109.407 4.70455C110.225 4.70455 110.749 5.31818 110.749 6.14915H107.975C108.096 5.22869 108.652 4.70455 109.407 4.70455ZM116.965 9V2.45455H116.21V4.87074H116.159C115.993 4.61506 115.686 4.02699 114.727 4.02699C113.487 4.02699 112.631 5.01136 112.631 6.55824C112.631 8.1179 113.487 9.10227 114.715 9.10227C115.661 9.10227 115.993 8.5142 116.159 8.24574H116.236V9H116.965ZM113.385 6.54545C113.385 5.50994 113.858 4.70455 114.817 4.70455C115.737 4.70455 116.223 5.44602 116.223 6.54545C116.223 7.65767 115.725 8.42472 114.817 8.42472C113.871 8.42472 113.385 7.59375 113.385 6.54545ZM124.893 4.14205H125.66C125.596 3.10653 124.714 2.36506 123.448 2.36506C122.195 2.36506 121.211 3.09375 121.211 4.19318C121.211 5.07528 121.85 5.59943 122.873 5.89347L123.678 6.12358C124.56 6.37926 124.982 6.62216 124.982 7.21023C124.982 7.92614 124.292 8.39915 123.384 8.39915C122.604 8.39915 121.914 8.05398 121.85 7.3125H121.032C121.109 8.38636 121.978 9.11506 123.384 9.11506C124.893 9.11506 125.749 8.28409 125.749 7.21023C125.749 6.30256 125.148 5.75284 123.908 5.42045L123.244 5.24148C122.374 5.01136 121.978 4.69176 121.978 4.16761C121.978 3.52841 122.553 3.06818 123.423 3.06818C124.215 3.06818 124.778 3.43892 124.893 4.14205ZM129.431 6.63494C130.952 6.63494 131.617 5.7017 131.617 4.52557C131.617 3.34943 130.952 2.45455 129.418 2.45455H127.232V9H128.024V6.63494H129.431ZM128.024 3.15767H129.418C130.479 3.15767 130.837 3.72017 130.837 4.52557C130.837 5.33097 130.479 5.93182 129.431 5.93182H128.024V3.15767ZM133.196 8.18182H132.378V8.79545C132.378 9.28125 132.211 9.72869 131.994 10.2401L132.633 10.3679C132.966 9.86932 133.183 9.34517 133.196 8.78267V8.18182ZM143.82 4.09091H143.027L141.966 7.83665H141.915L140.879 4.09091H140.074L139.026 7.84943H138.975L137.913 4.09091H137.121L138.617 9H139.358L140.432 5.22869H140.509L141.583 9H142.324L143.82 4.09091ZM146.879 9.10227C147.877 9.10227 148.605 8.60369 148.835 7.86222L148.107 7.65767C147.915 8.16903 147.48 8.42472 146.879 8.42472C145.991 8.42472 145.432 7.86222 145.355 6.80114H148.912V6.48153C148.912 4.65341 147.825 4.02699 146.803 4.02699C145.473 4.02699 144.591 5.07528 144.591 6.58381C144.591 8.09233 145.46 9.10227 146.879 9.10227ZM146.803 4.70455C147.621 4.70455 148.145 5.31818 148.145 6.14915H145.371C145.492 5.22869 146.048 4.70455 146.803 4.70455ZM151.126 2.45455H150.41V3.04261C150.41 3.51562 150.18 3.92472 149.912 4.30824L150.321 4.64062C150.832 4.23153 151.126 3.55398 151.126 3.02983V2.45455ZM155.142 4.19318C154.989 4.10369 154.746 4.0142 154.49 4.0142C153.915 4.0142 153.378 4.46165 153.237 4.93466H153.186V4.09091H152.432V9H153.186V6.22585C153.199 5.56108 153.659 4.79403 154.465 4.79403C154.682 4.79403 154.81 4.85795 154.887 4.89631L155.142 4.19318ZM157.949 9.10227C158.946 9.10227 159.675 8.60369 159.905 7.86222L159.176 7.65767C158.984 8.16903 158.55 8.42472 157.949 8.42472C157.06 8.42472 156.501 7.86222 156.424 6.80114H159.981V6.48153C159.981 4.65341 158.895 4.02699 157.872 4.02699C156.542 4.02699 155.66 5.07528 155.66 6.58381C155.66 8.09233 156.53 9.10227 157.949 9.10227ZM157.872 4.70455C158.69 4.70455 159.214 5.31818 159.214 6.14915H156.44C156.562 5.22869 157.118 4.70455 157.872 4.70455ZM164.038 2.45455V9H164.766V8.24574H164.856C165.022 8.5142 165.342 9.10227 166.288 9.10227C167.515 9.10227 168.371 8.1179 168.371 6.55824C168.371 5.01136 167.515 4.02699 166.275 4.02699C165.316 4.02699 165.022 4.61506 164.856 4.87074H164.792V2.45455H164.038ZM167.617 6.54545C167.617 7.59375 167.131 8.42472 166.185 8.42472C165.278 8.42472 164.779 7.65767 164.779 6.54545C164.779 5.44602 165.265 4.70455 166.185 4.70455C167.144 4.70455 167.617 5.50994 167.617 6.54545ZM172.642 9H173.397V5.76562C173.397 4.20597 172.208 4.02699 171.581 4.02699C170.84 4.02699 169.996 4.28267 169.612 5.17756L170.328 5.43324C170.495 5.07528 170.891 4.69176 171.62 4.69176C172.208 4.69176 172.642 4.94744 172.642 5.76562V5.77841C172.642 6.09801 172.054 6.07244 171.377 6.16193C170.456 6.27699 169.472 6.49432 169.472 7.60653C169.472 8.56534 170.213 9.11506 171.147 9.11506C172.003 9.11506 172.45 8.65483 172.604 8.33523H172.642V9ZM172.642 7.22301C172.642 7.83665 172.156 8.4375 171.262 8.4375C170.661 8.4375 170.226 8.16903 170.226 7.64489C170.226 7.0696 170.75 6.89062 171.338 6.81392C171.658 6.77557 172.514 6.68608 172.642 6.53267V7.22301ZM178.852 5.56108C178.724 4.64062 177.944 4.02699 176.908 4.02699C175.579 4.02699 174.697 5.07528 174.697 6.54545C174.697 8.05398 175.553 9.10227 176.921 9.10227C178.008 9.10227 178.724 8.4375 178.852 7.56818H178.097C177.957 8.10511 177.509 8.42472 176.921 8.42472C176.026 8.42472 175.451 7.68324 175.451 6.54545C175.451 5.43324 176.039 4.70455 176.921 4.70455C177.586 4.70455 177.982 5.11364 178.097 5.56108H178.852ZM183.035 9H183.917L181.782 6.18111L183.712 4.09091H182.779L180.785 6.30256H180.695V2.45455H179.941V9H180.695V7.28374L181.274 6.66051L183.035 9ZM187.993 3.38778C188.325 3.38778 188.53 3.15767 188.53 2.87642C188.53 2.62074 188.325 2.36506 187.993 2.36506C187.66 2.36506 187.456 2.62074 187.456 2.87642C187.456 3.15767 187.66 3.38778 187.993 3.38778ZM188.376 4.09091H187.622V9H188.376V4.09091ZM190.692 6.09801C190.692 5.17756 191.395 4.75568 191.958 4.75568C192.584 4.75568 193.032 5.21591 193.032 5.93182V9H193.786V5.88068C193.786 4.62784 193.121 4.02699 192.201 4.02699C191.459 4.02699 190.973 4.4233 190.743 4.92188H190.692V4.09091H189.938V9H190.692V6.09801ZM200.117 4.09091H199.069V3.04261H198.314V4.09091H197.573V4.79403H198.314V7.7983C198.314 8.65483 199.005 9.06392 199.644 9.06392C199.925 9.06392 200.104 9.01278 200.206 8.97443L200.053 8.29688C199.989 8.30966 199.887 8.33523 199.721 8.33523C199.388 8.33523 199.069 8.23295 199.069 7.59375V4.79403H200.117V4.09091ZM202.192 6.03409C202.192 5.11364 202.857 4.75568 203.458 4.75568C204.11 4.75568 204.532 5.16477 204.532 5.88068V9H205.286V5.88068C205.286 4.66619 204.621 4.02699 203.701 4.02699C202.959 4.02699 202.486 4.41051 202.243 4.78125H202.192V2.45455H201.438V9H202.192V6.03409ZM208.879 9.10227C209.876 9.10227 210.605 8.60369 210.835 7.86222L210.106 7.65767C209.915 8.16903 209.48 8.42472 208.879 8.42472C207.991 8.42472 207.431 7.86222 207.355 6.80114H210.912V6.48153C210.912 4.65341 209.825 4.02699 208.802 4.02699C207.473 4.02699 206.591 5.07528 206.591 6.58381C206.591 8.09233 207.46 9.10227 208.879 9.10227ZM208.802 4.70455C209.621 4.70455 210.145 5.31818 210.145 6.14915H207.371C207.492 5.22869 208.048 4.70455 208.802 4.70455ZM214.712 4.5H215.428V3.91193C215.428 3.43892 215.658 3.02983 215.927 2.64631L215.518 2.31392C215.006 2.72301 214.712 3.40057 214.712 3.92472V4.5ZM216.349 4.5H217.065V3.91193C217.065 3.43892 217.295 3.02983 217.563 2.64631L217.154 2.31392C216.643 2.72301 216.349 3.40057 216.349 3.92472V4.5ZM221.516 9H222.27V5.76562C222.27 4.20597 221.081 4.02699 220.455 4.02699C219.714 4.02699 218.87 4.28267 218.486 5.17756L219.202 5.43324C219.368 5.07528 219.765 4.69176 220.493 4.69176C221.081 4.69176 221.516 4.94744 221.516 5.76562V5.77841C221.516 6.09801 220.928 6.07244 220.25 6.16193C219.33 6.27699 218.346 6.49432 218.346 7.60653C218.346 8.56534 219.087 9.11506 220.02 9.11506C220.877 9.11506 221.324 8.65483 221.478 8.33523H221.516V9ZM221.516 7.22301C221.516 7.83665 221.03 8.4375 220.135 8.4375C219.535 8.4375 219.1 8.16903 219.1 7.64489C219.1 7.0696 219.624 6.89062 220.212 6.81392C220.532 6.77557 221.388 6.68608 221.516 6.53267V7.22301ZM227.904 9V2.45455H227.15V4.87074H227.099C226.933 4.61506 226.626 4.02699 225.667 4.02699C224.427 4.02699 223.571 5.01136 223.571 6.55824C223.571 8.1179 224.427 9.10227 225.654 9.10227C226.6 9.10227 226.933 8.5142 227.099 8.24574H227.176V9H227.904ZM224.325 6.54545C224.325 5.50994 224.798 4.70455 225.757 4.70455C226.677 4.70455 227.163 5.44602 227.163 6.54545C227.163 7.65767 226.664 8.42472 225.757 8.42472C224.811 8.42472 224.325 7.59375 224.325 6.54545ZM233.569 9V2.45455H232.814V4.87074H232.763C232.597 4.61506 232.29 4.02699 231.332 4.02699C230.091 4.02699 229.235 5.01136 229.235 6.55824C229.235 8.1179 230.091 9.10227 231.319 9.10227C232.265 9.10227 232.597 8.5142 232.763 8.24574H232.84V9H233.569ZM229.989 6.54545C229.989 5.50994 230.462 4.70455 231.421 4.70455C232.341 4.70455 232.827 5.44602 232.827 6.54545C232.827 7.65767 232.329 8.42472 231.421 8.42472C230.475 8.42472 229.989 7.59375 229.989 6.54545ZM235.999 2.45455H235.283V3.04261C235.283 3.51562 235.053 3.92472 234.784 4.30824L235.193 4.64062C235.705 4.23153 235.999 3.55398 235.999 3.02983V2.45455ZM237.635 2.45455H236.919V3.04261C236.919 3.51562 236.689 3.92472 236.421 4.30824L236.83 4.64062C237.341 4.23153 237.635 3.55398 237.635 3.02983V2.45455ZM241.983 9H242.737V4.79403H243.837V4.09091H242.737V3.80966C242.737 3.32386 242.942 3.06818 243.44 3.06818C243.658 3.06818 243.786 3.11932 243.862 3.14489L244.08 2.4929C243.964 2.44176 243.734 2.36506 243.364 2.36506C242.661 2.36506 241.983 2.78693 241.983 3.63068V4.09091H241.19V4.79403H241.983V9ZM248.15 7.05682C248.15 7.97727 247.447 8.33523 246.884 8.33523C246.258 8.33523 245.81 7.92614 245.81 7.21023V4.09091H245.056V7.21023C245.056 8.50142 245.925 9.06392 246.641 9.06392C247.383 9.06392 247.856 8.6804 248.099 8.30966H248.15V9H248.904V4.09091H248.15V7.05682ZM251.22 6.09801C251.22 5.17756 251.923 4.75568 252.486 4.75568C253.112 4.75568 253.559 5.21591 253.559 5.93182V9H254.314V5.88068C254.314 4.62784 253.649 4.02699 252.728 4.02699C251.987 4.02699 251.501 4.4233 251.271 4.92188H251.22V4.09091H250.466V9H251.22V6.09801ZM259.773 5.56108C259.646 4.64062 258.866 4.02699 257.83 4.02699C256.501 4.02699 255.619 5.07528 255.619 6.54545C255.619 8.05398 256.475 9.10227 257.843 9.10227C258.93 9.10227 259.646 8.4375 259.773 7.56818H259.019C258.879 8.10511 258.431 8.42472 257.843 8.42472C256.948 8.42472 256.373 7.68324 256.373 6.54545C256.373 5.43324 256.961 4.70455 257.843 4.70455C258.508 4.70455 258.904 5.11364 259.019 5.56108H259.773ZM263.185 4.09091H262.136V3.04261H261.382V4.09091H260.641V4.79403H261.382V7.7983C261.382 8.65483 262.072 9.06392 262.712 9.06392C262.993 9.06392 263.172 9.01278 263.274 8.97443L263.121 8.29688C263.057 8.30966 262.955 8.33523 262.788 8.33523C262.456 8.33523 262.136 8.23295 262.136 7.59375V4.79403H263.185V4.09091ZM264.876 3.38778C265.209 3.38778 265.413 3.15767 265.413 2.87642C265.413 2.62074 265.209 2.36506 264.876 2.36506C264.544 2.36506 264.339 2.62074 264.339 2.87642C264.339 3.15767 264.544 3.38778 264.876 3.38778ZM265.26 4.09091H264.506V9H265.26V4.09091ZM268.816 9.10227C270.145 9.10227 271.04 8.09233 271.04 6.57102C271.04 5.03693 270.145 4.02699 268.816 4.02699C267.486 4.02699 266.591 5.03693 266.591 6.57102C266.591 8.09233 267.486 9.10227 268.816 9.10227ZM268.816 8.42472C267.806 8.42472 267.346 7.5554 267.346 6.57102C267.346 5.58665 267.806 4.70455 268.816 4.70455C269.826 4.70455 270.286 5.58665 270.286 6.57102C270.286 7.5554 269.826 8.42472 268.816 8.42472ZM273.126 6.09801C273.126 5.17756 273.829 4.75568 274.391 4.75568C275.018 4.75568 275.465 5.21591 275.465 5.93182V9H276.22V5.88068C276.22 4.62784 275.555 4.02699 274.634 4.02699C273.893 4.02699 273.407 4.4233 273.177 4.92188H273.126V4.09091H272.371V9H273.126V6.09801Z" transform="translate(62 120)" fill="black"/>
<rect width="400" height="20" transform="translate(62)" fill="url(#paint0_linear)"/>
<rect width="400" height="30" fill="#DEF6E9" transform="translate(62 20)"/>
<path d="M36.205 10.2116H34.9124V3.54545H33.7121L29.4464 10.5071V11.2273H33.8967V13H34.9124V11.2273H36.205V10.2116ZM30.8683 10.2116L33.7121 5.44744L33.8967 4.83345V10.2116H30.8683ZM44.0187 7.73722C44.0187 4.96733 42.9292 3.41619 40.8795 3.41619C38.8113 3.41619 37.7033 4.96733 37.7033 7.73722V8.64205C37.7033 11.4304 38.8298 13.1293 40.8979 13.1293C42.9477 13.1293 44.0187 11.4304 44.0187 8.64205V7.73722ZM42.8738 8.84517C42.8738 10.6179 42.2459 12.1136 40.8979 12.1136C39.5315 12.1136 38.8482 10.6179 38.8482 8.84517V7.53409C38.8482 5.7429 39.513 4.43182 40.8795 4.43182C42.2275 4.43182 42.8738 5.7429 42.8738 7.53409V8.84517Z" transform="translate(407 27)" fill="#517AAA"/>
<path d="M6.48153 13H7.81108L5.7706 9.07138C6.8647 8.62358 7.47869 7.74183 7.47869 6.4446C7.47869 4.875 6.5554 3.54545 4.30256 3.54545H1.14489V13H2.28977V9.32528H4.60263L6.48153 13ZM2.28977 4.56108H4.30256C5.98295 4.56108 6.35227 5.55824 6.35227 6.4446C6.35227 7.49716 5.83523 8.27273 4.1733 8.27273H2.28977V4.56108ZM12.3171 13.1477C13.7574 13.1477 14.81 12.4276 15.1424 11.3565L14.0898 11.0611C13.8128 11.7997 13.185 12.169 12.3171 12.169C11.0337 12.169 10.2258 11.3565 10.115 9.82386H15.2532V9.36222C15.2532 6.72159 13.6836 5.81676 12.2063 5.81676C10.2858 5.81676 9.01169 7.33097 9.01169 9.50994C9.01169 11.6889 10.2674 13.1477 12.3171 13.1477ZM12.2063 6.79545C13.3881 6.79545 14.1452 7.68182 14.1452 8.8821H10.1381C10.3135 7.55256 11.1168 6.79545 12.2063 6.79545ZM20.1689 5.90909H18.6547V4.39489H17.5652V5.90909H16.4942V6.92472H17.5652V11.2642C17.5652 12.5014 18.5623 13.0923 19.4856 13.0923C19.8919 13.0923 20.1504 13.0185 20.2981 12.9631L20.0766 11.9844C19.9842 12.0028 19.8365 12.0398 19.5964 12.0398C19.1163 12.0398 18.6547 11.892 18.6547 10.9688V6.92472H20.1689V5.90909ZM26.5457 10.1932C26.5457 11.5227 25.5301 12.0398 24.7176 12.0398C23.8128 12.0398 23.1665 11.4489 23.1665 10.4148V5.90909H22.077V10.4148C22.077 12.2798 23.3326 13.0923 24.3667 13.0923C25.4378 13.0923 26.121 12.5384 26.4719 12.0028H26.5457V13H27.6352V5.90909H26.5457V10.1932ZM33.8054 6.05682C33.5839 5.92756 33.233 5.79829 32.8637 5.79829C32.0327 5.79829 31.2572 6.4446 31.054 7.12784H30.9802V5.90909H29.8907V13H30.9802V8.9929C30.9986 8.03267 31.6634 6.92472 32.8268 6.92472C33.1407 6.92472 33.3253 7.01705 33.4361 7.07244L33.8054 6.05682ZM36.3945 8.80824C36.3945 7.47869 37.4101 6.86932 38.2226 6.86932C39.1274 6.86932 39.7737 7.53409 39.7737 8.56818V13H40.8632V8.49432C40.8632 6.68466 39.903 5.81676 38.5734 5.81676C37.5024 5.81676 36.8007 6.3892 36.4683 7.10938H36.3945V5.90909H35.305V13H36.3945V8.80824ZM52.8332 5.90909H51.6514L49.694 11.5597H49.6202L47.6628 5.90909H46.481L49.1031 13H50.2111L52.8332 5.90909ZM58.5245 13H59.614V8.32812C59.614 6.07528 57.8967 5.81676 56.9918 5.81676C55.9208 5.81676 54.7021 6.18608 54.1481 7.47869L55.1822 7.84801C55.4222 7.33097 55.9947 6.77699 57.0472 6.77699C57.8967 6.77699 58.5245 7.14631 58.5245 8.32812V8.34659C58.5245 8.80824 57.6751 8.77131 56.6964 8.90057C55.3668 9.06676 53.945 9.38068 53.945 10.9872C53.945 12.3722 55.016 13.1662 56.364 13.1662C57.6012 13.1662 58.2475 12.5014 58.4691 12.0398H58.5245V13ZM58.5245 10.4332C58.5245 11.3196 57.8228 12.1875 56.5302 12.1875C55.6623 12.1875 55.0345 11.7997 55.0345 11.0426C55.0345 10.2116 55.7916 9.95312 56.641 9.84233C57.1026 9.78693 58.3399 9.65767 58.5245 9.43608V10.4332ZM62.952 3.54545H61.8625V13H62.952V3.54545ZM69.6763 10.1932C69.6763 11.5227 68.6606 12.0398 67.8481 12.0398C66.9433 12.0398 66.297 11.4489 66.297 10.4148V5.90909H65.2075V10.4148C65.2075 12.2798 66.4632 13.0923 67.4973 13.0923C68.5683 13.0923 69.2515 12.5384 69.6024 12.0028H69.6763V13H70.7657V5.90909H69.6763V10.1932ZM75.9942 13.1477C77.4346 13.1477 78.4871 12.4276 78.8195 11.3565L77.767 11.0611C77.49 11.7997 76.8621 12.169 75.9942 12.169C74.7109 12.169 73.903 11.3565 73.7922 9.82386H78.9303V9.36222C78.9303 6.72159 77.3607 5.81676 75.8834 5.81676C73.963 5.81676 72.6888 7.33097 72.6888 9.50994C72.6888 11.6889 73.9445 13.1477 75.9942 13.1477ZM75.8834 6.79545C77.0653 6.79545 77.8224 7.68182 77.8224 8.8821H73.8153C73.9907 7.55256 74.7939 6.79545 75.8834 6.79545ZM87.7992 3.54545H86.839C86.7282 3.65625 86.1188 4.94886 84.6415 4.94886V5.90909C85.731 5.90909 86.5066 5.46591 86.6359 5.20739H86.7097V13H87.7992V3.54545Z" transform="translate(111 27)" fill="black" fill-opacity="0.9"/>
<path opacity="0.4" d="M6.27841 5.98295H7.38636C7.29403 4.48722 6.01989 3.41619 4.19176 3.41619C2.3821 3.41619 0.960227 4.46875 0.960227 6.05682C0.960227 7.33097 1.88352 8.08807 3.3608 8.51278L4.52415 8.84517C5.7983 9.21449 6.40767 9.56534 6.40767 10.4148C6.40767 11.4489 5.41051 12.1321 4.09943 12.1321C2.97301 12.1321 1.97585 11.6335 1.88352 10.5625H0.701705C0.8125 12.1136 2.06818 13.1662 4.09943 13.1662C6.27841 13.1662 7.51562 11.9659 7.51562 10.4148C7.51562 9.10369 6.64773 8.30966 4.85653 7.82955L3.89631 7.57102C2.64062 7.23864 2.06818 6.77699 2.06818 6.01989C2.06818 5.09659 2.89915 4.43182 4.15483 4.43182C5.29972 4.43182 6.11222 4.96733 6.27841 5.98295ZM12.833 9.58381C15.0304 9.58381 15.9906 8.2358 15.9906 6.53693C15.9906 4.83807 15.0304 3.54545 12.8145 3.54545H9.65684V13H10.8017V9.58381H12.833ZM10.8017 4.56108H12.8145C14.3472 4.56108 14.8642 5.37358 14.8642 6.53693C14.8642 7.70028 14.3472 8.56818 12.833 8.56818H10.8017V4.56108ZM28.0553 7.75568H25.6178V5.31818H24.5837V7.75568H22.1462V8.78977H24.5837V11.2273H25.6178V8.78977H28.0553V7.75568ZM36.3976 10.3224C36.3976 9.21911 35.839 8.40199 34.9711 7.97266C35.7051 7.5941 36.176 6.90163 36.176 5.87216C36.176 4.26562 34.9942 3.41619 33.4246 3.41619C31.8365 3.41619 30.6362 4.26562 30.6362 5.87216C30.6362 6.89702 31.0933 7.58949 31.8227 7.96804C30.9594 8.39737 30.4146 9.21449 30.4146 10.3224C30.4146 12.0398 31.7442 13.1293 33.4246 13.1293C35.0865 13.1293 36.3976 12.0213 36.3976 10.3224ZM35.105 5.90909C35.105 6.83239 34.2925 7.49716 33.4246 7.49716C32.5382 7.49716 31.7073 6.83239 31.7073 5.89062C31.7073 4.94886 32.5382 4.39489 33.3877 4.39489C34.2925 4.39489 35.105 5.00426 35.105 5.90909ZM35.2712 10.3224C35.2712 11.3196 34.4771 12.169 33.4246 12.169C32.372 12.169 31.5226 11.3196 31.5226 10.304C31.5226 9.28835 32.372 8.42045 33.3877 8.42045C34.4033 8.42045 35.2712 9.28835 35.2712 10.3224Z" transform="translate(475 12)" fill="black"/>
<path opacity="0.1" d="M0 0H6" transform="translate(466 20.5)" stroke="black"/>
<path opacity="0.4" d="M7.03551 7.73722C7.03551 4.96733 5.94602 3.41619 3.89631 3.41619C1.82812 3.41619 0.72017 4.96733 0.72017 7.73722V8.64205C0.72017 11.4304 1.84659 13.1293 3.91477 13.1293C5.96449 13.1293 7.03551 11.4304 7.03551 8.64205V7.73722ZM5.89062 8.84517C5.89062 10.6179 5.26278 12.1136 3.91477 12.1136C2.5483 12.1136 1.86506 10.6179 1.86506 8.84517V7.53409C1.86506 5.7429 2.52983 4.43182 3.89631 4.43182C5.24432 4.43182 5.89062 5.7429 5.89062 7.53409V8.84517ZM10.0895 5.90909H8.83386L11.0867 9.45455L8.83386 13H10.0895L11.7884 10.2486L13.4873 13H14.743L12.4532 9.45455L14.743 5.90909H13.4873L11.7884 8.80824L10.0895 5.90909ZM22.1549 7.75568H18.2402V4.56108H22.7643V3.54545H17.0953V13H18.2402V8.77131H22.1549V7.75568ZM30.4348 7.75568H26.52V4.56108H31.0442V3.54545H25.3752V13H26.52V8.77131H30.4348V7.75568ZM41.0472 6.5C40.6963 4.56108 39.1452 3.41619 37.2432 3.41619C34.8242 3.41619 33.0699 5.28125 33.0699 8.27273C33.0699 11.2642 34.8242 13.1293 37.2432 13.1293C39.1452 13.1293 40.6963 11.9844 41.0472 10.0455H39.9023C39.6253 11.3565 38.4989 12.0582 37.2432 12.0582C35.5259 12.0582 34.1779 10.7287 34.1779 8.27273C34.1779 5.81676 35.5259 4.48722 37.2432 4.48722C38.4989 4.48722 39.6253 5.18892 39.9023 6.5H41.0472ZM48.9393 3.54545H43.0302V4.61648H47.8313L43.9165 13H45.1722L48.9393 4.72727V3.54545Z" transform="translate(0 12)" fill="black"/>
<path opacity="0.1" d="M0 0H6" transform="translate(52 20.5)" stroke="black"/>
<path opacity="0.07" d="M0 0H400" transform="translate(62 20.5)" stroke="black"/>
<rect width="400" height="30" fill="#DEF6E9" transform="translate(62 80)"/>
<path d="M35.9649 11.9844H31.33V11.929L33.8783 9.32528C34.857 8.32812 35.7249 7.18324 35.7249 6.09375C35.7249 4.54261 34.543 3.41619 32.8072 3.41619C30.776 3.41619 29.9635 4.96733 29.9635 6.5H31.0899C31.0899 5.41051 31.4962 4.35795 32.7703 4.35795C33.9152 4.35795 34.6169 5.18892 34.6169 6.13068C34.6169 6.94318 34.0814 7.57102 32.9365 8.75284L29.6126 12.169V13H35.9649V11.9844ZM44.0187 7.73722C44.0187 4.96733 42.9292 3.41619 40.8795 3.41619C38.8113 3.41619 37.7033 4.96733 37.7033 7.73722V8.64205C37.7033 11.4304 38.8298 13.1293 40.8979 13.1293C42.9477 13.1293 44.0187 11.4304 44.0187 8.64205V7.73722ZM42.8738 8.84517C42.8738 10.6179 42.2459 12.1136 40.8979 12.1136C39.5315 12.1136 38.8482 10.6179 38.8482 8.84517V7.53409C38.8482 5.7429 39.513 4.43182 40.8795 4.43182C42.2275 4.43182 42.8738 5.7429 42.8738 7.53409V8.84517Z" transform="translate(407 87)" fill="#517AAA"/>
<path d="M1.53267 13L2.42365 10.4702H6.36612L7.2571 13H8.45739L4.9858 3.54545H3.80398L0.332386 13H1.53267ZM4.33949 5.04119H4.45028L6.00604 9.45455H2.78374L4.33949 5.04119ZM13.9571 6.05682C13.7355 5.92756 13.3846 5.79829 13.0153 5.79829C12.1844 5.79829 11.4088 6.4446 11.2057 7.12784H11.1318V5.90909H10.0423V13H11.1318V8.9929C11.1503 8.03267 11.815 6.92472 12.9784 6.92472C13.2923 6.92472 13.477 7.01705 13.5878 7.07244L13.9571 6.05682ZM19.9127 5.90909V7.03551H19.8019C19.5618 6.66619 19.1186 5.81676 17.7337 5.81676C15.9425 5.81676 14.7053 7.23864 14.7053 9.41761C14.7053 11.6335 15.9979 12.8892 17.7152 12.8892C19.1002 12.8892 19.5433 12.0767 19.7834 11.6889H19.8757V12.9446C19.8942 14.1264 18.9524 14.6804 17.863 14.6804C16.6442 14.6804 16.1456 13.9787 15.8686 13.6278L15.0007 14.2372C15.4439 14.9943 16.3487 15.6591 17.863 15.6591C19.5064 15.6591 20.9652 14.8835 20.9652 13.0554V5.90909H19.9127ZM15.7948 9.39915C15.7948 7.95881 16.478 6.79545 17.863 6.79545C19.1925 6.79545 19.8942 7.86648 19.8942 9.39915C19.8942 10.9688 19.174 11.9105 17.863 11.9105C16.4965 11.9105 15.7948 10.8764 15.7948 9.39915ZM30.1457 3.54545H29.1855C29.0747 3.65625 28.4653 4.94886 26.9881 4.94886V5.90909C28.0776 5.90909 28.8531 5.46591 28.9824 5.20739H29.0562V13H30.1457V3.54545ZM36.7572 6.5H37.7913V5.65057C37.7913 4.96733 38.1237 4.37642 38.5114 3.82244L37.9205 3.34233C37.1819 3.93324 36.7572 4.91193 36.7572 5.66903V6.5ZM39.1208 6.5H40.1549V5.65057C40.1549 4.96733 40.4873 4.37642 40.8751 3.82244L40.2842 3.34233C39.5455 3.93324 39.1208 4.91193 39.1208 5.66903V6.5ZM43.1502 5.90909H41.8945L44.1473 9.45455L41.8945 13H43.1502L44.849 10.2486L46.5479 13H47.8036L45.5138 9.45455L47.8036 5.90909H46.5479L44.849 8.80824L43.1502 5.90909ZM50.8739 3.54545H49.8398V4.39489C49.8398 5.07812 49.5074 5.66903 49.1196 6.22301L49.7105 6.70312C50.4491 6.11222 50.8739 5.13352 50.8739 4.37642V3.54545ZM53.2375 3.54545H52.2034V4.39489C52.2034 5.07812 51.871 5.66903 51.4832 6.22301L52.0741 6.70312C52.8128 6.11222 53.2375 5.13352 53.2375 4.37642V3.54545ZM59.5177 13H60.6072V6.92472H62.1953V5.90909H60.6072V5.50284C60.6072 4.80114 60.9026 4.43182 61.6228 4.43182C61.9367 4.43182 62.1214 4.50568 62.2322 4.54261L62.5461 3.60085C62.3799 3.52699 62.0475 3.41619 61.512 3.41619C60.4964 3.41619 59.5177 4.02557 59.5177 5.24432V5.90909H58.3728V6.92472H59.5177V13ZM66.5455 13.1477C68.4659 13.1477 69.7585 11.6889 69.7585 9.49148C69.7585 7.27557 68.4659 5.81676 66.5455 5.81676C64.625 5.81676 63.3324 7.27557 63.3324 9.49148C63.3324 11.6889 64.625 13.1477 66.5455 13.1477ZM66.5455 12.169C65.0867 12.169 64.4219 10.9134 64.4219 9.49148C64.4219 8.0696 65.0867 6.79545 66.5455 6.79545C68.0043 6.79545 68.669 8.0696 68.669 9.49148C68.669 10.9134 68.0043 12.169 66.5455 12.169ZM75.5964 6.05682C75.3748 5.92756 75.0239 5.79829 74.6546 5.79829C73.8237 5.79829 73.0481 6.4446 72.845 7.12784H72.7711V5.90909H71.6816V13H72.7711V8.9929C72.7896 8.03267 73.4543 6.92472 74.6177 6.92472C74.9316 6.92472 75.1163 7.01705 75.2271 7.07244L75.5964 6.05682ZM83.8582 5.90909H82.344V4.39489H81.2545V5.90909H80.1835V6.92472H81.2545V11.2642C81.2545 12.5014 82.2517 13.0923 83.175 13.0923C83.5812 13.0923 83.8398 13.0185 83.9875 12.9631L83.7659 11.9844C83.6736 12.0028 83.5258 12.0398 83.2858 12.0398C82.8057 12.0398 82.344 11.892 82.344 10.9688V6.92472H83.8582V5.90909ZM94.8885 5.90909H93.7436L92.2109 11.3196H92.137L90.6413 5.90909H89.4779L87.9637 11.3381H87.8899L86.3572 5.90909H85.2123L87.3728 13H88.4439L89.995 7.55256H90.1058L91.6569 13H92.7279L94.8885 5.90909ZM97.1243 4.89347C97.6044 4.89347 97.8999 4.56108 97.8999 4.15483C97.8999 3.78551 97.6044 3.41619 97.1243 3.41619C96.6442 3.41619 96.3487 3.78551 96.3487 4.15483C96.3487 4.56108 96.6442 4.89347 97.1243 4.89347ZM97.6783 5.90909H96.5888V13H97.6783V5.90909ZM105.603 8.03267C105.418 6.70312 104.292 5.81676 102.796 5.81676C100.876 5.81676 99.6014 7.33097 99.6014 9.45455C99.6014 11.6335 100.839 13.1477 102.814 13.1477C104.384 13.1477 105.418 12.1875 105.603 10.9318H104.513C104.31 11.7074 103.664 12.169 102.814 12.169C101.522 12.169 100.691 11.098 100.691 9.45455C100.691 7.84801 101.54 6.79545 102.814 6.79545C103.775 6.79545 104.347 7.38636 104.513 8.03267H105.603ZM110.441 13.1477C111.882 13.1477 112.934 12.4276 113.266 11.3565L112.214 11.0611C111.937 11.7997 111.309 12.169 110.441 12.169C109.158 12.169 108.35 11.3565 108.239 9.82386H113.377V9.36222C113.377 6.72159 111.808 5.81676 110.33 5.81676C108.41 5.81676 107.136 7.33097 107.136 9.50994C107.136 11.6889 108.391 13.1477 110.441 13.1477ZM110.33 6.79545C111.512 6.79545 112.269 7.68182 112.269 8.8821H108.262C108.438 7.55256 109.241 6.79545 110.33 6.79545Z" transform="translate(111 87)" fill="black" fill-opacity="0.9"/>
<path d="M6.0522 6.10298H7.45561C7.3956 4.5103 6.0799 3.41619 4.18715 3.41619C2.30362 3.41619 0.867898 4.47337 0.867898 6.06143C0.867898 7.37713 1.86506 8.1804 3.37464 8.62358L4.22408 8.86825C5.55824 9.26989 6.13068 9.63459 6.13068 10.3963C6.13068 11.2596 5.31818 11.8828 4.10405 11.8828C3.01918 11.8828 2.14205 11.3842 2.06818 10.3594H0.600142C0.678622 12.1321 2.12358 13.1523 4.10405 13.1523C6.24148 13.1523 7.54332 12.0213 7.54332 10.3917C7.54332 9.01136 6.62003 8.22195 4.83345 7.69567L4.09943 7.48331C2.91761 7.13707 2.28516 6.74929 2.28516 6.04297C2.28516 5.24432 3.04226 4.68111 4.15945 4.68111C5.23509 4.68111 5.92756 5.1843 6.0522 6.10298ZM12.8203 9.6392C15.0731 9.6392 16.0472 8.34197 16.0472 6.57848C16.0472 4.82422 15.087 3.54545 12.8064 3.54545H9.4918V13H10.9552V9.6392H12.8203ZM10.9552 4.80114H12.8064C14.1452 4.80114 14.6022 5.54901 14.6022 6.57848C14.6022 7.60795 14.1452 8.38352 12.8203 8.38352H10.9552V4.80114ZM28.0126 7.64489C28.0126 4.91193 26.8123 3.41619 24.8041 3.41619C22.7821 3.41619 21.568 4.91193 21.568 7.64489V8.76207C21.568 11.5504 22.7914 13.1293 24.818 13.1293C26.8262 13.1293 28.0126 11.5504 28.0126 8.76207V7.64489ZM26.5676 8.98828C26.5676 10.6964 25.9629 11.8782 24.818 11.8782C23.65 11.8782 23.013 10.6964 23.013 8.98828V7.41406C23.013 5.7429 23.6362 4.66264 24.8041 4.66264C25.9583 4.66264 26.5676 5.7429 26.5676 7.41406V8.98828Z" transform="translate(475 72)" fill="black"/>
<path opacity="0.1" d="M0 0H6" transform="translate(466 80.5)" stroke="black"/>
<path opacity="0.4" d="M7.03551 7.73722C7.03551 4.96733 5.94602 3.41619 3.89631 3.41619C1.82812 3.41619 0.72017 4.96733 0.72017 7.73722V8.64205C0.72017 11.4304 1.84659 13.1293 3.91477 13.1293C5.96449 13.1293 7.03551 11.4304 7.03551 8.64205V7.73722ZM5.89062 8.84517C5.89062 10.6179 5.26278 12.1136 3.91477 12.1136C2.5483 12.1136 1.86506 10.6179 1.86506 8.84517V7.53409C1.86506 5.7429 2.52983 4.43182 3.89631 4.43182C5.24432 4.43182 5.89062 5.7429 5.89062 7.53409V8.84517ZM10.0895 5.90909H8.83386L11.0867 9.45455L8.83386 13H10.0895L11.7884 10.2486L13.4873 13H14.743L12.4532 9.45455L14.743 5.90909H13.4873L11.7884 8.80824L10.0895 5.90909ZM22.1549 7.75568H18.2402V4.56108H22.7643V3.54545H17.0953V13H18.2402V8.77131H22.1549V7.75568ZM30.4348 7.75568H26.52V4.56108H31.0442V3.54545H25.3752V13H26.52V8.77131H30.4348V7.75568ZM37.0712 13C39.3056 13 40.2289 11.9105 40.2289 10.4886C40.2289 8.9929 39.1948 8.1804 38.3269 8.125V8.03729C39.1348 7.82031 39.8596 7.2848 39.8596 6.05682C39.8596 4.67188 38.9363 3.54545 36.9604 3.54545H33.655V13H37.0712ZM34.7999 4.56108H36.9604C38.2161 4.56108 38.7701 5.22585 38.7701 6.05682C38.7701 7.05398 37.9576 7.70028 36.9235 7.70028H34.7999V4.56108ZM39.1394 10.4886C39.1394 11.3196 38.567 11.9844 37.0712 11.9844H34.7999V8.69744H37.1266C38.3638 8.69744 39.1394 9.52841 39.1394 10.4886ZM47.8198 7.75568H43.905V4.56108H48.4292V3.54545H42.7601V13H43.905V8.77131H47.8198V7.75568Z" transform="translate(0 72)" fill="black"/>
<path opacity="0.1" d="M0 0H6" transform="translate(52 80.5)" stroke="black"/>
<path opacity="0.07" d="M0 0H400" transform="translate(62 80.5)" stroke="black"/>
<rect width="400" height="30" fill="#DEF6E9" transform="translate(62 50)"/>
<path opacity="0.4" d="M6.48153 13H7.81108L5.7706 9.07138C6.8647 8.62358 7.47869 7.74183 7.47869 6.4446C7.47869 4.875 6.5554 3.54545 4.30256 3.54545H1.14489V13H2.28977V9.32528H4.60263L6.48153 13ZM2.28977 4.56108H4.30256C5.98295 4.56108 6.35227 5.55824 6.35227 6.4446C6.35227 7.49716 5.83523 8.27273 4.1733 8.27273H2.28977V4.56108ZM12.3171 13.1477C13.7574 13.1477 14.81 12.4276 15.1424 11.3565L14.0898 11.0611C13.8128 11.7997 13.185 12.169 12.3171 12.169C11.0337 12.169 10.2258 11.3565 10.115 9.82386H15.2532V9.36222C15.2532 6.72159 13.6836 5.81676 12.2063 5.81676C10.2858 5.81676 9.01169 7.33097 9.01169 9.50994C9.01169 11.6889 10.2674 13.1477 12.3171 13.1477ZM12.2063 6.79545C13.3881 6.79545 14.1452 7.68182 14.1452 8.8821H10.1381C10.3135 7.55256 11.1168 6.79545 12.2063 6.79545ZM22.0893 7.49716C21.72 6.46307 20.926 5.81676 19.6149 5.81676C18.1192 5.81676 17.0112 6.66619 17.0112 7.86648C17.0112 8.73438 17.5837 9.50994 18.8763 9.84233L20.0581 10.1378C20.7598 10.304 21.0737 10.6179 21.0737 11.0795C21.0737 11.6705 20.4828 12.206 19.4672 12.206C18.4146 12.206 17.916 11.6335 17.6575 10.9872L16.6604 11.3565C17.0112 12.2429 17.7868 13.1477 19.4856 13.1477C21.2399 13.1477 22.1817 12.1321 22.1817 11.0426C22.1817 10.2301 21.6462 9.49148 20.3535 9.17756L19.301 8.91903C18.4885 8.71591 18.1007 8.29119 18.1007 7.81108C18.1007 7.2017 18.747 6.74006 19.6149 6.74006C20.7044 6.74006 20.9814 7.46023 21.1106 7.77415L22.0893 7.49716ZM27.1701 13.1477C28.6104 13.1477 29.663 12.4276 29.9954 11.3565L28.9428 11.0611C28.6658 11.7997 28.038 12.169 27.1701 12.169C25.8867 12.169 25.0788 11.3565 24.968 9.82386H30.1062V9.36222C30.1062 6.72159 28.5366 5.81676 27.0593 5.81676C25.1388 5.81676 23.8647 7.33097 23.8647 9.50994C23.8647 11.6889 25.1204 13.1477 27.1701 13.1477ZM27.0593 6.79545C28.2411 6.79545 28.9982 7.68182 28.9982 8.8821H24.9911C25.1665 7.55256 25.9698 6.79545 27.0593 6.79545ZM35.9637 6.05682C35.7421 5.92756 35.3912 5.79829 35.0219 5.79829C34.1909 5.79829 33.4154 6.4446 33.2122 7.12784H33.1384V5.90909H32.0489V13H33.1384V8.9929C33.1568 8.03267 33.8216 6.92472 34.985 6.92472C35.2989 6.92472 35.4835 7.01705 35.5943 7.07244L35.9637 6.05682ZM43.2869 5.90909H42.105L40.1477 11.5597H40.0738L38.1164 5.90909H36.9346L39.5568 13H40.6647L43.2869 5.90909ZM47.7167 13.1477C49.157 13.1477 50.2096 12.4276 50.542 11.3565L49.4894 11.0611C49.2124 11.7997 48.5846 12.169 47.7167 12.169C46.4333 12.169 45.6254 11.3565 45.5146 9.82386H50.6528V9.36222C50.6528 6.72159 49.0832 5.81676 47.6059 5.81676C45.6854 5.81676 44.4113 7.33097 44.4113 9.50994C44.4113 11.6889 45.667 13.1477 47.7167 13.1477ZM47.6059 6.79545C48.7877 6.79545 49.5448 7.68182 49.5448 8.8821H45.5377C45.7131 7.55256 46.5164 6.79545 47.6059 6.79545ZM58.523 13V3.54545H57.4335V7.03551H57.3597C57.1196 6.66619 56.6764 5.81676 55.2915 5.81676C53.5003 5.81676 52.2631 7.23864 52.2631 9.47301C52.2631 11.7259 53.5003 13.1477 55.273 13.1477C56.6395 13.1477 57.1196 12.2983 57.3597 11.9105H57.4705V13H58.523ZM53.3526 9.45455C53.3526 7.95881 54.0358 6.79545 55.4208 6.79545C56.7503 6.79545 57.452 7.86648 57.452 9.45455C57.452 11.0611 56.7318 12.169 55.4208 12.169C54.0543 12.169 53.3526 10.9688 53.3526 9.45455Z" transform="translate(111 57)" fill="black" fill-opacity="0.9"/>
<path opacity="0.4" d="M6.27841 5.98295H7.38636C7.29403 4.48722 6.01989 3.41619 4.19176 3.41619C2.3821 3.41619 0.960227 4.46875 0.960227 6.05682C0.960227 7.33097 1.88352 8.08807 3.3608 8.51278L4.52415 8.84517C5.7983 9.21449 6.40767 9.56534 6.40767 10.4148C6.40767 11.4489 5.41051 12.1321 4.09943 12.1321C2.97301 12.1321 1.97585 11.6335 1.88352 10.5625H0.701705C0.8125 12.1136 2.06818 13.1662 4.09943 13.1662C6.27841 13.1662 7.51562 11.9659 7.51562 10.4148C7.51562 9.10369 6.64773 8.30966 4.85653 7.82955L3.89631 7.57102C2.64062 7.23864 2.06818 6.77699 2.06818 6.01989C2.06818 5.09659 2.89915 4.43182 4.15483 4.43182C5.29972 4.43182 6.11222 4.96733 6.27841 5.98295ZM12.833 9.58381C15.0304 9.58381 15.9906 8.2358 15.9906 6.53693C15.9906 4.83807 15.0304 3.54545 12.8145 3.54545H9.65684V13H10.8017V9.58381H12.833ZM10.8017 4.56108H12.8145C14.3472 4.56108 14.8642 5.37358 14.8642 6.53693C14.8642 7.70028 14.3472 8.56818 12.833 8.56818H10.8017V4.56108ZM28.0553 7.75568H25.6178V5.31818H24.5837V7.75568H22.1462V8.78977H24.5837V11.2273H25.6178V8.78977H28.0553V7.75568ZM36.7669 10.2116H35.4743V3.54545H34.274L30.0084 10.5071V11.2273H34.4587V13H35.4743V11.2273H36.7669V10.2116ZM31.4303 10.2116L34.274 5.44744L34.4587 4.83345V10.2116H31.4303Z" transform="translate(475 42)" fill="black"/>
<path opacity="0.1" d="M0 0H6" transform="translate(466 50.5)" stroke="black"/>
<path opacity="0.4" d="M7.03551 7.73722C7.03551 4.96733 5.94602 3.41619 3.89631 3.41619C1.82812 3.41619 0.72017 4.96733 0.72017 7.73722V8.64205C0.72017 11.4304 1.84659 13.1293 3.91477 13.1293C5.96449 13.1293 7.03551 11.4304 7.03551 8.64205V7.73722ZM5.89062 8.84517C5.89062 10.6179 5.26278 12.1136 3.91477 12.1136C2.5483 12.1136 1.86506 10.6179 1.86506 8.84517V7.53409C1.86506 5.7429 2.52983 4.43182 3.89631 4.43182C5.24432 4.43182 5.89062 5.7429 5.89062 7.53409V8.84517ZM10.0895 5.90909H8.83386L11.0867 9.45455L8.83386 13H10.0895L11.7884 10.2486L13.4873 13H14.743L12.4532 9.45455L14.743 5.90909H13.4873L11.7884 8.80824L10.0895 5.90909ZM22.1549 7.75568H18.2402V4.56108H22.7643V3.54545H17.0953V13H18.2402V8.77131H22.1549V7.75568ZM30.4348 7.75568H26.52V4.56108H31.0442V3.54545H25.3752V13H26.52V8.77131H30.4348V7.75568ZM41.0472 6.5C40.6963 4.56108 39.1452 3.41619 37.2432 3.41619C34.8242 3.41619 33.0699 5.28125 33.0699 8.27273C33.0699 11.2642 34.8242 13.1293 37.2432 13.1293C39.1452 13.1293 40.6963 11.9844 41.0472 10.0455H39.9023C39.6253 11.3565 38.4989 12.0582 37.2432 12.0582C35.5259 12.0582 34.1779 10.7287 34.1779 8.27273C34.1779 5.81676 35.5259 4.48722 37.2432 4.48722C38.4989 4.48722 39.6253 5.18892 39.9023 6.5H41.0472ZM45.5415 8.73438H46.0771C47.2219 8.73438 48.0529 9.30682 48.0529 10.4332C48.0529 11.5781 47.2035 12.1506 46.1509 12.1506C45.0984 12.1506 44.5075 11.5781 44.5075 10.6364H43.3256C43.3256 12.2614 44.5075 13.1293 46.1694 13.1293C47.8498 13.1293 49.2532 12.1321 49.2532 10.4332C49.2532 9.59766 48.907 8.58665 47.6559 8.16193C48.6531 7.6772 49.0501 6.70774 49.0501 6.03835C49.0501 4.32102 47.8498 3.41619 46.2063 3.41619C44.3967 3.41619 43.418 4.52415 43.418 5.90909H44.5075C44.5075 4.98579 45.1722 4.32102 46.1879 4.32102C47.2035 4.32102 47.9237 4.96733 47.9237 6.01989C47.9237 6.92472 47.2589 7.68182 46.0771 7.68182H45.5415V8.73438Z" transform="translate(0 42)" fill="black"/>
<path opacity="0.1" d="M0 0H6" transform="translate(52 50.5)" stroke="black"/>
<path opacity="0.07" d="M0 0H400" transform="translate(62 50.5)" stroke="black"/>
<rect width="70" height="21" fill="#DEF6E9" transform="translate(575 49)"/>
<path d="M5.24432 15H6.33381V10.3281C6.33381 8.07528 4.61648 7.81676 3.71165 7.81676C2.64062 7.81676 1.42188 8.18608 0.867898 9.47869L1.90199 9.84801C2.14205 9.33097 2.71449 8.77699 3.76705 8.77699C4.61648 8.77699 5.24432 9.14631 5.24432 10.3281V10.3466C5.24432 10.8082 4.39489 10.7713 3.41619 10.9006C2.08665 11.0668 0.664773 11.3807 0.664773 12.9872C0.664773 14.3722 1.7358 15.1662 3.08381 15.1662C4.32102 15.1662 4.96733 14.5014 5.18892 14.0398H5.24432V15ZM5.24432 12.4332C5.24432 13.3196 4.54261 14.1875 3.25 14.1875C2.3821 14.1875 1.75426 13.7997 1.75426 13.0426C1.75426 12.2116 2.51136 11.9531 3.3608 11.8423C3.82244 11.7869 5.05966 11.6577 5.24432 11.4361V12.4332ZM14.4718 15V5.54545H13.3823V9.03551H13.3085C13.0684 8.66619 12.6252 7.81676 11.2403 7.81676C9.4491 7.81676 8.21188 9.23864 8.21188 11.473C8.21188 13.7259 9.4491 15.1477 11.2218 15.1477C12.5883 15.1477 13.0684 14.2983 13.3085 13.9105H13.4193V15H14.4718ZM9.30137 11.4545C9.30137 9.95881 9.98461 8.79545 11.3696 8.79545C12.6991 8.79545 13.4008 9.86648 13.4008 11.4545C13.4008 13.0611 12.6806 14.169 11.3696 14.169C10.0031 14.169 9.30137 12.9688 9.30137 11.4545ZM22.6537 15V5.54545H21.5642V9.03551H21.4903C21.2503 8.66619 20.8071 7.81676 19.4222 7.81676C17.631 7.81676 16.3938 9.23864 16.3938 11.473C16.3938 13.7259 17.631 15.1477 19.4037 15.1477C20.7702 15.1477 21.2503 14.2983 21.4903 13.9105H21.6011V15H22.6537ZM17.4832 11.4545C17.4832 9.95881 18.1665 8.79545 19.5514 8.79545C20.881 8.79545 21.5827 9.86648 21.5827 11.4545C21.5827 13.0611 20.8625 14.169 19.5514 14.169C18.185 14.169 17.4832 12.9688 17.4832 11.4545Z" transform="translate(579 49)" fill="black"/>
<path d="M6.0522 6.10298H7.45561C7.3956 4.5103 6.0799 3.41619 4.18715 3.41619C2.30362 3.41619 0.867898 4.47337 0.867898 6.06143C0.867898 7.37713 1.86506 8.1804 3.37464 8.62358L4.22408 8.86825C5.55824 9.26989 6.13068 9.63459 6.13068 10.3963C6.13068 11.2596 5.31818 11.8828 4.10405 11.8828C3.01918 11.8828 2.14205 11.3842 2.06818 10.3594H0.600142C0.678622 12.1321 2.12358 13.1523 4.10405 13.1523C6.24148 13.1523 7.54332 12.0213 7.54332 10.3917C7.54332 9.01136 6.62003 8.22195 4.83345 7.69567L4.09943 7.48331C2.91761 7.13707 2.28516 6.74929 2.28516 6.04297C2.28516 5.24432 3.04226 4.68111 4.15945 4.68111C5.23509 4.68111 5.92756 5.1843 6.0522 6.10298ZM12.8203 9.6392C15.0731 9.6392 16.0472 8.34197 16.0472 6.57848C16.0472 4.82422 15.087 3.54545 12.8064 3.54545H9.4918V13H10.9552V9.6392H12.8203ZM10.9552 4.80114H12.8064C14.1452 4.80114 14.6022 5.54901 14.6022 6.57848C14.6022 7.60795 14.1452 8.38352 12.8203 8.38352H10.9552V4.80114ZM6.24609 28.6357H2.45597V25.8011H6.86932V24.5455H0.992543V34H2.45597V29.896H6.24609V28.6357ZM12.2109 30.6392C14.4637 30.6392 15.4378 29.342 15.4378 27.5785C15.4378 25.8242 14.4776 24.5455 12.1971 24.5455H8.88243V34H10.3458V30.6392H12.2109ZM10.3458 25.8011H12.1971C13.5358 25.8011 13.9929 26.549 13.9929 27.5785C13.9929 28.608 13.5358 29.3835 12.2109 29.3835H10.3458V25.8011ZM6.24609 56H7.89879L5.89524 52.0945C6.92472 51.6374 7.54794 50.7695 7.54794 49.4631C7.54794 47.8058 6.55078 46.5455 4.30256 46.5455H0.992543V56H2.45597V52.3899H4.4272L6.24609 56ZM2.45597 47.8011H4.30256C5.69212 47.8011 6.10298 48.6183 6.10298 49.4815C6.10298 50.4602 5.58594 51.1112 4.21484 51.1112H2.45597V47.8011ZM12.7083 46.5455H11.4388C11.3649 46.6424 10.8941 48.0089 9.32445 48.0089V49.2045C10.3862 49.2045 11.1156 48.8306 11.2726 48.5398H11.3465V56H12.7083V46.5455ZM6.24609 78H7.89879L5.89524 74.0945C6.92472 73.6374 7.54794 72.7695 7.54794 71.4631C7.54794 69.8058 6.55078 68.5455 4.30256 68.5455H0.992543V78H2.45597V74.3899H4.4272L6.24609 78ZM2.45597 69.8011H4.30256C5.69212 69.8011 6.10298 70.6183 6.10298 71.4815C6.10298 72.4602 5.58594 73.1112 4.21484 73.1112H2.45597V69.8011ZM15.5659 76.7443H11.2726V76.6889L13.387 74.5192C14.4718 73.4066 15.3166 72.294 15.3166 71.1353C15.3166 69.5472 14.1025 68.4162 12.3482 68.4162C10.3216 68.4162 9.366 69.9304 9.366 71.5277H10.7879C10.7879 70.5167 11.208 69.5934 12.3113 69.5934C13.3085 69.5934 13.9132 70.3366 13.9132 71.1861C13.9132 71.9062 13.4608 72.5479 12.4036 73.6328L9.16288 76.9382V78H15.5659V76.7443Z" transform="translate(702 27)" fill="black"/>
<path d="M7.03551 7.73722C7.03551 4.96733 5.94602 3.41619 3.89631 3.41619C1.82812 3.41619 0.72017 4.96733 0.72017 7.73722V8.64205C0.72017 11.4304 1.84659 13.1293 3.91477 13.1293C5.96449 13.1293 7.03551 11.4304 7.03551 8.64205V7.73722ZM5.89062 8.84517C5.89062 10.6179 5.26278 12.1136 3.91477 12.1136C2.5483 12.1136 1.86506 10.6179 1.86506 8.84517V7.53409C1.86506 5.7429 2.52983 4.43182 3.89631 4.43182C5.24432 4.43182 5.89062 5.7429 5.89062 7.53409V8.84517ZM10.0895 5.90909H8.83386L11.0867 9.45455L8.83386 13H10.0895L11.7884 10.2486L13.4873 13H14.743L12.4532 9.45455L14.743 5.90909H13.4873L11.7884 8.80824L10.0895 5.90909ZM22.1549 7.75568H18.2402V4.56108H22.7643V3.54545H17.0953V13H18.2402V8.77131H22.1549V7.75568ZM30.4348 7.75568H26.52V4.56108H31.0442V3.54545H25.3752V13H26.52V8.77131H30.4348V7.75568ZM37.0712 13C39.3056 13 40.2289 11.9105 40.2289 10.4886C40.2289 8.9929 39.1948 8.1804 38.3269 8.125V8.03729C39.1348 7.82031 39.8596 7.2848 39.8596 6.05682C39.8596 4.67188 38.9363 3.54545 36.9604 3.54545H33.655V13H37.0712ZM34.7999 4.56108H36.9604C38.2161 4.56108 38.7701 5.22585 38.7701 6.05682C38.7701 7.05398 37.9576 7.70028 36.9235 7.70028H34.7999V4.56108ZM39.1394 10.4886C39.1394 11.3196 38.567 11.9844 37.0712 11.9844H34.7999V8.69744H37.1266C38.3638 8.69744 39.1394 9.52841 39.1394 10.4886ZM47.8198 7.75568H43.905V4.56108H48.4292V3.54545H42.7601V13H43.905V8.77131H47.8198V7.75568ZM7.03551 28.7372C7.03551 25.9673 5.94602 24.4162 3.89631 24.4162C1.82812 24.4162 0.72017 25.9673 0.72017 28.7372V29.642C0.72017 32.4304 1.84659 34.1293 3.91477 34.1293C5.96449 34.1293 7.03551 32.4304 7.03551 29.642V28.7372ZM5.89062 29.8452C5.89062 31.6179 5.26278 33.1136 3.91477 33.1136C2.5483 33.1136 1.86506 31.6179 1.86506 29.8452V28.5341C1.86506 26.7429 2.52983 25.4318 3.89631 25.4318C5.24432 25.4318 5.89062 26.7429 5.89062 28.5341V29.8452ZM10.0895 26.9091H8.83386L11.0867 30.4545L8.83386 34H10.0895L11.7884 31.2486L13.4873 34H14.743L12.4532 30.4545L14.743 26.9091H13.4873L11.7884 29.8082L10.0895 26.9091ZM22.1549 28.7557H18.2402V25.5611H22.7643V24.5455H17.0953V34H18.2402V29.7713H22.1549V28.7557ZM30.4348 28.7557H26.52V25.5611H31.0442V24.5455H25.3752V34H26.52V29.7713H30.4348V28.7557ZM41.0472 27.5C40.6963 25.5611 39.1452 24.4162 37.2432 24.4162C34.8242 24.4162 33.0699 26.2812 33.0699 29.2727C33.0699 32.2642 34.8242 34.1293 37.2432 34.1293C39.1452 34.1293 40.6963 32.9844 41.0472 31.0455H39.9023C39.6253 32.3565 38.4989 33.0582 37.2432 33.0582C35.5259 33.0582 34.1779 31.7287 34.1779 29.2727C34.1779 26.8168 35.5259 25.4872 37.2432 25.4872C38.4989 25.4872 39.6253 26.1889 39.9023 27.5H41.0472ZM48.6069 28.7557H44.6921V25.5611H49.2163V24.5455H43.5472V34H44.6921V29.7713H48.6069V28.7557ZM7.23864 53.2116H5.94602V46.5455H4.74574L0.480114 53.5071V54.2273H4.9304V56H5.94602V54.2273H7.23864V53.2116ZM1.90199 53.2116L4.74574 48.4474L4.9304 47.8335V53.2116H1.90199ZM15.4423 50.7372C15.4423 47.9673 14.3529 46.4162 12.3031 46.4162C10.235 46.4162 9.12701 47.9673 9.12701 50.7372V51.642C9.12701 54.4304 10.2534 56.1293 12.3216 56.1293C14.3713 56.1293 15.4423 54.4304 15.4423 51.642V50.7372ZM14.2975 51.8452C14.2975 53.6179 13.6696 55.1136 12.3216 55.1136C10.9551 55.1136 10.2719 53.6179 10.2719 51.8452V50.5341C10.2719 48.7429 10.9367 47.4318 12.3031 47.4318C13.6512 47.4318 14.2975 48.7429 14.2975 50.5341V51.8452Z" transform="translate(735 27)" fill="black"/>
<path d="M4.0625 75.3409C4.0625 72.8665 6.37074 73.2173 6.37074 70.9091C6.37074 69.4688 5.42898 68.4162 3.80398 68.4162C2.30824 68.4162 1.14489 69.3395 1.14489 70.9091H2.30824C2.30824 69.8196 3.04688 69.3764 3.80398 69.3764C4.67188 69.3764 5.26278 69.9489 5.26278 70.8537C5.26278 72.6818 2.95455 72.331 2.95455 75.3409H4.0625ZM3.50852 78.1477C3.98864 78.1477 4.39489 77.7599 4.39489 77.2614C4.39489 76.7628 3.98864 76.3565 3.50852 76.3565C3.00994 76.3565 2.62216 76.7628 2.62216 77.2614C2.62216 77.7599 3.00994 78.1477 3.50852 78.1477Z" transform="translate(735 27)" fill="black" fill-opacity="0.3"/>
<path opacity="0.4" d="M6.48153 13H7.81108L5.7706 9.07138C6.8647 8.62358 7.47869 7.74183 7.47869 6.4446C7.47869 4.875 6.5554 3.54545 4.30256 3.54545H1.14489V13H2.28977V9.32528H4.60263L6.48153 13ZM2.28977 4.56108H4.30256C5.98295 4.56108 6.35227 5.55824 6.35227 6.4446C6.35227 7.49716 5.83523 8.27273 4.1733 8.27273H2.28977V4.56108ZM12.3171 13.1477C13.7574 13.1477 14.81 12.4276 15.1424 11.3565L14.0898 11.0611C13.8128 11.7997 13.185 12.169 12.3171 12.169C11.0337 12.169 10.2258 11.3565 10.115 9.82386H15.2532V9.36222C15.2532 6.72159 13.6836 5.81676 12.2063 5.81676C10.2858 5.81676 9.01169 7.33097 9.01169 9.50994C9.01169 11.6889 10.2674 13.1477 12.3171 13.1477ZM12.2063 6.79545C13.3881 6.79545 14.1452 7.68182 14.1452 8.8821H10.1381C10.3135 7.55256 11.1168 6.79545 12.2063 6.79545ZM22.0709 5.90909V7.03551H21.9601C21.72 6.66619 21.2768 5.81676 19.8919 5.81676C18.1007 5.81676 16.8635 7.23864 16.8635 9.41761C16.8635 11.6335 18.1561 12.8892 19.8734 12.8892C21.2584 12.8892 21.7016 12.0767 21.9416 11.6889H22.0339V12.9446C22.0524 14.1264 21.1106 14.6804 20.0212 14.6804C18.8024 14.6804 18.3038 13.9787 18.0268 13.6278L17.1589 14.2372C17.6021 14.9943 18.507 15.6591 20.0212 15.6591C21.6646 15.6591 23.1234 14.8835 23.1234 13.0554V5.90909H22.0709ZM17.953 9.39915C17.953 7.95881 18.6362 6.79545 20.0212 6.79545C21.3507 6.79545 22.0524 7.86648 22.0524 9.39915C22.0524 10.9688 21.3322 11.9105 20.0212 11.9105C18.6547 11.9105 17.953 10.8764 17.953 9.39915ZM25.9133 4.89347C26.3934 4.89347 26.6888 4.56108 26.6888 4.15483C26.6888 3.78551 26.3934 3.41619 25.9133 3.41619C25.4331 3.41619 25.1377 3.78551 25.1377 4.15483C25.1377 4.56108 25.4331 4.89347 25.9133 4.89347ZM26.4672 5.90909H25.3777V13H26.4672V5.90909ZM33.6162 7.49716C33.2469 6.46307 32.4528 5.81676 31.1417 5.81676C29.646 5.81676 28.538 6.66619 28.538 7.86648C28.538 8.73438 29.1105 9.50994 30.4031 9.84233L31.5849 10.1378C32.2866 10.304 32.6005 10.6179 32.6005 11.0795C32.6005 11.6705 32.0096 12.206 30.994 12.206C29.9415 12.206 29.4429 11.6335 29.1844 10.9872L28.1872 11.3565C28.538 12.2429 29.3136 13.1477 31.0125 13.1477C32.7667 13.1477 33.7085 12.1321 33.7085 11.0426C33.7085 10.2301 33.173 9.49148 31.8804 9.17756L30.8278 8.91903C30.0153 8.71591 29.6275 8.29119 29.6275 7.81108C29.6275 7.2017 30.2738 6.74006 31.1417 6.74006C32.2312 6.74006 32.5082 7.46023 32.6375 7.77415L33.6162 7.49716ZM38.6335 5.90909H37.1192V4.39489H36.0298V5.90909H34.9587V6.92472H36.0298V11.2642C36.0298 12.5014 37.0269 13.0923 37.9502 13.0923C38.3565 13.0923 38.615 13.0185 38.7627 12.9631L38.5411 11.9844C38.4488 12.0028 38.3011 12.0398 38.061 12.0398C37.5809 12.0398 37.1192 11.892 37.1192 10.9688V6.92472H38.6335V5.90909ZM43.4257 13.1477C44.866 13.1477 45.9186 12.4276 46.251 11.3565L45.1984 11.0611C44.9214 11.7997 44.2936 12.169 43.4257 12.169C42.1423 12.169 41.3344 11.3565 41.2236 9.82386H46.3618V9.36222C46.3618 6.72159 44.7922 5.81676 43.3149 5.81676C41.3944 5.81676 40.1203 7.33097 40.1203 9.50994C40.1203 11.6889 41.376 13.1477 43.4257 13.1477ZM43.3149 6.79545C44.4967 6.79545 45.2538 7.68182 45.2538 8.8821H41.2467C41.4221 7.55256 42.2254 6.79545 43.3149 6.79545ZM52.2192 6.05682C51.9976 5.92756 51.6468 5.79829 51.2775 5.79829C50.4465 5.79829 49.6709 6.4446 49.4678 7.12784H49.394V5.90909H48.3045V13H49.394V8.9929C49.4124 8.03267 50.0772 6.92472 51.2405 6.92472C51.5545 6.92472 51.7391 7.01705 51.8499 7.07244L52.2192 6.05682ZM63.3064 5.90909H62.1245L60.1671 11.5597H60.0933L58.1359 5.90909H56.9541L59.5762 13H60.6842L63.3064 5.90909ZM68.9976 13H70.0871V8.32812C70.0871 6.07528 68.3698 5.81676 67.465 5.81676C66.3939 5.81676 65.1752 6.18608 64.6212 7.47869L65.6553 7.84801C65.8954 7.33097 66.4678 6.77699 67.5204 6.77699C68.3698 6.77699 68.9976 7.14631 68.9976 8.32812V8.34659C68.9976 8.80824 68.1482 8.77131 67.1695 8.90057C65.84 9.06676 64.4181 9.38068 64.4181 10.9872C64.4181 12.3722 65.4891 13.1662 66.8371 13.1662C68.0743 13.1662 68.7207 12.5014 68.9422 12.0398H68.9976V13ZM68.9976 10.4332C68.9976 11.3196 68.2959 12.1875 67.0033 12.1875C66.1354 12.1875 65.5076 11.7997 65.5076 11.0426C65.5076 10.2116 66.2647 9.95312 67.1141 9.84233C67.5758 9.78693 68.813 9.65767 68.9976 9.43608V10.4332ZM73.4252 3.54545H72.3357V13H73.4252V3.54545ZM80.1494 10.1932C80.1494 11.5227 79.1338 12.0398 78.3213 12.0398C77.4164 12.0398 76.7701 11.4489 76.7701 10.4148V5.90909H75.6806V10.4148C75.6806 12.2798 76.9363 13.0923 77.9704 13.0923C79.0414 13.0923 79.7247 12.5384 80.0755 12.0028H80.1494V13H81.2389V5.90909H80.1494V10.1932ZM86.4674 13.1477C87.9077 13.1477 88.9603 12.4276 89.2926 11.3565L88.2401 11.0611C87.9631 11.7997 87.3353 12.169 86.4674 12.169C85.184 12.169 84.3761 11.3565 84.2653 9.82386H89.4034V9.36222C89.4034 6.72159 87.8338 5.81676 86.3566 5.81676C84.4361 5.81676 83.162 7.33097 83.162 9.50994C83.162 11.6889 84.4176 13.1477 86.4674 13.1477ZM86.3566 6.79545C87.5384 6.79545 88.2955 7.68182 88.2955 8.8821H84.2884C84.4638 7.55256 85.2671 6.79545 86.3566 6.79545ZM96.2396 7.49716C95.8703 6.46307 95.0763 5.81676 93.7652 5.81676C92.2694 5.81676 91.1615 6.66619 91.1615 7.86648C91.1615 8.73438 91.7339 9.50994 93.0265 9.84233L94.2084 10.1378C94.9101 10.304 95.224 10.6179 95.224 11.0795C95.224 11.6705 94.6331 12.206 93.6174 12.206C92.5649 12.206 92.0663 11.6335 91.8078 10.9872L90.8106 11.3565C91.1615 12.2429 91.9371 13.1477 93.6359 13.1477C95.3902 13.1477 96.3319 12.1321 96.3319 11.0426C96.3319 10.2301 95.7964 9.49148 94.5038 9.17756L93.4513 8.91903C92.6388 8.71591 92.251 8.29119 92.251 7.81108C92.251 7.2017 92.8973 6.74006 93.7652 6.74006C94.8547 6.74006 95.1317 7.46023 95.2609 7.77415L96.2396 7.49716Z" transform="translate(702 2)" fill="black"/>
<path opacity="0.4" d="M8.75284 6.5C8.40199 4.56108 6.85085 3.41619 4.94886 3.41619C2.52983 3.41619 0.775568 5.28125 0.775568 8.27273C0.775568 11.2642 2.52983 13.1293 4.94886 13.1293C6.85085 13.1293 8.40199 11.9844 8.75284 10.0455H7.60796C7.33097 11.3565 6.20455 12.0582 4.94886 12.0582C3.23153 12.0582 1.88352 10.7287 1.88352 8.27273C1.88352 5.81676 3.23153 4.48722 4.94886 4.48722C6.20455 4.48722 7.33097 5.18892 7.60796 6.5H8.75284ZM14.9623 13H16.0518V8.32812C16.0518 6.07528 14.3345 5.81676 13.4297 5.81676C12.3586 5.81676 11.1399 6.18608 10.5859 7.47869L11.62 7.84801C11.8601 7.33097 12.4325 6.77699 13.4851 6.77699C14.3345 6.77699 14.9623 7.14631 14.9623 8.32812V8.34659C14.9623 8.80824 14.1129 8.77131 13.1342 8.90057C11.8047 9.06676 10.3828 9.38068 10.3828 10.9872C10.3828 12.3722 11.4538 13.1662 12.8018 13.1662C14.039 13.1662 14.6853 12.5014 14.9069 12.0398H14.9623V13ZM14.9623 10.4332C14.9623 11.3196 14.2606 12.1875 12.968 12.1875C12.1001 12.1875 11.4723 11.7997 11.4723 11.0426C11.4723 10.2116 12.2294 9.95312 13.0788 9.84233C13.5405 9.78693 14.7777 9.65767 14.9623 9.43608V10.4332ZM19.3899 3.54545H18.3004V13H19.3899V3.54545ZM22.5825 3.54545H21.493V13H22.5825V3.54545ZM33.6477 7.49716C33.2783 6.46307 32.4843 5.81676 31.1732 5.81676C29.6775 5.81676 28.5695 6.66619 28.5695 7.86648C28.5695 8.73438 29.142 9.50994 30.4346 9.84233L31.6164 10.1378C32.3181 10.304 32.632 10.6179 32.632 11.0795C32.632 11.6705 32.0411 12.206 31.0255 12.206C29.9729 12.206 29.4744 11.6335 29.2158 10.9872L28.2187 11.3565C28.5695 12.2429 29.3451 13.1477 31.044 13.1477C32.7982 13.1477 33.74 12.1321 33.74 11.0426C33.74 10.2301 33.2045 9.49148 31.9119 9.17756L30.8593 8.91903C30.0468 8.71591 29.659 8.29119 29.659 7.81108C29.659 7.2017 30.3053 6.74006 31.1732 6.74006C32.2627 6.74006 32.5397 7.46023 32.669 7.77415L33.6477 7.49716ZM38.6649 5.90909H37.1507V4.39489H36.0612V5.90909H34.9902V6.92472H36.0612V11.2642C36.0612 12.5014 37.0584 13.0923 37.9817 13.0923C38.3879 13.0923 38.6465 13.0185 38.7942 12.9631L38.5726 11.9844C38.4803 12.0028 38.3326 12.0398 38.0925 12.0398C37.6124 12.0398 37.1507 11.892 37.1507 10.9688V6.92472H38.6649V5.90909ZM44.8202 13H45.9097V8.32812C45.9097 6.07528 44.1923 5.81676 43.2875 5.81676C42.2165 5.81676 40.9977 6.18608 40.4438 7.47869L41.4778 7.84801C41.7179 7.33097 42.2903 6.77699 43.3429 6.77699C44.1923 6.77699 44.8202 7.14631 44.8202 8.32812V8.34659C44.8202 8.80824 43.9707 8.77131 42.9921 8.90057C41.6625 9.06676 40.2406 9.38068 40.2406 10.9872C40.2406 12.3722 41.3117 13.1662 42.6597 13.1662C43.8969 13.1662 44.5432 12.5014 44.7648 12.0398H44.8202V13ZM44.8202 10.4332C44.8202 11.3196 44.1185 12.1875 42.8259 12.1875C41.958 12.1875 41.3301 11.7997 41.3301 11.0426C41.3301 10.2116 42.0872 9.95312 42.9367 9.84233C43.3983 9.78693 44.6355 9.65767 44.8202 9.43608V10.4332ZM53.7892 8.03267C53.6045 6.70312 52.4781 5.81676 50.9823 5.81676C49.0619 5.81676 47.7877 7.33097 47.7877 9.45455C47.7877 11.6335 49.025 13.1477 51.0008 13.1477C52.5704 13.1477 53.6045 12.1875 53.7892 10.9318H52.6997C52.4966 11.7074 51.8502 12.169 51.0008 12.169C49.7082 12.169 48.8772 11.098 48.8772 9.45455C48.8772 7.84801 49.7267 6.79545 51.0008 6.79545C51.961 6.79545 52.5335 7.38636 52.6997 8.03267H53.7892ZM59.8313 13H61.1054L58.0216 8.92827L60.81 5.90909H59.462L56.5813 9.10369H56.452V3.54545H55.3625V13H56.452V10.521L57.2876 9.62074L59.8313 13Z" transform="translate(574 2)" fill="black"/>
<rect width="70" height="21" fill="#FFF4BC" transform="translate(575 26)"/>
<path d="M6.11222 10.5497C6.11222 9.55256 6.66619 8.86932 7.62642 8.86932C8.21733 8.86932 9.01136 9.22017 9.01136 10.3281V15H10.1009V10.3651C10.1009 8.62926 9.14062 7.81676 7.95881 7.81676C6.92472 7.81676 6.11222 8.5 5.90909 9.09091H5.83523C5.52131 8.3892 4.89347 7.81676 4.0071 7.81676C3.10227 7.81676 2.36364 8.5 2.16051 9.10938H2.08665V7.90909H0.997159V15H2.08665V10.7713C2.08665 9.60795 2.88068 8.86932 3.71165 8.86932C4.50568 8.86932 5.00426 9.29403 5.00426 10.3651V15H6.11222V10.5497ZM16.6 15H17.6895V10.3281C17.6895 8.07528 15.9722 7.81676 15.0674 7.81676C13.9963 7.81676 12.7776 8.18608 12.2236 9.47869L13.2577 9.84801C13.4977 9.33097 14.0702 8.77699 15.1227 8.77699C15.9722 8.77699 16.6 9.14631 16.6 10.3281V10.3466C16.6 10.8082 15.7506 10.7713 14.7719 10.9006C13.4424 11.0668 12.0205 11.3807 12.0205 12.9872C12.0205 14.3722 13.0915 15.1662 14.4395 15.1662C15.6767 15.1662 16.323 14.5014 16.5446 14.0398H16.6V15ZM16.6 12.4332C16.6 13.3196 15.8983 14.1875 14.6057 14.1875C13.7378 14.1875 13.11 13.7997 13.11 13.0426C13.11 12.2116 13.8671 11.9531 14.7165 11.8423C15.1781 11.7869 16.4154 11.6577 16.6 11.4361V12.4332ZM20.4736 6.89347C20.9537 6.89347 21.2491 6.56108 21.2491 6.15483C21.2491 5.78551 20.9537 5.41619 20.4736 5.41619C19.9935 5.41619 19.698 5.78551 19.698 6.15483C19.698 6.56108 19.9935 6.89347 20.4736 6.89347ZM21.0275 7.90909H19.9381V15H21.0275V7.90909ZM24.3725 10.8082C24.3725 9.47869 25.3881 8.86932 26.2006 8.86932C27.1055 8.86932 27.7518 9.53409 27.7518 10.5682V15H28.8413V10.4943C28.8413 8.68466 27.881 7.81676 26.5515 7.81676C25.4805 7.81676 24.7788 8.3892 24.4464 9.10938H24.3725V7.90909H23.283V15H24.3725V10.8082Z" transform="translate(579 26)" fill="black"/>
</g>
<defs>
<linearGradient id="paint0_linear" x2="1" gradientUnits="userSpaceOnUse" gradientTransform="translate(400) scale(400 20) rotate(90)">
<stop stop-color="#DEF6E9" stop-opacity="0"/>
<stop offset="1" stop-color="#DEF6E9"/>
</linearGradient>
<clipPath id="clip0">
<rect width="800" height="144" fill="white"/>
</clipPath>
</defs>
</svg>
