<svg width="800" height="154" viewBox="0 0 800 154" fill="none" xmlns="http://www.w3.org/2000/svg">
<g clip-path="url(#clip0)">
<rect width="400" height="60" fill="#FFF4BC" transform="translate(62 10)"/>
<path d="M6.48153 13H7.81108L5.7706 9.07138C6.8647 8.62358 7.47869 7.74183 7.47869 6.4446C7.47869 4.875 6.5554 3.54545 4.30256 3.54545H1.14489V13H2.28977V9.32528H4.60263L6.48153 13ZM2.28977 4.56108H4.30256C5.98295 4.56108 6.35227 5.55824 6.35227 6.4446C6.35227 7.49716 5.83523 8.27273 4.1733 8.27273H2.28977V4.56108ZM12.3171 13.1477C13.7574 13.1477 14.81 12.4276 15.1424 11.3565L14.0898 11.0611C13.8128 11.7997 13.185 12.169 12.3171 12.169C11.0337 12.169 10.2258 11.3565 10.115 9.82386H15.2532V9.36222C15.2532 6.72159 13.6836 5.81676 12.2063 5.81676C10.2858 5.81676 9.01169 7.33097 9.01169 9.50994C9.01169 11.6889 10.2674 13.1477 12.3171 13.1477ZM12.2063 6.79545C13.3881 6.79545 14.1452 7.68182 14.1452 8.8821H10.1381C10.3135 7.55256 11.1168 6.79545 12.2063 6.79545ZM20.1689 5.90909H18.6547V4.39489H17.5652V5.90909H16.4942V6.92472H17.5652V11.2642C17.5652 12.5014 18.5623 13.0923 19.4856 13.0923C19.8919 13.0923 20.1504 13.0185 20.2981 12.9631L20.0766 11.9844C19.9842 12.0028 19.8365 12.0398 19.5964 12.0398C19.1163 12.0398 18.6547 11.892 18.6547 10.9688V6.92472H20.1689V5.90909ZM26.5457 10.1932C26.5457 11.5227 25.5301 12.0398 24.7176 12.0398C23.8128 12.0398 23.1665 11.4489 23.1665 10.4148V5.90909H22.077V10.4148C22.077 12.2798 23.3326 13.0923 24.3667 13.0923C25.4378 13.0923 26.121 12.5384 26.4719 12.0028H26.5457V13H27.6352V5.90909H26.5457V10.1932ZM33.8054 6.05682C33.5839 5.92756 33.233 5.79829 32.8637 5.79829C32.0327 5.79829 31.2572 6.4446 31.054 7.12784H30.9802V5.90909H29.8907V13H30.9802V8.9929C30.9986 8.03267 31.6634 6.92472 32.8268 6.92472C33.1407 6.92472 33.3253 7.01705 33.4361 7.07244L33.8054 6.05682ZM36.3945 8.80824C36.3945 7.47869 37.4101 6.86932 38.2226 6.86932C39.1274 6.86932 39.7737 7.53409 39.7737 8.56818V13H40.8632V8.49432C40.8632 6.68466 39.903 5.81676 38.5734 5.81676C37.5024 5.81676 36.8007 6.3892 36.4683 7.10938H36.3945V5.90909H35.305V13H36.3945V8.80824ZM51.2821 13H52.3716V8.32812C52.3716 6.07528 50.6543 5.81676 49.7494 5.81676C48.6784 5.81676 47.4596 6.18608 46.9057 7.47869L47.9398 7.84801C48.1798 7.33097 48.7523 6.77699 49.8048 6.77699C50.6543 6.77699 51.2821 7.14631 51.2821 8.32812V8.34659C51.2821 8.80824 50.4327 8.77131 49.454 8.90057C48.1244 9.06676 46.7025 9.38068 46.7025 10.9872C46.7025 12.3722 47.7736 13.1662 49.1216 13.1662C50.3588 13.1662 51.0051 12.5014 51.2267 12.0398H51.2821V13ZM51.2821 10.4332C51.2821 11.3196 50.5804 12.1875 49.2878 12.1875C48.4199 12.1875 47.792 11.7997 47.792 11.0426C47.792 10.2116 48.5491 9.95312 49.3986 9.84233C49.8602 9.78693 51.0974 9.65767 51.2821 9.43608V10.4332ZM60.5096 13V3.54545H59.4201V7.03551H59.3462C59.1062 6.66619 58.663 5.81676 57.2781 5.81676C55.4869 5.81676 54.2497 7.23864 54.2497 9.47301C54.2497 11.7259 55.4869 13.1477 57.2596 13.1477C58.6261 13.1477 59.1062 12.2983 59.3462 11.9105H59.457V13H60.5096ZM55.3391 9.45455C55.3391 7.95881 56.0224 6.79545 57.4073 6.79545C58.7369 6.79545 59.4386 7.86648 59.4386 9.45455C59.4386 11.0611 58.7184 12.169 57.4073 12.169C56.0409 12.169 55.3391 10.9688 55.3391 9.45455ZM68.6915 13V3.54545H67.602V7.03551H67.5281C67.2881 6.66619 66.8449 5.81676 65.4599 5.81676C63.6687 5.81676 62.4315 7.23864 62.4315 9.47301C62.4315 11.7259 63.6687 13.1477 65.4415 13.1477C66.808 13.1477 67.2881 12.2983 67.5281 11.9105H67.6389V13H68.6915ZM63.521 9.45455C63.521 7.95881 64.2043 6.79545 65.5892 6.79545C66.9187 6.79545 67.6205 7.86648 67.6205 9.45455C67.6205 11.0611 66.9003 12.169 65.5892 12.169C64.2227 12.169 63.521 10.9688 63.521 9.45455ZM74.8606 6.05682C74.639 5.92756 74.2881 5.79829 73.9188 5.79829C73.0878 5.79829 72.3123 6.4446 72.1091 7.12784H72.0353V5.90909H70.9458V13H72.0353V8.9929C72.0537 8.03267 72.7185 6.92472 73.8819 6.92472C74.1958 6.92472 74.3804 7.01705 74.4912 7.07244L74.8606 6.05682ZM78.9142 13.1477C80.3545 13.1477 81.4071 12.4276 81.7394 11.3565L80.6869 11.0611C80.4099 11.7997 79.7821 12.169 78.9142 12.169C77.6308 12.169 76.8229 11.3565 76.7121 9.82386H81.8502V9.36222C81.8502 6.72159 80.2806 5.81676 78.8034 5.81676C76.8829 5.81676 75.6088 7.33097 75.6088 9.50994C75.6088 11.6889 76.8644 13.1477 78.9142 13.1477ZM78.8034 6.79545C79.9852 6.79545 80.7423 7.68182 80.7423 8.8821H76.7352C76.9106 7.55256 77.7139 6.79545 78.8034 6.79545ZM88.6864 7.49716C88.3171 6.46307 87.5231 5.81676 86.212 5.81676C84.7162 5.81676 83.6083 6.66619 83.6083 7.86648C83.6083 8.73438 84.1807 9.50994 85.4733 9.84233L86.6552 10.1378C87.3569 10.304 87.6708 10.6179 87.6708 11.0795C87.6708 11.6705 87.0799 12.206 86.0643 12.206C85.0117 12.206 84.5131 11.6335 84.2546 10.9872L83.2574 11.3565C83.6083 12.2429 84.3839 13.1477 86.0827 13.1477C87.837 13.1477 88.7787 12.1321 88.7787 11.0426C88.7787 10.2301 88.2432 9.49148 86.9506 9.17756L85.8981 8.91903C85.0856 8.71591 84.6978 8.29119 84.6978 7.81108C84.6978 7.2017 85.3441 6.74006 86.212 6.74006C87.3015 6.74006 87.5785 7.46023 87.7077 7.77415L88.6864 7.49716ZM95.5607 7.49716C95.1914 6.46307 94.3973 5.81676 93.0862 5.81676C91.5905 5.81676 90.4825 6.66619 90.4825 7.86648C90.4825 8.73438 91.055 9.50994 92.3476 9.84233L93.5294 10.1378C94.2311 10.304 94.545 10.6179 94.545 11.0795C94.545 11.6705 93.9541 12.206 92.9385 12.206C91.886 12.206 91.3874 11.6335 91.1289 10.9872L90.1317 11.3565C90.4825 12.2429 91.2581 13.1477 92.957 13.1477C94.7112 13.1477 95.653 12.1321 95.653 11.0426C95.653 10.2301 95.1175 9.49148 93.8249 9.17756L92.7723 8.91903C91.9598 8.71591 91.572 8.29119 91.572 7.81108C91.572 7.2017 92.2183 6.74006 93.0862 6.74006C94.1757 6.74006 94.4527 7.46023 94.582 7.77415L95.5607 7.49716ZM102.065 13H103.154V6.92472H104.742V5.90909H103.154V5.50284C103.154 4.80114 103.45 4.43182 104.17 4.43182C104.484 4.43182 104.668 4.50568 104.779 4.54261L105.093 3.60085C104.927 3.52699 104.595 3.41619 104.059 3.41619C103.043 3.41619 102.065 4.02557 102.065 5.24432V5.90909H100.92V6.92472H102.065V13ZM109.093 13.1477C111.013 13.1477 112.306 11.6889 112.306 9.49148C112.306 7.27557 111.013 5.81676 109.093 5.81676C107.172 5.81676 105.879 7.27557 105.879 9.49148C105.879 11.6889 107.172 13.1477 109.093 13.1477ZM109.093 12.169C107.634 12.169 106.969 10.9134 106.969 9.49148C106.969 8.0696 107.634 6.79545 109.093 6.79545C110.551 6.79545 111.216 8.0696 111.216 9.49148C111.216 10.9134 110.551 12.169 109.093 12.169ZM118.143 6.05682C117.922 5.92756 117.571 5.79829 117.202 5.79829C116.371 5.79829 115.595 6.4446 115.392 7.12784H115.318V5.90909H114.229V13H115.318V8.9929C115.337 8.03267 116.001 6.92472 117.165 6.92472C117.479 6.92472 117.663 7.01705 117.774 7.07244L118.143 6.05682ZM128.547 8.54972C128.547 7.55256 129.101 6.86932 130.062 6.86932C130.652 6.86932 131.446 7.22017 131.446 8.32812V13H132.536V8.36506C132.536 6.62926 131.576 5.81676 130.394 5.81676C129.36 5.81676 128.547 6.5 128.344 7.09091H128.27C127.956 6.3892 127.329 5.81676 126.442 5.81676C125.537 5.81676 124.799 6.5 124.596 7.10938H124.522V5.90909H123.432V13H124.522V8.77131C124.522 7.60795 125.316 6.86932 126.147 6.86932C126.941 6.86932 127.439 7.29403 127.439 8.36506V13H128.547V8.54972ZM139.035 13H140.125V8.32812C140.125 6.07528 138.407 5.81676 137.502 5.81676C136.431 5.81676 135.213 6.18608 134.659 7.47869L135.693 7.84801C135.933 7.33097 136.505 6.77699 137.558 6.77699C138.407 6.77699 139.035 7.14631 139.035 8.32812V8.34659C139.035 8.80824 138.186 8.77131 137.207 8.90057C135.877 9.06676 134.456 9.38068 134.456 10.9872C134.456 12.3722 135.527 13.1662 136.875 13.1662C138.112 13.1662 138.758 12.5014 138.98 12.0398H139.035V13ZM139.035 10.4332C139.035 11.3196 138.333 12.1875 137.041 12.1875C136.173 12.1875 135.545 11.7997 135.545 11.0426C135.545 10.2116 136.302 9.95312 137.152 9.84233C137.613 9.78693 138.85 9.65767 139.035 9.43608V10.4332ZM142.909 4.89347C143.389 4.89347 143.684 4.56108 143.684 4.15483C143.684 3.78551 143.389 3.41619 142.909 3.41619C142.429 3.41619 142.133 3.78551 142.133 4.15483C142.133 4.56108 142.429 4.89347 142.909 4.89347ZM143.463 5.90909H142.373V13H143.463V5.90909ZM146.808 8.80824C146.808 7.47869 147.823 6.86932 148.636 6.86932C149.541 6.86932 150.187 7.53409 150.187 8.56818V13H151.276V8.49432C151.276 6.68466 150.316 5.81676 148.987 5.81676C147.916 5.81676 147.214 6.3892 146.881 7.10938H146.808V5.90909H145.718V13H146.808V8.80824Z" transform="translate(111 17)" fill="black" fill-opacity="0.9"/>
<path d="M11.0422 10.1932C11.0422 11.5227 10.0266 12.0398 9.21409 12.0398C8.30926 12.0398 7.66296 11.4489 7.66296 10.4148V5.90909H6.57347V10.4148C6.57347 12.2798 7.82915 13.0923 8.86324 13.0923C9.93426 13.0923 10.6175 12.5384 10.9684 12.0028H11.0422V13H12.1317V5.90909H11.0422V10.1932ZM18.9852 5.90909H20.0747C19.7423 4.28409 18.819 3.39773 17.3233 3.39773C15.1627 3.39773 14.1471 5.24432 14.1471 8.16193V8.47585C14.1471 11.5043 15.1627 13.1293 17.2309 13.1293C19.1883 13.1293 20.2224 11.6705 20.2224 10.0824C20.2224 8.51278 19.1883 7.05398 17.3787 7.05398C16.64 7.05398 15.8368 7.29865 15.2782 7.91264C15.3428 5.06889 16.3584 4.43182 17.3417 4.43182C18.4497 4.43182 18.7636 5.24432 18.9852 5.90909ZM17.3602 8.0696C18.6528 8.0696 19.1329 9.02983 19.1329 10.0824C19.1329 11.3565 18.4127 12.1321 17.3233 12.1321C16.2984 12.1321 15.3843 11.4442 15.3659 10.0316C15.3843 8.84979 16.1922 8.0696 17.3602 8.0696ZM28.6455 10.2116H27.3529V3.54545H26.1526L21.887 10.5071V11.2273H26.3373V13H27.3529V11.2273H28.6455V10.2116ZM23.3088 10.2116L26.1526 5.44744L26.3373 4.83345V10.2116H23.3088Z" transform="translate(70 17)" fill="#517AAA"/>
<path d="M6.0522 6.10298H7.45561C7.3956 4.5103 6.0799 3.41619 4.18715 3.41619C2.30362 3.41619 0.867898 4.47337 0.867898 6.06143C0.867898 7.37713 1.86506 8.1804 3.37464 8.62358L4.22408 8.86825C5.55824 9.26989 6.13068 9.63459 6.13068 10.3963C6.13068 11.2596 5.31818 11.8828 4.10405 11.8828C3.01918 11.8828 2.14205 11.3842 2.06818 10.3594H0.600142C0.678622 12.1321 2.12358 13.1523 4.10405 13.1523C6.24148 13.1523 7.54332 12.0213 7.54332 10.3917C7.54332 9.01136 6.62003 8.22195 4.83345 7.69567L4.09943 7.48331C2.91761 7.13707 2.28516 6.74929 2.28516 6.04297C2.28516 5.24432 3.04226 4.68111 4.15945 4.68111C5.23509 4.68111 5.92756 5.1843 6.0522 6.10298ZM12.8203 9.6392C15.0731 9.6392 16.0472 8.34197 16.0472 6.57848C16.0472 4.82422 15.087 3.54545 12.8064 3.54545H9.4918V13H10.9552V9.6392H12.8203ZM10.9552 4.80114H12.8064C14.1452 4.80114 14.6022 5.54901 14.6022 6.57848C14.6022 7.60795 14.1452 8.38352 12.8203 8.38352H10.9552V4.80114ZM28.0126 7.64489C28.0126 4.91193 26.8123 3.41619 24.8041 3.41619C22.7821 3.41619 21.568 4.91193 21.568 7.64489V8.76207C21.568 11.5504 22.7914 13.1293 24.818 13.1293C26.8262 13.1293 28.0126 11.5504 28.0126 8.76207V7.64489ZM26.5676 8.98828C26.5676 10.6964 25.9629 11.8782 24.818 11.8782C23.65 11.8782 23.013 10.6964 23.013 8.98828V7.41406C23.013 5.7429 23.6362 4.66264 24.8041 4.66264C25.9583 4.66264 26.5676 5.7429 26.5676 7.41406V8.98828Z" transform="translate(475 2)" fill="black"/>
<path opacity="0.1" d="M0 0H6" transform="translate(466 10.5)" stroke="black"/>
<path opacity="0.4" d="M7.03551 7.73722C7.03551 4.96733 5.94602 3.41619 3.89631 3.41619C1.82812 3.41619 0.72017 4.96733 0.72017 7.73722V8.64205C0.72017 11.4304 1.84659 13.1293 3.91477 13.1293C5.96449 13.1293 7.03551 11.4304 7.03551 8.64205V7.73722ZM5.89062 8.84517C5.89062 10.6179 5.26278 12.1136 3.91477 12.1136C2.5483 12.1136 1.86506 10.6179 1.86506 8.84517V7.53409C1.86506 5.7429 2.52983 4.43182 3.89631 4.43182C5.24432 4.43182 5.89062 5.7429 5.89062 7.53409V8.84517ZM10.0895 5.90909H8.83386L11.0867 9.45455L8.83386 13H10.0895L11.7884 10.2486L13.4873 13H14.743L12.4532 9.45455L14.743 5.90909H13.4873L11.7884 8.80824L10.0895 5.90909ZM22.1549 7.75568H18.2402V4.56108H22.7643V3.54545H17.0953V13H18.2402V8.77131H22.1549V7.75568ZM30.4348 7.75568H26.52V4.56108H31.0442V3.54545H25.3752V13H26.52V8.77131H30.4348V7.75568ZM38.7147 7.75568H34.7999V4.56108H39.3241V3.54545H33.655V13H34.7999V8.77131H38.7147V7.75568ZM46.9946 7.75568H43.0798V4.56108H47.604V3.54545H41.9349V13H43.0798V8.77131H46.9946V7.75568Z" transform="translate(0 2)" fill="black"/>
<path opacity="0.1" d="M0 0H6" transform="translate(52 10.5)" stroke="black"/>
<path opacity="0.07" d="M0 0H400" transform="translate(62 10.5)" stroke="black"/>
<mask id="mask0" mask-type="alpha" maskUnits="userSpaceOnUse" x="62" y="70" width="400" height="84">
<rect width="400" height="84" transform="translate(62 154) scale(1 -1)" fill="url(#paint0_linear)"/>
</mask>
<g mask="url(#mask0)">
<rect x="0.5" y="0.5" width="399" height="99.8" transform="translate(62 170.8) scale(1 -1)" stroke="#E7E7E7"/>
</g>
<path opacity="0.4" d="M9.06501 12.983H10.173C10.0806 11.4872 8.80648 10.4162 6.97836 10.4162C5.1687 10.4162 3.74683 11.4688 3.74683 13.0568C3.74683 14.331 4.67012 15.0881 6.14739 15.5128L7.31075 15.8452C8.58489 16.2145 9.19427 16.5653 9.19427 17.4148C9.19427 18.4489 8.19711 19.1321 6.88603 19.1321C5.75961 19.1321 4.76245 18.6335 4.67012 17.5625H3.4883C3.5991 19.1136 4.85478 20.1662 6.88603 20.1662C9.06501 20.1662 10.3022 18.9659 10.3022 17.4148C10.3022 16.1037 9.43433 15.3097 7.64313 14.8295L6.6829 14.571C5.42722 14.2386 4.85478 13.777 4.85478 13.0199C4.85478 12.0966 5.68575 11.4318 6.94143 11.4318C8.08631 11.4318 8.89881 11.9673 9.06501 12.983ZM15.2687 12.9091H13.7545V11.3949H12.665V12.9091H11.594V13.9247H12.665V18.2642C12.665 19.5014 13.6622 20.0923 14.5855 20.0923C14.9917 20.0923 15.2503 20.0185 15.398 19.9631L15.1764 18.9844C15.0841 19.0028 14.9363 19.0398 14.6963 19.0398C14.2162 19.0398 13.7545 18.892 13.7545 17.9688V13.9247H15.2687V12.9091ZM21.424 20H22.5135V15.3281C22.5135 13.0753 20.7961 12.8168 19.8913 12.8168C18.8203 12.8168 17.6015 13.1861 17.0475 14.4787L18.0816 14.848C18.3217 14.331 18.8941 13.777 19.9467 13.777C20.7961 13.777 21.424 14.1463 21.424 15.3281V15.3466C21.424 15.8082 20.5745 15.7713 19.5958 15.9006C18.2663 16.0668 16.8444 16.3807 16.8444 17.9872C16.8444 19.3722 17.9154 20.1662 19.2635 20.1662C20.5007 20.1662 21.147 19.5014 21.3686 19.0398H21.424V20ZM21.424 17.4332C21.424 18.3196 20.7223 19.1875 19.4296 19.1875C18.5617 19.1875 17.9339 18.7997 17.9339 18.0426C17.9339 17.2116 18.691 16.9531 19.5404 16.8423C20.0021 16.7869 21.2393 16.6577 21.424 16.4361V17.4332ZM30.3929 15.0327C30.2083 13.7031 29.0819 12.8168 27.5861 12.8168C25.6657 12.8168 24.3915 14.331 24.3915 16.4545C24.3915 18.6335 25.6287 20.1477 27.6046 20.1477C29.1742 20.1477 30.2083 19.1875 30.3929 17.9318H29.3035C29.1003 18.7074 28.454 19.169 27.6046 19.169C26.312 19.169 25.481 18.098 25.481 16.4545C25.481 14.848 26.3304 13.7955 27.6046 13.7955C28.5648 13.7955 29.1373 14.3864 29.3035 15.0327H30.3929ZM36.4351 20H37.7092L34.6254 15.9283L37.4138 12.9091H36.0658L33.1851 16.1037H33.0558V10.5455H31.9663V20H33.0558V17.521L33.8914 16.6207L36.4351 20ZM47.9365 12.9091V14.0355H47.8257C47.5857 13.6662 47.1425 12.8168 45.7576 12.8168C43.9664 12.8168 42.7291 14.2386 42.7291 16.4176C42.7291 18.6335 44.0218 19.8892 45.7391 19.8892C47.124 19.8892 47.5672 19.0767 47.8073 18.6889H47.8996V19.9446C47.9181 21.1264 46.9763 21.6804 45.8868 21.6804C44.6681 21.6804 44.1695 20.9787 43.8925 20.6278L43.0246 21.2372C43.4678 21.9943 44.3726 22.6591 45.8868 22.6591C47.5303 22.6591 48.9891 21.8835 48.9891 20.0554V12.9091H47.9365ZM43.8186 16.3991C43.8186 14.9588 44.5019 13.7955 45.8868 13.7955C47.2164 13.7955 47.9181 14.8665 47.9181 16.3991C47.9181 17.9688 47.1979 18.9105 45.8868 18.9105C44.5203 18.9105 43.8186 17.8764 43.8186 16.3991ZM55.1582 13.0568C54.9366 12.9276 54.5857 12.7983 54.2164 12.7983C53.3855 12.7983 52.6099 13.4446 52.4068 14.1278H52.3329V12.9091H51.2434V20H52.3329V15.9929C52.3514 15.0327 53.0161 13.9247 54.1795 13.9247C54.4934 13.9247 54.6781 14.017 54.7889 14.0724L55.1582 13.0568ZM59.1194 20.1477C61.0399 20.1477 62.3325 18.6889 62.3325 16.4915C62.3325 14.2756 61.0399 12.8168 59.1194 12.8168C57.199 12.8168 55.9064 14.2756 55.9064 16.4915C55.9064 18.6889 57.199 20.1477 59.1194 20.1477ZM59.1194 19.169C57.6606 19.169 56.9959 17.9134 56.9959 16.4915C56.9959 15.0696 57.6606 13.7955 59.1194 13.7955C60.5782 13.7955 61.243 15.0696 61.243 16.4915C61.243 17.9134 60.5782 19.169 59.1194 19.169ZM73.1238 12.9091H71.979L70.4463 18.3196H70.3724L68.8767 12.9091H67.7133L66.1991 18.3381H66.1253L64.5926 12.9091H63.4477L65.6082 20H66.6792L68.2304 14.5526H68.3412L69.8923 20H70.9633L73.1238 12.9091ZM79.5272 14.4972C79.1579 13.4631 78.3639 12.8168 77.0528 12.8168C75.5571 12.8168 74.4491 13.6662 74.4491 14.8665C74.4491 15.7344 75.0215 16.5099 76.3142 16.8423L77.496 17.1378C78.1977 17.304 78.5116 17.6179 78.5116 18.0795C78.5116 18.6705 77.9207 19.206 76.9051 19.206C75.8525 19.206 75.3539 18.6335 75.0954 17.9872L74.0982 18.3565C74.4491 19.2429 75.2247 20.1477 76.9235 20.1477C78.6778 20.1477 79.6196 19.1321 79.6196 18.0426C79.6196 17.2301 79.084 16.4915 77.7914 16.1776L76.7389 15.919C75.9264 15.7159 75.5386 15.2912 75.5386 14.8111C75.5386 14.2017 76.1849 13.7401 77.0528 13.7401C78.1423 13.7401 78.4193 14.4602 78.5485 14.7741L79.5272 14.4972ZM91.4788 20V10.5455H90.3893V14.0355H90.3154C90.0754 13.6662 89.6322 12.8168 88.2472 12.8168C86.4561 12.8168 85.2188 14.2386 85.2188 16.473C85.2188 18.7259 86.4561 20.1477 88.2288 20.1477C89.5953 20.1477 90.0754 19.2983 90.3154 18.9105H90.4262V20H91.4788ZM86.3083 16.4545C86.3083 14.9588 86.9916 13.7955 88.3765 13.7955C89.7061 13.7955 90.4078 14.8665 90.4078 16.4545C90.4078 18.0611 89.6876 19.169 88.3765 19.169C87.01 19.169 86.3083 17.9688 86.3083 16.4545ZM96.6138 20.1477C98.5342 20.1477 99.8268 18.6889 99.8268 16.4915C99.8268 14.2756 98.5342 12.8168 96.6138 12.8168C94.6933 12.8168 93.4007 14.2756 93.4007 16.4915C93.4007 18.6889 94.6933 20.1477 96.6138 20.1477ZM96.6138 19.169C95.155 19.169 94.4902 17.9134 94.4902 16.4915C94.4902 15.0696 95.155 13.7955 96.6138 13.7955C98.0726 13.7955 98.7374 15.0696 98.7374 16.4915C98.7374 17.9134 98.0726 19.169 96.6138 19.169ZM110.618 12.9091H109.473L107.941 18.3196H107.867L106.371 12.9091H105.208L103.693 18.3381H103.62L102.087 12.9091H100.942L103.103 20H104.174L105.725 14.5526H105.836L107.387 20H108.458L110.618 12.9091ZM113.408 15.8082C113.408 14.4787 114.424 13.8693 115.236 13.8693C116.141 13.8693 116.787 14.5341 116.787 15.5682V20H117.877V15.4943C117.877 13.6847 116.917 12.8168 115.587 12.8168C114.516 12.8168 113.814 13.3892 113.482 14.1094H113.408V12.9091H112.319V20H113.408V15.8082ZM128.937 12.9091H127.792L126.259 18.3196H126.186L124.69 12.9091H123.527L122.012 18.3381H121.938L120.406 12.9091H119.261L121.421 20H122.492L124.044 14.5526H124.154L125.705 20H126.777L128.937 12.9091ZM134.694 20H135.784V15.3281C135.784 13.0753 134.066 12.8168 133.161 12.8168C132.09 12.8168 130.872 13.1861 130.318 14.4787L131.352 14.848C131.592 14.331 132.164 13.777 133.217 13.777C134.066 13.777 134.694 14.1463 134.694 15.3281V15.3466C134.694 15.8082 133.845 15.7713 132.866 15.9006C131.536 16.0668 130.115 16.3807 130.115 17.9872C130.115 19.3722 131.186 20.1662 132.534 20.1662C133.771 20.1662 134.417 19.5014 134.639 19.0398H134.694V20ZM134.694 17.4332C134.694 18.3196 133.992 19.1875 132.7 19.1875C131.832 19.1875 131.204 18.7997 131.204 18.0426C131.204 17.2116 131.961 16.9531 132.811 16.8423C133.272 16.7869 134.509 16.6577 134.694 16.4361V17.4332ZM141.947 13.0568C141.725 12.9276 141.374 12.7983 141.005 12.7983C140.174 12.7983 139.399 13.4446 139.195 14.1278H139.122V12.9091H138.032V20H139.122V15.9929C139.14 15.0327 139.805 13.9247 140.968 13.9247C141.282 13.9247 141.467 14.017 141.578 14.0724L141.947 13.0568ZM148.955 20V10.5455H147.866V14.0355H147.792C147.552 13.6662 147.108 12.8168 145.723 12.8168C143.932 12.8168 142.695 14.2386 142.695 16.473C142.695 18.7259 143.932 20.1477 145.705 20.1477C147.071 20.1477 147.552 19.2983 147.792 18.9105H147.902V20H148.955ZM143.785 16.4545C143.785 14.9588 144.468 13.7955 145.853 13.7955C147.182 13.7955 147.884 14.8665 147.884 16.4545C147.884 18.0611 147.164 19.169 145.853 19.169C144.486 19.169 143.785 17.9688 143.785 16.4545ZM156.103 14.4972C155.733 13.4631 154.939 12.8168 153.628 12.8168C152.133 12.8168 151.025 13.6662 151.025 14.8665C151.025 15.7344 151.597 16.5099 152.89 16.8423L154.072 17.1378C154.773 17.304 155.087 17.6179 155.087 18.0795C155.087 18.6705 154.496 19.206 153.481 19.206C152.428 19.206 151.93 18.6335 151.671 17.9872L150.674 18.3565C151.025 19.2429 151.8 20.1477 153.499 20.1477C155.253 20.1477 156.195 19.1321 156.195 18.0426C156.195 17.2301 155.66 16.4915 154.367 16.1776L153.314 15.919C152.502 15.7159 152.114 15.2912 152.114 14.8111C152.114 14.2017 152.76 13.7401 153.628 13.7401C154.718 13.7401 154.995 14.4602 155.124 14.7741L156.103 14.4972Z" transform="translate(182 86)" fill="black"/>
<path opacity="0.4" d="M5.5 13.5V0M5.5 0L11 5.5M5.5 0L0 5.5" transform="translate(256 132.5) scale(1 -1)" stroke="black"/>
<path d="M6.0522 6.10298H7.45561C7.3956 4.5103 6.0799 3.41619 4.18715 3.41619C2.30362 3.41619 0.867898 4.47337 0.867898 6.06143C0.867898 7.37713 1.86506 8.1804 3.37464 8.62358L4.22408 8.86825C5.55824 9.26989 6.13068 9.63459 6.13068 10.3963C6.13068 11.2596 5.31818 11.8828 4.10405 11.8828C3.01918 11.8828 2.14205 11.3842 2.06818 10.3594H0.600142C0.678622 12.1321 2.12358 13.1523 4.10405 13.1523C6.24148 13.1523 7.54332 12.0213 7.54332 10.3917C7.54332 9.01136 6.62003 8.22195 4.83345 7.69567L4.09943 7.48331C2.91761 7.13707 2.28516 6.74929 2.28516 6.04297C2.28516 5.24432 3.04226 4.68111 4.15945 4.68111C5.23509 4.68111 5.92756 5.1843 6.0522 6.10298ZM12.8203 9.6392C15.0731 9.6392 16.0472 8.34197 16.0472 6.57848C16.0472 4.82422 15.087 3.54545 12.8064 3.54545H9.4918V13H10.9552V9.6392H12.8203ZM10.9552 4.80114H12.8064C14.1452 4.80114 14.6022 5.54901 14.6022 6.57848C14.6022 7.60795 14.1452 8.38352 12.8203 8.38352H10.9552V4.80114ZM6.24609 28.6357H2.45597V25.8011H6.86932V24.5455H0.992543V34H2.45597V29.896H6.24609V28.6357ZM12.2109 30.6392C14.4637 30.6392 15.4378 29.342 15.4378 27.5785C15.4378 25.8242 14.4776 24.5455 12.1971 24.5455H8.88243V34H10.3458V30.6392H12.2109ZM10.3458 25.8011H12.1971C13.5358 25.8011 13.9929 26.549 13.9929 27.5785C13.9929 28.608 13.5358 29.3835 12.2109 29.3835H10.3458V25.8011ZM6.24609 56H7.89879L5.89524 52.0945C6.92472 51.6374 7.54794 50.7695 7.54794 49.4631C7.54794 47.8058 6.55078 46.5455 4.30256 46.5455H0.992543V56H2.45597V52.3899H4.4272L6.24609 56ZM2.45597 47.8011H4.30256C5.69212 47.8011 6.10298 48.6183 6.10298 49.4815C6.10298 50.4602 5.58594 51.1112 4.21484 51.1112H2.45597V47.8011ZM12.7083 46.5455H11.4388C11.3649 46.6424 10.8941 48.0089 9.32445 48.0089V49.2045C10.3862 49.2045 11.1156 48.8306 11.2726 48.5398H11.3465V56H12.7083V46.5455ZM6.24609 78H7.89879L5.89524 74.0945C6.92472 73.6374 7.54794 72.7695 7.54794 71.4631C7.54794 69.8058 6.55078 68.5455 4.30256 68.5455H0.992543V78H2.45597V74.3899H4.4272L6.24609 78ZM2.45597 69.8011H4.30256C5.69212 69.8011 6.10298 70.6183 6.10298 71.4815C6.10298 72.4602 5.58594 73.1112 4.21484 73.1112H2.45597V69.8011ZM15.5659 76.7443H11.2726V76.6889L13.387 74.5192C14.4718 73.4066 15.3166 72.294 15.3166 71.1353C15.3166 69.5472 14.1025 68.4162 12.3482 68.4162C10.3216 68.4162 9.366 69.9304 9.366 71.5277H10.7879C10.7879 70.5167 11.208 69.5934 12.3113 69.5934C13.3085 69.5934 13.9132 70.3366 13.9132 71.1861C13.9132 71.9062 13.4608 72.5479 12.4036 73.6328L9.16288 76.9382V78H15.5659V76.7443Z" transform="translate(702 27)" fill="black"/>
<path d="M7.03551 7.73722C7.03551 4.96733 5.94602 3.41619 3.89631 3.41619C1.82812 3.41619 0.72017 4.96733 0.72017 7.73722V8.64205C0.72017 11.4304 1.84659 13.1293 3.91477 13.1293C5.96449 13.1293 7.03551 11.4304 7.03551 8.64205V7.73722ZM5.89062 8.84517C5.89062 10.6179 5.26278 12.1136 3.91477 12.1136C2.5483 12.1136 1.86506 10.6179 1.86506 8.84517V7.53409C1.86506 5.7429 2.52983 4.43182 3.89631 4.43182C5.24432 4.43182 5.89062 5.7429 5.89062 7.53409V8.84517ZM10.0895 5.90909H8.83386L11.0867 9.45455L8.83386 13H10.0895L11.7884 10.2486L13.4873 13H14.743L12.4532 9.45455L14.743 5.90909H13.4873L11.7884 8.80824L10.0895 5.90909ZM22.1549 7.75568H18.2402V4.56108H22.7643V3.54545H17.0953V13H18.2402V8.77131H22.1549V7.75568ZM30.4348 7.75568H26.52V4.56108H31.0442V3.54545H25.3752V13H26.52V8.77131H30.4348V7.75568ZM38.7147 7.75568H34.7999V4.56108H39.3241V3.54545H33.655V13H34.7999V8.77131H38.7147V7.75568ZM46.9946 7.75568H43.0798V4.56108H47.604V3.54545H41.9349V13H43.0798V8.77131H46.9946V7.75568Z" transform="translate(735 27)" fill="black"/>
<path d="M4.0625 31.3409C4.0625 28.8665 6.37074 29.2173 6.37074 26.9091C6.37074 25.4688 5.42898 24.4162 3.80398 24.4162C2.30824 24.4162 1.14489 25.3395 1.14489 26.9091H2.30824C2.30824 25.8196 3.04688 25.3764 3.80398 25.3764C4.67188 25.3764 5.26278 25.9489 5.26278 26.8537C5.26278 28.6818 2.95455 28.331 2.95455 31.3409H4.0625ZM3.50852 34.1477C3.98864 34.1477 4.39489 33.7599 4.39489 33.2614C4.39489 32.7628 3.98864 32.3565 3.50852 32.3565C3.00994 32.3565 2.62216 32.7628 2.62216 33.2614C2.62216 33.7599 3.00994 34.1477 3.50852 34.1477ZM4.0625 53.3409C4.0625 50.8665 6.37074 51.2173 6.37074 48.9091C6.37074 47.4688 5.42898 46.4162 3.80398 46.4162C2.30824 46.4162 1.14489 47.3395 1.14489 48.9091H2.30824C2.30824 47.8196 3.04688 47.3764 3.80398 47.3764C4.67188 47.3764 5.26278 47.9489 5.26278 48.8537C5.26278 50.6818 2.95455 50.331 2.95455 53.3409H4.0625ZM3.50852 56.1477C3.98864 56.1477 4.39489 55.7599 4.39489 55.2614C4.39489 54.7628 3.98864 54.3565 3.50852 54.3565C3.00994 54.3565 2.62216 54.7628 2.62216 55.2614C2.62216 55.7599 3.00994 56.1477 3.50852 56.1477ZM4.0625 75.3409C4.0625 72.8665 6.37074 73.2173 6.37074 70.9091C6.37074 69.4688 5.42898 68.4162 3.80398 68.4162C2.30824 68.4162 1.14489 69.3395 1.14489 70.9091H2.30824C2.30824 69.8196 3.04688 69.3764 3.80398 69.3764C4.67188 69.3764 5.26278 69.9489 5.26278 70.8537C5.26278 72.6818 2.95455 72.331 2.95455 75.3409H4.0625ZM3.50852 78.1477C3.98864 78.1477 4.39489 77.7599 4.39489 77.2614C4.39489 76.7628 3.98864 76.3565 3.50852 76.3565C3.00994 76.3565 2.62216 76.7628 2.62216 77.2614C2.62216 77.7599 3.00994 78.1477 3.50852 78.1477Z" transform="translate(735 27)" fill="black" fill-opacity="0.3"/>
<path opacity="0.4" d="M6.48153 13H7.81108L5.7706 9.07138C6.8647 8.62358 7.47869 7.74183 7.47869 6.4446C7.47869 4.875 6.5554 3.54545 4.30256 3.54545H1.14489V13H2.28977V9.32528H4.60263L6.48153 13ZM2.28977 4.56108H4.30256C5.98295 4.56108 6.35227 5.55824 6.35227 6.4446C6.35227 7.49716 5.83523 8.27273 4.1733 8.27273H2.28977V4.56108ZM12.3171 13.1477C13.7574 13.1477 14.81 12.4276 15.1424 11.3565L14.0898 11.0611C13.8128 11.7997 13.185 12.169 12.3171 12.169C11.0337 12.169 10.2258 11.3565 10.115 9.82386H15.2532V9.36222C15.2532 6.72159 13.6836 5.81676 12.2063 5.81676C10.2858 5.81676 9.01169 7.33097 9.01169 9.50994C9.01169 11.6889 10.2674 13.1477 12.3171 13.1477ZM12.2063 6.79545C13.3881 6.79545 14.1452 7.68182 14.1452 8.8821H10.1381C10.3135 7.55256 11.1168 6.79545 12.2063 6.79545ZM22.0709 5.90909V7.03551H21.9601C21.72 6.66619 21.2768 5.81676 19.8919 5.81676C18.1007 5.81676 16.8635 7.23864 16.8635 9.41761C16.8635 11.6335 18.1561 12.8892 19.8734 12.8892C21.2584 12.8892 21.7016 12.0767 21.9416 11.6889H22.0339V12.9446C22.0524 14.1264 21.1106 14.6804 20.0212 14.6804C18.8024 14.6804 18.3038 13.9787 18.0268 13.6278L17.1589 14.2372C17.6021 14.9943 18.507 15.6591 20.0212 15.6591C21.6646 15.6591 23.1234 14.8835 23.1234 13.0554V5.90909H22.0709ZM17.953 9.39915C17.953 7.95881 18.6362 6.79545 20.0212 6.79545C21.3507 6.79545 22.0524 7.86648 22.0524 9.39915C22.0524 10.9688 21.3322 11.9105 20.0212 11.9105C18.6547 11.9105 17.953 10.8764 17.953 9.39915ZM25.9133 4.89347C26.3934 4.89347 26.6888 4.56108 26.6888 4.15483C26.6888 3.78551 26.3934 3.41619 25.9133 3.41619C25.4331 3.41619 25.1377 3.78551 25.1377 4.15483C25.1377 4.56108 25.4331 4.89347 25.9133 4.89347ZM26.4672 5.90909H25.3777V13H26.4672V5.90909ZM33.6162 7.49716C33.2469 6.46307 32.4528 5.81676 31.1417 5.81676C29.646 5.81676 28.538 6.66619 28.538 7.86648C28.538 8.73438 29.1105 9.50994 30.4031 9.84233L31.5849 10.1378C32.2866 10.304 32.6005 10.6179 32.6005 11.0795C32.6005 11.6705 32.0096 12.206 30.994 12.206C29.9415 12.206 29.4429 11.6335 29.1844 10.9872L28.1872 11.3565C28.538 12.2429 29.3136 13.1477 31.0125 13.1477C32.7667 13.1477 33.7085 12.1321 33.7085 11.0426C33.7085 10.2301 33.173 9.49148 31.8804 9.17756L30.8278 8.91903C30.0153 8.71591 29.6275 8.29119 29.6275 7.81108C29.6275 7.2017 30.2738 6.74006 31.1417 6.74006C32.2312 6.74006 32.5082 7.46023 32.6375 7.77415L33.6162 7.49716ZM38.6335 5.90909H37.1192V4.39489H36.0298V5.90909H34.9587V6.92472H36.0298V11.2642C36.0298 12.5014 37.0269 13.0923 37.9502 13.0923C38.3565 13.0923 38.615 13.0185 38.7627 12.9631L38.5411 11.9844C38.4488 12.0028 38.3011 12.0398 38.061 12.0398C37.5809 12.0398 37.1192 11.892 37.1192 10.9688V6.92472H38.6335V5.90909ZM43.4257 13.1477C44.866 13.1477 45.9186 12.4276 46.251 11.3565L45.1984 11.0611C44.9214 11.7997 44.2936 12.169 43.4257 12.169C42.1423 12.169 41.3344 11.3565 41.2236 9.82386H46.3618V9.36222C46.3618 6.72159 44.7922 5.81676 43.3149 5.81676C41.3944 5.81676 40.1203 7.33097 40.1203 9.50994C40.1203 11.6889 41.376 13.1477 43.4257 13.1477ZM43.3149 6.79545C44.4967 6.79545 45.2538 7.68182 45.2538 8.8821H41.2467C41.4221 7.55256 42.2254 6.79545 43.3149 6.79545ZM52.2192 6.05682C51.9976 5.92756 51.6468 5.79829 51.2775 5.79829C50.4465 5.79829 49.6709 6.4446 49.4678 7.12784H49.394V5.90909H48.3045V13H49.394V8.9929C49.4124 8.03267 50.0772 6.92472 51.2405 6.92472C51.5545 6.92472 51.7391 7.01705 51.8499 7.07244L52.2192 6.05682ZM63.3064 5.90909H62.1245L60.1671 11.5597H60.0933L58.1359 5.90909H56.9541L59.5762 13H60.6842L63.3064 5.90909ZM68.9976 13H70.0871V8.32812C70.0871 6.07528 68.3698 5.81676 67.465 5.81676C66.3939 5.81676 65.1752 6.18608 64.6212 7.47869L65.6553 7.84801C65.8954 7.33097 66.4678 6.77699 67.5204 6.77699C68.3698 6.77699 68.9976 7.14631 68.9976 8.32812V8.34659C68.9976 8.80824 68.1482 8.77131 67.1695 8.90057C65.84 9.06676 64.4181 9.38068 64.4181 10.9872C64.4181 12.3722 65.4891 13.1662 66.8371 13.1662C68.0743 13.1662 68.7207 12.5014 68.9422 12.0398H68.9976V13ZM68.9976 10.4332C68.9976 11.3196 68.2959 12.1875 67.0033 12.1875C66.1354 12.1875 65.5076 11.7997 65.5076 11.0426C65.5076 10.2116 66.2647 9.95312 67.1141 9.84233C67.5758 9.78693 68.813 9.65767 68.9976 9.43608V10.4332ZM73.4252 3.54545H72.3357V13H73.4252V3.54545ZM80.1494 10.1932C80.1494 11.5227 79.1338 12.0398 78.3213 12.0398C77.4164 12.0398 76.7701 11.4489 76.7701 10.4148V5.90909H75.6806V10.4148C75.6806 12.2798 76.9363 13.0923 77.9704 13.0923C79.0414 13.0923 79.7247 12.5384 80.0755 12.0028H80.1494V13H81.2389V5.90909H80.1494V10.1932ZM86.4674 13.1477C87.9077 13.1477 88.9603 12.4276 89.2926 11.3565L88.2401 11.0611C87.9631 11.7997 87.3353 12.169 86.4674 12.169C85.184 12.169 84.3761 11.3565 84.2653 9.82386H89.4034V9.36222C89.4034 6.72159 87.8338 5.81676 86.3566 5.81676C84.4361 5.81676 83.162 7.33097 83.162 9.50994C83.162 11.6889 84.4176 13.1477 86.4674 13.1477ZM86.3566 6.79545C87.5384 6.79545 88.2955 7.68182 88.2955 8.8821H84.2884C84.4638 7.55256 85.2671 6.79545 86.3566 6.79545ZM96.2396 7.49716C95.8703 6.46307 95.0763 5.81676 93.7652 5.81676C92.2694 5.81676 91.1615 6.66619 91.1615 7.86648C91.1615 8.73438 91.7339 9.50994 93.0265 9.84233L94.2084 10.1378C94.9101 10.304 95.224 10.6179 95.224 11.0795C95.224 11.6705 94.6331 12.206 93.6174 12.206C92.5649 12.206 92.0663 11.6335 91.8078 10.9872L90.8106 11.3565C91.1615 12.2429 91.9371 13.1477 93.6359 13.1477C95.3902 13.1477 96.3319 12.1321 96.3319 11.0426C96.3319 10.2301 95.7964 9.49148 94.5038 9.17756L93.4513 8.91903C92.6388 8.71591 92.251 8.29119 92.251 7.81108C92.251 7.2017 92.8973 6.74006 93.7652 6.74006C94.8547 6.74006 95.1317 7.46023 95.2609 7.77415L96.2396 7.49716Z" transform="translate(702 2)" fill="black"/>
<path opacity="0.4" d="M8.75284 6.5C8.40199 4.56108 6.85085 3.41619 4.94886 3.41619C2.52983 3.41619 0.775568 5.28125 0.775568 8.27273C0.775568 11.2642 2.52983 13.1293 4.94886 13.1293C6.85085 13.1293 8.40199 11.9844 8.75284 10.0455H7.60796C7.33097 11.3565 6.20455 12.0582 4.94886 12.0582C3.23153 12.0582 1.88352 10.7287 1.88352 8.27273C1.88352 5.81676 3.23153 4.48722 4.94886 4.48722C6.20455 4.48722 7.33097 5.18892 7.60796 6.5H8.75284ZM14.9623 13H16.0518V8.32812C16.0518 6.07528 14.3345 5.81676 13.4297 5.81676C12.3586 5.81676 11.1399 6.18608 10.5859 7.47869L11.62 7.84801C11.8601 7.33097 12.4325 6.77699 13.4851 6.77699C14.3345 6.77699 14.9623 7.14631 14.9623 8.32812V8.34659C14.9623 8.80824 14.1129 8.77131 13.1342 8.90057C11.8047 9.06676 10.3828 9.38068 10.3828 10.9872C10.3828 12.3722 11.4538 13.1662 12.8018 13.1662C14.039 13.1662 14.6853 12.5014 14.9069 12.0398H14.9623V13ZM14.9623 10.4332C14.9623 11.3196 14.2606 12.1875 12.968 12.1875C12.1001 12.1875 11.4723 11.7997 11.4723 11.0426C11.4723 10.2116 12.2294 9.95312 13.0788 9.84233C13.5405 9.78693 14.7777 9.65767 14.9623 9.43608V10.4332ZM19.3899 3.54545H18.3004V13H19.3899V3.54545ZM22.5825 3.54545H21.493V13H22.5825V3.54545ZM33.6477 7.49716C33.2783 6.46307 32.4843 5.81676 31.1732 5.81676C29.6775 5.81676 28.5695 6.66619 28.5695 7.86648C28.5695 8.73438 29.142 9.50994 30.4346 9.84233L31.6164 10.1378C32.3181 10.304 32.632 10.6179 32.632 11.0795C32.632 11.6705 32.0411 12.206 31.0255 12.206C29.9729 12.206 29.4744 11.6335 29.2158 10.9872L28.2187 11.3565C28.5695 12.2429 29.3451 13.1477 31.044 13.1477C32.7982 13.1477 33.74 12.1321 33.74 11.0426C33.74 10.2301 33.2045 9.49148 31.9119 9.17756L30.8593 8.91903C30.0468 8.71591 29.659 8.29119 29.659 7.81108C29.659 7.2017 30.3053 6.74006 31.1732 6.74006C32.2627 6.74006 32.5397 7.46023 32.669 7.77415L33.6477 7.49716ZM38.6649 5.90909H37.1507V4.39489H36.0612V5.90909H34.9902V6.92472H36.0612V11.2642C36.0612 12.5014 37.0584 13.0923 37.9817 13.0923C38.3879 13.0923 38.6465 13.0185 38.7942 12.9631L38.5726 11.9844C38.4803 12.0028 38.3326 12.0398 38.0925 12.0398C37.6124 12.0398 37.1507 11.892 37.1507 10.9688V6.92472H38.6649V5.90909ZM44.8202 13H45.9097V8.32812C45.9097 6.07528 44.1923 5.81676 43.2875 5.81676C42.2165 5.81676 40.9977 6.18608 40.4438 7.47869L41.4778 7.84801C41.7179 7.33097 42.2903 6.77699 43.3429 6.77699C44.1923 6.77699 44.8202 7.14631 44.8202 8.32812V8.34659C44.8202 8.80824 43.9707 8.77131 42.9921 8.90057C41.6625 9.06676 40.2406 9.38068 40.2406 10.9872C40.2406 12.3722 41.3117 13.1662 42.6597 13.1662C43.8969 13.1662 44.5432 12.5014 44.7648 12.0398H44.8202V13ZM44.8202 10.4332C44.8202 11.3196 44.1185 12.1875 42.8259 12.1875C41.958 12.1875 41.3301 11.7997 41.3301 11.0426C41.3301 10.2116 42.0872 9.95312 42.9367 9.84233C43.3983 9.78693 44.6355 9.65767 44.8202 9.43608V10.4332ZM53.7892 8.03267C53.6045 6.70312 52.4781 5.81676 50.9823 5.81676C49.0619 5.81676 47.7877 7.33097 47.7877 9.45455C47.7877 11.6335 49.025 13.1477 51.0008 13.1477C52.5704 13.1477 53.6045 12.1875 53.7892 10.9318H52.6997C52.4966 11.7074 51.8502 12.169 51.0008 12.169C49.7082 12.169 48.8772 11.098 48.8772 9.45455C48.8772 7.84801 49.7267 6.79545 51.0008 6.79545C51.961 6.79545 52.5335 7.38636 52.6997 8.03267H53.7892ZM59.8313 13H61.1054L58.0216 8.92827L60.81 5.90909H59.462L56.5813 9.10369H56.452V3.54545H55.3625V13H56.452V10.521L57.2876 9.62074L59.8313 13Z" transform="translate(574 2)" fill="black"/>
<rect width="70" height="21" fill="#FFF4BC" transform="translate(575 26)"/>
<path d="M6.11222 10.5497C6.11222 9.55256 6.66619 8.86932 7.62642 8.86932C8.21733 8.86932 9.01136 9.22017 9.01136 10.3281V15H10.1009V10.3651C10.1009 8.62926 9.14062 7.81676 7.95881 7.81676C6.92472 7.81676 6.11222 8.5 5.90909 9.09091H5.83523C5.52131 8.3892 4.89347 7.81676 4.0071 7.81676C3.10227 7.81676 2.36364 8.5 2.16051 9.10938H2.08665V7.90909H0.997159V15H2.08665V10.7713C2.08665 9.60795 2.88068 8.86932 3.71165 8.86932C4.50568 8.86932 5.00426 9.29403 5.00426 10.3651V15H6.11222V10.5497ZM16.6 15H17.6895V10.3281C17.6895 8.07528 15.9722 7.81676 15.0674 7.81676C13.9963 7.81676 12.7776 8.18608 12.2236 9.47869L13.2577 9.84801C13.4977 9.33097 14.0702 8.77699 15.1227 8.77699C15.9722 8.77699 16.6 9.14631 16.6 10.3281V10.3466C16.6 10.8082 15.7506 10.7713 14.7719 10.9006C13.4424 11.0668 12.0205 11.3807 12.0205 12.9872C12.0205 14.3722 13.0915 15.1662 14.4395 15.1662C15.6767 15.1662 16.323 14.5014 16.5446 14.0398H16.6V15ZM16.6 12.4332C16.6 13.3196 15.8983 14.1875 14.6057 14.1875C13.7378 14.1875 13.11 13.7997 13.11 13.0426C13.11 12.2116 13.8671 11.9531 14.7165 11.8423C15.1781 11.7869 16.4154 11.6577 16.6 11.4361V12.4332ZM20.4736 6.89347C20.9537 6.89347 21.2491 6.56108 21.2491 6.15483C21.2491 5.78551 20.9537 5.41619 20.4736 5.41619C19.9935 5.41619 19.698 5.78551 19.698 6.15483C19.698 6.56108 19.9935 6.89347 20.4736 6.89347ZM21.0275 7.90909H19.9381V15H21.0275V7.90909ZM24.3725 10.8082C24.3725 9.47869 25.3881 8.86932 26.2006 8.86932C27.1055 8.86932 27.7518 9.53409 27.7518 10.5682V15H28.8413V10.4943C28.8413 8.68466 27.881 7.81676 26.5515 7.81676C25.4805 7.81676 24.7788 8.3892 24.4464 9.10938H24.3725V7.90909H23.283V15H24.3725V10.8082Z" transform="translate(579 26)" fill="black"/>
</g>
<defs>
<linearGradient id="paint0_linear" x2="1" gradientUnits="userSpaceOnUse" gradientTransform="translate(400) scale(400 84) rotate(90)">
<stop stop-opacity="0"/>
<stop offset="1"/>
</linearGradient>
<clipPath id="clip0">
<rect width="800" height="154" fill="white"/>
</clipPath>
</defs>
</svg>
