<svg width="32" height="32" xmlns="http://www.w3.org/2000/svg" xmlns:xlink="http://www.w3.org/1999/xlink"><use xlink:href="#a" transform="translate(5 5)" fill="#111"/><g transform="translate(8.25 8.25)" fill="#FFF"><use xlink:href="#b"/><use xlink:href="#c"/></g><defs><path id="a" d="M0 11C0 4.925 4.925 0 11 0s11 4.925 11 11-4.925 11-11 11S0 17.075 0 11z"/><path id="b" d="M7.75 0c2.14 0 4.078.867 5.48 2.27l-1.06 1.06a6.25 6.25 0 1 0 0 8.839l1.06 1.061A7.75 7.75 0 1 1 7.75 0z"/><path id="c" fill-rule="evenodd" d="M7.75 4a3.75 3.75 0 1 0 0 7.5 3.75 3.75 0 0 0 0-7.5zM5.5 7.75a2.25 2.25 0 1 1 4.5 0 2.25 2.25 0 0 1-4.5 0z"/></defs></svg>