<svg width="32" height="32" xmlns="http://www.w3.org/2000/svg" xmlns:xlink="http://www.w3.org/1999/xlink"><use xlink:href="#a" fill="#111"/><g transform="translate(4.81 4.81)" fill="#FFF"><use xlink:href="#b"/><use xlink:href="#c"/></g><defs><path id="a" d="M0 16C0 7.163 7.163 0 16 0s16 7.163 16 16-7.163 16-16 16S0 24.837 0 16z"/><path id="b" d="M11.194 0c3.092 0 5.89 1.253 7.916 3.279L17.578 4.81a9.028 9.028 0 1 0 0 12.767l1.532 1.532a11.159 11.159 0 0 1-7.916 3.279C5.012 22.389 0 17.377 0 11.194 0 5.012 5.012 0 11.194 0z"/><path id="c" fill-rule="evenodd" d="M11.194 5.778a5.416 5.416 0 1 0 0 10.833 5.416 5.416 0 0 0 0-10.833zm-3.25 5.416a3.25 3.25 0 1 1 6.5 0 3.25 3.25 0 0 1-6.5 0z"/></defs></svg>