<svg width="800" height="150" fill="none" xmlns="http://www.w3.org/2000/svg"><path d="M0 0h800v150H0z"/><path d="M36 10h764v130H36z"/><path d="M36 10h500v110H36z"/><path d="M60.561 43c2.234 0 3.158-1.09 3.158-2.511 0-1.496-1.034-2.309-1.902-2.364v-.088c.808-.217 1.532-.752 1.532-1.98 0-1.385-.923-2.512-2.899-2.512h-3.305V43h3.416zm-2.271-8.439h2.16c1.256 0 1.81.665 1.81 1.496 0 .997-.813 1.643-1.847 1.643H58.29v-3.139zm4.34 5.928c0 .83-.573 1.495-2.069 1.495H58.29v-3.287h2.327c1.237 0 2.012.831 2.012 1.792zm7.291-.296c0 1.33-1.016 1.847-1.828 1.847-.905 0-1.551-.591-1.551-1.625v-4.506h-1.09v4.506c0 1.865 1.256 2.677 2.29 2.677 1.071 0 1.754-.554 2.105-1.09h.074V43h1.09v-7.09h-1.09v4.283zm3.62-5.3c.48 0 .776-.332.776-.738a.75.75 0 0 0-.775-.739.75.75 0 0 0-.776.739c0 .406.295.739.775.739zm.554 1.016h-1.09V43h1.09v-7.09zm3.085-2.364h-1.09V43h1.09v-9.455zM85.103 43v-9.455h-1.09v3.49h-.073c-.24-.369-.683-1.218-2.068-1.218-1.791 0-3.028 1.422-3.028 3.656 0 2.253 1.237 3.675 3.01 3.675 1.366 0 1.846-.85 2.086-1.238h.11V43h1.053zm-5.17-3.545c0-1.496.683-2.66 2.068-2.66 1.33 0 2.031 1.072 2.031 2.66 0 1.606-.72 2.714-2.03 2.714-1.367 0-2.069-1.2-2.069-2.714zm10.821 6.204h1.09v-3.748h.092c.24.387.701 1.237 2.068 1.237 1.773 0 3.01-1.422 3.01-3.675 0-2.234-1.237-3.656-3.028-3.656-1.385 0-1.81.85-2.05 1.218h-.13V35.91h-1.052v9.75zm5.17-6.204c0 1.514-.701 2.714-2.068 2.714-1.31 0-2.031-1.108-2.031-2.714 0-1.588.702-2.66 2.031-2.66 1.385 0 2.068 1.164 2.068 2.66zM102.923 43h1.09v-4.672c0-2.253-1.718-2.511-2.623-2.511-1.071 0-2.29.37-2.843 1.662l1.034.369c.24-.517.812-1.071 1.865-1.071.849 0 1.477.37 1.477 1.551v.019c0 .461-.849.424-1.828.554-1.33.166-2.751.48-2.751 2.086 0 1.385 1.07 2.18 2.419 2.18 1.237 0 1.883-.666 2.105-1.127h.055V43zm0-2.567c0 .887-.702 1.755-1.994 1.755-.868 0-1.496-.388-1.496-1.145 0-.831.757-1.09 1.607-1.2.461-.056 1.698-.185 1.883-.407v.997zm8.709-2.4c-.185-1.33-1.311-2.216-2.807-2.216-1.92 0-3.194 1.514-3.194 3.638 0 2.178 1.237 3.693 3.213 3.693 1.569 0 2.603-.96 2.788-2.216h-1.089c-.204.775-.85 1.237-1.699 1.237-1.293 0-2.124-1.071-2.124-2.714 0-1.607.85-2.66 2.124-2.66.96 0 1.532.591 1.699 1.238h1.089zM117.414 43h1.274l-3.084-4.072 2.789-3.019h-1.348l-2.881 3.195h-.129v-5.559h-1.09V43h1.09v-2.479l.835-.9L117.414 43zm6.507 0h1.09v-4.672c0-2.253-1.718-2.511-2.623-2.511-1.071 0-2.289.37-2.843 1.662l1.034.369c.24-.517.812-1.071 1.865-1.071.849 0 1.477.37 1.477 1.551v.019c0 .461-.849.424-1.828.554-1.33.166-2.751.48-2.751 2.086 0 1.385 1.071 2.18 2.419 2.18 1.237 0 1.883-.666 2.105-1.127h.055V43zm0-2.567c0 .887-.702 1.755-1.994 1.755-.868 0-1.496-.388-1.496-1.145 0-.831.757-1.09 1.607-1.2.461-.056 1.698-.185 1.883-.407v.997zm7.915-4.524v1.127h-.111c-.24-.37-.683-1.22-2.068-1.22-1.791 0-3.028 1.423-3.028 3.602 0 2.215 1.292 3.471 3.01 3.471 1.385 0 1.828-.812 2.068-1.2h.092v1.256c.019 1.181-.923 1.735-2.013 1.735-1.218 0-1.717-.701-1.994-1.052l-.868.61c.443.756 1.348 1.421 2.862 1.421 1.644 0 3.103-.776 3.103-2.604V35.91h-1.053zm-4.118 3.49c0-1.44.683-2.604 2.068-2.604 1.33 0 2.032 1.072 2.032 2.604 0 1.57-.721 2.511-2.032 2.511-1.366 0-2.068-1.034-2.068-2.51zm10.138 3.749c1.44 0 2.493-.72 2.825-1.792l-1.052-.295c-.277.739-.905 1.108-1.773 1.108-1.283 0-2.091-.813-2.202-2.345h5.138v-.462c0-2.64-1.57-3.545-3.047-3.545-1.92 0-3.194 1.514-3.194 3.693 0 2.179 1.255 3.638 3.305 3.638zm-.111-6.353c1.182 0 1.939.887 1.939 2.087h-4.007c.175-1.33.979-2.087 2.068-2.087z" fill="#000"/><path fill-rule="evenodd" clip-rule="evenodd" d="M37 11h498v108H365v1h171V10H36v110h324v-1H37V11z" fill="#000" fill-opacity=".2"/><path d="M556 10h244v130H556z"/><path fill="#fff" d="M556 10h244v130H556z"/><path stroke="#000" stroke-opacity=".2" stroke-dasharray="4 4" d="M556.5 10.5h243v129h-243z"/><path d="M570.321 29.584c2.197 0 3.158-1.348 3.158-3.047s-.961-2.991-3.176-2.991h-3.158V33h1.145v-3.416h2.031zm-2.031-5.023h2.013c1.532 0 2.049.813 2.049 1.976s-.517 2.031-2.031 2.031h-2.031v-4.007zM579.293 33h1.09v-4.672c0-2.253-1.718-2.511-2.623-2.511-1.071 0-2.289.37-2.843 1.662l1.034.369c.24-.517.812-1.071 1.865-1.071.849 0 1.477.37 1.477 1.551v.019c0 .461-.849.424-1.828.554-1.33.166-2.751.48-2.751 2.086 0 1.385 1.071 2.18 2.419 2.18 1.237 0 1.883-.666 2.105-1.127h.055V33zm0-2.567c0 .887-.702 1.755-1.994 1.755-.868 0-1.496-.388-1.496-1.145 0-.831.757-1.09 1.607-1.2.461-.056 1.698-.185 1.883-.407v.997zm8.709-2.4c-.185-1.33-1.311-2.216-2.807-2.216-1.92 0-3.194 1.514-3.194 3.637 0 2.18 1.237 3.694 3.213 3.694 1.569 0 2.603-.96 2.788-2.216h-1.089c-.203.775-.85 1.237-1.699 1.237-1.293 0-2.124-1.071-2.124-2.714 0-1.607.85-2.66 2.124-2.66.96 0 1.532.591 1.699 1.238h1.089zM593.784 33h1.274l-3.083-4.072 2.788-3.019h-1.348l-2.881 3.195h-.129v-5.558h-1.089V33h1.089v-2.479l.836-.9L593.784 33zm6.507 0h1.09v-4.672c0-2.253-1.718-2.511-2.622-2.511-1.071 0-2.29.37-2.844 1.662l1.034.369c.24-.517.812-1.071 1.865-1.071.849 0 1.477.37 1.477 1.551v.019c0 .461-.849.424-1.828.554-1.329.166-2.751.48-2.751 2.086 0 1.385 1.071 2.18 2.419 2.18 1.237 0 1.883-.666 2.105-1.127h.055V33zm0-2.567c0 .887-.702 1.755-1.994 1.755-.868 0-1.496-.388-1.496-1.145 0-.831.757-1.09 1.607-1.2.461-.056 1.699-.185 1.883-.407v.997zm7.915-4.524v1.127h-.111c-.24-.37-.683-1.22-2.068-1.22-1.791 0-3.028 1.423-3.028 3.602 0 2.216 1.292 3.471 3.01 3.471 1.385 0 1.828-.812 2.068-1.2h.092v1.256c.019 1.181-.923 1.735-2.013 1.735-1.218 0-1.717-.701-1.994-1.052l-.868.61c.443.756 1.348 1.421 2.862 1.421 1.644 0 3.103-.776 3.103-2.604V25.91h-1.053zm-4.118 3.49c0-1.44.683-2.604 2.068-2.604 1.33 0 2.032 1.071 2.032 2.604 0 1.57-.72 2.511-2.032 2.511-1.366 0-2.068-1.034-2.068-2.51zm10.138 3.749c1.44 0 2.493-.72 2.825-1.792l-1.052-.295c-.277.739-.905 1.108-1.773 1.108-1.283 0-2.091-.812-2.202-2.345h5.138v-.462c0-2.64-1.569-3.545-3.047-3.545-1.92 0-3.194 1.514-3.194 3.693 0 2.179 1.255 3.638 3.305 3.638zm-.111-6.353c1.182 0 1.939.887 1.939 2.087h-4.007c.175-1.33.979-2.087 2.068-2.087zm13.28.702c-.37-1.034-1.164-1.68-2.475-1.68-1.496 0-2.604.85-2.604 2.05 0 .867.573 1.643 1.865 1.975l1.182.296c.702.166 1.016.48 1.016.941 0 .591-.591 1.127-1.607 1.127-1.052 0-1.551-.573-1.809-1.219l-.997.37c.35.886 1.126 1.79 2.825 1.79 1.754 0 2.696-1.015 2.696-2.104 0-.813-.536-1.552-1.828-1.865l-1.053-.259c-.812-.203-1.2-.628-1.2-1.108 0-.61.646-1.07 1.514-1.07 1.09 0 1.367.72 1.496 1.033l.979-.277zm7.516.536c-.184-1.33-1.311-2.216-2.807-2.216-1.92 0-3.194 1.514-3.194 3.637 0 2.18 1.237 3.694 3.213 3.694 1.57 0 2.604-.96 2.788-2.216h-1.089c-.203.775-.85 1.237-1.699 1.237-1.293 0-2.124-1.071-2.124-2.714 0-1.607.85-2.66 2.124-2.66.96 0 1.533.591 1.699 1.238h1.089zm4.486 5.115c1.921 0 3.213-1.46 3.213-3.657 0-2.215-1.292-3.674-3.213-3.674-1.92 0-3.213 1.459-3.213 3.674 0 2.198 1.293 3.657 3.213 3.657zm0-.979c-1.458 0-2.123-1.256-2.123-2.677 0-1.422.665-2.697 2.123-2.697 1.459 0 2.124 1.275 2.124 2.696 0 1.422-.665 2.678-2.124 2.678zm4.724 3.49h1.09v-3.748h.092c.24.387.702 1.237 2.068 1.237 1.773 0 3.01-1.422 3.01-3.675 0-2.234-1.237-3.656-3.028-3.656-1.385 0-1.81.85-2.05 1.218h-.129V25.91h-1.053v9.75zm5.171-6.204c0 1.514-.702 2.714-2.069 2.714-1.311 0-2.031-1.108-2.031-2.714 0-1.588.702-2.66 2.031-2.66 1.385 0 2.069 1.164 2.069 2.66zm5.724 3.693c1.44 0 2.493-.72 2.825-1.792l-1.052-.295c-.277.739-.905 1.108-1.773 1.108-1.283 0-2.091-.812-2.202-2.345h5.138v-.462c0-2.64-1.569-3.545-3.047-3.545-1.92 0-3.194 1.514-3.194 3.693 0 2.179 1.255 3.638 3.305 3.638zm-.111-6.353c1.182 0 1.939.887 1.939 2.087h-4.007c.176-1.33.979-2.087 2.068-2.087zm-87.169 22.552v1.034h7.552v.074l-2.843 2.843.701.702 4.137-4.136-4.137-4.137-.701.702 2.843 2.844v.074h-7.552zM584.265 54l.891-2.53h3.943l.891 2.53h1.2l-3.472-9.455h-1.182L583.065 54h1.2zm2.807-7.959h.111l1.555 4.414h-3.222l1.556-4.414zm6.532-1.495h-1.089V54h1.089v-9.455zm2.933 0h-1.09V54h1.09v-9.455zm8.625 2.363h-1.515v-1.514h-1.089v1.514h-1.071v1.016h1.071v4.34c0 1.236.997 1.827 1.92 1.827.407 0 .665-.073.813-.129l-.222-.979c-.092.019-.24.056-.48.056-.48 0-.942-.148-.942-1.071v-4.044h1.515v-1.016zm4.439 7.239c1.921 0 3.214-1.46 3.214-3.657 0-2.215-1.293-3.674-3.214-3.674-1.92 0-3.213 1.459-3.213 3.675 0 2.197 1.293 3.656 3.213 3.656zm0-.979c-1.458 0-2.123-1.256-2.123-2.677 0-1.422.665-2.697 2.123-2.697 1.459 0 2.124 1.275 2.124 2.697 0 1.421-.665 2.677-2.124 2.677zm4.724 3.49h1.09v-3.748h.092c.24.387.702 1.237 2.068 1.237 1.773 0 3.01-1.422 3.01-3.675 0-2.234-1.237-3.656-3.028-3.656-1.385 0-1.81.85-2.05 1.218h-.129V46.91h-1.053v9.75zm5.171-6.204c0 1.514-.702 2.714-2.068 2.714-1.312 0-2.032-1.108-2.032-2.714 0-1.588.702-2.66 2.032-2.66 1.384 0 2.068 1.164 2.068 2.66zm6.814-1.016h-4.137v1.016h4.137v-1.016zm3.006-4.894h-1.089V54h1.089v-9.455zm4.969 9.603c1.44 0 2.493-.72 2.825-1.792l-1.053-.295c-.277.739-.904 1.108-1.772 1.108-1.284 0-2.092-.813-2.202-2.345h5.138v-.462c0-2.64-1.57-3.545-3.047-3.545-1.921 0-3.195 1.514-3.195 3.693 0 2.179 1.256 3.638 3.306 3.638zm-.111-6.353c1.182 0 1.939.887 1.939 2.087h-4.007c.175-1.33.978-2.087 2.068-2.087zm10.312-.886h-1.182l-1.957 5.65h-.074l-1.958-5.65h-1.181L640.756 54h1.108l2.622-7.09zm4.17 7.239c1.44 0 2.493-.72 2.825-1.792l-1.053-.295c-.277.739-.904 1.108-1.772 1.108-1.284 0-2.092-.813-2.202-2.345h5.138v-.462c0-2.64-1.57-3.545-3.047-3.545-1.921 0-3.195 1.514-3.195 3.693 0 2.179 1.256 3.638 3.306 3.638zm-.111-6.353c1.182 0 1.939.887 1.939 2.087h-4.007c.175-1.33.978-2.087 2.068-2.087zm5.819-3.25h-1.089V54h1.089v-9.455zM665.943 54v-9.455h-1.089v3.49h-.074c-.24-.369-.683-1.218-2.068-1.218-1.791 0-3.029 1.422-3.029 3.656 0 2.253 1.238 3.675 3.01 3.675 1.367 0 1.847-.85 2.087-1.238h.111V54h1.052zm-5.17-3.545c0-1.496.683-2.66 2.068-2.66 1.33 0 2.031 1.072 2.031 2.66 0 1.606-.72 2.714-2.031 2.714-1.366 0-2.068-1.2-2.068-2.714zm10.138 3.693c1.44 0 2.492-.72 2.825-1.792l-1.053-.295c-.277.739-.905 1.108-1.772 1.108-1.284 0-2.092-.813-2.202-2.345h5.138v-.462c0-2.64-1.57-3.545-3.047-3.545-1.921 0-3.195 1.514-3.195 3.693 0 2.179 1.256 3.638 3.306 3.638zm-.111-6.353c1.182 0 1.939.887 1.939 2.087h-4.007c.175-1.33.978-2.087 2.068-2.087zm10.398 1.238c-.184-1.33-1.311-2.216-2.806-2.216-1.921 0-3.195 1.514-3.195 3.638 0 2.178 1.237 3.693 3.213 3.693 1.57 0 2.604-.96 2.788-2.216h-1.089c-.203.775-.85 1.237-1.699 1.237-1.293 0-2.124-1.071-2.124-2.714 0-1.607.85-2.66 2.124-2.66.96 0 1.533.591 1.699 1.238h1.089zm2.403-4.488h-1.089V54h1.089v-9.455zM689.844 54h1.089v-4.672c0-2.253-1.717-2.511-2.622-2.511-1.071 0-2.29.37-2.843 1.662l1.034.369c.24-.517.812-1.071 1.865-1.071.849 0 1.477.37 1.477 1.551v.019c0 .461-.85.424-1.828.554-1.33.166-2.752.48-2.752 2.086 0 1.385 1.071 2.18 2.419 2.18 1.238 0 1.884-.666 2.106-1.127h.055V54zm0-2.567c0 .887-.702 1.755-1.994 1.755-.868 0-1.496-.388-1.496-1.145 0-.831.757-1.09 1.606-1.2.462-.056 1.699-.185 1.884-.407v.997zm6.993-4.376a1.963 1.963 0 0 0-.942-.259c-.831 0-1.607.647-1.81 1.33h-.074v-1.219h-1.089V54h1.089v-4.007c.019-.96.684-2.068 1.847-2.068.314 0 .499.092.609.147l.37-1.015zM702.196 54h1.09v-4.672c0-2.253-1.717-2.511-2.622-2.511-1.071 0-2.29.37-2.844 1.662l1.034.369c.24-.517.813-1.071 1.865-1.071.85 0 1.477.37 1.477 1.551v.019c0 .461-.849.424-1.828.554-1.329.166-2.751.48-2.751 2.086 0 1.385 1.071 2.18 2.419 2.18 1.237 0 1.883-.666 2.105-1.127h.055V54zm0-2.567c0 .887-.701 1.755-1.994 1.755-.868 0-1.496-.388-1.496-1.145 0-.831.758-1.09 1.607-1.2.462-.056 1.699-.185 1.883-.407v.997zm5.975-4.524h-1.514v-1.514h-1.089v1.514h-1.071v1.016h1.071v4.34c0 1.236.997 1.827 1.92 1.827.406 0 .665-.073.813-.129l-.222-.979c-.092.019-.24.056-.48.056-.48 0-.942-.148-.942-1.071v-4.044h1.514v-1.016zm2.184-1.015c.48 0 .776-.333.776-.74a.75.75 0 0 0-.776-.738.75.75 0 0 0-.776.739c0 .406.296.739.776.739zm.554 1.015h-1.09V54h1.09v-7.09zm4.876 7.239c1.921 0 3.213-1.46 3.213-3.657 0-2.215-1.292-3.674-3.213-3.674-1.92 0-3.213 1.459-3.213 3.675 0 2.197 1.293 3.656 3.213 3.656zm0-.979c-1.459 0-2.124-1.256-2.124-2.677 0-1.422.665-2.697 2.124-2.697s2.124 1.275 2.124 2.697c0 1.421-.665 2.677-2.124 2.677zm5.966-3.36c0-1.33 1.015-1.94 1.828-1.94.905 0 1.551.665 1.551 1.7V54h1.089v-4.506c0-1.81-.96-2.677-2.289-2.677-1.071 0-1.773.572-2.105 1.292h-.074v-1.2h-1.09V54h1.09v-4.192zm11.357-1.312c-.369-1.034-1.163-1.68-2.474-1.68-1.496 0-2.604.85-2.604 2.05 0 .867.573 1.643 1.865 1.975l1.182.296c.702.166 1.016.48 1.016.942 0 .59-.591 1.126-1.607 1.126-1.052 0-1.551-.573-1.809-1.219l-.998.37c.351.886 1.127 1.79 2.826 1.79 1.754 0 2.696-1.015 2.696-2.104 0-.813-.536-1.551-1.828-1.865l-1.053-.259c-.812-.203-1.2-.628-1.2-1.108 0-.61.646-1.07 1.514-1.07 1.089 0 1.366.72 1.496 1.033l.978-.277z" fill="#000"/><path d="M566 70h224v60H566z"/><path fill="#fff" d="M566 70h224v60H566z"/><path stroke="#000" stroke-opacity=".2" stroke-dasharray="4 4" d="M566.5 70.5h223v59h-223z"/><path d="M582.205 87.756h-3.915V84.56h4.524v-1.016h-5.669V93h1.145v-4.229h3.915v-1.015zm2.666-2.862c.48 0 .775-.333.775-.74a.749.749 0 0 0-.775-.738.749.749 0 0 0-.776.739c0 .406.295.739.776.739zm.554 1.015h-1.09V93h1.09v-7.09zm3.084-2.364h-1.089V93h1.089v-9.454zm4.969 9.603c1.44 0 2.493-.72 2.825-1.791l-1.052-.296c-.277.739-.905 1.108-1.773 1.108-1.283 0-2.091-.813-2.202-2.345h5.138v-.462c0-2.64-1.57-3.545-3.047-3.545-1.92 0-3.194 1.514-3.194 3.693 0 2.179 1.255 3.638 3.305 3.638zm-.111-6.352c1.182 0 1.939.886 1.939 2.086h-4.007c.175-1.33.979-2.087 2.068-2.087zm13.279.701c-.369-1.034-1.163-1.68-2.474-1.68-1.496 0-2.604.85-2.604 2.05 0 .867.573 1.643 1.865 1.975l1.182.296c.702.166 1.016.48 1.016.941 0 .592-.591 1.127-1.607 1.127-1.052 0-1.551-.573-1.809-1.219l-.997.37c.35.886 1.126 1.79 2.825 1.79 1.754 0 2.696-1.015 2.696-2.104 0-.813-.536-1.552-1.828-1.865l-1.053-.259c-.812-.203-1.2-.628-1.2-1.108 0-.61.646-1.07 1.514-1.07 1.09 0 1.367.72 1.496 1.033l.978-.277zm7.517.536c-.184-1.33-1.311-2.216-2.807-2.216-1.92 0-3.194 1.514-3.194 3.638 0 2.178 1.237 3.693 3.213 3.693 1.57 0 2.604-.96 2.788-2.216h-1.089c-.203.775-.85 1.237-1.699 1.237-1.293 0-2.124-1.071-2.124-2.715 0-1.606.85-2.658 2.124-2.658.96 0 1.533.59 1.699 1.237h1.089zm4.486 5.115c1.921 0 3.213-1.46 3.213-3.656 0-2.216-1.292-3.675-3.213-3.675-1.92 0-3.213 1.459-3.213 3.675 0 2.197 1.293 3.656 3.213 3.656zm0-.979c-1.458 0-2.123-1.256-2.123-2.677 0-1.422.665-2.697 2.123-2.697 1.459 0 2.124 1.275 2.124 2.697 0 1.421-.665 2.677-2.124 2.677zm4.724 3.49h1.09V91.91h.092c.24.388.702 1.238 2.068 1.238 1.773 0 3.01-1.422 3.01-3.675 0-2.234-1.237-3.656-3.028-3.656-1.385 0-1.81.85-2.05 1.219h-.129v-1.127h-1.053v9.75zm5.171-6.205c0 1.515-.702 2.715-2.069 2.715-1.311 0-2.031-1.108-2.031-2.715 0-1.587.702-2.658 2.031-2.658 1.385 0 2.069 1.163 2.069 2.658zm5.724 3.694c1.44 0 2.493-.72 2.825-1.791l-1.052-.296c-.277.739-.905 1.108-1.773 1.108-1.283 0-2.091-.813-2.202-2.345h5.138v-.462c0-2.64-1.57-3.545-3.047-3.545-1.92 0-3.194 1.514-3.194 3.693 0 2.179 1.255 3.638 3.305 3.638zm-.111-6.352c1.182 0 1.939.886 1.939 2.086h-4.007c.175-1.33.979-2.087 2.068-2.087zm-56.421 22.551v1.034h7.552v.074l-2.843 2.843.701.702 4.137-4.136-4.137-4.137-.701.702 2.843 2.844v.074h-7.552zm17.286-4.802h-1.145V114h1.145v-9.455zm7.263 5.005c0-.997.554-1.681 1.514-1.681.591 0 1.385.351 1.385 1.459V114h1.09v-4.635c0-1.736-.961-2.548-2.142-2.548-1.034 0-1.847.683-2.05 1.274h-.074c-.314-.702-.942-1.274-1.828-1.274-.905 0-1.644.683-1.847 1.292h-.074v-1.2h-1.089V114h1.089v-4.229c0-1.163.795-1.902 1.625-1.902.795 0 1.293.425 1.293 1.496V114h1.108v-4.45zm5.981 7.109h1.089v-3.748h.093c.24.387.701 1.237 2.068 1.237 1.772 0 3.01-1.422 3.01-3.675 0-2.234-1.238-3.656-3.029-3.656-1.385 0-1.809.849-2.049 1.219h-.13v-1.127h-1.052v9.75zm5.17-6.204c0 1.514-.702 2.714-2.068 2.714-1.311 0-2.031-1.108-2.031-2.714 0-1.589.701-2.66 2.031-2.66 1.385 0 2.068 1.164 2.068 2.66zm5.632 3.693c1.921 0 3.213-1.459 3.213-3.657 0-2.215-1.292-3.674-3.213-3.674-1.92 0-3.213 1.459-3.213 3.674 0 2.198 1.293 3.657 3.213 3.657zm0-.979c-1.459 0-2.123-1.256-2.123-2.678 0-1.421.664-2.696 2.123-2.696s2.124 1.275 2.124 2.696c0 1.422-.665 2.678-2.124 2.678zm8.791-6.112a1.959 1.959 0 0 0-.942-.259c-.831 0-1.606.647-1.809 1.33h-.074v-1.219h-1.09V114h1.09v-4.007c.018-.96.683-2.068 1.847-2.068.313 0 .498.092.609.147l.369-1.015zm4.53-.148h-1.514v-1.514h-1.09v1.514h-1.071v1.016h1.071v4.339c0 1.237.998 1.828 1.921 1.828.406 0 .665-.074.812-.129l-.221-.979c-.093.019-.24.056-.48.056-.48 0-.942-.148-.942-1.071v-4.044h1.514v-1.016zm6.415 1.588c-.37-1.034-1.164-1.68-2.475-1.68-1.495 0-2.603.849-2.603 2.049 0 .868.572 1.644 1.865 1.976l1.181.296c.702.166 1.016.48 1.016.942 0 .59-.591 1.126-1.606 1.126-1.053 0-1.552-.572-1.81-1.219l-.997.37c.351.886 1.126 1.791 2.825 1.791 1.754 0 2.696-1.016 2.696-2.105 0-.813-.535-1.552-1.828-1.865l-1.053-.259c-.812-.203-1.2-.628-1.2-1.108 0-.609.646-1.071 1.514-1.071 1.09 0 1.367.72 1.496 1.034l.979-.277z" fill="#000"/><path d="M56 61h90v40H56z"/><path fill="#F5F5F5" d="M56 61h90v40H56z"/><path stroke="#000" stroke-opacity=".2" d="M56.5 61.5h89v39h-89z"/><path d="M70.348 88.66h1.09v-3.75h.092c.24.388.701 1.238 2.068 1.238 1.773 0 3.01-1.422 3.01-3.675 0-2.234-1.237-3.656-3.029-3.656-1.385 0-1.81.85-2.05 1.219H71.4v-1.127h-1.052v9.75zm5.17-6.206c0 1.515-.701 2.715-2.068 2.715-1.311 0-2.031-1.108-2.031-2.715 0-1.587.702-2.658 2.031-2.658 1.385 0 2.068 1.163 2.068 2.658zM82.517 86h1.09v-4.672c0-2.253-1.718-2.511-2.623-2.511-1.07 0-2.29.37-2.844 1.662l1.034.369c.24-.517.813-1.071 1.865-1.071.85 0 1.478.37 1.478 1.551v.019c0 .461-.85.424-1.828.554-1.33.166-2.752.48-2.752 2.086 0 1.385 1.071 2.18 2.42 2.18 1.237 0 1.883-.666 2.104-1.127h.056V86zm0-2.567c0 .887-.702 1.754-1.995 1.754-.867 0-1.495-.387-1.495-1.144 0-.831.757-1.09 1.606-1.2.462-.056 1.7-.185 1.884-.407v.997zm6.993-4.376a1.96 1.96 0 0 0-.942-.259c-.831 0-1.607.647-1.81 1.33h-.074v-1.219h-1.09V86h1.09v-4.007c.019-.96.684-2.068 1.847-2.068.314 0 .498.092.61.147l.369-1.015zm5.879 1.44c-.37-1.034-1.164-1.68-2.475-1.68-1.496 0-2.603.85-2.603 2.05 0 .867.572 1.643 1.865 1.975l1.181.296c.702.166 1.016.48 1.016.941 0 .592-.59 1.127-1.607 1.127-1.052 0-1.55-.573-1.81-1.219l-.996.37c.35.886 1.126 1.79 2.825 1.79 1.754 0 2.696-1.015 2.696-2.104 0-.813-.535-1.552-1.828-1.865l-1.053-.259c-.812-.203-1.2-.628-1.2-1.108 0-.61.646-1.07 1.514-1.07 1.09 0 1.367.72 1.496 1.033l.979-.277zm4.82 5.65c1.441 0 2.493-.72 2.826-1.79l-1.053-.296c-.277.739-.905 1.108-1.773 1.108-1.283 0-2.09-.813-2.202-2.345h5.139v-.462c0-2.64-1.57-3.545-3.047-3.545-1.92 0-3.195 1.514-3.195 3.693 0 2.179 1.256 3.638 3.305 3.638zm-.11-6.352c1.181 0 1.939.887 1.939 2.087h-4.007c.175-1.33.978-2.087 2.068-2.087zM108.965 86h1.089v-6.075h1.588v-1.016h-1.588v-.406c0-.702.296-1.071 1.016-1.071.314 0 .498.074.609.11l.314-.941c-.166-.074-.499-.185-1.034-.185-1.016 0-1.994.61-1.994 1.828v.665h-1.145v1.016h1.145V86zm4.714-8.106c.48 0 .776-.333.776-.74a.75.75 0 0 0-.776-.738.75.75 0 0 0-.775.739c0 .406.295.739.775.739zm.554 1.015h-1.089V86h1.089v-7.09zm3.085-2.364h-1.089V86h1.089v-9.454zm4.969 9.603c1.44 0 2.492-.72 2.825-1.791l-1.053-.296c-.277.739-.905 1.108-1.772 1.108-1.284 0-2.092-.813-2.202-2.345h5.138v-.462c0-2.64-1.57-3.545-3.047-3.545-1.921 0-3.195 1.514-3.195 3.693 0 2.179 1.256 3.638 3.306 3.638zm-.111-6.352c1.182 0 1.939.886 1.939 2.086h-4.007c.175-1.33.978-2.087 2.068-2.087zm9.623.701c-.369-1.034-1.164-1.68-2.475-1.68-1.495 0-2.603.85-2.603 2.05 0 .867.572 1.643 1.865 1.975l1.182.296c.701.166 1.015.48 1.015.941 0 .592-.591 1.127-1.606 1.127-1.053 0-1.551-.573-1.81-1.219l-.997.37c.351.886 1.126 1.79 2.825 1.79 1.754 0 2.696-1.015 2.696-2.104 0-.813-.535-1.552-1.828-1.865l-1.053-.259c-.812-.203-1.2-.628-1.2-1.108 0-.61.646-1.07 1.514-1.07 1.09 0 1.367.72 1.496 1.033l.979-.277z" fill="#000"/><path opacity=".8" d="M173 80.5l.354.354.353-.354-.353-.354-.354.354zm-14 .5h14v-1h-14v1zm14.354-.854l-5.5-5.5-.708.708 5.5 5.5.708-.708zm-.708 0l-5.5 5.5.708.708 5.5-5.5-.708-.708zM313 80.5l.354.354.353-.354-.353-.354-.354.354zm-14 .5h14v-1h-14v1zm14.354-.854l-5.5-5.5-.708.708 5.5 5.5.708-.708zm-.708 0l-5.5 5.5.708.708 5.5-5.5-.708-.708zM423 80.5l.354.354.353-.354-.353-.354-.354.354zm-14 .5h14v-1h-14v1zm14.354-.854l-5.5-5.5-.708.708 5.5 5.5.708-.708zm-.708 0l-5.5 5.5.708.708 5.5-5.5-.708-.708z" fill="#000"/><path d="M186 61h100v40H186z"/><path fill="#F5F5F5" d="M186 61h100v40H186z"/><path stroke="#000" stroke-opacity=".2" d="M186.5 61.5h99v39h-99z"/><path d="M205.13 79.057a1.957 1.957 0 0 0-.942-.259c-.831 0-1.606.647-1.809 1.33h-.074v-1.219h-1.09V86h1.09v-4.007c.018-.96.683-2.068 1.847-2.068.313 0 .498.092.609.147l.369-1.015zm3.794 7.09c1.44 0 2.493-.72 2.825-1.79l-1.052-.296c-.277.739-.905 1.108-1.773 1.108-1.284 0-2.091-.813-2.202-2.345h5.138v-.462c0-2.64-1.57-3.545-3.047-3.545-1.92 0-3.195 1.514-3.195 3.693 0 2.179 1.256 3.638 3.306 3.638zm-.111-6.352c1.182 0 1.939.887 1.939 2.087h-4.007c.175-1.33.978-2.087 2.068-2.087zm9.623.702c-.369-1.034-1.163-1.68-2.474-1.68-1.496 0-2.604.85-2.604 2.05 0 .867.572 1.643 1.865 1.975l1.182.296c.701.166 1.015.48 1.015.941 0 .592-.59 1.127-1.606 1.127-1.053 0-1.551-.573-1.81-1.219l-.997.37c.351.886 1.126 1.79 2.825 1.79 1.755 0 2.696-1.015 2.696-2.104 0-.813-.535-1.552-1.828-1.865l-1.052-.259c-.813-.203-1.201-.628-1.201-1.108 0-.61.647-1.07 1.515-1.07 1.089 0 1.366.72 1.495 1.033l.979-.277zm4.728 5.65c1.921 0 3.214-1.458 3.214-3.656 0-2.215-1.293-3.674-3.214-3.674-1.92 0-3.213 1.459-3.213 3.675 0 2.197 1.293 3.656 3.213 3.656zm0-.978c-1.458 0-2.123-1.256-2.123-2.677 0-1.422.665-2.697 2.123-2.697 1.459 0 2.124 1.275 2.124 2.697 0 1.421-.665 2.677-2.124 2.677zm5.966-8.623h-1.089V86h1.089v-9.454zm7.794 2.363h-1.182l-1.957 5.65h-.074l-1.958-5.65h-1.181L233.194 86h1.108l2.622-7.09zm4.17 7.239c1.44 0 2.493-.72 2.825-1.791l-1.053-.296c-.277.739-.904 1.108-1.772 1.108-1.284 0-2.092-.813-2.202-2.345h5.138v-.462c0-2.64-1.57-3.545-3.047-3.545-1.921 0-3.195 1.514-3.195 3.693 0 2.179 1.256 3.638 3.306 3.638zm-.111-6.352c1.182 0 1.939.886 1.939 2.086h-4.007c.175-1.33.978-2.087 2.068-2.087zm12.301-.74a1.963 1.963 0 0 0-.942-.258c-.831 0-1.607.647-1.81 1.33h-.074v-1.219h-1.089V86h1.089v-4.007c.019-.96.683-2.068 1.847-2.068.314 0 .498.092.609.147l.37-1.015zm3.793 7.092c1.44 0 2.493-.72 2.825-1.791l-1.052-.296c-.277.739-.905 1.108-1.773 1.108-1.283 0-2.091-.813-2.202-2.345h5.138v-.462c0-2.64-1.569-3.545-3.047-3.545-1.92 0-3.194 1.514-3.194 3.693 0 2.179 1.255 3.638 3.305 3.638zm-.111-6.352c1.182 0 1.939.886 1.939 2.086h-4.007c.176-1.33.979-2.087 2.068-2.087zm5.21 6.204h1.089v-6.075h1.589v-1.016h-1.589v-.406c0-.702.296-1.071 1.016-1.071.314 0 .499.074.609.11l.314-.941c-.166-.074-.498-.185-1.034-.185-1.015 0-1.994.61-1.994 1.828v.665h-1.145v1.016h1.145V86zm8.755-5.503c-.369-1.034-1.163-1.68-2.474-1.68-1.496 0-2.604.85-2.604 2.05 0 .867.572 1.643 1.865 1.975l1.182.296c.702.166 1.016.48 1.016.941 0 .592-.591 1.127-1.607 1.127-1.053 0-1.551-.573-1.81-1.219l-.997.37c.351.886 1.127 1.79 2.825 1.79 1.755 0 2.696-1.015 2.696-2.104 0-.813-.535-1.552-1.828-1.865l-1.052-.259c-.813-.203-1.2-.628-1.2-1.108 0-.61.646-1.07 1.514-1.07 1.089 0 1.366.72 1.495 1.033l.979-.277z" fill="#000"/><path d="M326 61h70v40h-70z"/><path fill="#F5F5F5" d="M326 61h70v40h-70z"/><path stroke="#000" stroke-opacity=".2" d="M326.5 61.5h69v39h-69z"/><path d="M342.557 77.894c.48 0 .775-.333.775-.74a.749.749 0 0 0-.775-.738.749.749 0 0 0-.776.739c0 .406.295.739.776.739zm.554 1.015h-1.09V86h1.09v-7.09zm7.11 2.64c0-.996.554-1.68 1.514-1.68.591 0 1.385.351 1.385 1.46V86h1.09v-4.635c0-1.736-.96-2.548-2.142-2.548-1.034 0-1.847.683-2.05 1.274h-.074c-.314-.702-.942-1.274-1.828-1.274-.905 0-1.643.683-1.847 1.292h-.073v-1.2h-1.09V86h1.09v-4.229c0-1.163.794-1.902 1.625-1.902.794 0 1.292.425 1.292 1.496V86h1.108v-4.45zm5.981 7.11h1.089V84.91h.093c.24.388.701 1.238 2.068 1.238 1.772 0 3.01-1.422 3.01-3.675 0-2.234-1.238-3.656-3.029-3.656-1.385 0-1.809.85-2.049 1.219h-.13v-1.127h-1.052v9.75zm5.17-6.205c0 1.515-.702 2.715-2.068 2.715-1.311 0-2.031-1.108-2.031-2.715 0-1.587.701-2.658 2.031-2.658 1.385 0 2.068 1.163 2.068 2.658zm5.632 3.694c1.921 0 3.213-1.46 3.213-3.656 0-2.216-1.292-3.675-3.213-3.675-1.92 0-3.213 1.459-3.213 3.675 0 2.197 1.293 3.656 3.213 3.656zm0-.979c-1.459 0-2.123-1.256-2.123-2.677 0-1.422.664-2.697 2.123-2.697s2.124 1.275 2.124 2.697c0 1.421-.665 2.677-2.124 2.677zm8.791-6.112a1.957 1.957 0 0 0-.942-.259c-.83 0-1.606.647-1.809 1.33h-.074v-1.219h-1.09V86h1.09v-4.007c.018-.96.683-2.068 1.847-2.068.313 0 .498.092.609.147l.369-1.015zm4.53-.148h-1.514v-1.514h-1.09v1.514h-1.071v1.016h1.071v4.34c0 1.236.998 1.827 1.921 1.827.406 0 .665-.073.812-.129l-.221-.979c-.093.019-.24.056-.48.056-.48 0-.942-.148-.942-1.071v-4.044h1.514v-1.016z" fill="#000"/><path d="M436 61h80v40h-80z"/><path fill="#F5F5F5" d="M436 61h80v40h-80z"/><path stroke="#000" stroke-opacity=".2" d="M436.5 61.5h79v39h-79z"/><path d="M458.761 81.033c-.185-1.33-1.311-2.216-2.807-2.216-1.92 0-3.195 1.514-3.195 3.638 0 2.178 1.238 3.693 3.214 3.693 1.569 0 2.603-.96 2.788-2.216h-1.09c-.203.775-.849 1.237-1.698 1.237-1.293 0-2.124-1.071-2.124-2.715 0-1.606.849-2.658 2.124-2.658.96 0 1.532.59 1.698 1.237h1.09zm4.486 5.115c1.92 0 3.213-1.46 3.213-3.656 0-2.216-1.293-3.675-3.213-3.675-1.92 0-3.213 1.459-3.213 3.675 0 2.197 1.293 3.656 3.213 3.656zm0-.979c-1.459 0-2.124-1.256-2.124-2.677 0-1.422.665-2.697 2.124-2.697s2.124 1.275 2.124 2.697c0 1.421-.665 2.677-2.124 2.677zm9.991-3.62c0-.996.554-1.68 1.514-1.68.591 0 1.385.351 1.385 1.46V86h1.09v-4.635c0-1.736-.96-2.548-2.142-2.548-1.034 0-1.847.683-2.05 1.274h-.074c-.314-.702-.942-1.274-1.828-1.274-.905 0-1.643.683-1.847 1.292h-.073v-1.2h-1.09V86h1.09v-4.229c0-1.163.794-1.902 1.625-1.902.794 0 1.292.425 1.292 1.496V86h1.108v-4.45zm5.981 7.11h1.089V84.91h.093c.24.388.701 1.238 2.068 1.238 1.773 0 3.01-1.422 3.01-3.675 0-2.234-1.237-3.656-3.029-3.656-1.385 0-1.809.85-2.049 1.219h-.13v-1.127h-1.052v9.75zm5.17-6.205c0 1.515-.701 2.715-2.068 2.715-1.311 0-2.031-1.108-2.031-2.715 0-1.587.702-2.658 2.031-2.658 1.385 0 2.068 1.163 2.068 2.658zm3.287-4.56c.48 0 .776-.333.776-.74a.75.75 0 0 0-.776-.738.75.75 0 0 0-.775.739c0 .406.295.739.775.739zm.554 1.015h-1.089V86h1.089v-7.09zm3.085-2.364h-1.089V86h1.089v-9.454zm4.969 9.603c1.44 0 2.493-.72 2.825-1.791l-1.053-.296c-.277.739-.904 1.108-1.772 1.108-1.284 0-2.092-.813-2.202-2.345h5.138v-.462c0-2.64-1.57-3.545-3.047-3.545-1.921 0-3.195 1.514-3.195 3.693 0 2.179 1.256 3.638 3.306 3.638zm-.111-6.352c1.182 0 1.939.886 1.939 2.086h-4.007c.175-1.33.978-2.087 2.068-2.087z" fill="#000"/><path opacity=".8" d="M23 65.5l.354.354.353-.354-.353-.354L23 65.5zM9.5 66H23v-1H9.5v1zm13.854-.854l-5.5-5.5-.708.708 5.5 5.5.708-.708zm-.708 0l-5.5 5.5.708.708 5.5-5.5-.708-.708zM0 74.5v53h1v-53H0zM9.5 137h344v-1H9.5v1zm353.5-9.5V114h-1v13.5h1zm-363 0a9.5 9.5 0 0 0 9.5 9.5v-1a8.5 8.5 0 0 1-8.5-8.5H0zm353.5 9.5a9.5 9.5 0 0 0 9.5-9.5h-1a8.5 8.5 0 0 1-8.5 8.5v1zM9.5 65A9.5 9.5 0 0 0 0 74.5h1A8.5 8.5 0 0 1 9.5 66v-1z" fill="#000"/></svg>