<svg width="800" height="223" fill="none" xmlns="http://www.w3.org/2000/svg"><path d="M0 0h800v223H0z"/><path opacity=".4" d="M107.313 170.062h.937c-.078-1.265-1.156-2.171-2.703-2.171-1.531 0-2.734.89-2.734 2.234 0 1.078.781 1.719 2.031 2.078l.984.281c1.078.313 1.594.61 1.594 1.328 0 .875-.844 1.454-1.953 1.454-.953 0-1.797-.422-1.875-1.328h-1c.094 1.312 1.156 2.203 2.875 2.203 1.844 0 2.89-1.016 2.89-2.329 0-1.109-.734-1.781-2.25-2.187l-.812-.219c-1.063-.281-1.547-.672-1.547-1.312 0-.782.703-1.344 1.766-1.344.968 0 1.656.453 1.797 1.312zm5.139 6.063c1.219 0 2.109-.609 2.39-1.516l-.89-.25c-.235.625-.766.938-1.5.938-1.086 0-1.77-.688-1.863-1.985h4.347v-.39c0-2.235-1.328-3-2.578-3-1.625 0-2.703 1.281-2.703 3.125s1.062 3.078 2.797 3.078zm-.094-5.375c1 0 1.641.75 1.641 1.766h-3.391c.148-1.125.828-1.766 1.75-1.766zm6.628-.75h-1.282v-1.281h-.921V170h-.907v.859h.907v3.672c0 1.047.843 1.547 1.625 1.547.343 0 .562-.062.687-.109l-.187-.828c-.079.015-.204.046-.407.046-.406 0-.797-.125-.797-.906v-3.422h1.282V170zm7.145 6.125c1.625 0 2.719-1.234 2.719-3.094 0-1.875-1.094-3.109-2.719-3.109-1.625 0-2.718 1.234-2.718 3.109 0 1.86 1.093 3.094 2.718 3.094zm0-.828c-1.234 0-1.796-1.063-1.796-2.266s.562-2.281 1.796-2.281c1.235 0 1.797 1.078 1.797 2.281s-.562 2.266-1.797 2.266zm4.643.703h.922v-5.141h1.343V170h-1.343v-.344c0-.593.25-.906.859-.906.266 0 .422.062.516.094l.265-.797c-.14-.063-.422-.156-.875-.156-.859 0-1.687.515-1.687 1.546V170h-.969v.859h.969V176zm7.256 0h.922v-5.141h1.343V170h-1.343v-.344c0-.593.25-.906.859-.906.266 0 .422.062.516.094l.265-.797c-.14-.063-.422-.156-.875-.156-.859 0-1.687.515-1.687 1.546V170h-.969v.859h.969V176zm7.427-2.375c0 1.125-.859 1.562-1.547 1.562-.765 0-1.312-.5-1.312-1.375V170h-.922v3.812c0 1.579 1.062 2.266 1.937 2.266.907 0 1.485-.469 1.782-.922h.062V176h.922v-6h-.922v3.625zm3.642-1.172c0-1.125.86-1.641 1.547-1.641.766 0 1.313.563 1.313 1.438V176h.922v-3.812c0-1.532-.813-2.266-1.938-2.266-.906 0-1.5.484-1.781 1.094h-.063V170h-.921v6h.921v-3.547zm10.345-.656c-.156-1.125-1.11-1.875-2.375-1.875-1.625 0-2.703 1.281-2.703 3.078 0 1.844 1.047 3.125 2.718 3.125 1.329 0 2.204-.813 2.36-1.875h-.922c-.172.656-.719 1.047-1.438 1.047-1.093 0-1.796-.906-1.796-2.297 0-1.359.718-2.25 1.796-2.25.813 0 1.297.5 1.438 1.047h.922zm4.059-1.797h-1.281v-1.281h-.922V170h-.906v.859h.906v3.672c0 1.047.844 1.547 1.625 1.547.344 0 .562-.062.687-.109l-.187-.828c-.078.015-.203.046-.406.046-.407 0-.797-.125-.797-.906v-3.422h1.281V170zm1.958-.859c.406 0 .656-.282.656-.625a.634.634 0 0 0-.656-.625.634.634 0 0 0-.657.625c0 .343.25.625.657.625zm.468.859h-.922v6h.922v-6zm4.236 6.125c1.625 0 2.719-1.234 2.719-3.094 0-1.875-1.094-3.109-2.719-3.109-1.625 0-2.718 1.234-2.718 3.109 0 1.86 1.093 3.094 2.718 3.094zm0-.828c-1.234 0-1.797-1.063-1.797-2.266s.563-2.281 1.797-2.281c1.235 0 1.797 1.078 1.797 2.281s-.562 2.266-1.797 2.266zm5.158-2.844c0-1.125.86-1.641 1.547-1.641.766 0 1.313.563 1.313 1.438V176h.921v-3.812c0-1.532-.812-2.266-1.937-2.266-.906 0-1.5.484-1.781 1.094h-.063V170h-.922v6h.922v-3.547zm9.721-1.109c-.313-.875-.985-1.422-2.094-1.422-1.266 0-2.203.719-2.203 1.734 0 .735.484 1.391 1.578 1.672l1 .25c.594.141.859.406.859.797 0 .5-.5.953-1.359.953-.891 0-1.313-.484-1.531-1.031l-.844.312c.297.75.953 1.516 2.39 1.516 1.485 0 2.282-.859 2.282-1.781 0-.688-.453-1.313-1.547-1.578l-.891-.219c-.687-.172-1.015-.531-1.015-.938 0-.515.546-.906 1.281-.906.922 0 1.156.609 1.265.875l.829-.234zM197.64 170h-.969l-1.297 4.578h-.063L194.046 170h-.985l-1.281 4.594h-.062L190.421 170h-.969l1.828 6h.906l1.313-4.609h.094l1.312 4.609h.906l1.829-6zm1.781-.859c.407 0 .657-.282.657-.625a.634.634 0 0 0-.657-.625.634.634 0 0 0-.656.625c0 .343.25.625.656.625zm.469.859h-.922v6h.922v-6zm4.314 0h-1.281v-1.281h-.922V170h-.906v.859h.906v3.672c0 1.047.844 1.547 1.625 1.547.344 0 .563-.062.688-.109l-.188-.828c-.078.015-.203.046-.406.046-.406 0-.797-.125-.797-.906v-3.422h1.281V170zm2.427 2.375c0-1.125.812-1.563 1.547-1.563.796 0 1.312.5 1.312 1.376V176h.922v-3.812c0-1.485-.813-2.266-1.938-2.266-.906 0-1.484.469-1.781.922h-.062V168h-.922v8h.922v-3.625zm-100.006 15.25c0 1.125-.859 1.562-1.547 1.562-.765 0-1.312-.5-1.312-1.375V184h-.922v3.812c0 1.579 1.062 2.266 1.937 2.266.907 0 1.485-.469 1.782-.922h.062V190h.922v-6h-.922v3.625zm3.642-1.172c0-1.125.86-1.641 1.547-1.641.766 0 1.313.563 1.313 1.438V190h.921v-3.812c0-1.532-.812-2.266-1.937-2.266-.906 0-1.5.484-1.781 1.094h-.063V184h-.922v6h.922v-3.547zm8.892-2.328a1.658 1.658 0 0 0-.796-.219c-.704 0-1.36.547-1.532 1.125h-.062V184h-.922v6h.922v-3.391c.015-.812.578-1.75 1.562-1.75.266 0 .422.078.516.125l.312-.859zm3.32 6c1.219 0 2.11-.609 2.391-1.516l-.891-.25c-.234.625-.765.938-1.5.938-1.086 0-1.769-.688-1.863-1.985h4.348v-.39c0-2.235-1.328-3-2.578-3-1.625 0-2.703 1.281-2.703 3.125s1.062 3.078 2.796 3.078zm-.093-5.375c1 0 1.64.75 1.64 1.766h-3.39c.148-1.125.828-1.766 1.75-1.766zm8.252.594c-.312-.875-.984-1.422-2.094-1.422-1.265 0-2.203.719-2.203 1.734 0 .735.485 1.391 1.578 1.672l1 .25c.594.141.86.406.86.797 0 .5-.5.953-1.36.953-.89 0-1.312-.484-1.531-1.031l-.844.312c.297.75.954 1.516 2.391 1.516 1.484 0 2.281-.859 2.281-1.781 0-.688-.453-1.313-1.547-1.578l-.89-.219c-.688-.172-1.016-.531-1.016-.938 0-.515.547-.906 1.281-.906.922 0 1.157.609 1.266.875l.828-.234zm4.111 4.781c1.625 0 2.719-1.234 2.719-3.094 0-1.875-1.094-3.109-2.719-3.109-1.625 0-2.719 1.234-2.719 3.109 0 1.86 1.094 3.094 2.719 3.094zm0-.828c-1.234 0-1.797-1.063-1.797-2.266s.563-2.281 1.797-2.281c1.235 0 1.797 1.078 1.797 2.281s-.562 2.266-1.797 2.266zm5.158-7.297h-.922v8h.922v-8zm6.705 2h-1l-1.656 4.781h-.063L142.237 184h-1l2.219 6h.937l2.219-6zm3.638 6.125c1.219 0 2.109-.609 2.391-1.516l-.891-.25c-.234.625-.766.938-1.5.938-1.086 0-1.769-.688-1.863-1.985h4.347v-.39c0-2.235-1.328-3-2.578-3-1.625 0-2.703 1.281-2.703 3.125s1.063 3.078 2.797 3.078zm-.094-5.375c1 0 1.641.75 1.641 1.766h-3.391c.149-1.125.828-1.766 1.75-1.766zm9.128 5.25v-8h-.922v2.953h-.062c-.204-.312-.579-1.031-1.75-1.031-1.516 0-2.563 1.203-2.563 3.094 0 1.906 1.047 3.109 2.547 3.109 1.156 0 1.562-.719 1.766-1.047h.093V190h.891zm-4.375-3c0-1.266.578-2.25 1.75-2.25 1.125 0 1.719.906 1.719 2.25 0 1.359-.61 2.297-1.719 2.297-1.156 0-1.75-1.016-1.75-2.297zm12.689-2.875a1.666 1.666 0 0 0-.797-.219c-.703 0-1.36.547-1.531 1.125h-.063V184h-.922v6h.922v-3.391c.016-.812.578-1.75 1.563-1.75.265 0 .421.078.515.125l.313-.859zm3.32 6c1.218 0 2.109-.609 2.39-1.516l-.89-.25c-.235.625-.766.938-1.5.938-1.086 0-1.77-.688-1.864-1.985h4.348v-.39c0-2.235-1.328-3-2.578-3-1.625 0-2.703 1.281-2.703 3.125s1.062 3.078 2.797 3.078zm-.094-5.375c1 0 1.641.75 1.641 1.766h-3.391c.148-1.125.828-1.766 1.75-1.766zm4.518 5.25h.922v-5.141h1.344V184h-1.344v-.344c0-.593.25-.906.859-.906.266 0 .422.062.516.094l.266-.797c-.141-.063-.422-.156-.875-.156-.86 0-1.688.515-1.688 1.546V184h-.969v.859h.969V190zm5.915.125c1.219 0 2.109-.609 2.39-1.516l-.89-.25c-.235.625-.766.938-1.5.938-1.086 0-1.77-.688-1.863-1.985h4.347v-.39c0-2.235-1.328-3-2.578-3-1.625 0-2.703 1.281-2.703 3.125s1.062 3.078 2.797 3.078zm-.094-5.375c1 0 1.641.75 1.641 1.766h-3.391c.148-1.125.828-1.766 1.75-1.766zm7.425-.625a1.666 1.666 0 0 0-.797-.219c-.703 0-1.36.547-1.532 1.125h-.062V184h-.922v6h.922v-3.391c.016-.812.578-1.75 1.562-1.75.266 0 .422.078.516.125l.313-.859zm3.319 6c1.219 0 2.11-.609 2.391-1.516l-.891-.25c-.234.625-.765.938-1.5.938-1.085 0-1.769-.688-1.863-1.985h4.348v-.39c0-2.235-1.328-3-2.578-3-1.625 0-2.703 1.281-2.703 3.125s1.062 3.078 2.796 3.078zm-.093-5.375c1 0 1.64.75 1.64 1.766h-3.39c.148-1.125.828-1.766 1.75-1.766zm5.034 1.703c0-1.125.859-1.641 1.546-1.641.766 0 1.313.563 1.313 1.438V190h.922v-3.812c0-1.532-.813-2.266-1.938-2.266-.906 0-1.5.484-1.781 1.094h-.062V184h-.922v6h.922v-3.547zm10.344-.656c-.156-1.125-1.109-1.875-2.375-1.875-1.625 0-2.703 1.281-2.703 3.078 0 1.844 1.047 3.125 2.719 3.125 1.328 0 2.203-.813 2.359-1.875h-.922c-.172.656-.719 1.047-1.437 1.047-1.094 0-1.797-.906-1.797-2.297 0-1.359.718-2.25 1.797-2.25.812 0 1.296.5 1.437 1.047h.922zm3.984 4.328c1.219 0 2.109-.609 2.391-1.516l-.891-.25c-.234.625-.766.938-1.5.938-1.086 0-1.77-.688-1.863-1.985h4.347v-.39c0-2.235-1.328-3-2.578-3-1.625 0-2.703 1.281-2.703 3.125s1.063 3.078 2.797 3.078zm-.094-5.375c1 0 1.641.75 1.641 1.766h-3.391c.149-1.125.828-1.766 1.75-1.766zm8.253.594c-.313-.875-.985-1.422-2.094-1.422-1.266 0-2.203.719-2.203 1.734 0 .735.484 1.391 1.578 1.672l1 .25c.594.141.859.406.859.797 0 .5-.5.953-1.359.953-.891 0-1.312-.484-1.531-1.031l-.844.312c.297.75.953 1.516 2.391 1.516 1.484 0 2.281-.859 2.281-1.781 0-.688-.453-1.313-1.547-1.578l-.891-.219c-.687-.172-1.015-.531-1.015-.938 0-.515.547-.906 1.281-.906.922 0 1.156.609 1.266.875l.828-.234zm5.502.718v.875h6.391V187l-2.407 2.406.594.594 3.5-3.5-3.5-3.5-.594.594 2.407 2.406v.062h-6.391z" fill="#000"/><path d="M298 163h90v40h-90z"/><path fill="#F5F5F5" d="M298 163h90v40h-90z"/><path stroke="#000" stroke-opacity=".2" d="M298.5 163.5h89v39h-89z"/><path d="M316.465 188h1.09v-6.075h1.588v-1.016h-1.588v-.406c0-.702.295-1.071 1.015-1.071.314 0 .499.074.61.111l.313-.942c-.166-.074-.498-.185-1.034-.185-1.015 0-1.994.61-1.994 1.828v.665h-1.145v1.016h1.145V188zm8.648-2.807c0 1.33-1.016 1.847-1.828 1.847-.905 0-1.551-.591-1.551-1.625v-4.506h-1.09v4.506c0 1.865 1.256 2.677 2.29 2.677 1.071 0 1.754-.554 2.105-1.089h.074V188h1.089v-7.091h-1.089v4.284zm4.174-1.385c0-1.329 1.016-1.939 1.828-1.939.905 0 1.552.665 1.552 1.699V188h1.089v-4.506c0-1.809-.96-2.677-2.29-2.677-1.071 0-1.772.572-2.105 1.292h-.074v-1.2h-1.089V188h1.089v-4.192zm12.096-.775c-.185-1.33-1.312-2.216-2.807-2.216-1.921 0-3.195 1.514-3.195 3.638 0 2.179 1.237 3.693 3.213 3.693 1.57 0 2.604-.96 2.789-2.216h-1.09c-.203.775-.849 1.237-1.699 1.237-1.292 0-2.123-1.071-2.123-2.714 0-1.607.849-2.66 2.123-2.66.96 0 1.533.591 1.699 1.238h1.09zm5.784 4.967l.891-2.53H352l.891 2.53h1.201l-3.472-9.455h-1.182L345.967 188h1.2zm2.807-7.959h.111l1.555 4.414h-3.222l1.556-4.414zm10.724.942h1.108c-.093-1.496-1.367-2.567-3.195-2.567-1.809 0-3.231 1.053-3.231 2.641 0 1.274.923 2.031 2.4 2.456l1.164.332c1.274.369 1.883.72 1.883 1.57 0 1.034-.997 1.717-2.308 1.717-1.127 0-2.124-.498-2.216-1.57h-1.182c.111 1.552 1.367 2.604 3.398 2.604 2.179 0 3.416-1.2 3.416-2.751 0-1.311-.868-2.105-2.659-2.585l-.96-.259c-1.256-.332-1.828-.794-1.828-1.551 0-.923.831-1.588 2.086-1.588 1.145 0 1.958.535 2.124 1.551zm9.692-2.438h-7.091v1.016h2.973V188h1.145v-8.439h2.973v-1.016z" fill="#000"/><path d="M294 159h90v40h-90z"/><path fill="#F5F5F5" d="M294 159h90v40h-90z"/><path stroke="#000" stroke-opacity=".2" d="M294.5 159.5h89v39h-89z"/><path d="M312.465 184h1.09v-6.075h1.588v-1.016h-1.588v-.406c0-.702.295-1.071 1.015-1.071.314 0 .499.074.61.111l.313-.942c-.166-.074-.498-.185-1.034-.185-1.015 0-1.994.61-1.994 1.828v.665h-1.145v1.016h1.145V184zm8.648-2.807c0 1.33-1.016 1.847-1.828 1.847-.905 0-1.551-.591-1.551-1.625v-4.506h-1.09v4.506c0 1.865 1.256 2.677 2.29 2.677 1.071 0 1.754-.554 2.105-1.089h.074V184h1.089v-7.091h-1.089v4.284zm4.174-1.385c0-1.329 1.016-1.939 1.828-1.939.905 0 1.552.665 1.552 1.699V184h1.089v-4.506c0-1.809-.96-2.677-2.29-2.677-1.071 0-1.772.572-2.105 1.292h-.074v-1.2h-1.089V184h1.089v-4.192zm12.096-.775c-.185-1.33-1.312-2.216-2.807-2.216-1.921 0-3.195 1.514-3.195 3.638 0 2.179 1.237 3.693 3.213 3.693 1.57 0 2.604-.96 2.789-2.216h-1.09c-.203.775-.849 1.237-1.699 1.237-1.292 0-2.123-1.071-2.123-2.714 0-1.607.849-2.66 2.123-2.66.96 0 1.533.591 1.699 1.238h1.09zm5.784 4.967l.891-2.53H348l.891 2.53h1.201l-3.472-9.455h-1.182L341.967 184h1.2zm2.807-7.959h.111l1.555 4.414h-3.222l1.556-4.414zm10.724.942h1.108c-.093-1.496-1.367-2.567-3.195-2.567-1.809 0-3.231 1.053-3.231 2.641 0 1.274.923 2.031 2.4 2.456l1.164.332c1.274.369 1.883.72 1.883 1.57 0 1.034-.997 1.717-2.308 1.717-1.127 0-2.124-.498-2.216-1.57h-1.182c.111 1.552 1.367 2.604 3.398 2.604 2.179 0 3.416-1.2 3.416-2.751 0-1.311-.868-2.105-2.659-2.585l-.96-.259c-1.256-.332-1.828-.794-1.828-1.551 0-.923.831-1.588 2.086-1.588 1.145 0 1.958.535 2.124 1.551zm9.692-2.438h-7.091v1.016h2.973V184h1.145v-8.439h2.973v-1.016z" fill="#000"/><path d="M290 155h90v40h-90z"/><path fill="#F5F5F5" d="M290 155h90v40h-90z"/><path stroke="#000" stroke-opacity=".2" d="M290.5 155.5h89v39h-89z"/><path d="M308.465 180h1.09v-6.075h1.588v-1.016h-1.588v-.406c0-.702.295-1.071 1.015-1.071.314 0 .499.074.61.111l.313-.942c-.166-.074-.498-.185-1.034-.185-1.015 0-1.994.61-1.994 1.828v.665h-1.145v1.016h1.145V180zm8.648-2.807c0 1.33-1.016 1.847-1.828 1.847-.905 0-1.551-.591-1.551-1.625v-4.506h-1.09v4.506c0 1.865 1.256 2.677 2.29 2.677 1.071 0 1.754-.554 2.105-1.089h.074V180h1.089v-7.091h-1.089v4.284zm4.174-1.385c0-1.329 1.016-1.939 1.828-1.939.905 0 1.552.665 1.552 1.699V180h1.089v-4.506c0-1.809-.96-2.677-2.29-2.677-1.071 0-1.772.572-2.105 1.292h-.074v-1.2h-1.089V180h1.089v-4.192zm12.096-.775c-.185-1.33-1.312-2.216-2.807-2.216-1.921 0-3.195 1.514-3.195 3.638 0 2.179 1.237 3.693 3.213 3.693 1.57 0 2.604-.96 2.789-2.216h-1.09c-.203.775-.849 1.237-1.699 1.237-1.292 0-2.123-1.071-2.123-2.714 0-1.607.849-2.66 2.123-2.66.96 0 1.533.591 1.699 1.238h1.09zm5.784 4.967l.891-2.53H344l.891 2.53h1.201l-3.472-9.455h-1.182L337.967 180h1.2zm2.807-7.959h.111l1.555 4.414h-3.222l1.556-4.414zm10.724.942h1.108c-.093-1.496-1.367-2.567-3.195-2.567-1.809 0-3.231 1.053-3.231 2.641 0 1.274.923 2.031 2.4 2.456l1.164.332c1.274.369 1.883.72 1.883 1.57 0 1.034-.997 1.717-2.308 1.717-1.127 0-2.124-.498-2.216-1.57h-1.182c.111 1.552 1.367 2.604 3.398 2.604 2.179 0 3.416-1.2 3.416-2.751 0-1.311-.868-2.105-2.659-2.585l-.96-.259c-1.256-.332-1.828-.794-1.828-1.551 0-.923.831-1.588 2.086-1.588 1.145 0 1.958.535 2.124 1.551zm9.692-2.438h-7.091v1.016h2.973V180h1.145v-8.439h2.973v-1.016z" fill="#000"/><path d="M0 10h80v40H0z"/><path fill="#F5F5F5" d="M0 10h80v40H0z"/><path stroke="#000" stroke-opacity=".2" d="M.5 10.5h79v39H.5z"/><path d="M23.757 37.66h1.09v-3.75h.092c.24.388.701 1.238 2.068 1.238 1.773 0 3.01-1.422 3.01-3.675 0-2.234-1.237-3.656-3.029-3.656-1.384 0-1.81.85-2.05 1.218h-.128V27.91h-1.053v9.75zm5.17-6.205c0 1.514-.701 2.714-2.068 2.714-1.31 0-2.031-1.108-2.031-2.714 0-1.588.702-2.66 2.031-2.66 1.385 0 2.068 1.164 2.068 2.66zM35.926 35h1.09v-4.672c0-2.253-1.718-2.511-2.623-2.511-1.07 0-2.29.37-2.844 1.662l1.035.369c.24-.517.812-1.071 1.865-1.071.85 0 1.477.37 1.477 1.551v.019c0 .461-.85.424-1.828.554-1.33.166-2.752.48-2.752 2.086 0 1.385 1.071 2.18 2.42 2.18 1.237 0 1.883-.666 2.105-1.127h.055V35zm0-2.567c0 .887-.702 1.755-1.994 1.755-.868 0-1.496-.388-1.496-1.145 0-.831.757-1.09 1.606-1.2.462-.056 1.7-.185 1.884-.407v.997zm6.993-4.376a1.96 1.96 0 0 0-.942-.259c-.831 0-1.606.647-1.81 1.33h-.074v-1.219h-1.089V35h1.09v-4.007c.018-.96.683-2.068 1.846-2.068.314 0 .499.092.61.147l.369-1.015zm5.879 1.44c-.37-1.034-1.163-1.68-2.475-1.68-1.495 0-2.603.85-2.603 2.05 0 .867.572 1.643 1.865 1.975l1.182.296c.701.166 1.015.48 1.015.942 0 .59-.59 1.126-1.606 1.126-1.053 0-1.551-.573-1.81-1.219l-.997.37c.35.886 1.126 1.79 2.825 1.79 1.754 0 2.696-1.015 2.696-2.104 0-.813-.535-1.552-1.828-1.865l-1.052-.259c-.813-.203-1.2-.628-1.2-1.108 0-.61.645-1.07 1.513-1.07 1.09 0 1.367.72 1.496 1.033l.979-.277zm4.82 5.65c1.44 0 2.493-.72 2.826-1.79l-1.053-.296c-.277.739-.904 1.108-1.772 1.108-1.284 0-2.092-.813-2.203-2.345h5.139v-.462c0-2.64-1.57-3.545-3.047-3.545-1.92 0-3.195 1.514-3.195 3.693 0 2.179 1.256 3.638 3.306 3.638zm-.11-6.351c1.182 0 1.939.886 1.939 2.086H51.44c.175-1.33.978-2.087 2.068-2.087z" fill="#000"/><path opacity=".8" d="M107 30.5l.354.354.353-.354-.353-.354-.354.354zM93 31h14v-1H93v1zm14.354-.854l-5.5-5.5-.708.708 5.5 5.5.708-.708zm-.708 0l-5.5 5.5.708.708 5.5-5.5-.708-.708zM277 174.5l.354.354.353-.354-.353-.354-.354.354zm-11.5.5H277v-1h-11.5v1zm11.854-.854l-5.5-5.5-.708.708 5.5 5.5.708-.708zm-.708 0l-5.5 5.5.708.708 5.5-5.5-.708-.708zM257 165.5V143h-1v22.5h1zm8.5 8.5a8.5 8.5 0 0 1-8.5-8.5h-1a9.5 9.5 0 0 0 9.5 9.5v-1zm253-111l.354-.354-.354-.353-.354.353.354.354zm.5 102.5V63h-1v102.5h1zm-.854-102.854l-5.5 5.5.708.707 5.5-5.5-.708-.707zm0 .707l5.5 5.5.708-.707-5.5-5.5-.708.707zM509.5 174H412v1h97.5v-1zm8.5-8.5a8.5 8.5 0 0 1-8.5 8.5v1a9.5 9.5 0 0 0 9.5-9.5h-1z" fill="#000"/><path d="M120 10h80v40h-80z"/><path fill="#F5F5F5" d="M120 10h80v40h-80z"/><path stroke="#000" stroke-opacity=".2" d="M120.5 10.5h79v39h-79z"/><path d="M133.465 35h1.09v-6.075h1.588v-1.016h-1.588v-.406c0-.702.295-1.071 1.015-1.071.314 0 .499.074.61.11l.313-.941c-.166-.074-.498-.185-1.034-.185-1.015 0-1.994.61-1.994 1.828v.665h-1.145v1.016h1.145V35zm8.648-2.807c0 1.33-1.016 1.847-1.828 1.847-.905 0-1.551-.591-1.551-1.625v-4.506h-1.09v4.506c0 1.865 1.256 2.677 2.29 2.677 1.071 0 1.754-.554 2.105-1.09h.074V35h1.089v-7.09h-1.089v4.283zm4.174-1.385c0-1.33 1.016-1.939 1.828-1.939.905 0 1.552.665 1.552 1.7V35h1.089v-4.506c0-1.81-.96-2.677-2.29-2.677-1.071 0-1.772.572-2.105 1.292h-.074v-1.2h-1.089V35h1.089v-4.192zm12.096-.775c-.185-1.33-1.312-2.216-2.807-2.216-1.921 0-3.195 1.514-3.195 3.637 0 2.18 1.237 3.694 3.213 3.694 1.57 0 2.604-.96 2.789-2.216h-1.09c-.203.775-.849 1.237-1.699 1.237-1.292 0-2.123-1.071-2.123-2.714 0-1.607.849-2.66 2.123-2.66.96 0 1.533.591 1.699 1.238h1.09zM164.167 35l.891-2.53H169l.891 2.53h1.201l-3.472-9.454h-1.182L162.967 35h1.2zm2.807-7.959h.111l1.555 4.413h-3.222l1.556-4.413zm10.724.942h1.108c-.093-1.496-1.367-2.567-3.195-2.567-1.809 0-3.231 1.053-3.231 2.64 0 1.275.923 2.032 2.4 2.457l1.164.332c1.274.37 1.883.72 1.883 1.57 0 1.034-.997 1.717-2.308 1.717-1.127 0-2.124-.498-2.216-1.57h-1.182c.111 1.552 1.367 2.604 3.398 2.604 2.179 0 3.416-1.2 3.416-2.751 0-1.311-.868-2.105-2.659-2.585l-.96-.259c-1.256-.332-1.828-.794-1.828-1.551 0-.923.831-1.588 2.086-1.588 1.145 0 1.958.535 2.124 1.551zm9.692-2.438h-7.091v1.016h2.973V35h1.145v-8.439h2.973v-1.015z" fill="#000"/><path opacity=".8" d="M581 30.5l.354.354.353-.354-.353-.354-.354.354zm-14 .5h14v-1h-14v1zm14.354-.854l-5.5-5.5-.708.708 5.5 5.5.708-.708zm-.708 0l-5.5 5.5.708.708 5.5-5.5-.708-.708z" fill="#000"/><path d="M594 10h80v40h-80z"/><path fill="#F5F5F5" d="M594 10h80v40h-80z"/><path stroke="#000" stroke-opacity=".2" d="M594.5 10.5h79v39h-79z"/><path d="M611.859 35.148c1.92 0 3.213-1.46 3.213-3.657 0-2.215-1.293-3.674-3.213-3.674-1.921 0-3.213 1.459-3.213 3.674 0 2.198 1.292 3.657 3.213 3.657zm0-.979c-1.459 0-2.124-1.256-2.124-2.677 0-1.422.665-2.697 2.124-2.697s2.123 1.275 2.123 2.696c0 1.422-.664 2.678-2.123 2.678zm4.724 3.49h1.089v-3.748h.092c.24.387.702 1.237 2.069 1.237 1.772 0 3.01-1.422 3.01-3.675 0-2.234-1.238-3.656-3.029-3.656-1.385 0-1.81.85-2.05 1.218h-.129V27.91h-1.052v9.75zm5.17-6.204c0 1.514-.702 2.714-2.068 2.714-1.311 0-2.031-1.108-2.031-2.714 0-1.588.701-2.66 2.031-2.66 1.385 0 2.068 1.164 2.068 2.66zm5.724-3.546h-1.514v-1.514h-1.089v1.514h-1.071v1.016h1.071v4.34c0 1.236.997 1.827 1.92 1.827.407 0 .665-.073.813-.129l-.222-.979c-.092.019-.24.056-.48.056-.48 0-.942-.148-.942-1.071v-4.044h1.514v-1.016zm2.184-1.015c.48 0 .776-.333.776-.74a.75.75 0 0 0-.776-.738.75.75 0 0 0-.775.739c0 .406.295.738.775.738zm.554 1.015h-1.089V35h1.089v-7.09zm7.111 2.64c0-.996.554-1.68 1.514-1.68.591 0 1.385.351 1.385 1.46V35h1.089v-4.635c0-1.736-.96-2.548-2.142-2.548-1.034 0-1.846.683-2.05 1.274h-.073c-.314-.702-.942-1.274-1.829-1.274-.904 0-1.643.683-1.846 1.292h-.074v-1.2h-1.089V35h1.089v-4.229c0-1.163.794-1.902 1.625-1.902.794 0 1.293.425 1.293 1.496V35h1.108v-4.45zm6.516-3.655c.48 0 .775-.333.775-.74a.749.749 0 0 0-.775-.738.75.75 0 0 0-.776.739c0 .406.296.738.776.738zm.554 1.015h-1.09V35h1.09v-7.09zm7.295 6.075h-4.063l3.971-5.207v-.868h-5.466v1.016h4.053l-3.979 5.152V35h5.484v-1.016zm4.706 1.164c1.441 0 2.493-.72 2.826-1.792l-1.053-.295c-.277.739-.905 1.108-1.773 1.108-1.283 0-2.091-.813-2.202-2.345h5.138v-.462c0-2.64-1.569-3.545-3.046-3.545-1.921 0-3.195 1.514-3.195 3.693 0 2.179 1.256 3.638 3.305 3.638zm-.11-6.353c1.181 0 1.939.887 1.939 2.087h-4.008c.176-1.33.979-2.087 2.069-2.087z" fill="#000"/><path opacity=".8" d="M701 30.5l.354.354.353-.354-.353-.354-.354.354zm-14 .5h14v-1h-14v1zm14.354-.854l-5.5-5.5-.708.708 5.5 5.5.708-.708zm-.708 0l-5.5 5.5.708.708 5.5-5.5-.708-.708z" fill="#000"/><path d="M714 10h86v40h-86z"/><path fill="#F5F5F5" d="M714 10h86v40h-86z"/><path stroke="#000" stroke-opacity=".2" d="M714.5 10.5h85v39h-85z"/><path d="M736.86 30.033c-.185-1.33-1.311-2.216-2.807-2.216-1.92 0-3.194 1.514-3.194 3.637 0 2.18 1.237 3.694 3.213 3.694 1.569 0 2.603-.96 2.788-2.216h-1.089c-.204.775-.85 1.237-1.699 1.237-1.293 0-2.124-1.071-2.124-2.714 0-1.607.85-2.66 2.124-2.66.96 0 1.532.591 1.699 1.238h1.089zm4.486 5.115c1.921 0 3.213-1.46 3.213-3.657 0-2.215-1.292-3.674-3.213-3.674-1.92 0-3.213 1.459-3.213 3.674 0 2.198 1.293 3.657 3.213 3.657zm0-.979c-1.459 0-2.123-1.256-2.123-2.677 0-1.422.664-2.697 2.123-2.697s2.124 1.275 2.124 2.696c0 1.422-.665 2.678-2.124 2.678zM752.15 35v-9.454h-1.09v3.49h-.074c-.24-.37-.683-1.22-2.068-1.22-1.791 0-3.028 1.423-3.028 3.657 0 2.253 1.237 3.675 3.01 3.675 1.366 0 1.846-.85 2.086-1.238h.111V35h1.053zm-5.171-3.546c0-1.495.684-2.659 2.069-2.659 1.329 0 2.031 1.071 2.031 2.66 0 1.606-.72 2.714-2.031 2.714-1.367 0-2.069-1.2-2.069-2.714zm10.138 3.694c1.44 0 2.493-.72 2.825-1.792l-1.052-.295c-.277.739-.905 1.108-1.773 1.108-1.283 0-2.091-.813-2.202-2.345h5.138v-.462c0-2.64-1.569-3.545-3.047-3.545-1.92 0-3.194 1.514-3.194 3.693 0 2.179 1.255 3.638 3.305 3.638zm-.111-6.353c1.182 0 1.939.887 1.939 2.087h-4.007c.176-1.33.979-2.087 2.068-2.087zm9.605-.886v1.127h-.111c-.24-.37-.683-1.22-2.068-1.22-1.791 0-3.028 1.423-3.028 3.602 0 2.215 1.292 3.471 3.009 3.471 1.385 0 1.829-.812 2.069-1.2h.092v1.256c.018 1.181-.923 1.735-2.013 1.735-1.219 0-1.717-.701-1.994-1.052l-.868.61c.443.756 1.348 1.421 2.862 1.421 1.644 0 3.102-.776 3.102-2.604V27.91h-1.052zm-4.118 3.49c0-1.44.683-2.604 2.068-2.604 1.33 0 2.031 1.071 2.031 2.604 0 1.57-.72 2.511-2.031 2.511-1.366 0-2.068-1.034-2.068-2.51zm10.138 3.749c1.44 0 2.493-.72 2.825-1.792l-1.052-.295c-.277.739-.905 1.108-1.773 1.108-1.284 0-2.091-.813-2.202-2.345h5.138v-.462c0-2.64-1.57-3.545-3.047-3.545-1.92 0-3.195 1.514-3.195 3.693 0 2.179 1.256 3.638 3.306 3.638zm-.111-6.353c1.182 0 1.939.887 1.939 2.087h-4.007c.175-1.33.979-2.087 2.068-2.087zm5.819 2.013c0-1.33 1.016-1.939 1.828-1.939.905 0 1.551.665 1.551 1.7V35h1.09v-4.506c0-1.81-.96-2.677-2.29-2.677-1.071 0-1.773.572-2.105 1.292h-.074v-1.2h-1.089V35h1.089v-4.192z" fill="#000"/><path d="M484 10h70v40h-70z"/><path fill="#F5F5F5" d="M484 10h70v40h-70z"/><path stroke="#000" stroke-opacity=".2" d="M484.5 10.5h69v39h-69z"/><path d="M497.66 25.546V35h1.052v-1.09h.13c.24.388.701 1.238 2.068 1.238 1.772 0 3.01-1.422 3.01-3.675 0-2.234-1.238-3.656-3.029-3.656-1.385 0-1.809.85-2.049 1.218h-.093v-3.49h-1.089zm5.17 5.909c0 1.514-.701 2.714-2.068 2.714-1.311 0-2.031-1.108-2.031-2.714 0-1.588.701-2.66 2.031-2.66 1.385 0 2.068 1.164 2.068 2.66zm7.144.738c0 1.33-1.015 1.847-1.828 1.847-.905 0-1.551-.591-1.551-1.625v-4.506h-1.09v4.506c0 1.865 1.256 2.677 2.29 2.677 1.071 0 1.754-.554 2.105-1.09h.074V35h1.09v-7.09h-1.09v4.283zm3.621-5.3c.48 0 .775-.332.775-.738a.749.749 0 0 0-.775-.739.75.75 0 0 0-.776.739c0 .406.296.738.776.738zm.554 1.016h-1.09V35h1.09v-7.09zm3.085-2.363h-1.09V35h1.09v-9.454zM525.157 35v-9.454h-1.09v3.49h-.074c-.24-.37-.683-1.22-2.068-1.22-1.791 0-3.028 1.423-3.028 3.657 0 2.253 1.237 3.675 3.01 3.675 1.366 0 1.846-.85 2.086-1.238h.111V35h1.053zm-5.171-3.546c0-1.495.683-2.659 2.068-2.659 1.33 0 2.032 1.071 2.032 2.66 0 1.606-.721 2.714-2.032 2.714-1.366 0-2.068-1.2-2.068-2.714zm12.114-5.909h-1.145V35h1.145v-9.454zM539.58 35h1.329l-2.04-3.929c1.094-.447 1.708-1.33 1.708-2.626 0-1.57-.923-2.9-3.176-2.9h-3.158V35h1.145v-3.675h2.313L539.58 35zm-4.192-8.439h2.013c1.68 0 2.049.997 2.049 1.884 0 1.052-.517 1.828-2.179 1.828h-1.883V26.56zm-316.155-3.186c0-1.125.812-1.563 1.547-1.563.797 0 1.312.5 1.312 1.375V27h.922v-3.813c0-1.484-.812-2.265-1.937-2.265-.907 0-1.485.469-1.782.922h-.062V19h-.922v8h.922v-3.625zM228.406 27h.922v-3.953c0-1.906-1.453-2.125-2.218-2.125-.907 0-1.938.312-2.407 1.406l.875.313c.203-.438.688-.907 1.578-.907.719 0 1.25.313 1.25 1.313v.015c0 .391-.718.36-1.546.47-1.125.14-2.329.405-2.329 1.765 0 1.172.907 1.844 2.047 1.844 1.047 0 1.594-.563 1.782-.953h.046V27zm0-2.172c0 .75-.593 1.485-1.687 1.485-.734 0-1.266-.329-1.266-.97 0-.702.641-.921 1.36-1.015.39-.047 1.437-.156 1.593-.344v.844zm6.856-2.484c-.313-.875-.985-1.422-2.094-1.422-1.266 0-2.203.719-2.203 1.734 0 .735.484 1.39 1.578 1.672l1 .25c.594.14.859.406.859.797 0 .5-.5.953-1.359.953-.891 0-1.313-.484-1.531-1.031l-.844.312c.297.75.953 1.516 2.39 1.516 1.485 0 2.282-.86 2.282-1.781 0-.688-.453-1.313-1.547-1.578l-.891-.22c-.687-.171-1.015-.53-1.015-.937 0-.515.546-.906 1.281-.906.922 0 1.156.61 1.265.875l.829-.234zm8.658 2.281c0 1.125-.859 1.563-1.547 1.563-.765 0-1.312-.5-1.312-1.375V21h-.922v3.813c0 1.578 1.062 2.265 1.937 2.265.907 0 1.485-.469 1.782-.922h.062V27h.922v-6h-.922v3.625zm3.642-1.172c0-1.125.86-1.64 1.547-1.64.766 0 1.313.562 1.313 1.437V27h.921v-3.813c0-1.53-.812-2.265-1.937-2.265-.906 0-1.5.484-1.781 1.094h-.063V21h-.922v6h.922v-3.547zm8.892-2.328a1.654 1.654 0 0 0-.796-.219c-.704 0-1.36.547-1.532 1.125h-.062V21h-.922v6h.922v-3.39c.015-.813.578-1.75 1.562-1.75.266 0 .422.078.516.124l.312-.859zm3.32 6c1.219 0 2.11-.61 2.391-1.516l-.891-.25c-.234.625-.765.938-1.5.938-1.086 0-1.769-.688-1.863-1.985h4.348v-.39c0-2.235-1.328-3-2.578-3-1.625 0-2.703 1.281-2.703 3.125s1.062 3.078 2.796 3.078zm-.093-5.375c1 0 1.64.75 1.64 1.766h-3.39c.148-1.125.828-1.766 1.75-1.766zm8.252.594c-.312-.875-.984-1.422-2.094-1.422-1.265 0-2.203.719-2.203 1.734 0 .735.485 1.39 1.578 1.672l1 .25c.594.14.86.406.86.797 0 .5-.5.953-1.36.953-.89 0-1.312-.484-1.531-1.031l-.844.312c.297.75.954 1.516 2.391 1.516 1.484 0 2.281-.86 2.281-1.781 0-.688-.453-1.313-1.547-1.578l-.89-.22c-.688-.171-1.016-.53-1.016-.937 0-.515.547-.906 1.281-.906.922 0 1.157.61 1.266.875l.828-.234zm4.111 4.781c1.625 0 2.719-1.234 2.719-3.094 0-1.875-1.094-3.11-2.719-3.11-1.625 0-2.719 1.235-2.719 3.11 0 1.86 1.094 3.094 2.719 3.094zm0-.828c-1.234 0-1.797-1.063-1.797-2.266s.563-2.281 1.797-2.281c1.235 0 1.797 1.078 1.797 2.281s-.562 2.266-1.797 2.266zM277.202 19h-.922v8h.922v-8zm6.705 2h-1l-1.656 4.781h-.063L279.532 21h-1l2.219 6h.937l2.219-6zm3.638 6.125c1.219 0 2.109-.61 2.391-1.516l-.891-.25c-.234.625-.766.938-1.5.938-1.086 0-1.769-.688-1.863-1.985h4.347v-.39c0-2.235-1.328-3-2.578-3-1.625 0-2.703 1.281-2.703 3.125s1.063 3.078 2.797 3.078zm-.094-5.375c1 0 1.641.75 1.641 1.766h-3.391c.149-1.125.828-1.766 1.75-1.766zm9.128 5.25v-8h-.922v2.953h-.062c-.204-.312-.579-1.031-1.75-1.031-1.516 0-2.563 1.203-2.563 3.094 0 1.906 1.047 3.109 2.547 3.109 1.156 0 1.562-.719 1.766-1.047h.093V27h.891zm-4.375-3c0-1.266.578-2.25 1.75-2.25 1.125 0 1.719.906 1.719 2.25 0 1.36-.61 2.297-1.719 2.297-1.156 0-1.75-1.016-1.75-2.297zM230.27 35.125a1.661 1.661 0 0 0-.797-.219c-.703 0-1.36.547-1.532 1.125h-.062V35h-.922v6h.922v-3.39c.016-.813.578-1.75 1.562-1.75.266 0 .422.078.516.124l.313-.859zm3.319 6c1.219 0 2.11-.61 2.391-1.516l-.891-.25c-.234.625-.765.938-1.5.938-1.085 0-1.769-.688-1.863-1.984h4.348v-.391c0-2.234-1.328-3-2.578-3-1.625 0-2.703 1.281-2.703 3.125s1.062 3.078 2.796 3.078zm-.093-5.375c1 0 1.64.75 1.64 1.766h-3.39c.148-1.125.828-1.766 1.75-1.766zm4.518 5.25h.922v-5.14h1.344V35h-1.344v-.344c0-.593.25-.906.859-.906.266 0 .422.063.516.094l.265-.797c-.14-.063-.421-.156-.875-.156-.859 0-1.687.515-1.687 1.547V35h-.969v.86h.969V41zm5.915.125c1.218 0 2.109-.61 2.39-1.516l-.89-.25c-.235.625-.766.938-1.5.938-1.086 0-1.77-.688-1.864-1.984h4.348v-.391c0-2.234-1.328-3-2.578-3-1.625 0-2.703 1.281-2.703 3.125s1.062 3.078 2.797 3.078zm-.094-5.375c1 0 1.64.75 1.64 1.766h-3.39c.148-1.125.828-1.766 1.75-1.766zm7.424-.625a1.655 1.655 0 0 0-.797-.219c-.703 0-1.359.547-1.531 1.125h-.062V35h-.922v6h.922v-3.39c.015-.813.578-1.75 1.562-1.75.266 0 .422.078.516.124l.312-.859zm3.32 6c1.219 0 2.11-.61 2.391-1.516l-.891-.25c-.234.625-.765.938-1.5.938-1.086 0-1.769-.688-1.863-1.984h4.348v-.391c0-2.234-1.328-3-2.578-3-1.625 0-2.704 1.281-2.704 3.125s1.063 3.078 2.797 3.078zm-.093-5.375c1 0 1.64.75 1.64 1.766h-3.39c.148-1.125.828-1.766 1.75-1.766zm5.033 1.703c0-1.125.86-1.64 1.547-1.64.766 0 1.313.562 1.313 1.437V41h.922v-3.813c0-1.53-.813-2.265-1.938-2.265-.906 0-1.5.484-1.781 1.094h-.063V35h-.922v6h.922v-3.547zm10.345-.656c-.157-1.125-1.11-1.875-2.375-1.875-1.625 0-2.703 1.281-2.703 3.078 0 1.844 1.046 3.125 2.718 3.125 1.328 0 2.203-.813 2.36-1.875h-.922c-.172.656-.719 1.047-1.438 1.047-1.093 0-1.797-.906-1.797-2.297 0-1.36.719-2.25 1.797-2.25.813 0 1.297.5 1.438 1.047h.922zm3.984 4.328c1.219 0 2.109-.61 2.39-1.516l-.89-.25c-.235.625-.766.938-1.5.938-1.086 0-1.77-.688-1.864-1.984h4.348v-.391c0-2.234-1.328-3-2.578-3-1.625 0-2.703 1.281-2.703 3.125s1.062 3.078 2.797 3.078zm-.094-5.375c1 0 1.641.75 1.641 1.766h-3.391c.148-1.125.828-1.766 1.75-1.766zm8.253.594c-.313-.875-.985-1.422-2.094-1.422-1.266 0-2.203.719-2.203 1.734 0 .735.484 1.39 1.578 1.672l1 .25c.594.14.859.406.859.797 0 .5-.5.953-1.359.953-.891 0-1.313-.484-1.531-1.031l-.844.312c.297.75.953 1.516 2.39 1.516 1.485 0 2.282-.86 2.282-1.781 0-.688-.453-1.313-1.547-1.578l-.891-.22c-.687-.171-1.015-.53-1.015-.937 0-.515.546-.906 1.281-.906.922 0 1.156.61 1.265.875l.829-.234zm4.267 2.406c0-2.094 1.953-1.797 1.953-3.75 0-1.219-.797-2.11-2.172-2.11-1.266 0-2.25.782-2.25 2.11h.984c0-.922.625-1.297 1.266-1.297.734 0 1.234.484 1.234 1.25 0 1.547-1.953 1.25-1.953 3.797h.938zm-.469 2.375a.75.75 0 0 0 .75-.75.764.764 0 0 0-.75-.766.754.754 0 0 0-.75.766c0 .422.328.75.75.75zM250.986 130h.922v-3.953c0-1.906-1.453-2.125-2.219-2.125-.906 0-1.937.312-2.406 1.406l.875.313c.203-.438.688-.907 1.578-.907.719 0 1.25.313 1.25 1.313v.015c0 .391-.718.36-1.547.469-1.125.141-2.328.406-2.328 1.766 0 1.172.907 1.844 2.047 1.844 1.047 0 1.594-.563 1.781-.954h.047V130zm0-2.172c0 .75-.593 1.484-1.687 1.484-.735 0-1.266-.328-1.266-.968 0-.703.641-.922 1.36-1.016.39-.047 1.437-.156 1.593-.344v.844zm7.698 2.172v-8h-.922v2.953h-.062c-.203-.312-.578-1.031-1.75-1.031-1.516 0-2.563 1.203-2.563 3.094 0 1.906 1.047 3.109 2.547 3.109 1.157 0 1.563-.719 1.766-1.047h.094V130h.89zm-4.375-3c0-1.266.578-2.25 1.75-2.25 1.125 0 1.719.906 1.719 2.25 0 1.359-.609 2.297-1.719 2.297-1.156 0-1.75-1.016-1.75-2.297zm11.188 3v-8h-.921v2.953h-.063c-.203-.312-.578-1.031-1.75-1.031-1.516 0-2.562 1.203-2.562 3.094 0 1.906 1.046 3.109 2.546 3.109 1.157 0 1.563-.719 1.766-1.047h.094V130h.89zm-4.375-3c0-1.266.579-2.25 1.75-2.25 1.125 0 1.719.906 1.719 2.25 0 1.359-.609 2.297-1.719 2.297-1.156 0-1.75-1.016-1.75-2.297zm142.458 27h-1.281v-1.281h-.922V154h-.906v.859h.906v3.672c0 1.047.844 1.547 1.625 1.547.344 0 .563-.062.688-.109l-.188-.828c-.078.015-.203.046-.406.046-.406 0-.797-.125-.797-.906v-3.422h1.281V154zm5.099 6h.921v-3.953c0-1.906-1.453-2.125-2.218-2.125-.907 0-1.938.312-2.407 1.406l.875.313c.204-.438.688-.907 1.579-.907.718 0 1.25.313 1.25 1.313v.015c0 .391-.719.36-1.547.469-1.125.141-2.328.406-2.328 1.766 0 1.172.906 1.844 2.046 1.844 1.047 0 1.594-.563 1.782-.954h.047V160zm0-2.172c0 .75-.594 1.484-1.688 1.484-.734 0-1.266-.328-1.266-.968 0-.703.641-.922 1.36-1.016.39-.047 1.437-.156 1.594-.344v.844zm6.495 2.172h1.078l-2.609-3.445 2.359-2.555h-1.14l-2.438 2.703h-.109V152h-.922v8h.922v-2.098l.707-.761 2.152 2.859zm4.431.125c1.218 0 2.109-.609 2.39-1.516l-.89-.25c-.235.625-.766.938-1.5.938-1.086 0-1.77-.688-1.864-1.985h4.348v-.39c0-2.235-1.328-3-2.578-3-1.625 0-2.703 1.281-2.703 3.125s1.062 3.078 2.797 3.078zm-.094-5.375c1 0 1.641.75 1.641 1.766h-3.391c.148-1.125.828-1.766 1.75-1.766zM393.039 21.125a1.661 1.661 0 0 0-.797-.219c-.703 0-1.36.547-1.532 1.125h-.062V21h-.922v6h.922v-3.39c.016-.813.578-1.75 1.562-1.75.266 0 .422.078.516.124l.313-.859zm3.319 6c1.219 0 2.11-.61 2.391-1.516l-.891-.25c-.234.625-.765.938-1.5.938-1.085 0-1.769-.688-1.863-1.985h4.348v-.39c0-2.235-1.328-3-2.578-3-1.625 0-2.703 1.281-2.703 3.125s1.062 3.078 2.796 3.078zm-.093-5.375c1 0 1.64.75 1.64 1.766h-3.39c.148-1.125.828-1.766 1.75-1.766zm8.252.594c-.312-.875-.984-1.422-2.093-1.422-1.266 0-2.204.719-2.204 1.734 0 .735.485 1.39 1.579 1.672l1 .25c.593.14.859.406.859.797 0 .5-.5.953-1.359.953-.891 0-1.313-.484-1.532-1.031l-.843.312c.296.75.953 1.516 2.39 1.516 1.485 0 2.281-.86 2.281-1.781 0-.688-.453-1.313-1.546-1.578l-.891-.22c-.688-.171-1.016-.53-1.016-.937 0-.515.547-.906 1.282-.906.921 0 1.156.61 1.265.875l.828-.234zm4.111 4.781c1.625 0 2.719-1.234 2.719-3.094 0-1.875-1.094-3.11-2.719-3.11-1.625 0-2.718 1.235-2.718 3.11 0 1.86 1.093 3.094 2.718 3.094zm0-.828c-1.234 0-1.797-1.063-1.797-2.266s.563-2.281 1.797-2.281c1.235 0 1.797 1.078 1.797 2.281s-.562 2.266-1.797 2.266zM413.786 19h-.922v8h.922v-8zm6.705 2h-1l-1.656 4.781h-.063L416.116 21h-1l2.219 6h.937l2.219-6zm3.638 6.125c1.219 0 2.11-.61 2.391-1.516l-.891-.25c-.234.625-.765.938-1.5.938-1.086 0-1.769-.688-1.863-1.985h4.348v-.39c0-2.235-1.329-3-2.579-3-1.625 0-2.703 1.281-2.703 3.125s1.063 3.078 2.797 3.078zm-.094-5.375c1 0 1.641.75 1.641 1.766h-3.391c.149-1.125.829-1.766 1.75-1.766zm8.253.594c-.312-.875-.984-1.422-2.094-1.422-1.265 0-2.203.719-2.203 1.734 0 .735.485 1.39 1.578 1.672l1 .25c.594.14.86.406.86.797 0 .5-.5.953-1.36.953-.89 0-1.312-.484-1.531-1.031l-.844.312c.297.75.953 1.516 2.391 1.516 1.484 0 2.281-.86 2.281-1.781 0-.688-.453-1.313-1.547-1.578l-.89-.22c-.688-.171-1.016-.53-1.016-.937 0-.515.547-.906 1.281-.906.922 0 1.157.61 1.266.875l.828-.234zM383.77 35.125a1.661 1.661 0 0 0-.797-.219c-.703 0-1.36.547-1.532 1.125h-.062V35h-.922v6h.922v-3.39c.016-.813.578-1.75 1.562-1.75.266 0 .422.078.516.124l.313-.859zm3.319 6c1.219 0 2.11-.61 2.391-1.516l-.891-.25c-.234.625-.765.938-1.5.938-1.085 0-1.769-.688-1.863-1.984h4.348v-.391c0-2.234-1.328-3-2.578-3-1.625 0-2.703 1.281-2.703 3.125s1.062 3.078 2.796 3.078zm-.093-5.375c1 0 1.64.75 1.64 1.766h-3.39c.148-1.125.828-1.766 1.75-1.766zm4.518 5.25h.922v-5.14h1.344V35h-1.344v-.344c0-.593.25-.906.859-.906.266 0 .422.063.516.094l.265-.797c-.14-.063-.421-.156-.875-.156-.859 0-1.687.515-1.687 1.547V35h-.969v.86h.969V41zm5.915.125c1.218 0 2.109-.61 2.39-1.516l-.89-.25c-.235.625-.766.938-1.5.938-1.086 0-1.77-.688-1.864-1.984h4.348v-.391c0-2.234-1.328-3-2.578-3-1.625 0-2.703 1.281-2.703 3.125s1.062 3.078 2.797 3.078zm-.094-5.375c1 0 1.64.75 1.64 1.766h-3.39c.148-1.125.828-1.766 1.75-1.766zm7.424-.625a1.655 1.655 0 0 0-.797-.219c-.703 0-1.359.547-1.531 1.125h-.062V35h-.922v6h.922v-3.39c.015-.813.578-1.75 1.562-1.75.266 0 .422.078.516.124l.312-.859zm3.32 6c1.219 0 2.11-.61 2.391-1.516l-.891-.25c-.234.625-.765.938-1.5.938-1.086 0-1.769-.688-1.863-1.984h4.348v-.391c0-2.234-1.328-3-2.578-3-1.625 0-2.704 1.281-2.704 3.125s1.063 3.078 2.797 3.078zm-.093-5.375c1 0 1.64.75 1.64 1.766h-3.39c.148-1.125.828-1.766 1.75-1.766zm5.033 1.703c0-1.125.86-1.64 1.547-1.64.766 0 1.313.562 1.313 1.437V41h.922v-3.813c0-1.53-.813-2.265-1.938-2.265-.906 0-1.5.484-1.781 1.094h-.063V35h-.922v6h.922v-3.547zm10.345-.656c-.157-1.125-1.11-1.875-2.375-1.875-1.625 0-2.703 1.281-2.703 3.078 0 1.844 1.046 3.125 2.718 3.125 1.328 0 2.203-.813 2.36-1.875h-.922c-.172.656-.719 1.047-1.438 1.047-1.093 0-1.797-.906-1.797-2.297 0-1.36.719-2.25 1.797-2.25.813 0 1.297.5 1.438 1.047h.922zm3.984 4.328c1.219 0 2.109-.61 2.39-1.516l-.89-.25c-.235.625-.766.938-1.5.938-1.086 0-1.77-.688-1.864-1.984h4.348v-.391c0-2.234-1.328-3-2.578-3-1.625 0-2.703 1.281-2.703 3.125s1.062 3.078 2.797 3.078zm-.094-5.375c1 0 1.641.75 1.641 1.766h-3.391c.148-1.125.828-1.766 1.75-1.766zm8.253.594c-.313-.875-.985-1.422-2.094-1.422-1.266 0-2.203.719-2.203 1.734 0 .735.484 1.39 1.578 1.672l1 .25c.594.14.859.406.859.797 0 .5-.5.953-1.359.953-.891 0-1.313-.484-1.531-1.031l-.844.312c.297.75.953 1.516 2.39 1.516 1.485 0 2.282-.86 2.282-1.781 0-.688-.453-1.313-1.547-1.578l-.891-.22c-.687-.171-1.015-.53-1.015-.937 0-.515.546-.906 1.281-.906.922 0 1.156.61 1.265.875l.829-.234zm4.267 2.406c0-2.094 1.953-1.797 1.953-3.75 0-1.219-.797-2.11-2.172-2.11-1.266 0-2.25.782-2.25 2.11h.984c0-.922.625-1.297 1.266-1.297.734 0 1.234.484 1.234 1.25 0 1.547-1.953 1.25-1.953 3.797h.938zm-.469 2.375a.75.75 0 0 0 .75-.75.764.764 0 0 0-.75-.766.754.754 0 0 0-.75.766c0 .422.328.75.75.75z" fill="#000"/><path d="M312 12h50v37h-50z"/><path d="M362 30.5l.354.354.353-.354-.353-.354-.354.354zm-14 .5h14v-1h-14v1zm14.354-.854l-5.5-5.5-.708.708 5.5 5.5.708-.708zm-.708 0l-5.5 5.5.708.708 5.5-5.5-.708-.708zm-31.496-4.6h-1.126v7.441h-.093l-4.985-7.442h-1.108V35h1.145v-7.405h.092L329.042 35h1.108v-9.454zm5.148 9.602c1.921 0 3.213-1.46 3.213-3.657 0-2.215-1.292-3.674-3.213-3.674-1.92 0-3.213 1.459-3.213 3.674 0 2.198 1.293 3.657 3.213 3.657zm0-.979c-1.459 0-2.123-1.256-2.123-2.677 0-1.422.664-2.697 2.123-2.697s2.124 1.275 2.124 2.696c0 1.422-.665 2.678-2.124 2.678z" fill="#000"/><circle cx="330.5" cy="30.5" r="18" stroke="#000"/><path d="M457 25h14v11h-14z"/><path d="M471 30.5l.354.354.353-.354-.353-.354-.354.354zm-14 .5h14v-1h-14v1zm14.354-.854l-5.5-5.5-.708.708 5.5 5.5.708-.708zm-.708 0l-5.5 5.5.708.708 5.5-5.5-.708-.708z" fill="#000"/><path d="M238 45h37v63h-37z"/><path d="M246.827 71.546h-1.311l3.416 5.558V81h1.145v-3.896l3.416-5.558h-1.311l-2.622 4.413h-.111l-2.622-4.413zm10.385 9.602c1.441 0 2.493-.72 2.826-1.791l-1.053-.296c-.277.739-.905 1.108-1.773 1.108-1.283 0-2.091-.813-2.202-2.345h5.138v-.462c0-2.64-1.569-3.545-3.046-3.545-1.921 0-3.195 1.514-3.195 3.693 0 2.179 1.256 3.638 3.305 3.638zm-.11-6.352c1.181 0 1.938.886 1.938 2.086h-4.007c.176-1.33.979-2.087 2.069-2.087zm9.753.701c-.37-1.034-1.164-1.68-2.475-1.68-1.496 0-2.604.85-2.604 2.05 0 .867.573 1.643 1.865 1.975l1.182.296c.702.166 1.016.48 1.016.941 0 .592-.591 1.127-1.607 1.127-1.052 0-1.551-.573-1.809-1.219l-.997.37c.35.886 1.126 1.79 2.825 1.79 1.754 0 2.696-1.015 2.696-2.104 0-.813-.536-1.552-1.828-1.865l-1.053-.259c-.812-.203-1.2-.628-1.2-1.108 0-.61.646-1.07 1.514-1.07 1.09 0 1.367.72 1.496 1.033l.979-.277z" fill="#000"/><path d="M275 45v63h-37V45z"/><path d="M256.5 108l-.353.354.353.353.354-.353-.354-.354zm-.5-14v14h1V94h-1zm.854 14.354l5.5-5.5-.707-.708-5.5 5.5.707.708zm0-.708l-5.5-5.5-.707.708 5.5 5.5.707-.708z" fill="#000"/><path d="M256.5 94.5c-9.941 0-18-8.059-18-18s8.059-18 18-18c9.942 0 18 8.059 18 18s-8.058 18-18 18z" stroke="#000"/><path d="M393 45h37.001v93H393z"/><path d="M401.827 71.546h-1.311l3.416 5.558V81h1.145v-3.896l3.416-5.558h-1.311l-2.622 4.413h-.111l-2.622-4.413zm10.385 9.602c1.441 0 2.493-.72 2.826-1.791l-1.053-.296c-.277.739-.905 1.108-1.773 1.108-1.283 0-2.091-.813-2.202-2.345h5.138v-.462c0-2.64-1.569-3.545-3.046-3.545-1.921 0-3.195 1.514-3.195 3.693 0 2.179 1.256 3.638 3.305 3.638zm-.11-6.352c1.181 0 1.938.886 1.938 2.086h-4.007c.176-1.33.979-2.087 2.069-2.087zm9.753.701c-.37-1.034-1.164-1.68-2.475-1.68-1.496 0-2.604.85-2.604 2.05 0 .867.573 1.643 1.865 1.975l1.182.296c.702.166 1.016.48 1.016.941 0 .592-.591 1.127-1.607 1.127-1.052 0-1.551-.573-1.809-1.219l-.997.37c.35.886 1.126 1.79 2.825 1.79 1.754 0 2.696-1.015 2.696-2.104 0-.813-.536-1.552-1.828-1.865l-1.053-.259c-.812-.203-1.2-.628-1.2-1.108 0-.61.646-1.07 1.514-1.07 1.09 0 1.367.72 1.496 1.033l.979-.277z" fill="#000"/><path d="M430 45v93h-37V45z"/><path d="M411.5 138l-.354.354.354.353.354-.353-.354-.354zm-.5-44v44h1V94h-1zm.854 44.354l5.5-5.5-.708-.708-5.5 5.5.708.708zm0-.708l-5.5-5.5-.708.708 5.5 5.5.708-.708z" fill="#000"/><mask id="a" fill="#fff"><path d="M411.5 95c-10.217 0-18.5-8.283-18.5-18.5S401.283 58 411.5 58c10.218 0 18.5 8.283 18.5 18.5S421.718 95 411.5 95z"/></mask><path d="M411.5 94c-9.664 0-17.5-7.835-17.5-17.5h-2c0 10.77 8.731 19.5 19.5 19.5v-2zM394 76.5c0-9.665 7.836-17.5 17.5-17.5v-2c-10.769 0-19.5 8.73-19.5 19.5h2zM411.5 59c9.665 0 17.5 7.835 17.5 17.5h2c0-10.77-8.73-19.5-19.5-19.5v2zM429 76.5c0 9.665-7.835 17.5-17.5 17.5v2c10.77 0 19.5-8.73 19.5-19.5h-2z" fill="#000" mask="url(#a)"/></svg>