<svg width="800" height="60" fill="none" xmlns="http://www.w3.org/2000/svg"><path d="M0 0h800v60H0z"/><path d="M0 10h80v40H0z"/><path fill="#F5F5F5" d="M0 10h80v40H0z"/><path stroke="#000" stroke-opacity=".2" d="M.5 10.5h79v39H.5z"/><path d="M23.757 37.66h1.09v-3.75h.092c.24.388.701 1.238 2.068 1.238 1.773 0 3.01-1.422 3.01-3.675 0-2.234-1.237-3.656-3.029-3.656-1.384 0-1.81.85-2.05 1.218h-.128V27.91h-1.053v9.75zm5.17-6.205c0 1.514-.701 2.714-2.068 2.714-1.31 0-2.031-1.108-2.031-2.714 0-1.588.702-2.66 2.031-2.66 1.385 0 2.068 1.164 2.068 2.66zM35.926 35h1.09v-4.672c0-2.253-1.718-2.511-2.623-2.511-1.07 0-2.29.37-2.844 1.662l1.035.369c.24-.517.812-1.071 1.865-1.071.85 0 1.477.37 1.477 1.551v.019c0 .461-.85.424-1.828.554-1.33.166-2.752.48-2.752 2.086 0 1.385 1.071 2.18 2.42 2.18 1.237 0 1.883-.666 2.105-1.127h.055V35zm0-2.567c0 .887-.702 1.755-1.994 1.755-.868 0-1.496-.388-1.496-1.145 0-.831.757-1.09 1.606-1.2.462-.056 1.7-.185 1.884-.407v.997zm6.993-4.376a1.96 1.96 0 0 0-.942-.259c-.831 0-1.606.647-1.81 1.33h-.074v-1.219h-1.089V35h1.09v-4.007c.018-.96.683-2.068 1.846-2.068.314 0 .499.092.61.147l.369-1.015zm5.879 1.44c-.37-1.034-1.163-1.68-2.475-1.68-1.495 0-2.603.85-2.603 2.05 0 .867.572 1.643 1.865 1.975l1.182.296c.701.166 1.015.48 1.015.942 0 .59-.59 1.126-1.606 1.126-1.053 0-1.551-.573-1.81-1.219l-.997.37c.35.886 1.126 1.79 2.825 1.79 1.754 0 2.696-1.015 2.696-2.104 0-.813-.535-1.552-1.828-1.865l-1.052-.259c-.813-.203-1.2-.628-1.2-1.108 0-.61.645-1.07 1.513-1.07 1.09 0 1.367.72 1.496 1.033l.979-.277zm4.82 5.65c1.44 0 2.493-.72 2.826-1.79l-1.053-.296c-.277.739-.904 1.108-1.772 1.108-1.284 0-2.092-.813-2.203-2.345h5.139v-.462c0-2.64-1.57-3.545-3.047-3.545-1.92 0-3.195 1.514-3.195 3.693 0 2.179 1.256 3.638 3.306 3.638zm-.11-6.351c1.182 0 1.939.886 1.939 2.086H51.44c.175-1.33.978-2.087 2.068-2.087z" fill="#000"/><path d="M120 10h90v40h-90z"/><path fill="#F5F5F5" d="M120 10h90v40h-90z"/><path stroke="#000" stroke-opacity=".2" d="M120.5 10.5h89v39h-89z"/><path d="M133.734 35l.891-2.53h3.943l.891 2.53h1.2l-3.472-9.454h-1.181L132.534 35h1.2zm2.807-7.959h.111l1.556 4.413h-3.223l1.556-4.413zm10.724.942h1.108c-.092-1.496-1.366-2.567-3.194-2.567-1.81 0-3.232 1.053-3.232 2.64 0 1.275.923 2.032 2.401 2.457l1.163.332c1.274.37 1.883.72 1.883 1.57 0 1.034-.997 1.717-2.308 1.717-1.126 0-2.123-.498-2.216-1.57h-1.181c.11 1.552 1.366 2.604 3.397 2.604 2.179 0 3.416-1.2 3.416-2.751 0-1.311-.867-2.105-2.659-2.585l-.96-.259c-1.256-.332-1.828-.794-1.828-1.551 0-.923.831-1.588 2.087-1.588 1.145 0 1.957.535 2.123 1.551zm9.693-2.438h-7.091v1.016h2.973V35h1.145v-8.439h2.973v-1.015zm10.944 4.488c-.185-1.33-1.311-2.216-2.807-2.216-1.92 0-3.194 1.514-3.194 3.637 0 2.18 1.237 3.694 3.213 3.694 1.569 0 2.603-.96 2.788-2.216h-1.089c-.204.775-.85 1.237-1.699 1.237-1.293 0-2.124-1.071-2.124-2.714 0-1.607.85-2.66 2.124-2.66.96 0 1.532.591 1.699 1.238h1.089zm2.403.683c0-1.33.96-1.847 1.828-1.847.942 0 1.551.591 1.551 1.625V35h1.09v-4.506c0-1.754-.961-2.677-2.29-2.677-1.071 0-1.754.554-2.105 1.09h-.074v-3.361h-1.09V35h1.09v-4.284zm10.933 1.477c0 1.33-1.016 1.847-1.828 1.847-.905 0-1.551-.591-1.551-1.625v-4.506h-1.09v4.506c0 1.865 1.256 2.677 2.29 2.677 1.071 0 1.754-.554 2.105-1.09h.074V35h1.089v-7.09h-1.089v4.283zm4.174-1.385c0-1.33 1.016-1.939 1.828-1.939.905 0 1.552.665 1.552 1.7V35h1.089v-4.506c0-1.81-.96-2.677-2.29-2.677-1.071 0-1.772.572-2.105 1.292h-.074v-1.2h-1.089V35h1.089v-4.192zM196.345 35h1.274l-3.083-4.072 2.788-3.019h-1.348l-2.881 3.195h-.129v-5.558h-1.089V35h1.089v-2.479l.836-.9L196.345 35z" fill="#000"/><path opacity=".8" d="M343 30.5l-.354.354-.353-.354.353-.354.354.354zm14 .5h-14v-1h14v1zm-14.354-.854l5.5-5.5.708.708-5.5 5.5-.708-.708zm.708 0l5.5 5.5-.708.708-5.5-5.5.708-.708z" fill="#000"/><path d="M250 10h80v40h-80z"/><path fill="#F5F5F5" d="M250 10h80v40h-80z"/><path stroke="#000" stroke-opacity=".2" d="M250.5 10.5h79v39h-79z"/><path d="M273.581 27.91h-1.514v-1.515h-1.089v1.514h-1.071v1.016h1.071v4.34c0 1.236.997 1.827 1.92 1.827.407 0 .665-.073.813-.129l-.222-.979c-.092.019-.24.056-.48.056-.48 0-.942-.148-.942-1.071v-4.044h1.514v-1.016zm4.44 7.238c1.921 0 3.213-1.46 3.213-3.657 0-2.215-1.292-3.674-3.213-3.674-1.92 0-3.213 1.459-3.213 3.674 0 2.198 1.293 3.657 3.213 3.657zm0-.979c-1.458 0-2.123-1.256-2.123-2.677 0-1.422.665-2.697 2.123-2.697 1.459 0 2.124 1.275 2.124 2.696 0 1.422-.665 2.678-2.124 2.678zm9.345.831h1.274l-3.083-4.072 2.788-3.019h-1.348l-2.881 3.195h-.129v-5.558h-1.089V35h1.089v-2.479l.836-.9L287.366 35zm5.106.148c1.44 0 2.493-.72 2.825-1.792l-1.052-.295c-.277.739-.905 1.108-1.773 1.108-1.283 0-2.091-.813-2.202-2.345h5.138v-.462c0-2.64-1.569-3.545-3.047-3.545-1.92 0-3.194 1.514-3.194 3.693 0 2.179 1.255 3.638 3.305 3.638zm-.111-6.353c1.182 0 1.939.887 1.939 2.087h-4.007c.176-1.33.979-2.087 2.068-2.087zm5.819 2.013c0-1.33 1.016-1.939 1.829-1.939.904 0 1.551.665 1.551 1.7V35h1.089v-4.506c0-1.81-.96-2.677-2.29-2.677-1.071 0-1.772.572-2.105 1.292h-.074v-1.2h-1.089V35h1.089v-4.192zm11.358-1.31c-.369-1.035-1.163-1.681-2.474-1.681-1.496 0-2.604.85-2.604 2.05 0 .867.572 1.643 1.865 1.975l1.182.296c.702.166 1.015.48 1.015.942 0 .59-.59 1.126-1.606 1.126-1.053 0-1.551-.573-1.81-1.219l-.997.37c.351.886 1.127 1.79 2.825 1.79 1.755 0 2.696-1.015 2.696-2.104 0-.813-.535-1.552-1.828-1.865l-1.052-.259c-.813-.203-1.201-.628-1.201-1.108 0-.61.647-1.07 1.515-1.07 1.089 0 1.366.72 1.495 1.033l.979-.277z" fill="#000"/><path opacity=".8" d="M93 30.5l-.354.354-.353-.354.353-.354.354.354zm14 .5H93v-1h14v1zm-14.354-.854l5.5-5.5.708.708-5.5 5.5-.708-.708zm.708 0l5.5 5.5-.708.708-5.5-5.5.708-.708zM223 30.5l-.354.354-.353-.354.353-.354.354.354zm14 .5h-14v-1h14v1zm-14.354-.854l5.5-5.5.708.708-5.5 5.5-.708-.708zm.708 0l5.5 5.5-.708.708-5.5-5.5.708-.708z" fill="#000"/><path d="M370 10h90v40h-90z"/><path fill="#F5F5F5" d="M370 10h90v40h-90z"/><path stroke="#000" stroke-opacity=".2" d="M370.5 10.5h89v39h-89z"/><path d="M390.376 25.546v6.26c0 1.477-1.182 2.29-2.53 2.29-1.348 0-2.529-.813-2.529-2.29v-6.26h-1.145v6.26c0 2.123 1.68 3.36 3.674 3.36 1.995 0 3.675-1.237 3.675-3.36v-6.26h-1.145zm10.005 0h-7.091v1.015h2.973V35h1.145v-8.439h2.973v-1.015zm6.827 4.21h-3.915V26.56h4.524v-1.015h-5.669V35h1.145v-4.229h3.915v-1.015zm8.104 2.566c0-1.103-.558-1.92-1.426-2.35.734-.378 1.205-1.07 1.205-2.1 0-1.606-1.182-2.456-2.752-2.456-1.588 0-2.788.85-2.788 2.456 0 1.025.457 1.718 1.186 2.096-.863.43-1.408 1.247-1.408 2.354 0 1.718 1.33 2.807 3.01 2.807 1.662 0 2.973-1.108 2.973-2.807zm-1.292-4.413c0 .923-.813 1.588-1.681 1.588-.886 0-1.717-.665-1.717-1.606 0-.942.831-1.496 1.68-1.496.905 0 1.718.61 1.718 1.514zm.166 4.413a1.84 1.84 0 0 1-1.847 1.847c-1.052 0-1.902-.85-1.902-1.865 0-1.016.85-1.884 1.865-1.884 1.016 0 1.884.868 1.884 1.902zM426.781 35v-9.454h-1.09v3.49h-.074c-.24-.37-.683-1.22-2.068-1.22-1.791 0-3.028 1.423-3.028 3.657 0 2.253 1.237 3.675 3.01 3.675 1.366 0 1.846-.85 2.086-1.238h.111V35h1.053zm-5.171-3.546c0-1.495.683-2.659 2.068-2.659 1.33 0 2.032 1.071 2.032 2.66 0 1.606-.721 2.714-2.032 2.714-1.366 0-2.068-1.2-2.068-2.714zM433.022 35h1.09v-4.672c0-2.253-1.718-2.511-2.623-2.511-1.071 0-2.289.37-2.843 1.662l1.034.369c.24-.517.812-1.071 1.865-1.071.849 0 1.477.37 1.477 1.551v.019c0 .461-.849.424-1.828.554-1.33.166-2.751.48-2.751 2.086 0 1.385 1.071 2.18 2.419 2.18 1.237 0 1.883-.666 2.105-1.127h.055V35zm0-2.567c0 .887-.702 1.755-1.994 1.755-.868 0-1.496-.388-1.496-1.145 0-.831.757-1.09 1.607-1.2.461-.056 1.698-.185 1.883-.407v.997zm5.975-4.524h-1.514v-1.514h-1.09v1.514h-1.071v1.016h1.071v4.34c0 1.236.997 1.827 1.921 1.827.406 0 .665-.073.812-.129l-.221-.979c-.093.019-.24.056-.48.056-.481 0-.942-.148-.942-1.071v-4.044h1.514v-1.016zM444.892 35h1.09v-4.672c0-2.253-1.718-2.511-2.622-2.511-1.071 0-2.29.37-2.844 1.662l1.034.369c.24-.517.812-1.071 1.865-1.071.849 0 1.477.37 1.477 1.551v.019c0 .461-.849.424-1.828.554-1.329.166-2.751.48-2.751 2.086 0 1.385 1.071 2.18 2.419 2.18 1.237 0 1.883-.666 2.105-1.127h.055V35zm0-2.567c0 .887-.701 1.755-1.994 1.755-.868 0-1.496-.388-1.496-1.145 0-.831.757-1.09 1.607-1.2.461-.056 1.699-.185 1.883-.407v.997z" fill="#000"/></svg>