<svg width="800" height="60" fill="none" xmlns="http://www.w3.org/2000/svg"><path d="M0 0h800v60H0z"/><path d="M210 10h110v40H210z"/><path fill="#CEEDE2" d="M210 10h110v40H210z"/><path stroke="#000" stroke-opacity=".2" d="M210.5 10.5h109v39h-109z"/><path d="M228.694 27.91h-1.514v-1.515h-1.089v1.514h-1.071v1.016h1.071v4.34c0 1.236.997 1.827 1.92 1.827.406 0 .665-.073.813-.129l-.222-.979c-.092.019-.24.056-.48.056-.48 0-.942-.148-.942-1.071v-4.044h1.514v-1.016zm3.476 7.792c-.406 1.052-.904 1.145-1.68.96l-.277.96c.111.056.425.13.794.13.979 0 1.681-.518 2.087-1.607l3.047-8.236h-1.182l-1.958 5.65h-.078l-1.953-5.65h-1.182l2.632 7.137-.25.656zm5.409 1.957h1.089v-3.748h.093c.24.387.701 1.237 2.068 1.237 1.772 0 3.01-1.422 3.01-3.675 0-2.234-1.238-3.656-3.029-3.656-1.385 0-1.809.85-2.049 1.218h-.13V27.91h-1.052v9.75zm5.17-6.204c0 1.514-.702 2.714-2.068 2.714-1.311 0-2.031-1.108-2.031-2.714 0-1.588.701-2.66 2.031-2.66 1.385 0 2.068 1.164 2.068 2.66zm5.725 3.693c1.44 0 2.492-.72 2.825-1.792l-1.053-.295c-.277.739-.905 1.108-1.772 1.108-1.284 0-2.092-.813-2.202-2.345h5.138v-.462c0-2.64-1.57-3.545-3.047-3.545-1.921 0-3.195 1.514-3.195 3.693 0 2.179 1.256 3.638 3.306 3.638zm-.111-6.353c1.182 0 1.939.887 1.939 2.087h-4.007c.175-1.33.978-2.087 2.068-2.087zm12.3-.738a1.956 1.956 0 0 0-.941-.259c-.831 0-1.607.647-1.81 1.33h-.074v-1.219h-1.089V35h1.089v-4.007c.019-.96.683-2.068 1.847-2.068.314 0 .498.092.609.147l.369-1.015zm3.794 7.09c1.44 0 2.493-.72 2.825-1.79l-1.052-.296c-.277.739-.905 1.108-1.773 1.108-1.283 0-2.091-.813-2.202-2.345h5.138v-.462c0-2.64-1.57-3.545-3.047-3.545-1.92 0-3.194 1.514-3.194 3.693 0 2.179 1.255 3.638 3.305 3.638zm-.111-6.351c1.182 0 1.939.886 1.939 2.086h-4.007c.175-1.33.979-2.087 2.068-2.087zm9.623.701c-.369-1.034-1.163-1.68-2.474-1.68-1.496 0-2.604.85-2.604 2.05 0 .867.573 1.643 1.865 1.975l1.182.296c.702.166 1.016.48 1.016.942 0 .59-.591 1.126-1.607 1.126-1.052 0-1.551-.573-1.81-1.219l-.997.37c.351.886 1.127 1.79 2.826 1.79 1.754 0 2.696-1.015 2.696-2.104 0-.813-.536-1.552-1.829-1.865l-1.052-.259c-.813-.203-1.2-.628-1.2-1.108 0-.61.646-1.07 1.514-1.07 1.089 0 1.366.72 1.496 1.033l.978-.277zm4.729 5.65c1.92 0 3.213-1.458 3.213-3.655 0-2.216-1.293-3.675-3.213-3.675-1.921 0-3.213 1.459-3.213 3.674 0 2.198 1.292 3.657 3.213 3.657zm0-.978c-1.459 0-2.124-1.256-2.124-2.677 0-1.422.665-2.697 2.124-2.697 1.458 0 2.123 1.275 2.123 2.696 0 1.422-.665 2.678-2.123 2.678zm5.965-8.623h-1.089V35h1.089v-9.454zm7.794 2.363h-1.182l-1.957 5.65h-.074l-1.957-5.65h-1.182L288.727 35h1.108l2.622-7.09zm4.17 7.239c1.44 0 2.493-.72 2.825-1.792l-1.052-.295c-.277.739-.905 1.108-1.773 1.108-1.283 0-2.091-.813-2.202-2.345h5.138v-.462c0-2.64-1.57-3.545-3.047-3.545-1.92 0-3.194 1.514-3.194 3.693 0 2.179 1.255 3.638 3.305 3.638zm-.111-6.353c1.182 0 1.939.887 1.939 2.087h-4.007c.175-1.33.979-2.087 2.068-2.087zm8.644-.738a1.956 1.956 0 0 0-.941-.259c-.831 0-1.607.647-1.81 1.33h-.074v-1.219h-1.089V35h1.089v-4.007c.019-.96.683-2.068 1.847-2.068.314 0 .498.092.609.147l.369-1.015z" fill="#000"/><path d="M340 10h100v40H340z"/><path fill="#CEEDE2" d="M340 10h100v40H340z"/><path stroke="#000" stroke-opacity=".2" d="M340.5 10.5h99v39h-99z"/><path d="M363.643 25.546h-1.145V35h1.145v-9.454zm7.48 9.454h1.329l-2.04-3.929c1.094-.447 1.708-1.33 1.708-2.626 0-1.57-.923-2.9-3.176-2.9h-3.158V35h1.145v-3.675h2.313L371.123 35zm-4.192-8.439h2.013c1.68 0 2.049.997 2.049 1.884 0 1.052-.517 1.828-2.179 1.828h-1.883V26.56zm10.603-1.015V35h1.052v-1.09h.13c.24.388.701 1.238 2.068 1.238 1.773 0 3.01-1.422 3.01-3.675 0-2.234-1.237-3.656-3.029-3.656-1.385 0-1.809.85-2.049 1.218h-.093v-3.49h-1.089zm5.17 5.909c0 1.514-.701 2.714-2.068 2.714-1.311 0-2.031-1.108-2.031-2.714 0-1.588.702-2.66 2.031-2.66 1.385 0 2.068 1.164 2.068 2.66zm7.144.738c0 1.33-1.015 1.847-1.828 1.847-.905 0-1.551-.591-1.551-1.625v-4.506h-1.09v4.506c0 1.865 1.256 2.677 2.29 2.677 1.071 0 1.755-.554 2.105-1.09h.074V35h1.09v-7.09h-1.09v4.283zm3.621-5.3c.48 0 .775-.332.775-.738a.749.749 0 0 0-.775-.739.75.75 0 0 0-.776.739c0 .406.296.738.776.738zm.554 1.016h-1.09V35h1.09v-7.09zm3.085-2.363h-1.09V35h1.09v-9.454zM405.031 35v-9.454h-1.09v3.49h-.074c-.24-.37-.683-1.22-2.068-1.22-1.791 0-3.028 1.423-3.028 3.657 0 2.253 1.237 3.675 3.01 3.675 1.366 0 1.846-.85 2.086-1.238h.111V35h1.053zm-5.171-3.546c0-1.495.683-2.659 2.068-2.659 1.33 0 2.032 1.071 2.032 2.66 0 1.606-.721 2.714-2.032 2.714-1.366 0-2.068-1.2-2.068-2.714zm10.138 3.694c1.44 0 2.493-.72 2.825-1.792l-1.052-.295c-.277.739-.905 1.108-1.773 1.108-1.283 0-2.091-.813-2.202-2.345h5.138v-.462c0-2.64-1.57-3.545-3.047-3.545-1.92 0-3.194 1.514-3.194 3.693 0 2.179 1.255 3.638 3.305 3.638zm-.111-6.353c1.182 0 1.939.887 1.939 2.087h-4.007c.175-1.33.979-2.087 2.068-2.087zm8.645-.738a1.963 1.963 0 0 0-.942-.259c-.831 0-1.607.647-1.81 1.33h-.074v-1.219h-1.089V35h1.089v-4.007c.019-.96.684-2.068 1.847-2.068.314 0 .498.092.609.147l.37-1.015z" fill="#000"/><path d="M460 10h120v40H460z"/><path fill="#CEEDE2" d="M460 10h120v40H460z"/><path stroke="#000" stroke-opacity=".2" d="M460.5 10.5h119v39h-119z"/><path d="M477.037 31.584c2.198 0 3.158-1.348 3.158-3.047s-.96-2.991-3.176-2.991h-3.158V35h1.145v-3.416h2.031zm-2.031-5.023h2.013c1.533 0 2.05.813 2.05 1.976s-.517 2.031-2.032 2.031h-2.031v-4.007zM486.009 35h1.09v-4.672c0-2.253-1.717-2.511-2.622-2.511-1.071 0-2.29.37-2.844 1.662l1.034.369c.24-.517.813-1.071 1.865-1.071.85 0 1.477.37 1.477 1.551v.019c0 .461-.849.424-1.828.554-1.329.166-2.751.48-2.751 2.086 0 1.385 1.071 2.18 2.419 2.18 1.237 0 1.883-.666 2.105-1.127h.055V35zm0-2.567c0 .887-.701 1.755-1.994 1.755-.868 0-1.496-.388-1.496-1.145 0-.831.758-1.09 1.607-1.2.462-.056 1.699-.185 1.883-.407v.997zm8.709-2.4c-.184-1.33-1.311-2.216-2.806-2.216-1.921 0-3.195 1.514-3.195 3.637 0 2.18 1.237 3.694 3.213 3.694 1.57 0 2.604-.96 2.788-2.216h-1.089c-.203.775-.849 1.237-1.699 1.237-1.293 0-2.123-1.071-2.123-2.714 0-1.607.849-2.66 2.123-2.66.96 0 1.533.591 1.699 1.238h1.089zM500.501 35h1.274l-3.084-4.072 2.788-3.019h-1.348l-2.88 3.195h-.13v-5.558h-1.089V35h1.089v-2.479l.836-.9L500.501 35zm6.507 0h1.089v-4.672c0-2.253-1.717-2.511-2.622-2.511-1.071 0-2.29.37-2.844 1.662l1.034.369c.24-.517.813-1.071 1.865-1.071.85 0 1.478.37 1.478 1.551v.019c0 .461-.85.424-1.829.554-1.329.166-2.751.48-2.751 2.086 0 1.385 1.071 2.18 2.419 2.18 1.237 0 1.884-.666 2.105-1.127h.056V35zm0-2.567c0 .887-.702 1.755-1.995 1.755-.868 0-1.496-.388-1.496-1.145 0-.831.758-1.09 1.607-1.2.462-.056 1.699-.185 1.884-.407v.997zm7.914-4.524v1.127h-.11c-.24-.37-.684-1.22-2.069-1.22-1.791 0-3.028 1.423-3.028 3.602 0 2.215 1.293 3.471 3.01 3.471 1.385 0 1.828-.812 2.068-1.2h.093v1.256c.018 1.181-.924 1.735-2.013 1.735-1.219 0-1.718-.701-1.995-1.052l-.867.61c.443.756 1.348 1.421 2.862 1.421 1.643 0 3.102-.776 3.102-2.604V27.91h-1.053zm-4.117 3.49c0-1.44.683-2.604 2.068-2.604 1.329 0 2.031 1.071 2.031 2.604 0 1.57-.72 2.511-2.031 2.511-1.367 0-2.068-1.034-2.068-2.51zm10.137 3.749c1.441 0 2.493-.72 2.826-1.792l-1.053-.295c-.277.739-.905 1.108-1.773 1.108-1.283 0-2.091-.813-2.202-2.345h5.138v-.462c0-2.64-1.569-3.545-3.046-3.545-1.921 0-3.195 1.514-3.195 3.693 0 2.179 1.256 3.638 3.305 3.638zm-.11-6.353c1.181 0 1.938.887 1.938 2.087h-4.007c.176-1.33.979-2.087 2.069-2.087zm8.385-3.25V35h1.053v-1.09h.129c.24.388.702 1.238 2.068 1.238 1.773 0 3.01-1.422 3.01-3.675 0-2.234-1.237-3.656-3.028-3.656-1.385 0-1.81.85-2.05 1.218h-.092v-3.49h-1.09zm5.171 5.91c0 1.514-.702 2.714-2.068 2.714-1.311 0-2.032-1.108-2.032-2.714 0-1.588.702-2.66 2.032-2.66 1.385 0 2.068 1.164 2.068 2.66zm3.287-4.561c.48 0 .775-.333.775-.74a.749.749 0 0 0-.775-.738.75.75 0 0 0-.776.739c0 .406.296.738.776.738zm.554 1.015h-1.09V35h1.09v-7.09zm3.085 2.9c0-1.33 1.015-1.94 1.828-1.94.905 0 1.551.665 1.551 1.7V35h1.089v-4.506c0-1.81-.96-2.677-2.289-2.677-1.071 0-1.773.572-2.105 1.292h-.074v-1.2h-1.09V35h1.09v-4.192zM553.667 35v-9.454h-1.089v3.49h-.074c-.24-.37-.683-1.22-2.068-1.22-1.791 0-3.029 1.423-3.029 3.657 0 2.253 1.238 3.675 3.01 3.675 1.367 0 1.847-.85 2.087-1.238h.111V35h1.052zm-5.17-3.546c0-1.495.683-2.659 2.068-2.659 1.33 0 2.031 1.071 2.031 2.66 0 1.606-.72 2.714-2.031 2.714-1.366 0-2.068-1.2-2.068-2.714zm10.138 3.694c1.44 0 2.493-.72 2.825-1.792l-1.053-.295c-.277.739-.904 1.108-1.772 1.108-1.284 0-2.092-.813-2.202-2.345h5.138v-.462c0-2.64-1.57-3.545-3.047-3.545-1.921 0-3.195 1.514-3.195 3.693 0 2.179 1.256 3.638 3.306 3.638zm-.111-6.353c1.182 0 1.939.887 1.939 2.087h-4.007c.175-1.33.978-2.087 2.068-2.087zm8.644-.738a1.956 1.956 0 0 0-.941-.259c-.831 0-1.607.647-1.81 1.33h-.074v-1.219h-1.089V35h1.089v-4.007c.018-.96.683-2.068 1.847-2.068.314 0 .498.092.609.147l.369-1.015z" fill="#000"/><path d="M0 10h80v40H0z"/><path fill="#CEEDE2" d="M0 10h80v40H0z"/><path stroke="#000" stroke-opacity=".2" d="M.5 10.5h79v39H.5z"/><path d="M21.243 37.66h1.09v-3.75h.092c.24.388.702 1.238 2.068 1.238 1.773 0 3.01-1.422 3.01-3.675 0-2.234-1.237-3.656-3.028-3.656-1.385 0-1.81.85-2.05 1.218h-.13V27.91h-1.052v9.75zm5.17-6.205c0 1.514-.701 2.714-2.067 2.714-1.312 0-2.032-1.108-2.032-2.714 0-1.588.702-2.66 2.032-2.66 1.384 0 2.068 1.164 2.068 2.66zm7 3.545h1.089v-4.672c0-2.253-1.718-2.511-2.622-2.511-1.071 0-2.29.37-2.844 1.662l1.034.369c.24-.517.813-1.071 1.865-1.071.85 0 1.477.37 1.477 1.551v.019c0 .461-.85.424-1.828.554-1.33.166-2.751.48-2.751 2.086 0 1.385 1.07 2.18 2.419 2.18 1.237 0 1.883-.666 2.105-1.127h.055V35zm0-2.567c0 .887-.702 1.755-1.995 1.755-.868 0-1.496-.388-1.496-1.145 0-.831.757-1.09 1.607-1.2.461-.056 1.699-.185 1.883-.407v.997zm6.992-4.376a1.96 1.96 0 0 0-.942-.259c-.83 0-1.606.647-1.81 1.33h-.073v-1.219h-1.09V35h1.09v-4.007c.018-.96.683-2.068 1.846-2.068.314 0 .499.092.61.147l.37-1.015zm5.88 1.44c-.37-1.034-1.164-1.68-2.475-1.68-1.496 0-2.604.85-2.604 2.05 0 .867.572 1.643 1.865 1.975l1.182.296c.702.166 1.016.48 1.016.942 0 .59-.591 1.126-1.607 1.126-1.053 0-1.551-.573-1.81-1.219l-.997.37c.351.886 1.127 1.79 2.826 1.79 1.754 0 2.696-1.015 2.696-2.104 0-.813-.536-1.552-1.829-1.865l-1.052-.259c-.813-.203-1.2-.628-1.2-1.108 0-.61.646-1.07 1.514-1.07 1.09 0 1.366.72 1.495 1.033l.98-.277zm4.82 5.65c1.44 0 2.493-.72 2.825-1.79l-1.052-.296c-.277.739-.905 1.108-1.773 1.108-1.283 0-2.091-.813-2.202-2.345h5.138v-.462c0-2.64-1.57-3.545-3.047-3.545-1.92 0-3.194 1.514-3.194 3.693 0 2.179 1.255 3.638 3.305 3.638zm-.11-6.351c1.181 0 1.938.886 1.938 2.086h-4.007c.175-1.33.979-2.087 2.068-2.087zm8.644-.74a1.96 1.96 0 0 0-.942-.258c-.831 0-1.607.647-1.81 1.33h-.074v-1.219h-1.09V35h1.09v-4.007c.019-.96.683-2.068 1.847-2.068.314 0 .498.092.61.147l.368-1.015z" fill="#000"/><path d="M100 10h90v40h-90z"/><path fill="#CEEDE2" d="M100 10h90v40h-90z"/><path stroke="#000" stroke-opacity=".2" d="M100.5 10.5h89v39h-89z"/><path d="M124.46 32.193c0 1.33-1.016 1.847-1.829 1.847-.904 0-1.551-.591-1.551-1.625v-4.506h-1.089v4.506c0 1.865 1.255 2.677 2.29 2.677 1.071 0 1.754-.554 2.105-1.09h.074V35h1.089v-7.09h-1.089v4.283zm4.174-1.385c0-1.33 1.016-1.939 1.828-1.939.905 0 1.551.665 1.551 1.7V35h1.09v-4.506c0-1.81-.96-2.677-2.29-2.677-1.071 0-1.773.572-2.105 1.292h-.074v-1.2h-1.089V35h1.089v-4.192zm7-3.915c.48 0 .775-.332.775-.738a.749.749 0 0 0-.775-.739.75.75 0 0 0-.776.739c0 .406.296.738.776.738zm.554 1.016h-1.09V35h1.09v-7.09zm7.793 0H142.8l-1.958 5.65h-.074l-1.957-5.65h-1.182L140.251 35h1.108l2.622-7.09zm4.17 7.239c1.441 0 2.493-.72 2.826-1.792l-1.053-.295c-.277.739-.905 1.108-1.773 1.108-1.283 0-2.091-.813-2.202-2.345h5.138v-.462c0-2.64-1.569-3.545-3.046-3.545-1.921 0-3.195 1.514-3.195 3.693 0 2.179 1.256 3.638 3.305 3.638zm-.11-6.353c1.181 0 1.938.887 1.938 2.087h-4.007c.176-1.33.979-2.087 2.069-2.087zm8.644-.738a1.963 1.963 0 0 0-.942-.259c-.831 0-1.606.647-1.81 1.33h-.073v-1.219h-1.09V35h1.09v-4.007c.018-.96.683-2.068 1.846-2.068.314 0 .499.092.61.147l.369-1.015zm5.879 1.44c-.369-1.034-1.163-1.68-2.474-1.68-1.496 0-2.604.85-2.604 2.05 0 .867.572 1.643 1.865 1.975l1.182.296c.701.166 1.015.48 1.015.942 0 .59-.591 1.126-1.606 1.126-1.053 0-1.551-.573-1.81-1.219l-.997.37c.351.886 1.126 1.79 2.825 1.79 1.755 0 2.696-1.015 2.696-2.104 0-.813-.535-1.552-1.828-1.865l-1.052-.259c-.813-.203-1.201-.628-1.201-1.108 0-.61.647-1.07 1.515-1.07 1.089 0 1.366.72 1.495 1.033l.979-.277zm4.821 5.65c1.44 0 2.493-.72 2.825-1.79l-1.053-.296c-.277.739-.904 1.108-1.772 1.108-1.284 0-2.092-.813-2.202-2.345h5.138v-.462c0-2.64-1.57-3.545-3.047-3.545-1.921 0-3.195 1.514-3.195 3.693 0 2.179 1.256 3.638 3.306 3.638zm-.111-6.351c1.182 0 1.939.886 1.939 2.086h-4.007c.175-1.33.978-2.087 2.068-2.087z" fill="#000"/><path d="M710 10h90v40h-90z"/><path fill="#CEEDE2" d="M710 10h90v40h-90z"/><path stroke="#000" stroke-opacity=".2" d="M710.5 10.5h89v39h-89z"/><path d="M733.979 27.91h-1.514v-1.515h-1.089v1.514h-1.071v1.016h1.071v4.34c0 1.236.997 1.827 1.92 1.827.406 0 .665-.073.813-.129l-.222-.979c-.092.019-.24.056-.48.056-.48 0-.942-.148-.942-1.071v-4.044h1.514v-1.016zm3.477 7.792c-.407 1.052-.905 1.145-1.681.96l-.277.96c.111.056.425.13.794.13.979 0 1.681-.518 2.087-1.607l3.047-8.236h-1.182l-1.957 5.65h-.079l-1.953-5.65h-1.181l2.631 7.137-.249.656zm5.408 1.957h1.089v-3.748h.093c.24.387.701 1.237 2.068 1.237 1.773 0 3.01-1.422 3.01-3.675 0-2.234-1.237-3.656-3.029-3.656-1.385 0-1.809.85-2.049 1.218h-.13V27.91h-1.052v9.75zm5.17-6.204c0 1.514-.701 2.714-2.068 2.714-1.311 0-2.031-1.108-2.031-2.714 0-1.588.702-2.66 2.031-2.66 1.385 0 2.068 1.164 2.068 2.66zm5.725 3.693c1.44 0 2.493-.72 2.825-1.792l-1.053-.295c-.277.739-.904 1.108-1.772 1.108-1.284 0-2.092-.813-2.202-2.345h5.138v-.462c0-2.64-1.57-3.545-3.047-3.545-1.921 0-3.195 1.514-3.195 3.693 0 2.179 1.256 3.638 3.306 3.638zm-.111-6.353c1.182 0 1.939.887 1.939 2.087h-4.007c.175-1.33.978-2.087 2.068-2.087zm13.279.702c-.369-1.034-1.163-1.68-2.474-1.68-1.496 0-2.604.85-2.604 2.05 0 .867.573 1.643 1.865 1.975l1.182.296c.702.166 1.016.48 1.016.942 0 .59-.591 1.126-1.607 1.126-1.052 0-1.551-.573-1.81-1.219l-.997.37c.351.886 1.127 1.79 2.826 1.79 1.754 0 2.696-1.015 2.696-2.104 0-.813-.536-1.552-1.829-1.865l-1.052-.259c-.813-.203-1.2-.628-1.2-1.108 0-.61.646-1.07 1.514-1.07 1.089 0 1.366.72 1.496 1.033l.978-.277zm4.821 5.65c1.44 0 2.493-.72 2.825-1.79l-1.052-.296c-.277.739-.905 1.108-1.773 1.108-1.283 0-2.091-.813-2.202-2.345h5.138v-.462c0-2.64-1.57-3.545-3.047-3.545-1.92 0-3.194 1.514-3.194 3.693 0 2.179 1.255 3.638 3.305 3.638zm-.111-6.351c1.182 0 1.939.886 1.939 2.086h-4.007c.175-1.33.979-2.087 2.068-2.087zm7.703-.887h-1.514v-1.514h-1.09v1.514h-1.071v1.016h1.071v4.34c0 1.236.997 1.827 1.921 1.827.406 0 .664-.073.812-.129l-.222-.979c-.092.019-.24.056-.48.056-.48 0-.941-.148-.941-1.071v-4.044h1.514v-1.016z" fill="#000"/><path d="M600 10h90v40h-90z"/><path fill="#CEEDE2" d="M600 10h90v40h-90z"/><path stroke="#000" stroke-opacity=".2" d="M600.5 10.5h89v39h-89z"/><path d="M622.098 29.497c-.37-1.034-1.164-1.68-2.475-1.68-1.496 0-2.603.85-2.603 2.05 0 .867.572 1.643 1.865 1.975l1.181.296c.702.166 1.016.48 1.016.942 0 .59-.591 1.126-1.607 1.126-1.052 0-1.551-.573-1.809-1.219l-.997.37c.351.886 1.126 1.79 2.825 1.79 1.754 0 2.696-1.015 2.696-2.104 0-.813-.536-1.552-1.828-1.865l-1.053-.259c-.812-.203-1.2-.628-1.2-1.108 0-.61.646-1.07 1.514-1.07 1.09 0 1.367.72 1.496 1.033l.979-.277zm4.757-1.588h-1.514v-1.514h-1.09v1.514h-1.071v1.016h1.071v4.34c0 1.236.997 1.827 1.921 1.827.406 0 .664-.073.812-.129l-.221-.979c-.093.019-.24.056-.481.056-.48 0-.941-.148-.941-1.071v-4.044h1.514v-1.016zm5.563.148a1.963 1.963 0 0 0-.942-.259c-.831 0-1.607.647-1.81 1.33h-.073v-1.219h-1.09V35h1.09v-4.007c.018-.96.683-2.068 1.846-2.068.314 0 .499.092.609.147l.37-1.015zm1.775-1.163c.48 0 .775-.333.775-.74a.749.749 0 0 0-.775-.738.75.75 0 0 0-.776.739c0 .406.296.738.776.738zm.554 1.015h-1.09V35h1.09v-7.09zm3.085 2.9c0-1.33 1.015-1.94 1.828-1.94.905 0 1.551.665 1.551 1.7V35h1.09v-4.506c0-1.81-.961-2.677-2.29-2.677-1.071 0-1.773.572-2.105 1.292h-.074v-1.2h-1.09V35h1.09v-4.192zm11.301-2.9v1.127h-.111c-.24-.37-.683-1.22-2.068-1.22-1.791 0-3.028 1.423-3.028 3.602 0 2.215 1.292 3.471 3.009 3.471 1.385 0 1.829-.812 2.069-1.2h.092v1.256c.018 1.181-.923 1.735-2.013 1.735-1.219 0-1.717-.701-1.994-1.052l-.868.61c.443.756 1.348 1.421 2.862 1.421 1.644 0 3.102-.776 3.102-2.604V27.91h-1.052zm-4.118 3.49c0-1.44.683-2.604 2.068-2.604 1.33 0 2.031 1.071 2.031 2.604 0 1.57-.72 2.511-2.031 2.511-1.366 0-2.068-1.034-2.068-2.51zm15.714-1.902c-.369-1.034-1.163-1.68-2.474-1.68-1.496 0-2.604.85-2.604 2.05 0 .867.573 1.643 1.865 1.975l1.182.296c.702.166 1.016.48 1.016.942 0 .59-.591 1.126-1.607 1.126-1.052 0-1.551-.573-1.809-1.219l-.997.37c.35.886 1.126 1.79 2.825 1.79 1.754 0 2.696-1.015 2.696-2.104 0-.813-.536-1.552-1.828-1.865l-1.053-.259c-.812-.203-1.2-.628-1.2-1.108 0-.61.646-1.07 1.514-1.07 1.09 0 1.367.72 1.496 1.033l.978-.277zm4.821 5.65c1.441 0 2.493-.72 2.826-1.79l-1.053-.296c-.277.739-.905 1.108-1.773 1.108-1.283 0-2.091-.813-2.202-2.345h5.138v-.462c0-2.64-1.569-3.545-3.047-3.545-1.92 0-3.194 1.514-3.194 3.693 0 2.179 1.256 3.638 3.305 3.638zm-.111-6.351c1.182 0 1.939.886 1.939 2.086h-4.007c.176-1.33.979-2.087 2.068-2.087zm7.703-.887h-1.514v-1.514h-1.09v1.514h-1.071v1.016h1.071v4.34c0 1.236.998 1.827 1.921 1.827.406 0 .665-.073.812-.129l-.221-.979c-.093.019-.24.056-.48.056-.481 0-.942-.148-.942-1.071v-4.044h1.514v-1.016z" fill="#000"/></svg>